<?xml version="1.0" encoding="utf-8" standalone="no"?>
<!DOCTYPE svg PUBLIC "-//W3C//DTD SVG 1.1//EN"
  "http://www.w3.org/Graphics/SVG/1.1/DTD/svg11.dtd">
<svg xmlns:xlink="http://www.w3.org/1999/xlink" width="864pt" height="360pt" viewBox="0 0 864 360" xmlns="http://www.w3.org/2000/svg" version="1.1">
 <metadata>
  <rdf:RDF xmlns:dc="http://purl.org/dc/elements/1.1/" xmlns:cc="http://creativecommons.org/ns#" xmlns:rdf="http://www.w3.org/1999/02/22-rdf-syntax-ns#">
   <cc:Work>
    <dc:type rdf:resource="http://purl.org/dc/dcmitype/StillImage"/>
    <dc:date>2022-05-26T15:03:04.842513</dc:date>
    <dc:format>image/svg+xml</dc:format>
    <dc:creator>
     <cc:Agent>
      <dc:title>Matplotlib v3.5.2, https://matplotlib.org/</dc:title>
     </cc:Agent>
    </dc:creator>
   </cc:Work>
  </rdf:RDF>
 </metadata>
 <defs>
  <style type="text/css">*{stroke-linejoin: round; stroke-linecap: butt}</style>
 </defs>
 <g id="figure_1">
  <g id="patch_1">
   <path d="M 0 360 
L 864 360 
L 864 0 
L 0 0 
L 0 360 
z
" style="fill: none"/>
  </g>
  <g id="axes_1">
   <g id="patch_2">
    <path d="M 59.24 270.294734 
L 425.271543 270.294734 
L 425.271543 34.8 
L 59.24 34.8 
L 59.24 270.294734 
z
" style="fill: none"/>
   </g>
   <g id="patch_3">
    <path d="M 75.877797 270.294734 
L 103.041548 270.294734 
L 103.041548 188.738116 
L 75.877797 188.738116 
z
" clip-path="url(#p9c75e7c98c)" style="fill: #8dd3c7"/>
   </g>
   <g id="patch_4">
    <path d="M 109.832486 270.294734 
L 136.996237 270.294734 
L 136.996237 195.534501 
L 109.832486 195.534501 
z
" clip-path="url(#p9c75e7c98c)" style="fill: #8dd3c7"/>
   </g>
   <g id="patch_5">
    <path d="M 143.787175 270.294734 
L 170.950925 270.294734 
L 170.950925 202.330886 
L 143.787175 202.330886 
z
" clip-path="url(#p9c75e7c98c)" style="fill: #8dd3c7"/>
   </g>
   <g id="patch_6">
    <path d="M 177.741863 270.294734 
L 204.905614 270.294734 
L 204.905614 202.330886 
L 177.741863 202.330886 
z
" clip-path="url(#p9c75e7c98c)" style="fill: #8dd3c7"/>
   </g>
   <g id="patch_7">
    <path d="M 211.696552 270.294734 
L 238.860303 270.294734 
L 238.860303 209.127271 
L 211.696552 209.127271 
z
" clip-path="url(#p9c75e7c98c)" style="fill: #8dd3c7"/>
   </g>
   <g id="patch_8">
    <path d="M 245.65124 270.294734 
L 272.814991 270.294734 
L 272.814991 222.72004 
L 245.65124 222.72004 
z
" clip-path="url(#p9c75e7c98c)" style="fill: #8dd3c7"/>
   </g>
   <g id="patch_9">
    <path d="M 279.605929 270.294734 
L 306.76968 270.294734 
L 306.76968 229.516425 
L 279.605929 229.516425 
z
" clip-path="url(#p9c75e7c98c)" style="fill: #8dd3c7"/>
   </g>
   <g id="patch_10">
    <path d="M 313.560618 270.294734 
L 340.724368 270.294734 
L 340.724368 243.109195 
L 313.560618 243.109195 
z
" clip-path="url(#p9c75e7c98c)" style="fill: #8dd3c7"/>
   </g>
   <g id="patch_11">
    <path d="M 347.515306 270.294734 
L 374.679057 270.294734 
L 374.679057 243.109195 
L 347.515306 243.109195 
z
" clip-path="url(#p9c75e7c98c)" style="fill: #8dd3c7"/>
   </g>
   <g id="patch_12">
    <path d="M 381.469995 270.294734 
L 408.633746 270.294734 
L 408.633746 243.109195 
L 381.469995 243.109195 
z
" clip-path="url(#p9c75e7c98c)" style="fill: #8dd3c7"/>
   </g>
   <g id="matplotlib.axis_1">
    <g id="xtick_1">
     <g id="line2d_1">
      <defs>
       <path id="m5d36e71357" d="M 0 0 
L 0 3.5 
" style="stroke: #ffffff; stroke-width: 0.8"/>
      </defs>
      <g>
       <use xlink:href="#m5d36e71357" x="89.459673" y="270.294734" style="fill: #ffffff; stroke: #ffffff; stroke-width: 0.8"/>
      </g>
     </g>
     <g id="text_1">
      <!-- Mathematica -->
      <g style="fill: #ffffff" transform="translate(30.814446 341.492959)rotate(-45)scale(0.14 -0.14)">
       <defs>
        <path id="Futura-Book-4d" d="M 134 0 
L 685 0 
L 1306 3264 
L 1318 3264 
L 2867 -198 
L 4422 3264 
L 4435 3264 
L 5056 0 
L 5606 0 
L 4627 5101 
L 2867 1050 
L 1114 5101 
L 134 0 
z
" transform="scale(0.015625)"/>
        <path id="Futura-Book-61" d="M 1734 2618 
C 2368 2618 2746 2131 2746 1530 
C 2746 922 2400 390 1741 390 
C 1101 390 755 947 755 1536 
C 755 2099 1139 2618 1734 2618 
z
M 3232 3008 
L 2720 3008 
L 2720 2579 
L 2707 2579 
C 2458 2899 2086 3091 1677 3091 
C 774 3091 230 2355 230 1498 
C 230 666 787 -83 1670 -83 
C 2093 -83 2445 83 2707 416 
L 2720 416 
L 2720 0 
L 3232 0 
L 3232 3008 
z
" transform="scale(0.015625)"/>
        <path id="Futura-Book-74" d="M 1024 2534 
L 1562 2534 
L 1562 3008 
L 1024 3008 
L 1024 4090 
L 512 4090 
L 512 3008 
L 198 3008 
L 198 2534 
L 512 2534 
L 512 0 
L 1024 0 
L 1024 2534 
z
" transform="scale(0.015625)"/>
        <path id="Futura-Book-68" d="M 486 5280 
L 486 0 
L 998 0 
L 998 1427 
C 998 1965 1043 2618 1747 2618 
C 2342 2618 2381 2182 2381 1696 
L 2381 0 
L 2893 0 
L 2893 1786 
C 2893 2490 2701 3091 1869 3091 
C 1498 3091 1222 2931 1011 2643 
L 998 2656 
L 998 5280 
L 486 5280 
z
" transform="scale(0.015625)"/>
        <path id="Futura-Book-65" d="M 3104 1395 
C 3155 2291 2643 3091 1677 3091 
C 736 3091 218 2355 218 1466 
C 218 602 794 -83 1690 -83 
C 2304 -83 2790 224 3078 762 
L 2643 1011 
C 2445 653 2163 390 1728 390 
C 1146 390 749 838 742 1395 
L 3104 1395 
z
M 768 1830 
C 832 2266 1242 2618 1683 2618 
C 2131 2618 2496 2266 2566 1830 
L 768 1830 
z
" transform="scale(0.015625)"/>
        <path id="Futura-Book-6d" d="M 998 3008 
L 486 3008 
L 486 0 
L 998 0 
L 998 1555 
C 998 2010 1062 2618 1664 2618 
C 2157 2618 2202 2080 2202 1709 
L 2202 0 
L 2714 0 
L 2714 1594 
C 2714 2048 2778 2618 3366 2618 
C 3891 2618 3917 2138 3917 1747 
L 3917 0 
L 4429 0 
L 4429 1830 
C 4429 2464 4237 3091 3469 3091 
C 3104 3091 2746 2925 2566 2592 
C 2406 2906 2086 3091 1734 3091 
C 1427 3091 1171 2931 1011 2682 
L 998 2682 
L 998 3008 
z
" transform="scale(0.015625)"/>
        <path id="Futura-Book-69" d="M 1094 3008 
L 582 3008 
L 582 0 
L 1094 0 
L 1094 3008 
z
M 838 4506 
C 640 4506 474 4339 474 4141 
C 474 3936 640 3776 838 3776 
C 1037 3776 1203 3936 1203 4141 
C 1203 4339 1037 4506 838 4506 
z
" transform="scale(0.015625)"/>
        <path id="Futura-Book-63" d="M 2720 2790 
C 2451 2982 2118 3091 1792 3091 
C 909 3091 186 2400 186 1504 
C 186 595 877 -83 1786 -83 
C 2144 -83 2445 26 2739 224 
L 2739 909 
L 2726 909 
C 2477 582 2176 390 1747 390 
C 1120 390 710 909 710 1504 
C 710 2106 1152 2618 1773 2618 
C 2176 2618 2470 2413 2707 2112 
L 2720 2112 
L 2720 2790 
z
" transform="scale(0.015625)"/>
       </defs>
       <use xlink:href="#Futura-Book-4d"/>
       <use xlink:href="#Futura-Book-61" x="89.599991"/>
       <use xlink:href="#Futura-Book-74" x="147.299988"/>
       <use xlink:href="#Futura-Book-68" x="171.299973"/>
       <use xlink:href="#Futura-Book-65" x="224.09996"/>
       <use xlink:href="#Futura-Book-6d" x="275.999954"/>
       <use xlink:href="#Futura-Book-61" x="352.799942"/>
       <use xlink:href="#Futura-Book-74" x="410.499939"/>
       <use xlink:href="#Futura-Book-69" x="434.499924"/>
       <use xlink:href="#Futura-Book-63" x="460.699921"/>
       <use xlink:href="#Futura-Book-61" x="508.299911"/>
      </g>
     </g>
    </g>
    <g id="xtick_2">
     <g id="line2d_2">
      <g>
       <use xlink:href="#m5d36e71357" x="123.414361" y="270.294734" style="fill: #ffffff; stroke: #ffffff; stroke-width: 0.8"/>
      </g>
     </g>
     <g id="text_2">
      <!-- gvar -->
      <g style="fill: #ffffff" transform="translate(101.446763 304.81533)rotate(-45)scale(0.14 -0.14)">
       <defs>
        <path id="Futura-Book-67" d="M 1702 2618 
C 2336 2618 2714 2131 2714 1530 
C 2714 922 2368 390 1709 390 
C 1069 390 723 947 723 1536 
C 723 2099 1107 2618 1702 2618 
z
M 3200 3008 
L 2688 3008 
L 2688 2579 
L 2675 2579 
C 2432 2906 2067 3091 1651 3091 
C 762 3091 198 2336 198 1491 
C 198 653 755 -83 1632 -83 
C 2035 -83 2432 102 2675 416 
L 2688 416 
L 2688 58 
C 2688 -621 2515 -1203 1722 -1203 
C 1171 -1203 768 -851 762 -294 
L 250 -294 
C 269 -1146 890 -1677 1728 -1677 
C 2176 -1677 2611 -1504 2893 -1146 
C 3200 -749 3200 -333 3200 147 
L 3200 3008 
z
" transform="scale(0.015625)"/>
        <path id="Futura-Book-76" d="M 589 3008 
L 6 3008 
L 1485 -198 
L 2957 3008 
L 2381 3008 
L 1485 986 
L 589 3008 
z
" transform="scale(0.015625)"/>
        <path id="Futura-Book-72" d="M 973 3008 
L 461 3008 
L 461 0 
L 973 0 
L 973 1504 
C 973 1894 998 2618 1562 2618 
C 1696 2618 1766 2554 1869 2483 
L 2112 2950 
C 1965 3034 1824 3091 1651 3091 
C 1318 3091 1165 2918 986 2682 
L 973 2682 
L 973 3008 
z
" transform="scale(0.015625)"/>
       </defs>
       <use xlink:href="#Futura-Book-67"/>
       <use xlink:href="#Futura-Book-76" x="57.999985"/>
       <use xlink:href="#Futura-Book-61" x="104.299973"/>
       <use xlink:href="#Futura-Book-72" x="161.999969"/>
      </g>
     </g>
    </g>
    <g id="xtick_3">
     <g id="line2d_3">
      <g>
       <use xlink:href="#m5d36e71357" x="157.36905" y="270.294734" style="fill: #ffffff; stroke: #ffffff; stroke-width: 0.8"/>
      </g>
     </g>
     <g id="text_3">
      <!-- Numpy -->
      <g style="fill: #ffffff" transform="translate(123.184857 317.031925)rotate(-45)scale(0.14 -0.14)">
       <defs>
        <path id="Futura-Book-4e" d="M 518 0 
L 1056 0 
L 1056 3718 
L 4819 -218 
L 4819 4826 
L 4282 4826 
L 4282 1088 
L 518 5030 
L 518 0 
z
" transform="scale(0.015625)"/>
        <path id="Futura-Book-75" d="M 960 3008 
L 448 3008 
L 448 1274 
C 448 474 749 -83 1638 -83 
C 2528 -83 2829 474 2829 1274 
L 2829 3008 
L 2317 3008 
L 2317 1331 
C 2317 826 2259 390 1638 390 
C 1018 390 960 826 960 1331 
L 960 3008 
z
" transform="scale(0.015625)"/>
        <path id="Futura-Book-70" d="M 1926 2618 
C 2560 2618 2938 2131 2938 1530 
C 2938 922 2592 390 1933 390 
C 1293 390 947 947 947 1536 
C 947 2099 1331 2618 1926 2618 
z
M 973 3008 
L 461 3008 
L 461 -1690 
L 973 -1690 
L 973 422 
L 986 422 
C 1229 96 1606 -83 2016 -83 
C 2918 -83 3462 640 3462 1498 
C 3462 2330 2906 3091 2022 3091 
C 1606 3091 1235 2912 986 2579 
L 973 2579 
L 973 3008 
z
" transform="scale(0.015625)"/>
        <path id="Futura-Book-79" d="M 1370 282 
L 397 -1690 
L 979 -1690 
L 3200 3008 
L 2618 3008 
L 1645 851 
L 582 3008 
L -13 3008 
L 1370 282 
z
" transform="scale(0.015625)"/>
       </defs>
       <use xlink:href="#Futura-Book-4e"/>
       <use xlink:href="#Futura-Book-75" x="83.399994"/>
       <use xlink:href="#Futura-Book-6d" x="134.599991"/>
       <use xlink:href="#Futura-Book-70" x="211.399979"/>
       <use xlink:href="#Futura-Book-79" x="269.099976"/>
      </g>
     </g>
    </g>
    <g id="xtick_4">
     <g id="line2d_4">
      <g>
       <use xlink:href="#m5d36e71357" x="191.323739" y="270.294734" style="fill: #ffffff; stroke: #ffffff; stroke-width: 0.8"/>
      </g>
     </g>
     <g id="text_4">
      <!-- Matplotlib -->
      <g style="fill: #ffffff" transform="translate(145.298821 328.872649)rotate(-45)scale(0.14 -0.14)">
       <defs>
        <path id="Futura-Book-6c" d="M 986 5280 
L 474 5280 
L 474 0 
L 986 0 
L 986 5280 
z
" transform="scale(0.015625)"/>
        <path id="Futura-Book-6f" d="M 1798 -83 
C 2675 -83 3379 614 3379 1498 
C 3379 2381 2682 3091 1798 3091 
C 915 3091 218 2381 218 1498 
C 218 614 922 -83 1798 -83 
z
M 1798 2618 
C 2432 2618 2867 2112 2867 1504 
C 2867 890 2432 390 1798 390 
C 1165 390 730 890 730 1504 
C 730 2112 1165 2618 1798 2618 
z
" transform="scale(0.015625)"/>
        <path id="Futura-Book-62" d="M 1926 2618 
C 2560 2618 2938 2131 2938 1530 
C 2938 922 2592 390 1933 390 
C 1293 390 947 947 947 1536 
C 947 2099 1331 2618 1926 2618 
z
M 461 0 
L 973 0 
L 973 416 
L 986 416 
C 1229 90 1606 -83 2022 -83 
C 2906 -83 3462 666 3462 1504 
C 3462 2355 2912 3091 2016 3091 
C 1606 3091 1229 2899 986 2579 
L 973 2579 
L 973 5280 
L 461 5280 
L 461 0 
z
" transform="scale(0.015625)"/>
       </defs>
       <use xlink:href="#Futura-Book-4d"/>
       <use xlink:href="#Futura-Book-61" x="89.599991"/>
       <use xlink:href="#Futura-Book-74" x="147.299988"/>
       <use xlink:href="#Futura-Book-70" x="171.299973"/>
       <use xlink:href="#Futura-Book-6c" x="228.999969"/>
       <use xlink:href="#Futura-Book-6f" x="251.699966"/>
       <use xlink:href="#Futura-Book-74" x="307.899963"/>
       <use xlink:href="#Futura-Book-6c" x="331.899948"/>
       <use xlink:href="#Futura-Book-69" x="354.599945"/>
       <use xlink:href="#Futura-Book-62" x="380.799942"/>
      </g>
     </g>
    </g>
    <g id="xtick_5">
     <g id="line2d_5">
      <g>
       <use xlink:href="#m5d36e71357" x="225.278427" y="270.294734" style="fill: #ffffff; stroke: #ffffff; stroke-width: 0.8"/>
      </g>
     </g>
     <g id="text_5">
      <!-- lsqfit -->
      <g style="fill: #ffffff" transform="translate(203.071076 305.183467)rotate(-45)scale(0.14 -0.14)">
       <defs>
        <path id="Futura-Book-73" d="M 2131 2534 
C 1997 2848 1677 3091 1331 3091 
C 845 3091 435 2746 435 2240 
C 435 1293 1792 1523 1792 851 
C 1792 576 1581 390 1306 390 
C 966 390 819 589 691 870 
L 237 678 
C 397 205 794 -83 1299 -83 
C 1856 -83 2317 326 2317 896 
C 2317 1402 1971 1613 1619 1760 
C 1267 1907 922 2010 922 2285 
C 922 2477 1114 2618 1293 2618 
C 1478 2618 1632 2470 1702 2310 
L 2131 2534 
z
" transform="scale(0.015625)"/>
        <path id="Futura-Book-71" d="M 1734 2618 
C 2368 2618 2746 2131 2746 1530 
C 2746 922 2400 390 1741 390 
C 1101 390 755 947 755 1536 
C 755 2099 1139 2618 1734 2618 
z
M 3232 3008 
L 2720 3008 
L 2720 2579 
L 2707 2579 
C 2458 2912 2080 3091 1670 3091 
C 781 3091 230 2330 230 1491 
C 230 640 774 -83 1677 -83 
C 2080 -83 2464 96 2707 422 
L 2720 422 
L 2720 -1690 
L 3232 -1690 
L 3232 3008 
z
" transform="scale(0.015625)"/>
        <path id="Futura-Book-66" d="M 1043 2534 
L 1805 2534 
L 1805 3008 
L 1043 3008 
L 1043 4026 
C 1043 4557 1043 4851 1459 4851 
C 1587 4851 1690 4819 1805 4781 
L 1805 5299 
C 1683 5338 1562 5363 1440 5363 
C 1133 5363 832 5254 666 4986 
C 531 4768 531 4454 531 4205 
L 531 3008 
L 250 3008 
L 250 2534 
L 531 2534 
L 531 0 
L 1043 0 
L 1043 2534 
z
" transform="scale(0.015625)"/>
       </defs>
       <use xlink:href="#Futura-Book-6c"/>
       <use xlink:href="#Futura-Book-73" x="22.699997"/>
       <use xlink:href="#Futura-Book-71" x="62.599991"/>
       <use xlink:href="#Futura-Book-66" x="120.299988"/>
       <use xlink:href="#Futura-Book-69" x="147.699982"/>
       <use xlink:href="#Futura-Book-74" x="173.899979"/>
      </g>
     </g>
    </g>
    <g id="xtick_6">
     <g id="line2d_6">
      <g>
       <use xlink:href="#m5d36e71357" x="259.233116" y="270.294734" style="fill: #ffffff; stroke: #ffffff; stroke-width: 0.8"/>
      </g>
     </g>
     <g id="text_6">
      <!-- Scipy -->
      <g style="fill: #ffffff" transform="translate(233.137119 308.943729)rotate(-45)scale(0.14 -0.14)">
       <defs>
        <path id="Futura-Book-53" d="M 3104 4160 
C 2848 4634 2394 4909 1856 4909 
C 1139 4909 506 4429 506 3680 
C 506 2989 992 2701 1555 2445 
L 1850 2317 
C 2298 2112 2739 1920 2739 1357 
C 2739 813 2266 416 1747 416 
C 1229 416 851 819 781 1312 
L 256 1165 
C 410 416 986 -83 1760 -83 
C 2598 -83 3277 563 3277 1408 
C 3277 2176 2746 2490 2118 2765 
L 1798 2906 
C 1472 3053 1043 3245 1043 3661 
C 1043 4102 1414 4410 1843 4410 
C 2253 4410 2483 4218 2675 3885 
L 3104 4160 
z
" transform="scale(0.015625)"/>
       </defs>
       <use xlink:href="#Futura-Book-53"/>
       <use xlink:href="#Futura-Book-63" x="55.899994"/>
       <use xlink:href="#Futura-Book-69" x="103.499985"/>
       <use xlink:href="#Futura-Book-70" x="129.699982"/>
       <use xlink:href="#Futura-Book-79" x="187.399979"/>
      </g>
     </g>
    </g>
    <g id="xtick_7">
     <g id="line2d_7">
      <g>
       <use xlink:href="#m5d36e71357" x="293.187804" y="270.294734" style="fill: #ffffff; stroke: #ffffff; stroke-width: 0.8"/>
      </g>
     </g>
     <g id="text_7">
      <!-- Python -->
      <g style="fill: #ffffff" transform="translate(262.271991 313.763545)rotate(-45)scale(0.14 -0.14)">
       <defs>
        <path id="Futura-Book-50" d="M 1024 2112 
L 1414 2112 
C 1818 2112 2234 2163 2560 2432 
C 2861 2682 3021 3078 3021 3469 
C 3021 3898 2835 4320 2477 4570 
C 2125 4813 1696 4826 1280 4826 
L 486 4826 
L 486 0 
L 1024 0 
L 1024 2112 
z
M 1024 4326 
L 1222 4326 
C 1850 4326 2483 4269 2483 3482 
C 2483 2790 1978 2611 1382 2611 
L 1024 2611 
L 1024 4326 
z
" transform="scale(0.015625)"/>
        <path id="Futura-Book-6e" d="M 998 3008 
L 486 3008 
L 486 0 
L 998 0 
L 998 1427 
C 998 1965 1043 2618 1747 2618 
C 2342 2618 2381 2182 2381 1696 
L 2381 0 
L 2893 0 
L 2893 1786 
C 2893 2490 2701 3091 1869 3091 
C 1498 3091 1222 2931 1011 2643 
L 998 2643 
L 998 3008 
z
" transform="scale(0.015625)"/>
       </defs>
       <use xlink:href="#Futura-Book-50"/>
       <use xlink:href="#Futura-Book-79" x="50.299988"/>
       <use xlink:href="#Futura-Book-74" x="100.099976"/>
       <use xlink:href="#Futura-Book-68" x="124.09996"/>
       <use xlink:href="#Futura-Book-6f" x="176.899948"/>
       <use xlink:href="#Futura-Book-6e" x="233.099945"/>
      </g>
     </g>
    </g>
    <g id="xtick_8">
     <g id="line2d_8">
      <g>
       <use xlink:href="#m5d36e71357" x="327.142493" y="270.294734" style="fill: #ffffff; stroke: #ffffff; stroke-width: 0.8"/>
      </g>
     </g>
     <g id="text_8">
      <!-- Qiskit -->
      <g style="fill: #ffffff" transform="translate(299.827621 310.162604)rotate(-45)scale(0.14 -0.14)">
       <defs>
        <path id="Futura-Book-51" d="M 3373 1946 
L 2669 1946 
L 3834 774 
C 3539 550 3117 416 2758 416 
C 1664 416 781 1325 781 2413 
C 781 3507 1651 4410 2758 4410 
C 3866 4410 4736 3514 4736 2413 
C 4736 1894 4563 1453 4205 1075 
L 3373 1946 
z
M 4614 -45 
L 5299 -45 
L 4576 691 
C 5030 1178 5274 1722 5274 2394 
C 5274 3776 4154 4909 2758 4909 
C 1382 4909 243 3789 243 2406 
C 243 1018 1382 -83 2758 -83 
C 3245 -83 3814 90 4211 390 
L 4614 -45 
z
" transform="scale(0.015625)"/>
        <path id="Futura-Book-6b" d="M 973 5280 
L 461 5280 
L 461 0 
L 973 0 
L 973 1235 
L 1107 1370 
L 2317 0 
L 2995 0 
L 1466 1728 
L 2752 3008 
L 2067 3008 
L 973 1894 
L 973 5280 
z
" transform="scale(0.015625)"/>
       </defs>
       <use xlink:href="#Futura-Book-51"/>
       <use xlink:href="#Futura-Book-69" x="86.199982"/>
       <use xlink:href="#Futura-Book-73" x="112.399979"/>
       <use xlink:href="#Futura-Book-6b" x="152.299973"/>
       <use xlink:href="#Futura-Book-69" x="199.299957"/>
       <use xlink:href="#Futura-Book-74" x="225.499954"/>
      </g>
     </g>
    </g>
    <g id="xtick_9">
     <g id="line2d_9">
      <g>
       <use xlink:href="#m5d36e71357" x="361.097182" y="270.294734" style="fill: #ffffff; stroke: #ffffff; stroke-width: 0.8"/>
      </g>
     </g>
     <g id="text_9">
      <!-- Seaborn -->
      <g style="fill: #ffffff" transform="translate(322.278787 321.666126)rotate(-45)scale(0.14 -0.14)">
       <use xlink:href="#Futura-Book-53"/>
       <use xlink:href="#Futura-Book-65" x="55.899994"/>
       <use xlink:href="#Futura-Book-61" x="107.799988"/>
       <use xlink:href="#Futura-Book-62" x="165.499985"/>
       <use xlink:href="#Futura-Book-6f" x="223.199982"/>
       <use xlink:href="#Futura-Book-72" x="279.399979"/>
       <use xlink:href="#Futura-Book-6e" x="312.899963"/>
      </g>
     </g>
    </g>
    <g id="xtick_10">
     <g id="line2d_10">
      <g>
       <use xlink:href="#m5d36e71357" x="395.05187" y="270.294734" style="fill: #ffffff; stroke: #ffffff; stroke-width: 0.8"/>
      </g>
     </g>
     <g id="text_10">
      <!-- R -->
      <g style="fill: #ffffff" transform="translate(387.071949 290.827653)rotate(-45)scale(0.14 -0.14)">
       <defs>
        <path id="Futura-Book-52" d="M 1024 4326 
L 1184 4326 
C 1830 4326 2413 4250 2413 3456 
C 2413 2707 1798 2592 1190 2592 
L 1024 2592 
L 1024 4326 
z
M 1024 2118 
L 1158 2118 
L 2618 0 
L 3277 0 
L 1741 2163 
C 2483 2227 2950 2752 2950 3494 
C 2950 4582 2099 4826 1184 4826 
L 486 4826 
L 486 0 
L 1024 0 
L 1024 2118 
z
" transform="scale(0.015625)"/>
       </defs>
       <use xlink:href="#Futura-Book-52"/>
      </g>
     </g>
    </g>
   </g>
   <g id="matplotlib.axis_2">
    <g id="ytick_1">
     <g id="line2d_11">
      <defs>
       <path id="mcd5378b0d8" d="M 0 0 
L -3.5 0 
" style="stroke: #ffffff; stroke-width: 0.8"/>
      </defs>
      <g>
       <use xlink:href="#mcd5378b0d8" x="59.24" y="270.294734" style="fill: #ffffff; stroke: #ffffff; stroke-width: 0.8"/>
      </g>
     </g>
     <g id="text_11">
      <!-- 0 -->
      <g style="fill: #ffffff" transform="translate(43.616875 276.069734)scale(0.14 -0.14)">
       <defs>
        <path id="Futura-Book-30" d="M 1971 4909 
C 749 4909 243 3398 243 2406 
C 243 1216 870 -83 1971 -83 
C 3072 -83 3699 1216 3699 2406 
C 3699 3398 3194 4909 1971 4909 
z
M 1971 4410 
C 2880 4410 3174 3066 3162 2381 
C 3149 1702 2861 416 1971 416 
C 1082 416 794 1702 781 2381 
C 768 3066 1062 4410 1971 4410 
z
" transform="scale(0.015625)"/>
       </defs>
       <use xlink:href="#Futura-Book-30"/>
      </g>
     </g>
    </g>
    <g id="ytick_2">
     <g id="line2d_12">
      <g>
       <use xlink:href="#mcd5378b0d8" x="59.24" y="236.31281" style="fill: #ffffff; stroke: #ffffff; stroke-width: 0.8"/>
      </g>
     </g>
     <g id="text_12">
      <!-- 5 -->
      <g style="fill: #ffffff" transform="translate(43.616875 242.08781)scale(0.14 -0.14)">
       <defs>
        <path id="Futura-Book-35" d="M 3347 4326 
L 3347 4826 
L 1427 4826 
L 730 2515 
C 1005 2694 1312 2822 1645 2822 
C 2317 2822 2848 2336 2848 1651 
C 2848 947 2342 416 1632 416 
C 1171 416 781 698 563 1088 
L 134 781 
C 454 237 979 -83 1613 -83 
C 2598 -83 3386 640 3386 1638 
C 3386 2573 2733 3322 1779 3322 
L 1491 3296 
L 1805 4326 
L 3347 4326 
z
" transform="scale(0.015625)"/>
       </defs>
       <use xlink:href="#Futura-Book-35"/>
      </g>
     </g>
    </g>
    <g id="ytick_3">
     <g id="line2d_13">
      <g>
       <use xlink:href="#mcd5378b0d8" x="59.24" y="202.330886" style="fill: #ffffff; stroke: #ffffff; stroke-width: 0.8"/>
      </g>
     </g>
     <g id="text_13">
      <!-- 10 -->
      <g style="fill: #ffffff" transform="translate(34.99375 208.105886)scale(0.14 -0.14)">
       <defs>
        <path id="Futura-Book-31" d="M 1811 4326 
L 1811 0 
L 2349 0 
L 2349 4826 
L 1293 4826 
L 1011 4326 
L 1811 4326 
z
" transform="scale(0.015625)"/>
       </defs>
       <use xlink:href="#Futura-Book-31"/>
       <use xlink:href="#Futura-Book-30" x="61.599991"/>
      </g>
     </g>
    </g>
    <g id="ytick_4">
     <g id="line2d_14">
      <g>
       <use xlink:href="#mcd5378b0d8" x="59.24" y="168.348962" style="fill: #ffffff; stroke: #ffffff; stroke-width: 0.8"/>
      </g>
     </g>
     <g id="text_14">
      <!-- 15 -->
      <g style="fill: #ffffff" transform="translate(34.99375 174.123962)scale(0.14 -0.14)">
       <use xlink:href="#Futura-Book-31"/>
       <use xlink:href="#Futura-Book-35" x="61.599991"/>
      </g>
     </g>
    </g>
    <g id="ytick_5">
     <g id="line2d_15">
      <g>
       <use xlink:href="#mcd5378b0d8" x="59.24" y="134.367038" style="fill: #ffffff; stroke: #ffffff; stroke-width: 0.8"/>
      </g>
     </g>
     <g id="text_15">
      <!-- 20 -->
      <g style="fill: #ffffff" transform="translate(34.99375 140.142038)scale(0.14 -0.14)">
       <defs>
        <path id="Futura-Book-32" d="M 1350 499 
L 3021 2464 
C 3270 2752 3386 3091 3386 3482 
C 3386 4320 2675 4909 1869 4909 
C 1018 4909 397 4262 378 3418 
L 915 3418 
C 928 3981 1306 4410 1888 4410 
C 2413 4410 2848 4013 2848 3475 
C 2848 3162 2714 2899 2522 2669 
L 262 0 
L 3386 0 
L 3386 499 
L 1350 499 
z
" transform="scale(0.015625)"/>
       </defs>
       <use xlink:href="#Futura-Book-32"/>
       <use xlink:href="#Futura-Book-30" x="61.599991"/>
      </g>
     </g>
    </g>
    <g id="ytick_6">
     <g id="line2d_16">
      <g>
       <use xlink:href="#mcd5378b0d8" x="59.24" y="100.385113" style="fill: #ffffff; stroke: #ffffff; stroke-width: 0.8"/>
      </g>
     </g>
     <g id="text_16">
      <!-- 25 -->
      <g style="fill: #ffffff" transform="translate(34.99375 106.160113)scale(0.14 -0.14)">
       <use xlink:href="#Futura-Book-32"/>
       <use xlink:href="#Futura-Book-35" x="61.599991"/>
      </g>
     </g>
    </g>
    <g id="ytick_7">
     <g id="line2d_17">
      <g>
       <use xlink:href="#mcd5378b0d8" x="59.24" y="66.403189" style="fill: #ffffff; stroke: #ffffff; stroke-width: 0.8"/>
      </g>
     </g>
     <g id="text_17">
      <!-- 30 -->
      <g style="fill: #ffffff" transform="translate(34.99375 72.178189)scale(0.14 -0.14)">
       <defs>
        <path id="Futura-Book-33" d="M 1734 2285 
C 2323 2304 2758 1997 2758 1382 
C 2758 851 2355 416 1818 416 
C 1331 416 915 762 890 1254 
L 365 1254 
C 378 448 1018 -83 1798 -83 
C 2624 -83 3296 506 3296 1350 
C 3296 1843 3072 2323 2605 2534 
C 2995 2733 3226 3162 3226 3590 
C 3226 4384 2630 4909 1856 4909 
C 1062 4909 595 4403 518 3635 
L 1050 3635 
C 1094 4090 1363 4410 1843 4410 
C 2349 4410 2688 4077 2688 3565 
C 2688 2957 2246 2803 1734 2784 
L 1734 2285 
z
" transform="scale(0.015625)"/>
       </defs>
       <use xlink:href="#Futura-Book-33"/>
       <use xlink:href="#Futura-Book-30" x="61.599991"/>
      </g>
     </g>
    </g>
    <g id="text_18">
     <!-- count -->
     <g style="fill: #ffffff" transform="translate(27.296875 168.773148)rotate(-90)scale(0.14 -0.14)">
      <use xlink:href="#Futura-Book-63"/>
      <use xlink:href="#Futura-Book-6f" x="47.599991"/>
      <use xlink:href="#Futura-Book-75" x="103.799988"/>
      <use xlink:href="#Futura-Book-6e" x="154.999985"/>
      <use xlink:href="#Futura-Book-74" x="207.799973"/>
     </g>
    </g>
   </g>
   <g id="patch_13">
    <path d="M 59.24 270.294734 
L 59.24 34.8 
" style="fill: none; stroke: #ffffff; stroke-width: 0.8; stroke-linejoin: miter; stroke-linecap: square"/>
   </g>
   <g id="patch_14">
    <path d="M 425.271543 270.294734 
L 425.271543 34.8 
" style="fill: none; stroke: #ffffff; stroke-width: 0.8; stroke-linejoin: miter; stroke-linecap: square"/>
   </g>
   <g id="patch_15">
    <path d="M 59.24 270.294734 
L 425.271543 270.294734 
" style="fill: none; stroke: #ffffff; stroke-width: 0.8; stroke-linejoin: miter; stroke-linecap: square"/>
   </g>
   <g id="patch_16">
    <path d="M 59.24 34.8 
L 425.271543 34.8 
" style="fill: none; stroke: #ffffff; stroke-width: 0.8; stroke-linejoin: miter; stroke-linecap: square"/>
   </g>
   <g id="text_19">
    <!-- Out of 81 -->
    <g style="fill: #ffffff" transform="translate(357.77935 51.284631)scale(0.14 -0.14)">
     <defs>
      <path id="Futura-Book-4f" d="M 2758 4909 
C 1382 4909 243 3789 243 2406 
C 243 1018 1382 -83 2758 -83 
C 4134 -83 5274 1018 5274 2406 
C 5274 3789 4134 4909 2758 4909 
z
M 2758 4410 
C 3866 4410 4736 3507 4736 2413 
C 4736 1325 3853 416 2758 416 
C 1664 416 781 1325 781 2413 
C 781 3507 1651 4410 2758 4410 
z
" transform="scale(0.015625)"/>
      <path id="Futura-Book-20" transform="scale(0.015625)"/>
      <path id="Futura-Book-38" d="M 1971 2272 
C 2496 2272 2906 1856 2906 1344 
C 2906 832 2496 416 1971 416 
C 1446 416 1037 832 1037 1344 
C 1037 1856 1446 2272 1971 2272 
z
M 1971 4909 
C 1216 4909 621 4339 621 3565 
C 621 3142 838 2720 1210 2509 
C 755 2304 499 1843 499 1350 
C 499 518 1139 -83 1971 -83 
C 2803 -83 3443 518 3443 1350 
C 3443 1843 3187 2304 2733 2509 
C 3104 2720 3322 3142 3322 3565 
C 3322 4339 2726 4909 1971 4909 
z
M 1971 4410 
C 2432 4410 2810 4038 2810 3578 
C 2810 3110 2432 2733 1971 2733 
C 1510 2733 1133 3110 1133 3578 
C 1133 4038 1510 4410 1971 4410 
z
" transform="scale(0.015625)"/>
     </defs>
     <use xlink:href="#Futura-Book-4f"/>
     <use xlink:href="#Futura-Book-75" x="86.199982"/>
     <use xlink:href="#Futura-Book-74" x="137.399979"/>
     <use xlink:href="#Futura-Book-20" x="161.399963"/>
     <use xlink:href="#Futura-Book-6f" x="192.199951"/>
     <use xlink:href="#Futura-Book-66" x="248.399948"/>
     <use xlink:href="#Futura-Book-20" x="275.799942"/>
     <use xlink:href="#Futura-Book-38" x="306.59993"/>
     <use xlink:href="#Futura-Book-31" x="368.199921"/>
    </g>
   </g>
   <g id="text_20">
    <!-- hep-lat -->
    <g style="fill: #ffffff" transform="translate(218.096584 28.8)scale(0.168 -0.168)">
     <defs>
      <path id="Futura-Book-2d" d="M 13 1779 
L 13 1306 
L 1325 1306 
L 1325 1779 
L 13 1779 
z
" transform="scale(0.015625)"/>
     </defs>
     <use xlink:href="#Futura-Book-68"/>
     <use xlink:href="#Futura-Book-65" x="52.799988"/>
     <use xlink:href="#Futura-Book-70" x="104.699982"/>
     <use xlink:href="#Futura-Book-2d" x="162.399979"/>
     <use xlink:href="#Futura-Book-6c" x="183.199966"/>
     <use xlink:href="#Futura-Book-61" x="205.899963"/>
     <use xlink:href="#Futura-Book-74" x="263.59996"/>
    </g>
   </g>
  </g>
  <g id="axes_2">
   <g id="patch_17">
    <path d="M 482.848457 270.294734 
L 848.88 270.294734 
L 848.88 34.8 
L 482.848457 34.8 
L 482.848457 270.294734 
z
" style="fill: none"/>
   </g>
   <g id="patch_18">
    <path d="M 499.486254 270.294734 
L 526.650005 270.294734 
L 526.650005 46.014035 
L 499.486254 46.014035 
z
" clip-path="url(#pd2def698a9)" style="fill: #8dd3c7"/>
   </g>
   <g id="patch_19">
    <path d="M 533.440943 270.294734 
L 560.604694 270.294734 
L 560.604694 175.145346 
L 533.440943 175.145346 
z
" clip-path="url(#pd2def698a9)" style="fill: #8dd3c7"/>
   </g>
   <g id="patch_20">
    <path d="M 567.395632 270.294734 
L 594.559382 270.294734 
L 594.559382 222.72004 
L 567.395632 222.72004 
z
" clip-path="url(#pd2def698a9)" style="fill: #8dd3c7"/>
   </g>
   <g id="patch_21">
    <path d="M 601.35032 270.294734 
L 628.514071 270.294734 
L 628.514071 243.109195 
L 601.35032 243.109195 
z
" clip-path="url(#pd2def698a9)" style="fill: #8dd3c7"/>
   </g>
   <g id="patch_22">
    <path d="M 635.305009 270.294734 
L 662.46876 270.294734 
L 662.46876 249.905579 
L 635.305009 249.905579 
z
" clip-path="url(#pd2def698a9)" style="fill: #8dd3c7"/>
   </g>
   <g id="patch_23">
    <path d="M 669.259697 270.294734 
L 696.423448 270.294734 
L 696.423448 249.905579 
L 669.259697 249.905579 
z
" clip-path="url(#pd2def698a9)" style="fill: #8dd3c7"/>
   </g>
   <g id="patch_24">
    <path d="M 703.214386 270.294734 
L 730.378137 270.294734 
L 730.378137 249.905579 
L 703.214386 249.905579 
z
" clip-path="url(#pd2def698a9)" style="fill: #8dd3c7"/>
   </g>
   <g id="patch_25">
    <path d="M 737.169075 270.294734 
L 764.332825 270.294734 
L 764.332825 256.701964 
L 737.169075 256.701964 
z
" clip-path="url(#pd2def698a9)" style="fill: #8dd3c7"/>
   </g>
   <g id="patch_26">
    <path d="M 771.123763 270.294734 
L 798.287514 270.294734 
L 798.287514 256.701964 
L 771.123763 256.701964 
z
" clip-path="url(#pd2def698a9)" style="fill: #8dd3c7"/>
   </g>
   <g id="patch_27">
    <path d="M 805.078452 270.294734 
L 832.242203 270.294734 
L 832.242203 256.701964 
L 805.078452 256.701964 
z
" clip-path="url(#pd2def698a9)" style="fill: #8dd3c7"/>
   </g>
   <g id="matplotlib.axis_3">
    <g id="xtick_11">
     <g id="line2d_18">
      <g>
       <use xlink:href="#m5d36e71357" x="513.06813" y="270.294734" style="fill: #ffffff; stroke: #ffffff; stroke-width: 0.8"/>
      </g>
     </g>
     <g id="text_21">
      <!-- Mathematica -->
      <g style="fill: #ffffff" transform="translate(454.422903 341.492959)rotate(-45)scale(0.14 -0.14)">
       <use xlink:href="#Futura-Book-4d"/>
       <use xlink:href="#Futura-Book-61" x="89.599991"/>
       <use xlink:href="#Futura-Book-74" x="147.299988"/>
       <use xlink:href="#Futura-Book-68" x="171.299973"/>
       <use xlink:href="#Futura-Book-65" x="224.09996"/>
       <use xlink:href="#Futura-Book-6d" x="275.999954"/>
       <use xlink:href="#Futura-Book-61" x="352.799942"/>
       <use xlink:href="#Futura-Book-74" x="410.499939"/>
       <use xlink:href="#Futura-Book-69" x="434.499924"/>
       <use xlink:href="#Futura-Book-63" x="460.699921"/>
       <use xlink:href="#Futura-Book-61" x="508.299911"/>
      </g>
     </g>
    </g>
    <g id="xtick_12">
     <g id="line2d_19">
      <g>
       <use xlink:href="#m5d36e71357" x="547.022818" y="270.294734" style="fill: #ffffff; stroke: #ffffff; stroke-width: 0.8"/>
      </g>
     </g>
     <g id="text_22">
      <!-- Qiskit -->
      <g style="fill: #ffffff" transform="translate(519.707946 310.162604)rotate(-45)scale(0.14 -0.14)">
       <use xlink:href="#Futura-Book-51"/>
       <use xlink:href="#Futura-Book-69" x="86.199982"/>
       <use xlink:href="#Futura-Book-73" x="112.399979"/>
       <use xlink:href="#Futura-Book-6b" x="152.299973"/>
       <use xlink:href="#Futura-Book-69" x="199.299957"/>
       <use xlink:href="#Futura-Book-74" x="225.499954"/>
      </g>
     </g>
    </g>
    <g id="xtick_13">
     <g id="line2d_20">
      <g>
       <use xlink:href="#m5d36e71357" x="580.977507" y="270.294734" style="fill: #ffffff; stroke: #ffffff; stroke-width: 0.8"/>
      </g>
     </g>
     <g id="text_23">
      <!-- Python -->
      <g style="fill: #ffffff" transform="translate(550.061694 313.763545)rotate(-45)scale(0.14 -0.14)">
       <use xlink:href="#Futura-Book-50"/>
       <use xlink:href="#Futura-Book-79" x="50.299988"/>
       <use xlink:href="#Futura-Book-74" x="100.099976"/>
       <use xlink:href="#Futura-Book-68" x="124.09996"/>
       <use xlink:href="#Futura-Book-6f" x="176.899948"/>
       <use xlink:href="#Futura-Book-6e" x="233.099945"/>
      </g>
     </g>
    </g>
    <g id="xtick_14">
     <g id="line2d_21">
      <g>
       <use xlink:href="#m5d36e71357" x="614.932196" y="270.294734" style="fill: #ffffff; stroke: #ffffff; stroke-width: 0.8"/>
      </g>
     </g>
     <g id="text_24">
      <!-- Tensorflow -->
      <g style="fill: #ffffff" transform="translate(566.421577 331.358351)rotate(-45)scale(0.14 -0.14)">
       <defs>
        <path id="Futura-Book-54" d="M 1766 4326 
L 2944 4326 
L 2944 4826 
L 64 4826 
L 64 4326 
L 1229 4326 
L 1229 0 
L 1766 0 
L 1766 4326 
z
" transform="scale(0.015625)"/>
        <path id="Futura-Book-77" d="M 602 3008 
L 19 3008 
L 1498 -211 
L 2426 2029 
L 3354 -211 
L 4845 3008 
L 4262 3008 
L 3366 973 
L 2426 3238 
L 1491 973 
L 602 3008 
z
" transform="scale(0.015625)"/>
       </defs>
       <use xlink:href="#Futura-Book-54"/>
       <use xlink:href="#Futura-Book-65" x="46.999985"/>
       <use xlink:href="#Futura-Book-6e" x="98.899979"/>
       <use xlink:href="#Futura-Book-73" x="151.699966"/>
       <use xlink:href="#Futura-Book-6f" x="191.59996"/>
       <use xlink:href="#Futura-Book-72" x="247.799957"/>
       <use xlink:href="#Futura-Book-66" x="281.299942"/>
       <use xlink:href="#Futura-Book-6c" x="308.699936"/>
       <use xlink:href="#Futura-Book-6f" x="331.399933"/>
       <use xlink:href="#Futura-Book-77" x="387.59993"/>
      </g>
     </g>
    </g>
    <g id="xtick_15">
     <g id="line2d_22">
      <g>
       <use xlink:href="#m5d36e71357" x="648.886884" y="270.294734" style="fill: #ffffff; stroke: #ffffff; stroke-width: 0.8"/>
      </g>
     </g>
     <g id="text_25">
      <!-- Matplotlib -->
      <g style="fill: #ffffff" transform="translate(602.861967 328.872649)rotate(-45)scale(0.14 -0.14)">
       <use xlink:href="#Futura-Book-4d"/>
       <use xlink:href="#Futura-Book-61" x="89.599991"/>
       <use xlink:href="#Futura-Book-74" x="147.299988"/>
       <use xlink:href="#Futura-Book-70" x="171.299973"/>
       <use xlink:href="#Futura-Book-6c" x="228.999969"/>
       <use xlink:href="#Futura-Book-6f" x="251.699966"/>
       <use xlink:href="#Futura-Book-74" x="307.899963"/>
       <use xlink:href="#Futura-Book-6c" x="331.899948"/>
       <use xlink:href="#Futura-Book-69" x="354.599945"/>
       <use xlink:href="#Futura-Book-62" x="380.799942"/>
      </g>
     </g>
    </g>
    <g id="xtick_16">
     <g id="line2d_23">
      <g>
       <use xlink:href="#m5d36e71357" x="682.841573" y="270.294734" style="fill: #ffffff; stroke: #ffffff; stroke-width: 0.8"/>
      </g>
     </g>
     <g id="text_26">
      <!-- Scipy -->
      <g style="fill: #ffffff" transform="translate(656.745576 308.943729)rotate(-45)scale(0.14 -0.14)">
       <use xlink:href="#Futura-Book-53"/>
       <use xlink:href="#Futura-Book-63" x="55.899994"/>
       <use xlink:href="#Futura-Book-69" x="103.499985"/>
       <use xlink:href="#Futura-Book-70" x="129.699982"/>
       <use xlink:href="#Futura-Book-79" x="187.399979"/>
      </g>
     </g>
    </g>
    <g id="xtick_17">
     <g id="line2d_24">
      <g>
       <use xlink:href="#m5d36e71357" x="716.796261" y="270.294734" style="fill: #ffffff; stroke: #ffffff; stroke-width: 0.8"/>
      </g>
     </g>
     <g id="text_27">
      <!-- Numpy -->
      <g style="fill: #ffffff" transform="translate(682.612068 317.031925)rotate(-45)scale(0.14 -0.14)">
       <use xlink:href="#Futura-Book-4e"/>
       <use xlink:href="#Futura-Book-75" x="83.399994"/>
       <use xlink:href="#Futura-Book-6d" x="134.599991"/>
       <use xlink:href="#Futura-Book-70" x="211.399979"/>
       <use xlink:href="#Futura-Book-79" x="269.099976"/>
      </g>
     </g>
    </g>
    <g id="xtick_18">
     <g id="line2d_25">
      <g>
       <use xlink:href="#m5d36e71357" x="750.75095" y="270.294734" style="fill: #ffffff; stroke: #ffffff; stroke-width: 0.8"/>
      </g>
     </g>
     <g id="text_28">
      <!-- GSL -->
      <g style="fill: #ffffff" transform="translate(730.772532 302.82615)rotate(-45)scale(0.14 -0.14)">
       <defs>
        <path id="Futura-Book-47" d="M 2963 2426 
L 2963 1926 
L 4397 1926 
C 4397 1030 3514 416 2675 416 
C 2170 416 1658 678 1306 1030 
C 947 1395 742 1882 742 2394 
C 742 3482 1613 4410 2714 4410 
C 3424 4410 3968 4070 4371 3501 
L 4762 3866 
C 4250 4531 3565 4909 2720 4909 
C 1331 4909 205 3782 205 2400 
C 205 1043 1331 -83 2688 -83 
C 3360 -83 4032 211 4474 723 
C 4915 1235 4986 1773 4973 2426 
L 2963 2426 
z
" transform="scale(0.015625)"/>
        <path id="Futura-Book-4c" d="M 1024 4826 
L 486 4826 
L 486 0 
L 2355 0 
L 2355 499 
L 1024 499 
L 1024 4826 
z
" transform="scale(0.015625)"/>
       </defs>
       <use xlink:href="#Futura-Book-47"/>
       <use xlink:href="#Futura-Book-53" x="81.999985"/>
       <use xlink:href="#Futura-Book-4c" x="137.899979"/>
      </g>
     </g>
    </g>
    <g id="xtick_19">
     <g id="line2d_26">
      <g>
       <use xlink:href="#m5d36e71357" x="784.705639" y="270.294734" style="fill: #ffffff; stroke: #ffffff; stroke-width: 0.8"/>
      </g>
     </g>
     <g id="text_29">
      <!-- PyTorch -->
      <g style="fill: #ffffff" transform="translate(748.711694 318.841677)rotate(-45)scale(0.14 -0.14)">
       <use xlink:href="#Futura-Book-50"/>
       <use xlink:href="#Futura-Book-79" x="50.299988"/>
       <use xlink:href="#Futura-Book-54" x="100.099976"/>
       <use xlink:href="#Futura-Book-6f" x="147.09996"/>
       <use xlink:href="#Futura-Book-72" x="203.299957"/>
       <use xlink:href="#Futura-Book-63" x="236.799942"/>
       <use xlink:href="#Futura-Book-68" x="284.399933"/>
      </g>
     </g>
    </g>
    <g id="xtick_20">
     <g id="line2d_27">
      <g>
       <use xlink:href="#m5d36e71357" x="818.660327" y="270.294734" style="fill: #ffffff; stroke: #ffffff; stroke-width: 0.8"/>
      </g>
     </g>
     <g id="text_30">
      <!-- scikit-learn -->
      <g style="fill: #ffffff" transform="translate(771.467579 330.04048)rotate(-45)scale(0.14 -0.14)">
       <use xlink:href="#Futura-Book-73"/>
       <use xlink:href="#Futura-Book-63" x="39.899994"/>
       <use xlink:href="#Futura-Book-69" x="87.499985"/>
       <use xlink:href="#Futura-Book-6b" x="113.699982"/>
       <use xlink:href="#Futura-Book-69" x="160.699966"/>
       <use xlink:href="#Futura-Book-74" x="186.899963"/>
       <use xlink:href="#Futura-Book-2d" x="210.899948"/>
       <use xlink:href="#Futura-Book-6c" x="231.699936"/>
       <use xlink:href="#Futura-Book-65" x="254.399933"/>
       <use xlink:href="#Futura-Book-61" x="306.299927"/>
       <use xlink:href="#Futura-Book-72" x="363.999924"/>
       <use xlink:href="#Futura-Book-6e" x="397.499908"/>
      </g>
     </g>
    </g>
   </g>
   <g id="matplotlib.axis_4">
    <g id="ytick_8">
     <g id="line2d_28">
      <g>
       <use xlink:href="#mcd5378b0d8" x="482.848457" y="270.294734" style="fill: #ffffff; stroke: #ffffff; stroke-width: 0.8"/>
      </g>
     </g>
    </g>
    <g id="ytick_9">
     <g id="line2d_29">
      <g>
       <use xlink:href="#mcd5378b0d8" x="482.848457" y="236.31281" style="fill: #ffffff; stroke: #ffffff; stroke-width: 0.8"/>
      </g>
     </g>
    </g>
    <g id="ytick_10">
     <g id="line2d_30">
      <g>
       <use xlink:href="#mcd5378b0d8" x="482.848457" y="202.330886" style="fill: #ffffff; stroke: #ffffff; stroke-width: 0.8"/>
      </g>
     </g>
    </g>
    <g id="ytick_11">
     <g id="line2d_31">
      <g>
       <use xlink:href="#mcd5378b0d8" x="482.848457" y="168.348962" style="fill: #ffffff; stroke: #ffffff; stroke-width: 0.8"/>
      </g>
     </g>
    </g>
    <g id="ytick_12">
     <g id="line2d_32">
      <g>
       <use xlink:href="#mcd5378b0d8" x="482.848457" y="134.367038" style="fill: #ffffff; stroke: #ffffff; stroke-width: 0.8"/>
      </g>
     </g>
    </g>
    <g id="ytick_13">
     <g id="line2d_33">
      <g>
       <use xlink:href="#mcd5378b0d8" x="482.848457" y="100.385113" style="fill: #ffffff; stroke: #ffffff; stroke-width: 0.8"/>
      </g>
     </g>
    </g>
    <g id="ytick_14">
     <g id="line2d_34">
      <g>
       <use xlink:href="#mcd5378b0d8" x="482.848457" y="66.403189" style="fill: #ffffff; stroke: #ffffff; stroke-width: 0.8"/>
      </g>
     </g>
    </g>
   </g>
   <g id="patch_28">
    <path d="M 482.848457 270.294734 
L 482.848457 34.8 
" style="fill: none; stroke: #ffffff; stroke-width: 0.8; stroke-linejoin: miter; stroke-linecap: square"/>
   </g>
   <g id="patch_29">
    <path d="M 848.88 270.294734 
L 848.88 34.8 
" style="fill: none; stroke: #ffffff; stroke-width: 0.8; stroke-linejoin: miter; stroke-linecap: square"/>
   </g>
   <g id="patch_30">
    <path d="M 482.848457 270.294734 
L 848.88 270.294734 
" style="fill: none; stroke: #ffffff; stroke-width: 0.8; stroke-linejoin: miter; stroke-linecap: square"/>
   </g>
   <g id="patch_31">
    <path d="M 482.848457 34.8 
L 848.88 34.8 
" style="fill: none; stroke: #ffffff; stroke-width: 0.8; stroke-linejoin: miter; stroke-linecap: square"/>
   </g>
   <g id="text_31">
    <!-- Out of 103 -->
    <g style="fill: #ffffff" transform="translate(772.764682 51.284631)scale(0.14 -0.14)">
     <use xlink:href="#Futura-Book-4f"/>
     <use xlink:href="#Futura-Book-75" x="86.199982"/>
     <use xlink:href="#Futura-Book-74" x="137.399979"/>
     <use xlink:href="#Futura-Book-20" x="161.399963"/>
     <use xlink:href="#Futura-Book-6f" x="192.199951"/>
     <use xlink:href="#Futura-Book-66" x="248.399948"/>
     <use xlink:href="#Futura-Book-20" x="275.799942"/>
     <use xlink:href="#Futura-Book-31" x="306.59993"/>
     <use xlink:href="#Futura-Book-30" x="368.199921"/>
     <use xlink:href="#Futura-Book-33" x="429.799911"/>
    </g>
   </g>
   <g id="text_32">
    <!-- Crosslist -->
    <g style="fill: #ffffff" transform="translate(636.125603 28.8)scale(0.168 -0.168)">
     <defs>
      <path id="Futura-Book-43" d="M 4166 4435 
C 3738 4755 3264 4909 2726 4909 
C 1344 4909 211 3776 211 2394 
C 211 1024 1363 -83 2726 -83 
C 3238 -83 3750 90 4166 390 
L 4166 1056 
C 3782 672 3251 416 2707 416 
C 1626 416 749 1350 749 2413 
C 749 3475 1619 4410 2694 4410 
C 3251 4410 3782 4166 4166 3770 
L 4166 4435 
z
" transform="scale(0.015625)"/>
     </defs>
     <use xlink:href="#Futura-Book-43"/>
     <use xlink:href="#Futura-Book-72" x="71.699982"/>
     <use xlink:href="#Futura-Book-6f" x="105.199966"/>
     <use xlink:href="#Futura-Book-73" x="161.399963"/>
     <use xlink:href="#Futura-Book-73" x="201.299957"/>
     <use xlink:href="#Futura-Book-6c" x="241.199951"/>
     <use xlink:href="#Futura-Book-69" x="263.899948"/>
     <use xlink:href="#Futura-Book-73" x="290.099945"/>
     <use xlink:href="#Futura-Book-74" x="329.999939"/>
    </g>
   </g>
  </g>
 </g>
 <defs>
  <clipPath id="p9c75e7c98c">
   <rect x="59.24" y="34.8" width="366.031543" height="235.494734"/>
  </clipPath>
  <clipPath id="pd2def698a9">
   <rect x="482.848457" y="34.8" width="366.031543" height="235.494734"/>
  </clipPath>
 </defs>
</svg>
