<?xml version="1.0" encoding="utf-8" standalone="no"?>
<!DOCTYPE svg PUBLIC "-//W3C//DTD SVG 1.1//EN"
  "http://www.w3.org/Graphics/SVG/1.1/DTD/svg11.dtd">
<svg xmlns:xlink="http://www.w3.org/1999/xlink" width="720pt" height="360pt" viewBox="0 0 720 360" xmlns="http://www.w3.org/2000/svg" version="1.1">
 <metadata>
  <rdf:RDF xmlns:dc="http://purl.org/dc/elements/1.1/" xmlns:cc="http://creativecommons.org/ns#" xmlns:rdf="http://www.w3.org/1999/02/22-rdf-syntax-ns#">
   <cc:Work>
    <dc:type rdf:resource="http://purl.org/dc/dcmitype/StillImage"/>
    <dc:date>2022-05-25T21:41:03.854122</dc:date>
    <dc:format>image/svg+xml</dc:format>
    <dc:creator>
     <cc:Agent>
      <dc:title>Matplotlib v3.5.1, https://matplotlib.org/</dc:title>
     </cc:Agent>
    </dc:creator>
   </cc:Work>
  </rdf:RDF>
 </metadata>
 <defs>
  <style type="text/css">*{stroke-linejoin: round; stroke-linecap: butt}</style>
 </defs>
 <g id="figure_1">
  <g id="patch_1">
   <path d="M 0 360 
L 720 360 
L 720 0 
L 0 0 
L 0 360 
z
" style="fill: none"/>
  </g>
  <g id="axes_1">
   <g id="patch_2">
    <path d="M 67.995 301.88 
L 377.1275 301.88 
L 377.1275 33.12 
L 67.995 33.12 
L 67.995 301.88 
z
" style="fill: none"/>
   </g>
   <g id="patch_3">
    <path d="M 83.451625 301.88 
L 207.104625 301.88 
L 207.104625 56.492639 
L 83.451625 56.492639 
z
" clip-path="url(#p2722fa01fc)" style="fill: #96cac1"/>
   </g>
   <g id="patch_4">
    <path d="M 238.017875 301.88 
L 361.670875 301.88 
L 361.670875 294.782018 
L 238.017875 294.782018 
z
" clip-path="url(#p2722fa01fc)" style="fill: #f5f6bc"/>
   </g>
   <g id="matplotlib.axis_1">
    <g id="xtick_1">
     <g id="line2d_1">
      <defs>
       <path id="m36558b66e8" d="M 0 0 
L 0 3.5 
" style="stroke: #ffffff; stroke-width: 0.8"/>
      </defs>
      <g>
       <use xlink:href="#m36558b66e8" x="145.278125" y="301.88" style="fill: #ffffff; stroke: #ffffff; stroke-width: 0.8"/>
      </g>
     </g>
     <g id="text_1">
      <!-- False -->
      <g style="fill: #ffffff" transform="translate(129.109219 320.425625)scale(0.14 -0.14)">
       <defs>
        <path id="Futura-Medium-46" d="M 2988 4141 
L 1306 4141 
L 1306 2981 
L 2928 2981 
L 2928 2297 
L 1306 2297 
L 1306 0 
L 578 0 
L 578 4825 
L 2988 4825 
L 2988 4141 
z
" transform="scale(0.015625)"/>
        <path id="Futura-Medium-61" d="M 2688 3044 
L 3394 3044 
L 3394 0 
L 2688 0 
L 2688 319 
Q 2253 -88 1753 -88 
Q 1122 -88 709 369 
Q 300 834 300 1531 
Q 300 2216 709 2672 
Q 1119 3128 1734 3128 
Q 2266 3128 2688 2691 
L 2688 3044 
z
M 1019 1531 
Q 1019 1094 1253 819 
Q 1494 541 1859 541 
Q 2250 541 2491 809 
Q 2731 1088 2731 1516 
Q 2731 1944 2491 2222 
Q 2250 2494 1866 2494 
Q 1503 2494 1259 2219 
Q 1019 1941 1019 1531 
z
" transform="scale(0.015625)"/>
        <path id="Futura-Medium-6c" d="M 1147 5278 
L 1147 0 
L 444 0 
L 444 5278 
L 1147 5278 
z
" transform="scale(0.015625)"/>
        <path id="Futura-Medium-73" d="M 2213 2525 
L 1631 2216 
Q 1494 2497 1291 2497 
Q 1194 2497 1125 2433 
Q 1056 2369 1056 2269 
Q 1056 2094 1463 1922 
Q 2022 1681 2215 1478 
Q 2409 1275 2409 931 
Q 2409 491 2084 194 
Q 1769 -88 1322 -88 
Q 556 -88 238 659 
L 838 938 
Q 963 719 1028 659 
Q 1156 541 1334 541 
Q 1691 541 1691 866 
Q 1691 1053 1416 1216 
Q 1309 1269 1203 1319 
Q 1097 1369 988 1422 
Q 681 1572 556 1722 
Q 397 1913 397 2213 
Q 397 2609 669 2869 
Q 947 3128 1344 3128 
Q 1928 3128 2213 2525 
z
" transform="scale(0.015625)"/>
        <path id="Futura-Medium-65" d="M 3216 1356 
L 1034 1356 
Q 1063 981 1278 759 
Q 1494 541 1831 541 
Q 2094 541 2266 666 
Q 2434 791 2650 1128 
L 3244 797 
Q 3106 563 2953 395 
Q 2800 228 2625 120 
Q 2450 13 2247 -37 
Q 2044 -88 1806 -88 
Q 1125 -88 713 350 
Q 300 791 300 1519 
Q 300 2241 700 2688 
Q 1103 3128 1769 3128 
Q 2441 3128 2831 2700 
Q 3219 2275 3219 1522 
L 3216 1356 
z
M 2494 1931 
Q 2347 2494 1784 2494 
Q 1656 2494 1543 2455 
Q 1431 2416 1339 2342 
Q 1247 2269 1181 2166 
Q 1116 2063 1081 1931 
L 2494 1931 
z
" transform="scale(0.015625)"/>
       </defs>
       <use xlink:href="#Futura-Medium-46"/>
       <use xlink:href="#Futura-Medium-61" x="50.205078"/>
       <use xlink:href="#Futura-Medium-6c" x="110.166016"/>
       <use xlink:href="#Futura-Medium-73" x="135.068359"/>
       <use xlink:href="#Futura-Medium-65" x="175.644531"/>
      </g>
     </g>
    </g>
    <g id="xtick_2">
     <g id="line2d_2">
      <g>
       <use xlink:href="#m36558b66e8" x="299.844375" y="301.88" style="fill: #ffffff; stroke: #ffffff; stroke-width: 0.8"/>
      </g>
     </g>
     <g id="text_2">
      <!-- True -->
      <g style="fill: #ffffff" transform="translate(286.291719 320.425625)scale(0.14 -0.14)">
       <defs>
        <path id="Futura-Medium-54" d="M 1909 4141 
L 1909 0 
L 1181 0 
L 1181 4141 
L 72 4141 
L 72 4825 
L 3016 4825 
L 3016 4141 
L 1909 4141 
z
" transform="scale(0.015625)"/>
        <path id="Futura-Medium-72" d="M 444 3044 
L 1147 3044 
L 1147 2772 
Q 1341 2975 1491 3050 
Q 1644 3128 1853 3128 
Q 2131 3128 2434 2947 
L 2113 2303 
Q 1913 2447 1722 2447 
Q 1147 2447 1147 1578 
L 1147 0 
L 444 0 
L 444 3044 
z
" transform="scale(0.015625)"/>
        <path id="Futura-Medium-75" d="M 1147 3044 
L 1147 1297 
Q 1147 541 1744 541 
Q 2341 541 2341 1297 
L 2341 3044 
L 3044 3044 
L 3044 1281 
Q 3044 916 2953 650 
Q 2866 413 2650 222 
Q 2294 -88 1744 -88 
Q 1197 -88 841 222 
Q 622 413 531 650 
Q 444 863 444 1281 
L 444 3044 
L 1147 3044 
z
" transform="scale(0.015625)"/>
       </defs>
       <use xlink:href="#Futura-Medium-54"/>
       <use xlink:href="#Futura-Medium-72" x="44.867188"/>
       <use xlink:href="#Futura-Medium-75" x="83.769531"/>
       <use xlink:href="#Futura-Medium-65" x="138.261719"/>
      </g>
     </g>
    </g>
    <g id="text_3">
     <!-- Lattice data grid acknowledged? -->
     <g style="fill: #ffffff" transform="translate(118.477812 339.59375)scale(0.14 -0.14)">
      <defs>
       <path id="Futura-Medium-4c" d="M 1306 4825 
L 1306 684 
L 2725 684 
L 2725 0 
L 578 0 
L 578 4825 
L 1306 4825 
z
" transform="scale(0.015625)"/>
       <path id="Futura-Medium-74" d="M 1169 2388 
L 1169 0 
L 466 0 
L 466 2388 
L 166 2388 
L 166 3044 
L 466 3044 
L 466 4159 
L 1169 4159 
L 1169 3044 
L 1716 3044 
L 1716 2388 
L 1169 2388 
z
" transform="scale(0.015625)"/>
       <path id="Futura-Medium-69" d="M 1147 3044 
L 1147 0 
L 444 0 
L 444 3044 
L 1147 3044 
z
M 338 4309 
Q 338 4494 472 4628 
Q 606 4763 794 4763 
Q 984 4763 1119 4628 
Q 1253 4497 1253 4306 
Q 1253 4116 1119 3981 
Q 988 3847 797 3847 
Q 606 3847 472 3981 
Q 338 4116 338 4309 
z
" transform="scale(0.015625)"/>
       <path id="Futura-Medium-63" d="M 2813 2913 
L 2813 1978 
Q 2572 2272 2381 2381 
Q 2194 2494 1941 2494 
Q 1544 2494 1281 2216 
Q 1019 1938 1019 1519 
Q 1019 1091 1272 816 
Q 1528 541 1925 541 
Q 2178 541 2372 650 
Q 2559 756 2813 1063 
L 2813 134 
Q 2384 -88 1956 -88 
Q 1250 -88 775 369 
Q 300 828 300 1509 
Q 300 2191 781 2659 
Q 1263 3128 1963 3128 
Q 2413 3128 2813 2913 
z
" transform="scale(0.015625)"/>
       <path id="Futura-Medium-20" transform="scale(0.015625)"/>
       <path id="Futura-Medium-64" d="M 2688 5278 
L 3394 5278 
L 3394 0 
L 2688 0 
L 2688 319 
Q 2272 -88 1747 -88 
Q 1122 -88 709 369 
Q 300 834 300 1531 
Q 300 2213 709 2669 
Q 1116 3128 1731 3128 
Q 2266 3128 2688 2691 
L 2688 5278 
z
M 1019 1531 
Q 1019 1094 1253 819 
Q 1494 541 1859 541 
Q 2250 541 2491 809 
Q 2731 1088 2731 1516 
Q 2731 1944 2491 2222 
Q 2250 2494 1866 2494 
Q 1503 2494 1259 2219 
Q 1019 1941 1019 1531 
z
" transform="scale(0.015625)"/>
       <path id="Futura-Medium-67" d="M 3388 72 
Q 3388 -144 3373 -308 
Q 3359 -472 3334 -597 
Q 3259 -941 3041 -1188 
Q 2628 -1663 1906 -1663 
Q 1297 -1663 903 -1334 
Q 497 -997 434 -400 
L 1141 -400 
Q 1181 -625 1275 -747 
Q 1494 -1031 1913 -1031 
Q 2684 -1031 2684 -84 
L 2684 341 
Q 2266 -88 1719 -88 
Q 1097 -88 700 363 
Q 300 819 300 1503 
Q 300 2169 672 2634 
Q 1072 3128 1728 3128 
Q 2303 3128 2684 2700 
L 2684 3044 
L 3388 3044 
L 3388 72 
z
M 2713 1516 
Q 2713 1959 2475 2225 
Q 2234 2497 1859 2497 
Q 1459 2497 1228 2200 
Q 1019 1934 1019 1513 
Q 1019 1097 1228 831 
Q 1456 541 1859 541 
Q 2263 541 2497 834 
Q 2713 1100 2713 1516 
z
" transform="scale(0.015625)"/>
       <path id="Futura-Medium-6b" d="M 1147 5278 
L 1147 2059 
L 2138 3044 
L 3081 3044 
L 1759 1766 
L 3178 0 
L 2266 0 
L 1259 1284 
L 1147 1172 
L 1147 0 
L 444 0 
L 444 5278 
L 1147 5278 
z
" transform="scale(0.015625)"/>
       <path id="Futura-Medium-6e" d="M 444 3044 
L 1150 3044 
L 1150 2763 
Q 1519 3128 1981 3128 
Q 2513 3128 2809 2794 
Q 3066 2509 3066 1866 
L 3066 0 
L 2359 0 
L 2359 1700 
Q 2359 2150 2234 2322 
Q 2113 2497 1791 2497 
Q 1441 2497 1294 2266 
Q 1150 2038 1150 1469 
L 1150 0 
L 444 0 
L 444 3044 
z
" transform="scale(0.015625)"/>
       <path id="Futura-Medium-6f" d="M 300 1544 
Q 300 2203 772 2665 
Q 1244 3128 1922 3128 
Q 2603 3128 3078 2663 
Q 3547 2197 3547 1519 
Q 3547 834 3075 372 
Q 2600 -88 1909 -88 
Q 1225 -88 763 381 
Q 300 844 300 1544 
z
M 1019 1531 
Q 1019 1075 1263 809 
Q 1513 541 1922 541 
Q 2334 541 2581 806 
Q 2828 1072 2828 1516 
Q 2828 1959 2581 2225 
Q 2331 2494 1922 2494 
Q 1519 2494 1269 2225 
Q 1019 1956 1019 1531 
z
" transform="scale(0.015625)"/>
       <path id="Futura-Medium-77" d="M 825 3044 
L 1622 1306 
L 2481 3322 
L 3347 1306 
L 4134 3044 
L 4922 3044 
L 3328 -228 
L 2481 1731 
L 1625 -228 
L 34 3044 
L 825 3044 
z
" transform="scale(0.015625)"/>
       <path id="Futura-Medium-3f" d="M 1934 2253 
L 2641 2253 
Q 2641 1778 2388 1488 
Q 2059 1109 1547 1109 
Q 1097 1109 794 1422 
Q 488 1738 488 2194 
Q 488 2556 678 2775 
Q 872 2997 1334 3163 
Q 1794 3331 1916 3434 
Q 2041 3538 2041 3753 
Q 2041 3969 1911 4095 
Q 1781 4222 1566 4222 
Q 1350 4222 1222 4097 
Q 1094 3972 1094 3756 
Q 1094 3659 1131 3488 
L 403 3488 
Q 397 3569 392 3631 
Q 388 3694 388 3744 
Q 388 4238 722 4566 
Q 1053 4894 1559 4894 
Q 2069 4894 2409 4562 
Q 2750 4231 2750 3734 
Q 2750 3225 2409 2913 
Q 2194 2716 1597 2531 
Q 1191 2406 1191 2138 
Q 1191 2063 1220 1995 
Q 1250 1928 1300 1878 
Q 1350 1828 1417 1800 
Q 1484 1772 1559 1772 
Q 1903 1772 1934 2253 
z
M 1138 350 
Q 1138 525 1266 653 
Q 1394 781 1572 781 
Q 1750 781 1878 653 
Q 2006 525 2006 347 
Q 2006 166 1878 38 
Q 1753 -88 1575 -88 
Q 1391 -88 1266 38 
Q 1138 166 1138 350 
z
" transform="scale(0.015625)"/>
      </defs>
      <use xlink:href="#Futura-Medium-4c"/>
      <use xlink:href="#Futura-Medium-61" x="44.335938"/>
      <use xlink:href="#Futura-Medium-74" x="104.296875"/>
      <use xlink:href="#Futura-Medium-74" x="131.640625"/>
      <use xlink:href="#Futura-Medium-69" x="158.984375"/>
      <use xlink:href="#Futura-Medium-63" x="183.886719"/>
      <use xlink:href="#Futura-Medium-65" x="231.542969"/>
      <use xlink:href="#Futura-Medium-20" x="286.865234"/>
      <use xlink:href="#Futura-Medium-64" x="317.724609"/>
      <use xlink:href="#Futura-Medium-61" x="377.685547"/>
      <use xlink:href="#Futura-Medium-74" x="437.646484"/>
      <use xlink:href="#Futura-Medium-61" x="465.865234"/>
      <use xlink:href="#Futura-Medium-20" x="525.826172"/>
      <use xlink:href="#Futura-Medium-67" x="556.685547"/>
      <use xlink:href="#Futura-Medium-72" x="616.548828"/>
      <use xlink:href="#Futura-Medium-69" x="655.451172"/>
      <use xlink:href="#Futura-Medium-64" x="680.353516"/>
      <use xlink:href="#Futura-Medium-20" x="740.314453"/>
      <use xlink:href="#Futura-Medium-61" x="771.173828"/>
      <use xlink:href="#Futura-Medium-63" x="831.134766"/>
      <use xlink:href="#Futura-Medium-6b" x="881.416016"/>
      <use xlink:href="#Futura-Medium-6e" x="931.220703"/>
      <use xlink:href="#Futura-Medium-6f" x="986.054688"/>
      <use xlink:href="#Futura-Medium-77" x="1044.287109"/>
      <use xlink:href="#Futura-Medium-6c" x="1122.554688"/>
      <use xlink:href="#Futura-Medium-65" x="1147.457031"/>
      <use xlink:href="#Futura-Medium-64" x="1202.779297"/>
      <use xlink:href="#Futura-Medium-67" x="1262.740234"/>
      <use xlink:href="#Futura-Medium-65" x="1322.603516"/>
      <use xlink:href="#Futura-Medium-64" x="1377.925781"/>
      <use xlink:href="#Futura-Medium-3f" x="1437.886719"/>
     </g>
    </g>
   </g>
   <g id="matplotlib.axis_2">
    <g id="ytick_1">
     <g id="line2d_3">
      <defs>
       <path id="md2c36b835b" d="M 0 0 
L -3.5 0 
" style="stroke: #ffffff; stroke-width: 0.8"/>
      </defs>
      <g>
       <use xlink:href="#md2c36b835b" x="67.995" y="301.88" style="fill: #ffffff; stroke: #ffffff; stroke-width: 0.8"/>
      </g>
     </g>
     <g id="text_4">
      <!-- 0% -->
      <g style="fill: #ffffff" transform="translate(39.529062 307.652813)scale(0.14 -0.14)">
       <defs>
        <path id="Futura-Medium-30" d="M 272 2444 
Q 272 3597 809 4284 
Q 1291 4906 1975 4906 
Q 2659 4906 3141 4284 
Q 3678 3597 3678 2413 
Q 3678 1231 3141 544 
Q 2659 -78 1978 -78 
Q 1297 -78 809 544 
Q 272 1231 272 2444 
z
M 988 2441 
Q 988 1638 1266 1106 
Q 1544 584 1975 584 
Q 2403 584 2684 1106 
Q 2966 1625 2966 2416 
Q 2966 3206 2684 3728 
Q 2403 4247 1975 4247 
Q 1550 4247 1269 3728 
Q 988 3213 988 2441 
z
" transform="scale(0.015625)"/>
        <path id="Futura-Medium-25" d="M 241 3753 
Q 241 4206 588 4541 
Q 941 4875 1403 4875 
Q 1878 4875 2222 4538 
Q 2566 4203 2566 3738 
Q 2566 3269 2222 2934 
Q 1878 2600 1394 2600 
Q 919 2600 578 2941 
Q 241 3281 241 3753 
z
M 784 3744 
Q 784 3481 965 3300 
Q 1147 3119 1406 3119 
Q 1659 3119 1840 3300 
Q 2022 3481 2022 3738 
Q 2022 3991 1840 4172 
Q 1659 4353 1403 4353 
Q 1147 4353 965 4172 
Q 784 3991 784 3744 
z
M 4144 4909 
L 4484 4716 
L 1722 -78 
L 1378 128 
L 4144 4909 
z
M 3294 1109 
Q 3294 1559 3641 1894 
Q 3994 2228 4456 2228 
Q 4934 2228 5278 1891 
Q 5622 1556 5622 1091 
Q 5622 619 5275 288 
Q 4934 -44 4447 -44 
Q 3972 -44 3631 294 
Q 3294 631 3294 1109 
z
M 3841 1097 
Q 3841 834 4019 653 
Q 4200 472 4459 472 
Q 4716 472 4894 653 
Q 5075 834 5075 1091 
Q 5075 1347 4894 1528 
Q 4716 1709 4456 1709 
Q 4203 1709 4022 1528 
Q 3841 1347 3841 1097 
z
" transform="scale(0.015625)"/>
       </defs>
       <use xlink:href="#Futura-Medium-30"/>
       <use xlink:href="#Futura-Medium-25" x="61.71875"/>
      </g>
     </g>
    </g>
    <g id="ytick_2">
     <g id="line2d_4">
      <g>
       <use xlink:href="#md2c36b835b" x="67.995" y="272.017778" style="fill: #ffffff; stroke: #ffffff; stroke-width: 0.8"/>
      </g>
     </g>
     <g id="text_5">
      <!-- 10% -->
      <g style="fill: #ffffff" transform="translate(31.728437 277.79059)scale(0.14 -0.14)">
       <defs>
        <path id="Futura-Medium-31" d="M 1734 4144 
L 900 4144 
L 1300 4825 
L 2463 4825 
L 2463 0 
L 1734 0 
L 1734 4144 
z
" transform="scale(0.015625)"/>
       </defs>
       <use xlink:href="#Futura-Medium-31"/>
       <use xlink:href="#Futura-Medium-30" x="55.71875"/>
       <use xlink:href="#Futura-Medium-25" x="117.4375"/>
      </g>
     </g>
    </g>
    <g id="ytick_3">
     <g id="line2d_5">
      <g>
       <use xlink:href="#md2c36b835b" x="67.995" y="242.155556" style="fill: #ffffff; stroke: #ffffff; stroke-width: 0.8"/>
      </g>
     </g>
     <g id="text_6">
      <!-- 20% -->
      <g style="fill: #ffffff" transform="translate(30.888437 247.928368)scale(0.14 -0.14)">
       <defs>
        <path id="Futura-Medium-32" d="M 1603 684 
L 3400 684 
L 3400 0 
L 159 0 
L 1834 2028 
Q 2081 2331 2248 2553 
Q 2416 2775 2503 2925 
Q 2681 3219 2681 3453 
Q 2681 3791 2443 4019 
Q 2206 4247 1856 4247 
Q 1125 4247 1019 3381 
L 294 3381 
Q 469 4906 1834 4906 
Q 2494 4906 2941 4488 
Q 3391 4069 3391 3450 
Q 3391 3056 3181 2678 
Q 3075 2481 2870 2211 
Q 2666 1941 2353 1572 
L 1603 684 
z
" transform="scale(0.015625)"/>
       </defs>
       <use xlink:href="#Futura-Medium-32"/>
       <use xlink:href="#Futura-Medium-30" x="61.71875"/>
       <use xlink:href="#Futura-Medium-25" x="123.4375"/>
      </g>
     </g>
    </g>
    <g id="ytick_4">
     <g id="line2d_6">
      <g>
       <use xlink:href="#md2c36b835b" x="67.995" y="212.293333" style="fill: #ffffff; stroke: #ffffff; stroke-width: 0.8"/>
      </g>
     </g>
     <g id="text_7">
      <!-- 30% -->
      <g style="fill: #ffffff" transform="translate(30.888437 218.066146)scale(0.14 -0.14)">
       <defs>
        <path id="Futura-Medium-33" d="M 1656 2241 
L 1656 2863 
Q 2119 2863 2278 2966 
Q 2563 3147 2563 3547 
Q 2563 3856 2356 4050 
Q 2153 4247 1828 4247 
Q 1525 4247 1359 4100 
Q 1200 3950 1122 3594 
L 397 3594 
Q 509 4275 859 4592 
Q 1209 4909 1838 4909 
Q 2472 4909 2872 4534 
Q 3272 4163 3272 3575 
Q 3272 2913 2747 2544 
Q 3347 2191 3347 1397 
Q 3347 747 2909 334 
Q 2472 -78 1788 -78 
Q 916 -78 494 563 
Q 319 831 272 1306 
L 975 1306 
Q 1031 956 1248 770 
Q 1466 584 1816 584 
Q 2169 584 2400 819 
Q 2631 1059 2631 1428 
Q 2631 1916 2284 2122 
Q 2081 2241 1656 2241 
z
" transform="scale(0.015625)"/>
       </defs>
       <use xlink:href="#Futura-Medium-33"/>
       <use xlink:href="#Futura-Medium-30" x="61.71875"/>
       <use xlink:href="#Futura-Medium-25" x="123.4375"/>
      </g>
     </g>
    </g>
    <g id="ytick_5">
     <g id="line2d_7">
      <g>
       <use xlink:href="#md2c36b835b" x="67.995" y="182.431111" style="fill: #ffffff; stroke: #ffffff; stroke-width: 0.8"/>
      </g>
     </g>
     <g id="text_8">
      <!-- 40% -->
      <g style="fill: #ffffff" transform="translate(30.888437 188.203924)scale(0.14 -0.14)">
       <defs>
        <path id="Futura-Medium-34" d="M 3156 1347 
L 3669 1347 
L 3669 684 
L 3156 684 
L 3156 0 
L 2428 0 
L 2428 684 
L 59 684 
L 3156 5184 
L 3156 1347 
z
M 2428 1347 
L 2428 2963 
L 1316 1347 
L 2428 1347 
z
" transform="scale(0.015625)"/>
       </defs>
       <use xlink:href="#Futura-Medium-34"/>
       <use xlink:href="#Futura-Medium-30" x="61.71875"/>
       <use xlink:href="#Futura-Medium-25" x="123.4375"/>
      </g>
     </g>
    </g>
    <g id="ytick_6">
     <g id="line2d_8">
      <g>
       <use xlink:href="#md2c36b835b" x="67.995" y="152.568889" style="fill: #ffffff; stroke: #ffffff; stroke-width: 0.8"/>
      </g>
     </g>
     <g id="text_9">
      <!-- 50% -->
      <g style="fill: #ffffff" transform="translate(30.888437 158.341701)scale(0.14 -0.14)">
       <defs>
        <path id="Futura-Medium-35" d="M 3366 4144 
L 1878 4144 
L 1641 3344 
Q 1694 3350 1742 3353 
Q 1791 3356 1831 3356 
Q 2534 3356 2984 2881 
Q 3438 2409 3438 1672 
Q 3438 909 2925 415 
Q 2413 -78 1634 -78 
Q 675 -78 122 822 
L 672 1288 
Q 900 900 1131 741 
Q 1363 584 1697 584 
Q 2134 584 2431 891 
Q 2728 1206 2728 1656 
Q 2728 2119 2434 2413 
Q 2141 2716 1700 2716 
Q 1209 2716 853 2288 
L 613 2288 
L 1372 4825 
L 3366 4825 
L 3366 4144 
z
" transform="scale(0.015625)"/>
       </defs>
       <use xlink:href="#Futura-Medium-35"/>
       <use xlink:href="#Futura-Medium-30" x="61.71875"/>
       <use xlink:href="#Futura-Medium-25" x="123.4375"/>
      </g>
     </g>
    </g>
    <g id="ytick_7">
     <g id="line2d_9">
      <g>
       <use xlink:href="#md2c36b835b" x="67.995" y="122.706667" style="fill: #ffffff; stroke: #ffffff; stroke-width: 0.8"/>
      </g>
     </g>
     <g id="text_10">
      <!-- 60% -->
      <g style="fill: #ffffff" transform="translate(30.888437 128.479479)scale(0.14 -0.14)">
       <defs>
        <path id="Futura-Medium-36" d="M 2513 4994 
L 3047 4594 
L 1894 3025 
Q 1988 3038 2053 3044 
Q 2119 3050 2156 3050 
Q 2744 3050 3172 2600 
Q 3597 2156 3597 1531 
Q 3597 869 3122 394 
Q 2650 -78 1988 -78 
Q 1331 -78 838 388 
Q 353 853 353 1491 
Q 353 2063 825 2703 
L 2513 4994 
z
M 2888 1484 
Q 2888 1869 2622 2134 
Q 2353 2403 1975 2403 
Q 1594 2403 1328 2137 
Q 1063 1872 1063 1494 
Q 1063 1116 1328 850 
Q 1594 584 1978 584 
Q 2353 584 2619 850 
Q 2888 1119 2888 1484 
z
" transform="scale(0.015625)"/>
       </defs>
       <use xlink:href="#Futura-Medium-36"/>
       <use xlink:href="#Futura-Medium-30" x="61.71875"/>
       <use xlink:href="#Futura-Medium-25" x="123.4375"/>
      </g>
     </g>
    </g>
    <g id="ytick_8">
     <g id="line2d_10">
      <g>
       <use xlink:href="#md2c36b835b" x="67.995" y="92.844444" style="fill: #ffffff; stroke: #ffffff; stroke-width: 0.8"/>
      </g>
     </g>
     <g id="text_11">
      <!-- 70% -->
      <g style="fill: #ffffff" transform="translate(30.888437 98.617257)scale(0.14 -0.14)">
       <defs>
        <path id="Futura-Medium-37" d="M 2713 4144 
L 331 4144 
L 331 4825 
L 3928 4825 
L 884 -166 
L 306 200 
L 2713 4144 
z
" transform="scale(0.015625)"/>
       </defs>
       <use xlink:href="#Futura-Medium-37"/>
       <use xlink:href="#Futura-Medium-30" x="61.71875"/>
       <use xlink:href="#Futura-Medium-25" x="123.4375"/>
      </g>
     </g>
    </g>
    <g id="ytick_9">
     <g id="line2d_11">
      <g>
       <use xlink:href="#md2c36b835b" x="67.995" y="62.982222" style="fill: #ffffff; stroke: #ffffff; stroke-width: 0.8"/>
      </g>
     </g>
     <g id="text_12">
      <!-- 80% -->
      <g style="fill: #ffffff" transform="translate(30.888437 68.755035)scale(0.14 -0.14)">
       <defs>
        <path id="Futura-Medium-38" d="M 1113 2509 
Q 581 2884 581 3531 
Q 581 4119 984 4513 
Q 1391 4906 1994 4906 
Q 2594 4906 2994 4513 
Q 3394 4122 3394 3528 
Q 3394 2906 2866 2513 
Q 3156 2356 3322 2056 
Q 3491 1756 3491 1381 
Q 3491 741 3072 331 
Q 2653 -78 2000 -78 
Q 1331 -78 897 334 
Q 459 747 459 1372 
Q 459 2184 1113 2509 
z
M 1266 3534 
Q 1266 3225 1475 3016 
Q 1688 2803 1988 2803 
Q 2284 2803 2496 3015 
Q 2709 3228 2709 3525 
Q 2709 3822 2496 4034 
Q 2284 4247 1988 4247 
Q 1691 4247 1478 4034 
Q 1266 3822 1266 3534 
z
M 1175 1397 
Q 1175 1063 1406 822 
Q 1641 584 1975 584 
Q 2306 584 2541 819 
Q 2775 1056 2775 1388 
Q 2775 1722 2540 1956 
Q 2306 2191 1975 2191 
Q 1647 2191 1409 1956 
Q 1175 1722 1175 1397 
z
" transform="scale(0.015625)"/>
       </defs>
       <use xlink:href="#Futura-Medium-38"/>
       <use xlink:href="#Futura-Medium-30" x="61.71875"/>
       <use xlink:href="#Futura-Medium-25" x="123.4375"/>
      </g>
     </g>
    </g>
    <g id="ytick_10">
     <g id="line2d_12">
      <g>
       <use xlink:href="#md2c36b835b" x="67.995" y="33.12" style="fill: #ffffff; stroke: #ffffff; stroke-width: 0.8"/>
      </g>
     </g>
     <g id="text_13">
      <!-- 90% -->
      <g style="fill: #ffffff" transform="translate(30.888437 38.892813)scale(0.14 -0.14)">
       <defs>
        <path id="Futura-Medium-39" d="M 1438 -166 
L 903 231 
L 2056 1803 
Q 1963 1791 1897 1784 
Q 1831 1778 1791 1778 
Q 1206 1778 778 2225 
Q 353 2669 353 3294 
Q 353 3959 825 4431 
Q 1300 4906 1963 4906 
Q 2622 4906 3109 4438 
Q 3597 3972 3597 3338 
Q 3597 2775 3122 2122 
L 1438 -166 
z
M 1063 3347 
Q 1063 2956 1328 2691 
Q 1597 2422 1975 2422 
Q 2353 2422 2619 2688 
Q 2888 2956 2888 3334 
Q 2888 3713 2619 3981 
Q 2353 4247 1972 4247 
Q 1597 4247 1331 3981 
Q 1063 3713 1063 3347 
z
" transform="scale(0.015625)"/>
       </defs>
       <use xlink:href="#Futura-Medium-39"/>
       <use xlink:href="#Futura-Medium-30" x="61.71875"/>
       <use xlink:href="#Futura-Medium-25" x="123.4375"/>
      </g>
     </g>
    </g>
    <g id="text_14">
     <!-- count -->
     <g style="fill: #ffffff" transform="translate(23.265937 184.610625)rotate(-90)scale(0.14 -0.14)">
      <use xlink:href="#Futura-Medium-63"/>
      <use xlink:href="#Futura-Medium-6f" x="47.65625"/>
      <use xlink:href="#Futura-Medium-75" x="107.763672"/>
      <use xlink:href="#Futura-Medium-6e" x="162.255859"/>
      <use xlink:href="#Futura-Medium-74" x="217.089844"/>
     </g>
    </g>
   </g>
   <g id="patch_5">
    <path d="M 67.995 301.88 
L 67.995 33.12 
" style="fill: none; stroke: #ffffff; stroke-width: 0.8; stroke-linejoin: miter; stroke-linecap: square"/>
   </g>
   <g id="patch_6">
    <path d="M 67.995 301.88 
L 377.1275 301.88 
" style="fill: none; stroke: #ffffff; stroke-width: 0.8; stroke-linejoin: miter; stroke-linecap: square"/>
   </g>
   <g id="text_15">
    <!-- All non-UK -->
    <g style="fill: #ffffff" transform="translate(188.510625 27.12)scale(0.14 -0.14)">
     <defs>
      <path id="Futura-Medium-41" d="M 3413 1172 
L 1347 1172 
L 809 0 
L 25 0 
L 2413 5128 
L 4716 0 
L 3919 0 
L 3413 1172 
z
M 3116 1856 
L 2400 3497 
L 1650 1856 
L 3116 1856 
z
" transform="scale(0.015625)"/>
      <path id="Futura-Medium-2d" d="M 0 1853 
L 1394 1853 
L 1394 1241 
L 0 1241 
L 0 1853 
z
" transform="scale(0.015625)"/>
      <path id="Futura-Medium-55" d="M 1306 4825 
L 1306 1919 
Q 1306 1297 1509 1009 
Q 1813 594 2363 594 
Q 2916 594 3219 1009 
Q 3422 1288 3422 1919 
L 3422 4825 
L 4150 4825 
L 4150 1719 
Q 4150 956 3675 463 
Q 3141 -88 2363 -88 
Q 1584 -88 1053 463 
Q 578 956 578 1719 
L 578 4825 
L 1306 4825 
z
" transform="scale(0.015625)"/>
      <path id="Futura-Medium-4b" d="M 1306 2900 
L 3184 4825 
L 4156 4825 
L 1975 2641 
L 4169 0 
L 3194 0 
L 1456 2147 
L 1306 1997 
L 1306 0 
L 578 0 
L 578 4825 
L 1306 4825 
L 1306 2900 
z
" transform="scale(0.015625)"/>
     </defs>
     <use xlink:href="#Futura-Medium-41"/>
     <use xlink:href="#Futura-Medium-6c" x="74.072266"/>
     <use xlink:href="#Futura-Medium-6c" x="98.974609"/>
     <use xlink:href="#Futura-Medium-20" x="123.876953"/>
     <use xlink:href="#Futura-Medium-6e" x="154.736328"/>
     <use xlink:href="#Futura-Medium-6f" x="209.570312"/>
     <use xlink:href="#Futura-Medium-6e" x="269.677734"/>
     <use xlink:href="#Futura-Medium-2d" x="324.511719"/>
     <use xlink:href="#Futura-Medium-55" x="346.289062"/>
     <use xlink:href="#Futura-Medium-4b" x="420.166016"/>
    </g>
   </g>
  </g>
  <g id="axes_2">
   <g id="patch_7">
    <path d="M 395.7475 301.88 
L 704.88 301.88 
L 704.88 33.12 
L 395.7475 33.12 
L 395.7475 301.88 
z
" style="fill: none"/>
   </g>
   <g id="patch_8">
    <path d="M 411.204125 301.88 
L 534.857125 301.88 
L 534.857125 255.74312 
L 411.204125 255.74312 
z
" clip-path="url(#pb981f88995)" style="fill: #96cac1"/>
   </g>
   <g id="patch_9">
    <path d="M 0 0 
z
" clip-path="url(#pb981f88995)" style="fill: #f5f6bc"/>
   </g>
   <g id="matplotlib.axis_3">
    <g id="xtick_3">
     <g id="line2d_13">
      <g>
       <use xlink:href="#m36558b66e8" x="473.030625" y="301.88" style="fill: #ffffff; stroke: #ffffff; stroke-width: 0.8"/>
      </g>
     </g>
     <g id="text_16">
      <!-- False -->
      <g style="fill: #ffffff" transform="translate(456.861719 320.425625)scale(0.14 -0.14)">
       <use xlink:href="#Futura-Medium-46"/>
       <use xlink:href="#Futura-Medium-61" x="50.205078"/>
       <use xlink:href="#Futura-Medium-6c" x="110.166016"/>
       <use xlink:href="#Futura-Medium-73" x="135.068359"/>
       <use xlink:href="#Futura-Medium-65" x="175.644531"/>
      </g>
     </g>
    </g>
    <g id="xtick_4">
     <g id="line2d_14">
      <g>
       <use xlink:href="#m36558b66e8" x="627.596875" y="301.88" style="fill: #ffffff; stroke: #ffffff; stroke-width: 0.8"/>
      </g>
     </g>
     <g id="text_17">
      <!-- True -->
      <g style="fill: #ffffff" transform="translate(614.044219 320.425625)scale(0.14 -0.14)">
       <use xlink:href="#Futura-Medium-54"/>
       <use xlink:href="#Futura-Medium-72" x="44.867188"/>
       <use xlink:href="#Futura-Medium-75" x="83.769531"/>
       <use xlink:href="#Futura-Medium-65" x="138.261719"/>
      </g>
     </g>
    </g>
    <g id="text_18">
     <!-- Lattice data grid acknowledged? -->
     <g style="fill: #ffffff" transform="translate(446.230312 339.59375)scale(0.14 -0.14)">
      <use xlink:href="#Futura-Medium-4c"/>
      <use xlink:href="#Futura-Medium-61" x="44.335938"/>
      <use xlink:href="#Futura-Medium-74" x="104.296875"/>
      <use xlink:href="#Futura-Medium-74" x="131.640625"/>
      <use xlink:href="#Futura-Medium-69" x="158.984375"/>
      <use xlink:href="#Futura-Medium-63" x="183.886719"/>
      <use xlink:href="#Futura-Medium-65" x="231.542969"/>
      <use xlink:href="#Futura-Medium-20" x="286.865234"/>
      <use xlink:href="#Futura-Medium-64" x="317.724609"/>
      <use xlink:href="#Futura-Medium-61" x="377.685547"/>
      <use xlink:href="#Futura-Medium-74" x="437.646484"/>
      <use xlink:href="#Futura-Medium-61" x="465.865234"/>
      <use xlink:href="#Futura-Medium-20" x="525.826172"/>
      <use xlink:href="#Futura-Medium-67" x="556.685547"/>
      <use xlink:href="#Futura-Medium-72" x="616.548828"/>
      <use xlink:href="#Futura-Medium-69" x="655.451172"/>
      <use xlink:href="#Futura-Medium-64" x="680.353516"/>
      <use xlink:href="#Futura-Medium-20" x="740.314453"/>
      <use xlink:href="#Futura-Medium-61" x="771.173828"/>
      <use xlink:href="#Futura-Medium-63" x="831.134766"/>
      <use xlink:href="#Futura-Medium-6b" x="881.416016"/>
      <use xlink:href="#Futura-Medium-6e" x="931.220703"/>
      <use xlink:href="#Futura-Medium-6f" x="986.054688"/>
      <use xlink:href="#Futura-Medium-77" x="1044.287109"/>
      <use xlink:href="#Futura-Medium-6c" x="1122.554688"/>
      <use xlink:href="#Futura-Medium-65" x="1147.457031"/>
      <use xlink:href="#Futura-Medium-64" x="1202.779297"/>
      <use xlink:href="#Futura-Medium-67" x="1262.740234"/>
      <use xlink:href="#Futura-Medium-65" x="1322.603516"/>
      <use xlink:href="#Futura-Medium-64" x="1377.925781"/>
      <use xlink:href="#Futura-Medium-3f" x="1437.886719"/>
     </g>
    </g>
   </g>
   <g id="matplotlib.axis_4">
    <g id="ytick_11">
     <g id="line2d_15">
      <g>
       <use xlink:href="#md2c36b835b" x="395.7475" y="301.88" style="fill: #ffffff; stroke: #ffffff; stroke-width: 0.8"/>
      </g>
     </g>
    </g>
    <g id="ytick_12">
     <g id="line2d_16">
      <g>
       <use xlink:href="#md2c36b835b" x="395.7475" y="272.017778" style="fill: #ffffff; stroke: #ffffff; stroke-width: 0.8"/>
      </g>
     </g>
    </g>
    <g id="ytick_13">
     <g id="line2d_17">
      <g>
       <use xlink:href="#md2c36b835b" x="395.7475" y="242.155556" style="fill: #ffffff; stroke: #ffffff; stroke-width: 0.8"/>
      </g>
     </g>
    </g>
    <g id="ytick_14">
     <g id="line2d_18">
      <g>
       <use xlink:href="#md2c36b835b" x="395.7475" y="212.293333" style="fill: #ffffff; stroke: #ffffff; stroke-width: 0.8"/>
      </g>
     </g>
    </g>
    <g id="ytick_15">
     <g id="line2d_19">
      <g>
       <use xlink:href="#md2c36b835b" x="395.7475" y="182.431111" style="fill: #ffffff; stroke: #ffffff; stroke-width: 0.8"/>
      </g>
     </g>
    </g>
    <g id="ytick_16">
     <g id="line2d_20">
      <g>
       <use xlink:href="#md2c36b835b" x="395.7475" y="152.568889" style="fill: #ffffff; stroke: #ffffff; stroke-width: 0.8"/>
      </g>
     </g>
    </g>
    <g id="ytick_17">
     <g id="line2d_21">
      <g>
       <use xlink:href="#md2c36b835b" x="395.7475" y="122.706667" style="fill: #ffffff; stroke: #ffffff; stroke-width: 0.8"/>
      </g>
     </g>
    </g>
    <g id="ytick_18">
     <g id="line2d_22">
      <g>
       <use xlink:href="#md2c36b835b" x="395.7475" y="92.844444" style="fill: #ffffff; stroke: #ffffff; stroke-width: 0.8"/>
      </g>
     </g>
    </g>
    <g id="ytick_19">
     <g id="line2d_23">
      <g>
       <use xlink:href="#md2c36b835b" x="395.7475" y="62.982222" style="fill: #ffffff; stroke: #ffffff; stroke-width: 0.8"/>
      </g>
     </g>
    </g>
    <g id="ytick_20">
     <g id="line2d_24">
      <g>
       <use xlink:href="#md2c36b835b" x="395.7475" y="33.12" style="fill: #ffffff; stroke: #ffffff; stroke-width: 0.8"/>
      </g>
     </g>
    </g>
   </g>
   <g id="patch_10">
    <path d="M 395.7475 301.88 
L 395.7475 33.12 
" style="fill: none; stroke: #ffffff; stroke-width: 0.8; stroke-linejoin: miter; stroke-linecap: square"/>
   </g>
   <g id="patch_11">
    <path d="M 395.7475 301.88 
L 704.88 301.88 
" style="fill: none; stroke: #ffffff; stroke-width: 0.8; stroke-linejoin: miter; stroke-linecap: square"/>
   </g>
   <g id="text_19">
    <!-- Out of 230 -->
    <g style="fill: #ffffff" transform="translate(633.7775 46.558)scale(0.14 -0.14)">
     <defs>
      <path id="Futura-Medium-4f" d="M 338 2434 
Q 338 3453 1084 4184 
Q 1828 4916 2872 4916 
Q 3903 4916 4641 4178 
Q 5381 3441 5381 2406 
Q 5381 1366 4638 641 
Q 3891 -88 2834 -88 
Q 1900 -88 1156 559 
Q 338 1275 338 2434 
z
M 1072 2425 
Q 1072 1625 1609 1109 
Q 2144 594 2844 594 
Q 3603 594 4125 1119 
Q 4647 1650 4647 2413 
Q 4647 3184 4131 3706 
Q 3619 4231 2863 4231 
Q 2109 4231 1591 3706 
Q 1072 3188 1072 2425 
z
" transform="scale(0.015625)"/>
      <path id="Futura-Medium-66" d="M 1172 2388 
L 1172 0 
L 466 0 
L 466 2388 
L 216 2388 
L 216 3044 
L 466 3044 
L 466 4219 
Q 466 4794 666 5031 
Q 941 5363 1466 5363 
Q 1653 5363 1938 5253 
L 1938 4534 
L 1866 4572 
Q 1638 4688 1491 4688 
Q 1303 4688 1238 4553 
Q 1172 4422 1172 4047 
L 1172 3044 
L 1938 3044 
L 1938 2388 
L 1172 2388 
z
" transform="scale(0.015625)"/>
     </defs>
     <use xlink:href="#Futura-Medium-4f"/>
     <use xlink:href="#Futura-Medium-75" x="89.355469"/>
     <use xlink:href="#Futura-Medium-74" x="143.847656"/>
     <use xlink:href="#Futura-Medium-20" x="171.191406"/>
     <use xlink:href="#Futura-Medium-6f" x="202.050781"/>
     <use xlink:href="#Futura-Medium-66" x="262.158203"/>
     <use xlink:href="#Futura-Medium-20" x="291.845703"/>
     <use xlink:href="#Futura-Medium-32" x="322.705078"/>
     <use xlink:href="#Futura-Medium-33" x="384.423828"/>
     <use xlink:href="#Futura-Medium-30" x="446.142578"/>
    </g>
   </g>
   <g id="text_20">
    <!-- UK author(s) -->
    <g style="fill: #ffffff" transform="translate(509.644844 27.12)scale(0.14 -0.14)">
     <defs>
      <path id="Futura-Medium-68" d="M 444 5278 
L 1147 5278 
L 1147 2791 
Q 1522 3128 1975 3128 
Q 2491 3128 2800 2794 
Q 3063 2503 3063 1866 
L 3063 0 
L 2359 0 
L 2359 1800 
Q 2359 2166 2229 2330 
Q 2100 2494 1813 2494 
Q 1444 2494 1294 2266 
Q 1147 2034 1147 1472 
L 1147 0 
L 444 0 
L 444 5278 
z
" transform="scale(0.015625)"/>
      <path id="Futura-Medium-28" d="M 1259 5331 
L 1909 5081 
Q 1569 4266 1431 3575 
Q 1363 3225 1328 2839 
Q 1294 2453 1294 1997 
Q 1294 1538 1328 1152 
Q 1363 766 1431 416 
Q 1566 -272 1909 -1088 
L 1259 -1338 
Q 578 91 578 1997 
Q 578 3903 1259 5331 
z
" transform="scale(0.015625)"/>
      <path id="Futura-Medium-29" d="M 1084 -1338 
L 434 -1088 
Q 778 -272 913 416 
Q 1053 1103 1053 1997 
Q 1053 2884 913 3575 
Q 775 4266 434 5081 
L 1084 5331 
Q 1766 3903 1766 1997 
Q 1766 91 1084 -1338 
z
" transform="scale(0.015625)"/>
     </defs>
     <use xlink:href="#Futura-Medium-55"/>
     <use xlink:href="#Futura-Medium-4b" x="73.876953"/>
     <use xlink:href="#Futura-Medium-20" x="140.136719"/>
     <use xlink:href="#Futura-Medium-61" x="170.996094"/>
     <use xlink:href="#Futura-Medium-75" x="230.957031"/>
     <use xlink:href="#Futura-Medium-74" x="285.449219"/>
     <use xlink:href="#Futura-Medium-68" x="314.792969"/>
     <use xlink:href="#Futura-Medium-6f" x="369.626953"/>
     <use xlink:href="#Futura-Medium-72" x="429.734375"/>
     <use xlink:href="#Futura-Medium-28" x="467.136719"/>
     <use xlink:href="#Futura-Medium-73" x="503.757812"/>
     <use xlink:href="#Futura-Medium-29" x="544.333984"/>
    </g>
   </g>
  </g>
 </g>
 <defs>
  <clipPath id="p2722fa01fc">
   <rect x="67.995" y="33.12" width="309.1325" height="268.76"/>
  </clipPath>
  <clipPath id="pb981f88995">
   <rect x="395.7475" y="33.12" width="309.1325" height="268.76"/>
  </clipPath>
 </defs>
</svg>
