<?xml version="1.0" encoding="utf-8" standalone="no"?>
<!DOCTYPE svg PUBLIC "-//W3C//DTD SVG 1.1//EN"
  "http://www.w3.org/Graphics/SVG/1.1/DTD/svg11.dtd">
<svg xmlns:xlink="http://www.w3.org/1999/xlink" width="460.8pt" height="345.6pt" viewBox="0 0 460.8 345.6" xmlns="http://www.w3.org/2000/svg" version="1.1">
 <metadata>
  <rdf:RDF xmlns:dc="http://purl.org/dc/elements/1.1/" xmlns:cc="http://creativecommons.org/ns#" xmlns:rdf="http://www.w3.org/1999/02/22-rdf-syntax-ns#">
   <cc:Work>
    <dc:type rdf:resource="http://purl.org/dc/dcmitype/StillImage"/>
    <dc:date>2022-05-26T15:02:58.408702</dc:date>
    <dc:format>image/svg+xml</dc:format>
    <dc:creator>
     <cc:Agent>
      <dc:title>Matplotlib v3.5.2, https://matplotlib.org/</dc:title>
     </cc:Agent>
    </dc:creator>
   </cc:Work>
  </rdf:RDF>
 </metadata>
 <defs>
  <style type="text/css">*{stroke-linejoin: round; stroke-linecap: butt}</style>
 </defs>
 <g id="figure_1">
  <g id="patch_1">
   <path d="M 0 345.6 
L 460.8 345.6 
L 460.8 0 
L 0 0 
L 0 345.6 
z
" style="fill: none"/>
  </g>
  <g id="axes_1">
   <g id="patch_2">
    <path d="M 59.24 228.593341 
L 445.68 228.593341 
L 445.68 15.12 
L 59.24 15.12 
L 59.24 228.593341 
z
" style="fill: none"/>
   </g>
   <g id="patch_3">
    <path d="M 76.805455 228.593341 
L 105.483748 228.593341 
L 105.483748 25.285397 
L 76.805455 25.285397 
z
" clip-path="url(#p2966f02cbb)" style="fill: #8dd3c7"/>
   </g>
   <g id="patch_4">
    <path d="M 112.653321 228.593341 
L 141.331614 228.593341 
L 141.331614 149.038059 
L 112.653321 149.038059 
z
" clip-path="url(#p2966f02cbb)" style="fill: #8dd3c7"/>
   </g>
   <g id="patch_5">
    <path d="M 148.501187 228.593341 
L 177.179481 228.593341 
L 177.179481 173.346617 
L 148.501187 173.346617 
z
" clip-path="url(#p2966f02cbb)" style="fill: #8dd3c7"/>
   </g>
   <g id="patch_6">
    <path d="M 184.349054 228.593341 
L 213.027347 228.593341 
L 213.027347 184.395962 
L 184.349054 184.395962 
z
" clip-path="url(#p2966f02cbb)" style="fill: #8dd3c7"/>
   </g>
   <g id="patch_7">
    <path d="M 220.19692 228.593341 
L 248.875213 228.593341 
L 248.875213 204.284783 
L 220.19692 204.284783 
z
" clip-path="url(#p2966f02cbb)" style="fill: #8dd3c7"/>
   </g>
   <g id="patch_8">
    <path d="M 256.044787 228.593341 
L 284.72308 228.593341 
L 284.72308 213.124258 
L 256.044787 213.124258 
z
" clip-path="url(#p2966f02cbb)" style="fill: #8dd3c7"/>
   </g>
   <g id="patch_9">
    <path d="M 291.892653 228.593341 
L 320.570946 228.593341 
L 320.570946 215.334127 
L 291.892653 215.334127 
z
" clip-path="url(#p2966f02cbb)" style="fill: #8dd3c7"/>
   </g>
   <g id="patch_10">
    <path d="M 327.740519 228.593341 
L 356.418813 228.593341 
L 356.418813 224.173603 
L 327.740519 224.173603 
z
" clip-path="url(#p2966f02cbb)" style="fill: #8dd3c7"/>
   </g>
   <g id="patch_11">
    <path d="M 363.588386 228.593341 
L 392.266679 228.593341 
L 392.266679 226.383472 
L 363.588386 226.383472 
z
" clip-path="url(#p2966f02cbb)" style="fill: #8dd3c7"/>
   </g>
   <g id="patch_12">
    <path d="M 399.436252 228.593341 
L 428.114545 228.593341 
L 428.114545 226.383472 
L 399.436252 226.383472 
z
" clip-path="url(#p2966f02cbb)" style="fill: #8dd3c7"/>
   </g>
   <g id="matplotlib.axis_1">
    <g id="xtick_1">
     <g id="line2d_1">
      <defs>
       <path id="m65b5633402" d="M 0 0 
L 0 3.5 
" style="stroke: #ffffff; stroke-width: 0.8"/>
      </defs>
      <g>
       <use xlink:href="#m65b5633402" x="91.144601" y="228.593341" style="fill: #ffffff; stroke: #ffffff; stroke-width: 0.8"/>
      </g>
     </g>
     <g id="text_1">
      <!-- GitHub -->
      <g style="fill: #ffffff" transform="translate(57.593047 274.697893)rotate(-45)scale(0.14 -0.14)">
       <defs>
        <path id="Futura-Book-47" d="M 2963 2426 
L 2963 1926 
L 4397 1926 
C 4397 1030 3514 416 2675 416 
C 2170 416 1658 678 1306 1030 
C 947 1395 742 1882 742 2394 
C 742 3482 1613 4410 2714 4410 
C 3424 4410 3968 4070 4371 3501 
L 4762 3866 
C 4250 4531 3565 4909 2720 4909 
C 1331 4909 205 3782 205 2400 
C 205 1043 1331 -83 2688 -83 
C 3360 -83 4032 211 4474 723 
C 4915 1235 4986 1773 4973 2426 
L 2963 2426 
z
" transform="scale(0.015625)"/>
        <path id="Futura-Book-69" d="M 1094 3008 
L 582 3008 
L 582 0 
L 1094 0 
L 1094 3008 
z
M 838 4506 
C 640 4506 474 4339 474 4141 
C 474 3936 640 3776 838 3776 
C 1037 3776 1203 3936 1203 4141 
C 1203 4339 1037 4506 838 4506 
z
" transform="scale(0.015625)"/>
        <path id="Futura-Book-74" d="M 1024 2534 
L 1562 2534 
L 1562 3008 
L 1024 3008 
L 1024 4090 
L 512 4090 
L 512 3008 
L 198 3008 
L 198 2534 
L 512 2534 
L 512 0 
L 1024 0 
L 1024 2534 
z
" transform="scale(0.015625)"/>
        <path id="Futura-Book-48" d="M 1050 2867 
L 1050 4826 
L 512 4826 
L 512 0 
L 1050 0 
L 1050 2368 
L 3520 2368 
L 3520 0 
L 4058 0 
L 4058 4826 
L 3520 4826 
L 3520 2867 
L 1050 2867 
z
" transform="scale(0.015625)"/>
        <path id="Futura-Book-75" d="M 960 3008 
L 448 3008 
L 448 1274 
C 448 474 749 -83 1638 -83 
C 2528 -83 2829 474 2829 1274 
L 2829 3008 
L 2317 3008 
L 2317 1331 
C 2317 826 2259 390 1638 390 
C 1018 390 960 826 960 1331 
L 960 3008 
z
" transform="scale(0.015625)"/>
        <path id="Futura-Book-62" d="M 1926 2618 
C 2560 2618 2938 2131 2938 1530 
C 2938 922 2592 390 1933 390 
C 1293 390 947 947 947 1536 
C 947 2099 1331 2618 1926 2618 
z
M 461 0 
L 973 0 
L 973 416 
L 986 416 
C 1229 90 1606 -83 2022 -83 
C 2906 -83 3462 666 3462 1504 
C 3462 2355 2912 3091 2016 3091 
C 1606 3091 1229 2899 986 2579 
L 973 2579 
L 973 5280 
L 461 5280 
L 461 0 
z
" transform="scale(0.015625)"/>
       </defs>
       <use xlink:href="#Futura-Book-47"/>
       <use xlink:href="#Futura-Book-69" x="81.999985"/>
       <use xlink:href="#Futura-Book-74" x="108.199982"/>
       <use xlink:href="#Futura-Book-48" x="132.199966"/>
       <use xlink:href="#Futura-Book-75" x="203.59996"/>
       <use xlink:href="#Futura-Book-62" x="254.799957"/>
      </g>
     </g>
    </g>
    <g id="xtick_2">
     <g id="line2d_2">
      <g>
       <use xlink:href="#m65b5633402" x="126.992468" y="228.593341" style="fill: #ffffff; stroke: #ffffff; stroke-width: 0.8"/>
      </g>
     </g>
     <g id="text_2">
      <!-- Zenodo -->
      <g style="fill: #ffffff" transform="translate(91.372847 276.765959)rotate(-45)scale(0.14 -0.14)">
       <defs>
        <path id="Futura-Book-5a" d="M 979 499 
L 3616 4826 
L 422 4826 
L 422 4326 
L 2720 4326 
L 90 0 
L 3546 0 
L 3546 499 
L 979 499 
z
" transform="scale(0.015625)"/>
        <path id="Futura-Book-65" d="M 3104 1395 
C 3155 2291 2643 3091 1677 3091 
C 736 3091 218 2355 218 1466 
C 218 602 794 -83 1690 -83 
C 2304 -83 2790 224 3078 762 
L 2643 1011 
C 2445 653 2163 390 1728 390 
C 1146 390 749 838 742 1395 
L 3104 1395 
z
M 768 1830 
C 832 2266 1242 2618 1683 2618 
C 2131 2618 2496 2266 2566 1830 
L 768 1830 
z
" transform="scale(0.015625)"/>
        <path id="Futura-Book-6e" d="M 998 3008 
L 486 3008 
L 486 0 
L 998 0 
L 998 1427 
C 998 1965 1043 2618 1747 2618 
C 2342 2618 2381 2182 2381 1696 
L 2381 0 
L 2893 0 
L 2893 1786 
C 2893 2490 2701 3091 1869 3091 
C 1498 3091 1222 2931 1011 2643 
L 998 2643 
L 998 3008 
z
" transform="scale(0.015625)"/>
        <path id="Futura-Book-6f" d="M 1798 -83 
C 2675 -83 3379 614 3379 1498 
C 3379 2381 2682 3091 1798 3091 
C 915 3091 218 2381 218 1498 
C 218 614 922 -83 1798 -83 
z
M 1798 2618 
C 2432 2618 2867 2112 2867 1504 
C 2867 890 2432 390 1798 390 
C 1165 390 730 890 730 1504 
C 730 2112 1165 2618 1798 2618 
z
" transform="scale(0.015625)"/>
        <path id="Futura-Book-64" d="M 1734 2618 
C 2368 2618 2746 2131 2746 1530 
C 2746 922 2400 390 1741 390 
C 1101 390 755 947 755 1536 
C 755 2099 1139 2618 1734 2618 
z
M 2720 0 
L 3232 0 
L 3232 5280 
L 2720 5280 
L 2720 2579 
L 2707 2579 
C 2464 2899 2080 3091 1677 3091 
C 774 3091 230 2355 230 1498 
C 230 666 787 -83 1670 -83 
C 2080 -83 2458 90 2707 416 
L 2720 416 
L 2720 0 
z
" transform="scale(0.015625)"/>
       </defs>
       <use xlink:href="#Futura-Book-5a"/>
       <use xlink:href="#Futura-Book-65" x="58.599991"/>
       <use xlink:href="#Futura-Book-6e" x="110.499985"/>
       <use xlink:href="#Futura-Book-6f" x="163.299973"/>
       <use xlink:href="#Futura-Book-64" x="219.499969"/>
       <use xlink:href="#Futura-Book-6f" x="277.199966"/>
      </g>
     </g>
    </g>
    <g id="xtick_3">
     <g id="line2d_3">
      <g>
       <use xlink:href="#m65b5633402" x="162.840334" y="228.593341" style="fill: #ffffff; stroke: #ffffff; stroke-width: 0.8"/>
      </g>
     </g>
     <g id="text_3">
      <!-- Institutional website -->
      <g style="fill: #ffffff" transform="translate(77.065851 326.920822)rotate(-45)scale(0.14 -0.14)">
       <defs>
        <path id="Futura-Book-49" d="M 1037 4826 
L 499 4826 
L 499 0 
L 1037 0 
L 1037 4826 
z
" transform="scale(0.015625)"/>
        <path id="Futura-Book-73" d="M 2131 2534 
C 1997 2848 1677 3091 1331 3091 
C 845 3091 435 2746 435 2240 
C 435 1293 1792 1523 1792 851 
C 1792 576 1581 390 1306 390 
C 966 390 819 589 691 870 
L 237 678 
C 397 205 794 -83 1299 -83 
C 1856 -83 2317 326 2317 896 
C 2317 1402 1971 1613 1619 1760 
C 1267 1907 922 2010 922 2285 
C 922 2477 1114 2618 1293 2618 
C 1478 2618 1632 2470 1702 2310 
L 2131 2534 
z
" transform="scale(0.015625)"/>
        <path id="Futura-Book-61" d="M 1734 2618 
C 2368 2618 2746 2131 2746 1530 
C 2746 922 2400 390 1741 390 
C 1101 390 755 947 755 1536 
C 755 2099 1139 2618 1734 2618 
z
M 3232 3008 
L 2720 3008 
L 2720 2579 
L 2707 2579 
C 2458 2899 2086 3091 1677 3091 
C 774 3091 230 2355 230 1498 
C 230 666 787 -83 1670 -83 
C 2093 -83 2445 83 2707 416 
L 2720 416 
L 2720 0 
L 3232 0 
L 3232 3008 
z
" transform="scale(0.015625)"/>
        <path id="Futura-Book-6c" d="M 986 5280 
L 474 5280 
L 474 0 
L 986 0 
L 986 5280 
z
" transform="scale(0.015625)"/>
        <path id="Futura-Book-20" transform="scale(0.015625)"/>
        <path id="Futura-Book-77" d="M 602 3008 
L 19 3008 
L 1498 -211 
L 2426 2029 
L 3354 -211 
L 4845 3008 
L 4262 3008 
L 3366 973 
L 2426 3238 
L 1491 973 
L 602 3008 
z
" transform="scale(0.015625)"/>
       </defs>
       <use xlink:href="#Futura-Book-49"/>
       <use xlink:href="#Futura-Book-6e" x="23.899994"/>
       <use xlink:href="#Futura-Book-73" x="76.699982"/>
       <use xlink:href="#Futura-Book-74" x="116.599976"/>
       <use xlink:href="#Futura-Book-69" x="140.59996"/>
       <use xlink:href="#Futura-Book-74" x="166.799957"/>
       <use xlink:href="#Futura-Book-75" x="190.799942"/>
       <use xlink:href="#Futura-Book-74" x="241.999939"/>
       <use xlink:href="#Futura-Book-69" x="265.999924"/>
       <use xlink:href="#Futura-Book-6f" x="292.199921"/>
       <use xlink:href="#Futura-Book-6e" x="348.399918"/>
       <use xlink:href="#Futura-Book-61" x="401.199905"/>
       <use xlink:href="#Futura-Book-6c" x="458.899902"/>
       <use xlink:href="#Futura-Book-20" x="481.599899"/>
       <use xlink:href="#Futura-Book-77" x="512.399887"/>
       <use xlink:href="#Futura-Book-65" x="588.399872"/>
       <use xlink:href="#Futura-Book-62" x="640.299866"/>
       <use xlink:href="#Futura-Book-73" x="697.999863"/>
       <use xlink:href="#Futura-Book-69" x="737.899857"/>
       <use xlink:href="#Futura-Book-74" x="764.099854"/>
       <use xlink:href="#Futura-Book-65" x="788.099838"/>
      </g>
     </g>
    </g>
    <g id="xtick_4">
     <g id="line2d_4">
      <g>
       <use xlink:href="#m65b5633402" x="198.6882" y="228.593341" style="fill: #ffffff; stroke: #ffffff; stroke-width: 0.8"/>
      </g>
     </g>
     <g id="text_4">
      <!-- Personal website -->
      <g style="fill: #ffffff" transform="translate(124.457456 315.377083)rotate(-45)scale(0.14 -0.14)">
       <defs>
        <path id="Futura-Book-50" d="M 1024 2112 
L 1414 2112 
C 1818 2112 2234 2163 2560 2432 
C 2861 2682 3021 3078 3021 3469 
C 3021 3898 2835 4320 2477 4570 
C 2125 4813 1696 4826 1280 4826 
L 486 4826 
L 486 0 
L 1024 0 
L 1024 2112 
z
M 1024 4326 
L 1222 4326 
C 1850 4326 2483 4269 2483 3482 
C 2483 2790 1978 2611 1382 2611 
L 1024 2611 
L 1024 4326 
z
" transform="scale(0.015625)"/>
        <path id="Futura-Book-72" d="M 973 3008 
L 461 3008 
L 461 0 
L 973 0 
L 973 1504 
C 973 1894 998 2618 1562 2618 
C 1696 2618 1766 2554 1869 2483 
L 2112 2950 
C 1965 3034 1824 3091 1651 3091 
C 1318 3091 1165 2918 986 2682 
L 973 2682 
L 973 3008 
z
" transform="scale(0.015625)"/>
       </defs>
       <use xlink:href="#Futura-Book-50"/>
       <use xlink:href="#Futura-Book-65" x="50.299988"/>
       <use xlink:href="#Futura-Book-72" x="102.199982"/>
       <use xlink:href="#Futura-Book-73" x="135.699966"/>
       <use xlink:href="#Futura-Book-6f" x="175.59996"/>
       <use xlink:href="#Futura-Book-6e" x="231.799957"/>
       <use xlink:href="#Futura-Book-61" x="284.599945"/>
       <use xlink:href="#Futura-Book-6c" x="342.299942"/>
       <use xlink:href="#Futura-Book-20" x="364.999939"/>
       <use xlink:href="#Futura-Book-77" x="395.799927"/>
       <use xlink:href="#Futura-Book-65" x="471.799911"/>
       <use xlink:href="#Futura-Book-62" x="523.699905"/>
       <use xlink:href="#Futura-Book-73" x="581.399902"/>
       <use xlink:href="#Futura-Book-69" x="621.299896"/>
       <use xlink:href="#Futura-Book-74" x="647.499893"/>
       <use xlink:href="#Futura-Book-65" x="671.499878"/>
      </g>
     </g>
    </g>
    <g id="xtick_5">
     <g id="line2d_5">
      <g>
       <use xlink:href="#m65b5633402" x="234.536067" y="228.593341" style="fill: #ffffff; stroke: #ffffff; stroke-width: 0.8"/>
      </g>
     </g>
     <g id="text_5">
      <!-- GitLab -->
      <g style="fill: #ffffff" transform="translate(203.697593 271.984812)rotate(-45)scale(0.14 -0.14)">
       <defs>
        <path id="Futura-Book-4c" d="M 1024 4826 
L 486 4826 
L 486 0 
L 2355 0 
L 2355 499 
L 1024 499 
L 1024 4826 
z
" transform="scale(0.015625)"/>
       </defs>
       <use xlink:href="#Futura-Book-47"/>
       <use xlink:href="#Futura-Book-69" x="81.999985"/>
       <use xlink:href="#Futura-Book-74" x="108.199982"/>
       <use xlink:href="#Futura-Book-4c" x="132.199966"/>
       <use xlink:href="#Futura-Book-61" x="169.699951"/>
       <use xlink:href="#Futura-Book-62" x="227.399948"/>
      </g>
     </g>
    </g>
    <g id="xtick_6">
     <g id="line2d_6">
      <g>
       <use xlink:href="#m65b5633402" x="270.383933" y="228.593341" style="fill: #ffffff; stroke: #ffffff; stroke-width: 0.8"/>
      </g>
     </g>
     <g id="text_6">
      <!-- Dedicated website -->
      <g style="fill: #ffffff" transform="translate(188.481081 323.049192)rotate(-45)scale(0.14 -0.14)">
       <defs>
        <path id="Futura-Book-44" d="M 486 0 
L 1382 0 
C 2138 0 2714 96 3290 608 
C 3821 1082 4077 1702 4077 2406 
C 4077 3123 3827 3770 3277 4243 
C 2707 4730 2118 4826 1395 4826 
L 486 4826 
L 486 0 
z
M 1024 499 
L 1024 4326 
L 1414 4326 
C 1984 4326 2470 4250 2912 3859 
C 3328 3494 3539 2963 3539 2413 
C 3539 1875 3334 1370 2938 998 
C 2496 582 2003 499 1414 499 
L 1024 499 
z
" transform="scale(0.015625)"/>
        <path id="Futura-Book-63" d="M 2720 2790 
C 2451 2982 2118 3091 1792 3091 
C 909 3091 186 2400 186 1504 
C 186 595 877 -83 1786 -83 
C 2144 -83 2445 26 2739 224 
L 2739 909 
L 2726 909 
C 2477 582 2176 390 1747 390 
C 1120 390 710 909 710 1504 
C 710 2106 1152 2618 1773 2618 
C 2176 2618 2470 2413 2707 2112 
L 2720 2112 
L 2720 2790 
z
" transform="scale(0.015625)"/>
       </defs>
       <use xlink:href="#Futura-Book-44"/>
       <use xlink:href="#Futura-Book-65" x="67.799988"/>
       <use xlink:href="#Futura-Book-64" x="119.699982"/>
       <use xlink:href="#Futura-Book-69" x="177.399979"/>
       <use xlink:href="#Futura-Book-63" x="203.599976"/>
       <use xlink:href="#Futura-Book-61" x="251.199966"/>
       <use xlink:href="#Futura-Book-74" x="308.899963"/>
       <use xlink:href="#Futura-Book-65" x="332.899948"/>
       <use xlink:href="#Futura-Book-64" x="384.799942"/>
       <use xlink:href="#Futura-Book-20" x="442.499939"/>
       <use xlink:href="#Futura-Book-77" x="473.299927"/>
       <use xlink:href="#Futura-Book-65" x="549.299911"/>
       <use xlink:href="#Futura-Book-62" x="601.199905"/>
       <use xlink:href="#Futura-Book-73" x="658.899902"/>
       <use xlink:href="#Futura-Book-69" x="698.799896"/>
       <use xlink:href="#Futura-Book-74" x="724.999893"/>
       <use xlink:href="#Futura-Book-65" x="748.999878"/>
      </g>
     </g>
    </g>
    <g id="xtick_7">
     <g id="line2d_7">
      <g>
       <use xlink:href="#m65b5633402" x="306.2318" y="228.593341" style="fill: #ffffff; stroke: #ffffff; stroke-width: 0.8"/>
      </g>
     </g>
     <g id="text_7">
      <!-- arXiv -->
      <g style="fill: #ffffff" transform="translate(281.827998 265.550141)rotate(-45)scale(0.14 -0.14)">
       <defs>
        <path id="Futura-Book-58" d="M 1510 2496 
L 83 0 
L 698 0 
L 1805 1984 
L 2912 0 
L 3526 0 
L 2099 2496 
L 3405 4826 
L 2790 4826 
L 1805 3008 
L 819 4826 
L 205 4826 
L 1510 2496 
z
" transform="scale(0.015625)"/>
        <path id="Futura-Book-76" d="M 589 3008 
L 6 3008 
L 1485 -198 
L 2957 3008 
L 2381 3008 
L 1485 986 
L 589 3008 
z
" transform="scale(0.015625)"/>
       </defs>
       <use xlink:href="#Futura-Book-61"/>
       <use xlink:href="#Futura-Book-72" x="57.699997"/>
       <use xlink:href="#Futura-Book-58" x="91.199982"/>
       <use xlink:href="#Futura-Book-69" x="147.599976"/>
       <use xlink:href="#Futura-Book-76" x="173.799973"/>
      </g>
     </g>
    </g>
    <g id="xtick_8">
     <g id="line2d_8">
      <g>
       <use xlink:href="#m65b5633402" x="342.079666" y="228.593341" style="fill: #ffffff; stroke: #ffffff; stroke-width: 0.8"/>
      </g>
     </g>
     <g id="text_8">
      <!-- Unibi -->
      <g style="fill: #ffffff" transform="translate(316.557531 266.668474)rotate(-45)scale(0.14 -0.14)">
       <defs>
        <path id="Futura-Book-55" d="M 1011 4826 
L 474 4826 
L 474 1805 
C 474 1254 525 813 947 410 
C 1274 90 1741 -83 2195 -83 
C 2682 -83 3162 109 3494 467 
C 3878 864 3917 1280 3917 1805 
L 3917 4826 
L 3379 4826 
L 3379 1952 
C 3379 1574 3398 1152 3142 845 
C 2918 576 2541 416 2195 416 
C 1843 416 1434 582 1222 877 
C 998 1184 1011 1594 1011 1952 
L 1011 4826 
z
" transform="scale(0.015625)"/>
       </defs>
       <use xlink:href="#Futura-Book-55"/>
       <use xlink:href="#Futura-Book-6e" x="68.499985"/>
       <use xlink:href="#Futura-Book-69" x="121.299973"/>
       <use xlink:href="#Futura-Book-62" x="147.499969"/>
       <use xlink:href="#Futura-Book-69" x="205.199966"/>
      </g>
     </g>
    </g>
    <g id="xtick_9">
     <g id="line2d_9">
      <g>
       <use xlink:href="#m65b5633402" x="377.927532" y="228.593341" style="fill: #ffffff; stroke: #ffffff; stroke-width: 0.8"/>
      </g>
     </g>
     <g id="text_9">
      <!-- DIGITAL.CSIC -->
      <g style="fill: #ffffff" transform="translate(315.319414 303.754457)rotate(-45)scale(0.14 -0.14)">
       <defs>
        <path id="Futura-Book-54" d="M 1766 4326 
L 2944 4326 
L 2944 4826 
L 64 4826 
L 64 4326 
L 1229 4326 
L 1229 0 
L 1766 0 
L 1766 4326 
z
" transform="scale(0.015625)"/>
        <path id="Futura-Book-41" d="M 3270 1370 
L 3840 0 
L 4435 0 
L 2266 5056 
L 38 0 
L 627 0 
L 1210 1370 
L 3270 1370 
z
M 3059 1869 
L 1427 1869 
L 2253 3802 
L 3059 1869 
z
" transform="scale(0.015625)"/>
        <path id="Futura-Book-2e" d="M 986 634 
C 787 634 627 474 627 282 
C 627 83 787 -83 986 -83 
C 1184 -83 1344 83 1344 282 
C 1344 474 1184 634 986 634 
z
" transform="scale(0.015625)"/>
        <path id="Futura-Book-43" d="M 4166 4435 
C 3738 4755 3264 4909 2726 4909 
C 1344 4909 211 3776 211 2394 
C 211 1024 1363 -83 2726 -83 
C 3238 -83 3750 90 4166 390 
L 4166 1056 
C 3782 672 3251 416 2707 416 
C 1626 416 749 1350 749 2413 
C 749 3475 1619 4410 2694 4410 
C 3251 4410 3782 4166 4166 3770 
L 4166 4435 
z
" transform="scale(0.015625)"/>
        <path id="Futura-Book-53" d="M 3104 4160 
C 2848 4634 2394 4909 1856 4909 
C 1139 4909 506 4429 506 3680 
C 506 2989 992 2701 1555 2445 
L 1850 2317 
C 2298 2112 2739 1920 2739 1357 
C 2739 813 2266 416 1747 416 
C 1229 416 851 819 781 1312 
L 256 1165 
C 410 416 986 -83 1760 -83 
C 2598 -83 3277 563 3277 1408 
C 3277 2176 2746 2490 2118 2765 
L 1798 2906 
C 1472 3053 1043 3245 1043 3661 
C 1043 4102 1414 4410 1843 4410 
C 2253 4410 2483 4218 2675 3885 
L 3104 4160 
z
" transform="scale(0.015625)"/>
       </defs>
       <use xlink:href="#Futura-Book-44"/>
       <use xlink:href="#Futura-Book-49" x="67.799988"/>
       <use xlink:href="#Futura-Book-47" x="91.699982"/>
       <use xlink:href="#Futura-Book-49" x="173.699966"/>
       <use xlink:href="#Futura-Book-54" x="197.59996"/>
       <use xlink:href="#Futura-Book-41" x="244.599945"/>
       <use xlink:href="#Futura-Book-4c" x="314.499939"/>
       <use xlink:href="#Futura-Book-2e" x="351.999924"/>
       <use xlink:href="#Futura-Book-43" x="382.799911"/>
       <use xlink:href="#Futura-Book-53" x="454.499893"/>
       <use xlink:href="#Futura-Book-49" x="510.399887"/>
       <use xlink:href="#Futura-Book-43" x="534.299881"/>
      </g>
     </g>
    </g>
    <g id="xtick_10">
     <g id="line2d_10">
      <g>
       <use xlink:href="#m65b5633402" x="413.775399" y="228.593341" style="fill: #ffffff; stroke: #ffffff; stroke-width: 0.8"/>
      </g>
     </g>
     <g id="text_10">
      <!-- Instit -->
      <g style="fill: #ffffff" transform="translate(392.27184 262.649898)rotate(-45)scale(0.14 -0.14)">
       <use xlink:href="#Futura-Book-49"/>
       <use xlink:href="#Futura-Book-6e" x="23.899994"/>
       <use xlink:href="#Futura-Book-73" x="76.699982"/>
       <use xlink:href="#Futura-Book-74" x="116.599976"/>
       <use xlink:href="#Futura-Book-69" x="140.59996"/>
       <use xlink:href="#Futura-Book-74" x="166.799957"/>
      </g>
     </g>
    </g>
   </g>
   <g id="matplotlib.axis_2">
    <g id="ytick_1">
     <g id="line2d_11">
      <defs>
       <path id="m4869392229" d="M 0 0 
L -3.5 0 
" style="stroke: #ffffff; stroke-width: 0.8"/>
      </defs>
      <g>
       <use xlink:href="#m4869392229" x="59.24" y="228.593341" style="fill: #ffffff; stroke: #ffffff; stroke-width: 0.8"/>
      </g>
     </g>
     <g id="text_11">
      <!-- 0 -->
      <g style="fill: #ffffff" transform="translate(43.616875 234.368341)scale(0.14 -0.14)">
       <defs>
        <path id="Futura-Book-30" d="M 1971 4909 
C 749 4909 243 3398 243 2406 
C 243 1216 870 -83 1971 -83 
C 3072 -83 3699 1216 3699 2406 
C 3699 3398 3194 4909 1971 4909 
z
M 1971 4410 
C 2880 4410 3174 3066 3162 2381 
C 3149 1702 2861 416 1971 416 
C 1082 416 794 1702 781 2381 
C 768 3066 1062 4410 1971 4410 
z
" transform="scale(0.015625)"/>
       </defs>
       <use xlink:href="#Futura-Book-30"/>
      </g>
     </g>
    </g>
    <g id="ytick_2">
     <g id="line2d_12">
      <g>
       <use xlink:href="#m4869392229" x="59.24" y="184.395962" style="fill: #ffffff; stroke: #ffffff; stroke-width: 0.8"/>
      </g>
     </g>
     <g id="text_12">
      <!-- 20 -->
      <g style="fill: #ffffff" transform="translate(34.99375 190.170962)scale(0.14 -0.14)">
       <defs>
        <path id="Futura-Book-32" d="M 1350 499 
L 3021 2464 
C 3270 2752 3386 3091 3386 3482 
C 3386 4320 2675 4909 1869 4909 
C 1018 4909 397 4262 378 3418 
L 915 3418 
C 928 3981 1306 4410 1888 4410 
C 2413 4410 2848 4013 2848 3475 
C 2848 3162 2714 2899 2522 2669 
L 262 0 
L 3386 0 
L 3386 499 
L 1350 499 
z
" transform="scale(0.015625)"/>
       </defs>
       <use xlink:href="#Futura-Book-32"/>
       <use xlink:href="#Futura-Book-30" x="61.599991"/>
      </g>
     </g>
    </g>
    <g id="ytick_3">
     <g id="line2d_13">
      <g>
       <use xlink:href="#m4869392229" x="59.24" y="140.198583" style="fill: #ffffff; stroke: #ffffff; stroke-width: 0.8"/>
      </g>
     </g>
     <g id="text_13">
      <!-- 40 -->
      <g style="fill: #ffffff" transform="translate(34.99375 145.973583)scale(0.14 -0.14)">
       <defs>
        <path id="Futura-Book-34" d="M 3046 1280 
L 3046 5094 
L 3034 5094 
L 38 781 
L 2509 781 
L 2509 0 
L 3046 0 
L 3046 781 
L 3642 781 
L 3642 1280 
L 3046 1280 
z
M 2509 1280 
L 979 1280 
L 2496 3462 
L 2509 3462 
L 2509 1280 
z
" transform="scale(0.015625)"/>
       </defs>
       <use xlink:href="#Futura-Book-34"/>
       <use xlink:href="#Futura-Book-30" x="61.599991"/>
      </g>
     </g>
    </g>
    <g id="ytick_4">
     <g id="line2d_14">
      <g>
       <use xlink:href="#m4869392229" x="59.24" y="96.001204" style="fill: #ffffff; stroke: #ffffff; stroke-width: 0.8"/>
      </g>
     </g>
     <g id="text_14">
      <!-- 60 -->
      <g style="fill: #ffffff" transform="translate(34.99375 101.776204)scale(0.14 -0.14)">
       <defs>
        <path id="Futura-Book-36" d="M 2323 4909 
L 723 2726 
C 480 2387 282 2010 282 1568 
C 282 659 1030 -83 1946 -83 
C 2854 -83 3610 653 3610 1574 
C 3610 2445 2925 3168 2048 3168 
C 1901 3168 1754 3142 1626 3098 
L 1613 3110 
L 2726 4608 
L 2323 4909 
z
M 1946 416 
C 1318 416 819 928 819 1555 
C 819 2182 1318 2669 1946 2669 
C 2566 2669 3072 2182 3072 1555 
C 3072 928 2573 416 1946 416 
z
" transform="scale(0.015625)"/>
       </defs>
       <use xlink:href="#Futura-Book-36"/>
       <use xlink:href="#Futura-Book-30" x="61.599991"/>
      </g>
     </g>
    </g>
    <g id="ytick_5">
     <g id="line2d_15">
      <g>
       <use xlink:href="#m4869392229" x="59.24" y="51.803825" style="fill: #ffffff; stroke: #ffffff; stroke-width: 0.8"/>
      </g>
     </g>
     <g id="text_15">
      <!-- 80 -->
      <g style="fill: #ffffff" transform="translate(34.99375 57.578825)scale(0.14 -0.14)">
       <defs>
        <path id="Futura-Book-38" d="M 1971 2272 
C 2496 2272 2906 1856 2906 1344 
C 2906 832 2496 416 1971 416 
C 1446 416 1037 832 1037 1344 
C 1037 1856 1446 2272 1971 2272 
z
M 1971 4909 
C 1216 4909 621 4339 621 3565 
C 621 3142 838 2720 1210 2509 
C 755 2304 499 1843 499 1350 
C 499 518 1139 -83 1971 -83 
C 2803 -83 3443 518 3443 1350 
C 3443 1843 3187 2304 2733 2509 
C 3104 2720 3322 3142 3322 3565 
C 3322 4339 2726 4909 1971 4909 
z
M 1971 4410 
C 2432 4410 2810 4038 2810 3578 
C 2810 3110 2432 2733 1971 2733 
C 1510 2733 1133 3110 1133 3578 
C 1133 4038 1510 4410 1971 4410 
z
" transform="scale(0.015625)"/>
       </defs>
       <use xlink:href="#Futura-Book-38"/>
       <use xlink:href="#Futura-Book-30" x="61.599991"/>
      </g>
     </g>
    </g>
    <g id="text_16">
     <!-- count -->
     <g style="fill: #ffffff" transform="translate(27.296875 138.082452)rotate(-90)scale(0.14 -0.14)">
      <use xlink:href="#Futura-Book-63"/>
      <use xlink:href="#Futura-Book-6f" x="47.599991"/>
      <use xlink:href="#Futura-Book-75" x="103.799988"/>
      <use xlink:href="#Futura-Book-6e" x="154.999985"/>
      <use xlink:href="#Futura-Book-74" x="207.799973"/>
     </g>
    </g>
   </g>
   <g id="patch_13">
    <path d="M 59.24 228.593341 
L 59.24 15.12 
" style="fill: none; stroke: #ffffff; stroke-width: 0.8; stroke-linejoin: miter; stroke-linecap: square"/>
   </g>
   <g id="patch_14">
    <path d="M 445.68 228.593341 
L 445.68 15.12 
" style="fill: none; stroke: #ffffff; stroke-width: 0.8; stroke-linejoin: miter; stroke-linecap: square"/>
   </g>
   <g id="patch_15">
    <path d="M 59.24 228.593341 
L 445.68 228.593341 
" style="fill: none; stroke: #ffffff; stroke-width: 0.8; stroke-linejoin: miter; stroke-linecap: square"/>
   </g>
   <g id="patch_16">
    <path d="M 59.24 15.12 
L 445.68 15.12 
" style="fill: none; stroke: #ffffff; stroke-width: 0.8; stroke-linejoin: miter; stroke-linecap: square"/>
   </g>
   <g id="text_17">
    <!-- Out of all submissions -->
    <g style="fill: #ffffff" transform="translate(305.3362 30.063134)scale(0.14 -0.14)">
     <defs>
      <path id="Futura-Book-4f" d="M 2758 4909 
C 1382 4909 243 3789 243 2406 
C 243 1018 1382 -83 2758 -83 
C 4134 -83 5274 1018 5274 2406 
C 5274 3789 4134 4909 2758 4909 
z
M 2758 4410 
C 3866 4410 4736 3507 4736 2413 
C 4736 1325 3853 416 2758 416 
C 1664 416 781 1325 781 2413 
C 781 3507 1651 4410 2758 4410 
z
" transform="scale(0.015625)"/>
      <path id="Futura-Book-66" d="M 1043 2534 
L 1805 2534 
L 1805 3008 
L 1043 3008 
L 1043 4026 
C 1043 4557 1043 4851 1459 4851 
C 1587 4851 1690 4819 1805 4781 
L 1805 5299 
C 1683 5338 1562 5363 1440 5363 
C 1133 5363 832 5254 666 4986 
C 531 4768 531 4454 531 4205 
L 531 3008 
L 250 3008 
L 250 2534 
L 531 2534 
L 531 0 
L 1043 0 
L 1043 2534 
z
" transform="scale(0.015625)"/>
      <path id="Futura-Book-6d" d="M 998 3008 
L 486 3008 
L 486 0 
L 998 0 
L 998 1555 
C 998 2010 1062 2618 1664 2618 
C 2157 2618 2202 2080 2202 1709 
L 2202 0 
L 2714 0 
L 2714 1594 
C 2714 2048 2778 2618 3366 2618 
C 3891 2618 3917 2138 3917 1747 
L 3917 0 
L 4429 0 
L 4429 1830 
C 4429 2464 4237 3091 3469 3091 
C 3104 3091 2746 2925 2566 2592 
C 2406 2906 2086 3091 1734 3091 
C 1427 3091 1171 2931 1011 2682 
L 998 2682 
L 998 3008 
z
" transform="scale(0.015625)"/>
     </defs>
     <use xlink:href="#Futura-Book-4f"/>
     <use xlink:href="#Futura-Book-75" x="86.199982"/>
     <use xlink:href="#Futura-Book-74" x="137.399979"/>
     <use xlink:href="#Futura-Book-20" x="161.399963"/>
     <use xlink:href="#Futura-Book-6f" x="192.199951"/>
     <use xlink:href="#Futura-Book-66" x="248.399948"/>
     <use xlink:href="#Futura-Book-20" x="275.799942"/>
     <use xlink:href="#Futura-Book-61" x="306.59993"/>
     <use xlink:href="#Futura-Book-6c" x="364.299927"/>
     <use xlink:href="#Futura-Book-6c" x="386.999924"/>
     <use xlink:href="#Futura-Book-20" x="409.699921"/>
     <use xlink:href="#Futura-Book-73" x="440.499908"/>
     <use xlink:href="#Futura-Book-75" x="480.399902"/>
     <use xlink:href="#Futura-Book-62" x="531.599899"/>
     <use xlink:href="#Futura-Book-6d" x="589.299896"/>
     <use xlink:href="#Futura-Book-69" x="666.099884"/>
     <use xlink:href="#Futura-Book-73" x="692.299881"/>
     <use xlink:href="#Futura-Book-73" x="732.199875"/>
     <use xlink:href="#Futura-Book-69" x="772.099869"/>
     <use xlink:href="#Futura-Book-6f" x="798.299866"/>
     <use xlink:href="#Futura-Book-6e" x="854.499863"/>
     <use xlink:href="#Futura-Book-73" x="907.29985"/>
    </g>
   </g>
  </g>
 </g>
 <defs>
  <clipPath id="p2966f02cbb">
   <rect x="59.24" y="15.12" width="386.44" height="213.473341"/>
  </clipPath>
 </defs>
</svg>
