<?xml version="1.0" encoding="utf-8" standalone="no"?>
<!DOCTYPE svg PUBLIC "-//W3C//DTD SVG 1.1//EN"
  "http://www.w3.org/Graphics/SVG/1.1/DTD/svg11.dtd">
<svg xmlns:xlink="http://www.w3.org/1999/xlink" width="432pt" height="288pt" viewBox="0 0 432 288" xmlns="http://www.w3.org/2000/svg" version="1.1">
 <metadata>
  <rdf:RDF xmlns:dc="http://purl.org/dc/elements/1.1/" xmlns:cc="http://creativecommons.org/ns#" xmlns:rdf="http://www.w3.org/1999/02/22-rdf-syntax-ns#">
   <cc:Work>
    <dc:type rdf:resource="http://purl.org/dc/dcmitype/StillImage"/>
    <dc:date>2022-05-25T21:41:03.358465</dc:date>
    <dc:format>image/svg+xml</dc:format>
    <dc:creator>
     <cc:Agent>
      <dc:title>Matplotlib v3.5.1, https://matplotlib.org/</dc:title>
     </cc:Agent>
    </dc:creator>
   </cc:Work>
  </rdf:RDF>
 </metadata>
 <defs>
  <style type="text/css">*{stroke-linejoin: round; stroke-linecap: butt}</style>
 </defs>
 <g id="figure_1">
  <g id="patch_1">
   <path d="M 0 288 
L 432 288 
L 432 0 
L 0 0 
L 0 288 
z
" style="fill: none"/>
  </g>
  <g id="axes_1">
   <g id="patch_2">
    <path d="M 54 252 
L 388.8 252 
L 388.8 34.56 
L 54 34.56 
L 54 252 
z
" style="fill: none"/>
   </g>
   <g id="patch_3">
    <path d="M 69.218182 252 
L 94.064193 252 
L 94.064193 44.914286 
L 69.218182 44.914286 
z
" clip-path="url(#pf7f116ff05)" style="fill: #8dd3c7"/>
   </g>
   <g id="patch_4">
    <path d="M 100.275696 252 
L 125.121707 252 
L 125.121707 118.873469 
L 100.275696 118.873469 
z
" clip-path="url(#pf7f116ff05)" style="fill: #8dd3c7"/>
   </g>
   <g id="patch_5">
    <path d="M 131.33321 252 
L 156.179221 252 
L 156.179221 148.457143 
L 131.33321 148.457143 
z
" clip-path="url(#pf7f116ff05)" style="fill: #8dd3c7"/>
   </g>
   <g id="patch_6">
    <path d="M 162.390724 252 
L 187.236735 252 
L 187.236735 148.457143 
L 162.390724 148.457143 
z
" clip-path="url(#pf7f116ff05)" style="fill: #8dd3c7"/>
   </g>
   <g id="patch_7">
    <path d="M 193.448237 252 
L 218.294249 252 
L 218.294249 148.457143 
L 193.448237 148.457143 
z
" clip-path="url(#pf7f116ff05)" style="fill: #8dd3c7"/>
   </g>
   <g id="patch_8">
    <path d="M 224.505751 252 
L 249.351763 252 
L 249.351763 148.457143 
L 224.505751 148.457143 
z
" clip-path="url(#pf7f116ff05)" style="fill: #8dd3c7"/>
   </g>
   <g id="patch_9">
    <path d="M 255.563265 252 
L 280.409276 252 
L 280.409276 148.457143 
L 255.563265 148.457143 
z
" clip-path="url(#pf7f116ff05)" style="fill: #8dd3c7"/>
   </g>
   <g id="patch_10">
    <path d="M 286.620779 252 
L 311.46679 252 
L 311.46679 163.24898 
L 286.620779 163.24898 
z
" clip-path="url(#pf7f116ff05)" style="fill: #8dd3c7"/>
   </g>
   <g id="patch_11">
    <path d="M 317.678293 252 
L 342.524304 252 
L 342.524304 178.040816 
L 317.678293 178.040816 
z
" clip-path="url(#pf7f116ff05)" style="fill: #8dd3c7"/>
   </g>
   <g id="patch_12">
    <path d="M 348.735807 252 
L 373.581818 252 
L 373.581818 207.62449 
L 348.735807 207.62449 
z
" clip-path="url(#pf7f116ff05)" style="fill: #8dd3c7"/>
   </g>
   <g id="matplotlib.axis_1">
    <g id="xtick_1">
     <g id="line2d_1">
      <defs>
       <path id="me2036adf51" d="M 0 0 
L 0 3.5 
" style="stroke: #ffffff; stroke-width: 0.8"/>
      </defs>
      <g>
       <use xlink:href="#me2036adf51" x="81.641187" y="252" style="fill: #ffffff; stroke: #ffffff; stroke-width: 0.8"/>
      </g>
     </g>
     <g id="text_1">
      <!-- openQCD -->
      <g style="fill: #ffffff" transform="translate(33.317731 312.925952)rotate(-45)scale(0.14 -0.14)">
       <defs>
        <path id="Futura-Medium-6f" d="M 300 1544 
Q 300 2203 772 2665 
Q 1244 3128 1922 3128 
Q 2603 3128 3078 2663 
Q 3547 2197 3547 1519 
Q 3547 834 3075 372 
Q 2600 -88 1909 -88 
Q 1225 -88 763 381 
Q 300 844 300 1544 
z
M 1019 1531 
Q 1019 1075 1263 809 
Q 1513 541 1922 541 
Q 2334 541 2581 806 
Q 2828 1072 2828 1516 
Q 2828 1959 2581 2225 
Q 2331 2494 1922 2494 
Q 1519 2494 1269 2225 
Q 1019 1956 1019 1531 
z
" transform="scale(0.015625)"/>
        <path id="Futura-Medium-70" d="M 1147 -1656 
L 444 -1656 
L 444 3044 
L 1147 3044 
L 1147 2713 
Q 1563 3128 2091 3128 
Q 2719 3128 3125 2666 
Q 3538 2206 3538 1506 
Q 3538 822 3128 366 
Q 2722 -88 2103 -88 
Q 1569 -88 1147 341 
L 1147 -1656 
z
M 2819 1503 
Q 2819 1941 2581 2216 
Q 2341 2494 1975 2494 
Q 1588 2494 1347 2225 
Q 1106 1956 1106 1519 
Q 1106 1091 1347 813 
Q 1584 541 1972 541 
Q 2338 541 2575 816 
Q 2819 1091 2819 1503 
z
" transform="scale(0.015625)"/>
        <path id="Futura-Medium-65" d="M 3216 1356 
L 1034 1356 
Q 1063 981 1278 759 
Q 1494 541 1831 541 
Q 2094 541 2266 666 
Q 2434 791 2650 1128 
L 3244 797 
Q 3106 563 2953 395 
Q 2800 228 2625 120 
Q 2450 13 2247 -37 
Q 2044 -88 1806 -88 
Q 1125 -88 713 350 
Q 300 791 300 1519 
Q 300 2241 700 2688 
Q 1103 3128 1769 3128 
Q 2441 3128 2831 2700 
Q 3219 2275 3219 1522 
L 3216 1356 
z
M 2494 1931 
Q 2347 2494 1784 2494 
Q 1656 2494 1543 2455 
Q 1431 2416 1339 2342 
Q 1247 2269 1181 2166 
Q 1116 2063 1081 1931 
L 2494 1931 
z
" transform="scale(0.015625)"/>
        <path id="Futura-Medium-6e" d="M 444 3044 
L 1150 3044 
L 1150 2763 
Q 1519 3128 1981 3128 
Q 2513 3128 2809 2794 
Q 3066 2509 3066 1866 
L 3066 0 
L 2359 0 
L 2359 1700 
Q 2359 2150 2234 2322 
Q 2113 2497 1791 2497 
Q 1441 2497 1294 2266 
Q 1150 2038 1150 1469 
L 1150 0 
L 444 0 
L 444 3044 
z
" transform="scale(0.015625)"/>
        <path id="Futura-Medium-51" d="M 5488 -88 
L 4572 -88 
L 4194 300 
Q 3591 -88 2850 -88 
Q 1891 -88 1147 563 
Q 338 1278 338 2391 
Q 338 3481 1103 4209 
Q 1847 4916 2859 4916 
Q 3778 4916 4506 4297 
Q 5381 3553 5381 2356 
Q 5381 1419 4691 691 
L 5488 -88 
z
M 3484 1909 
L 4184 1213 
Q 4647 1694 4647 2403 
Q 4647 3181 4131 3706 
Q 3616 4231 2850 4231 
Q 2075 4231 1575 3706 
Q 1072 3184 1072 2384 
Q 1072 1603 1591 1106 
Q 2131 594 2825 594 
Q 3297 594 3678 809 
L 2544 1909 
L 3484 1909 
z
" transform="scale(0.015625)"/>
        <path id="Futura-Medium-43" d="M 4144 4566 
L 4144 3703 
Q 3513 4231 2838 4231 
Q 2094 4231 1584 3697 
Q 1072 3166 1072 2397 
Q 1072 1638 1584 1116 
Q 2097 594 2841 594 
Q 3225 594 3494 719 
Q 3644 781 3805 887 
Q 3966 994 4144 1144 
L 4144 266 
Q 3519 -88 2831 -88 
Q 1797 -88 1066 634 
Q 338 1363 338 2391 
Q 338 3313 947 4034 
Q 1697 4919 2888 4919 
Q 3538 4919 4144 4566 
z
" transform="scale(0.015625)"/>
        <path id="Futura-Medium-44" d="M 578 0 
L 578 4825 
L 1591 4825 
Q 2319 4825 2741 4681 
Q 3194 4541 3563 4203 
Q 4309 3522 4309 2413 
Q 4309 1300 3531 613 
Q 3141 269 2713 134 
Q 2313 0 1578 0 
L 578 0 
z
M 1306 684 
L 1634 684 
Q 2125 684 2450 788 
Q 2775 897 3038 1134 
Q 3575 1625 3575 2413 
Q 3575 3206 3044 3700 
Q 2566 4141 1634 4141 
L 1306 4141 
L 1306 684 
z
" transform="scale(0.015625)"/>
       </defs>
       <use xlink:href="#Futura-Medium-6f"/>
       <use xlink:href="#Futura-Medium-70" x="60.107422"/>
       <use xlink:href="#Futura-Medium-65" x="120.068359"/>
       <use xlink:href="#Futura-Medium-6e" x="175.390625"/>
       <use xlink:href="#Futura-Medium-51" x="230.224609"/>
       <use xlink:href="#Futura-Medium-43" x="319.580078"/>
       <use xlink:href="#Futura-Medium-44" x="389.648438"/>
      </g>
     </g>
    </g>
    <g id="xtick_2">
     <g id="line2d_2">
      <g>
       <use xlink:href="#me2036adf51" x="112.698701" y="252" style="fill: #ffffff; stroke: #ffffff; stroke-width: 0.8"/>
      </g>
     </g>
     <g id="text_2">
      <!-- CL2QCD -->
      <g style="fill: #ffffff" transform="translate(69.7318 307.569397)rotate(-45)scale(0.14 -0.14)">
       <defs>
        <path id="Futura-Medium-4c" d="M 1306 4825 
L 1306 684 
L 2725 684 
L 2725 0 
L 578 0 
L 578 4825 
L 1306 4825 
z
" transform="scale(0.015625)"/>
        <path id="Futura-Medium-32" d="M 1603 684 
L 3400 684 
L 3400 0 
L 159 0 
L 1834 2028 
Q 2081 2331 2248 2553 
Q 2416 2775 2503 2925 
Q 2681 3219 2681 3453 
Q 2681 3791 2443 4019 
Q 2206 4247 1856 4247 
Q 1125 4247 1019 3381 
L 294 3381 
Q 469 4906 1834 4906 
Q 2494 4906 2941 4488 
Q 3391 4069 3391 3450 
Q 3391 3056 3181 2678 
Q 3075 2481 2870 2211 
Q 2666 1941 2353 1572 
L 1603 684 
z
" transform="scale(0.015625)"/>
       </defs>
       <use xlink:href="#Futura-Medium-43"/>
       <use xlink:href="#Futura-Medium-4c" x="70.068359"/>
       <use xlink:href="#Futura-Medium-32" x="114.404297"/>
       <use xlink:href="#Futura-Medium-51" x="176.123047"/>
       <use xlink:href="#Futura-Medium-43" x="265.478516"/>
       <use xlink:href="#Futura-Medium-44" x="335.546875"/>
      </g>
     </g>
    </g>
    <g id="xtick_3">
     <g id="line2d_3">
      <g>
       <use xlink:href="#me2036adf51" x="143.756215" y="252" style="fill: #ffffff; stroke: #ffffff; stroke-width: 0.8"/>
      </g>
     </g>
     <g id="text_3">
      <!-- MILC -->
      <g style="fill: #ffffff" transform="translate(117.765401 290.59331)rotate(-45)scale(0.14 -0.14)">
       <defs>
        <path id="Futura-Medium-4d" d="M 409 0 
L 1425 5188 
L 3081 1438 
L 4797 5188 
L 5709 0 
L 4963 0 
L 4497 2913 
L 3069 -222 
L 1681 2916 
L 1163 0 
L 409 0 
z
" transform="scale(0.015625)"/>
        <path id="Futura-Medium-49" d="M 1306 4825 
L 1306 0 
L 578 0 
L 578 4825 
L 1306 4825 
z
" transform="scale(0.015625)"/>
       </defs>
       <use xlink:href="#Futura-Medium-4d"/>
       <use xlink:href="#Futura-Medium-49" x="96.142578"/>
       <use xlink:href="#Futura-Medium-4c" x="125.634766"/>
       <use xlink:href="#Futura-Medium-43" x="166.595703"/>
      </g>
     </g>
    </g>
    <g id="xtick_4">
     <g id="line2d_4">
      <g>
       <use xlink:href="#me2036adf51" x="174.813729" y="252" style="fill: #ffffff; stroke: #ffffff; stroke-width: 0.8"/>
      </g>
     </g>
     <g id="text_4">
      <!-- HiRep -->
      <g style="fill: #ffffff" transform="translate(145.313234 294.10299)rotate(-45)scale(0.14 -0.14)">
       <defs>
        <path id="Futura-Medium-48" d="M 1306 2938 
L 3388 2938 
L 3388 4825 
L 4116 4825 
L 4116 0 
L 3388 0 
L 3388 2253 
L 1306 2253 
L 1306 0 
L 578 0 
L 578 4825 
L 1306 4825 
L 1306 2938 
z
" transform="scale(0.015625)"/>
        <path id="Futura-Medium-69" d="M 1147 3044 
L 1147 0 
L 444 0 
L 444 3044 
L 1147 3044 
z
M 338 4309 
Q 338 4494 472 4628 
Q 606 4763 794 4763 
Q 984 4763 1119 4628 
Q 1253 4497 1253 4306 
Q 1253 4116 1119 3981 
Q 988 3847 797 3847 
Q 606 3847 472 3981 
Q 338 4116 338 4309 
z
" transform="scale(0.015625)"/>
        <path id="Futura-Medium-52" d="M 2213 2056 
L 3706 0 
L 2816 0 
L 1438 1975 
L 1306 1975 
L 1306 0 
L 578 0 
L 578 4825 
L 1431 4825 
Q 2388 4825 2813 4466 
Q 3281 4066 3281 3409 
Q 3281 2897 2987 2528 
Q 2694 2159 2213 2056 
z
M 1306 2609 
L 1538 2609 
Q 2572 2609 2572 3400 
Q 2572 4141 1566 4141 
L 1306 4141 
L 1306 2609 
z
" transform="scale(0.015625)"/>
       </defs>
       <use xlink:href="#Futura-Medium-48"/>
       <use xlink:href="#Futura-Medium-69" x="73.339844"/>
       <use xlink:href="#Futura-Medium-52" x="98.242188"/>
       <use xlink:href="#Futura-Medium-65" x="156.822266"/>
       <use xlink:href="#Futura-Medium-70" x="212.144531"/>
      </g>
     </g>
    </g>
    <g id="xtick_5">
     <g id="line2d_5">
      <g>
       <use xlink:href="#me2036adf51" x="205.871243" y="252" style="fill: #ffffff; stroke: #ffffff; stroke-width: 0.8"/>
      </g>
     </g>
     <g id="text_5">
      <!-- Grid -->
      <g style="fill: #ffffff" transform="translate(182.717252 287.756486)rotate(-45)scale(0.14 -0.14)">
       <defs>
        <path id="Futura-Medium-47" d="M 3059 2513 
L 5053 2513 
L 5053 2353 
Q 5053 1809 4925 1391 
Q 4800 1003 4503 666 
Q 3831 -91 2794 -91 
Q 1781 -91 1059 641 
Q 338 1375 338 2403 
Q 338 3453 1072 4184 
Q 1806 4919 2859 4919 
Q 3425 4919 3916 4688 
Q 4384 4456 4838 3938 
L 4319 3441 
Q 3725 4231 2872 4231 
Q 2106 4231 1588 3703 
Q 1069 3184 1069 2403 
Q 1069 1597 1647 1075 
Q 2188 591 2819 591 
Q 3356 591 3784 953 
Q 4213 1319 4263 1828 
L 3059 1828 
L 3059 2513 
z
" transform="scale(0.015625)"/>
        <path id="Futura-Medium-72" d="M 444 3044 
L 1147 3044 
L 1147 2772 
Q 1341 2975 1491 3050 
Q 1644 3128 1853 3128 
Q 2131 3128 2434 2947 
L 2113 2303 
Q 1913 2447 1722 2447 
Q 1147 2447 1147 1578 
L 1147 0 
L 444 0 
L 444 3044 
z
" transform="scale(0.015625)"/>
        <path id="Futura-Medium-64" d="M 2688 5278 
L 3394 5278 
L 3394 0 
L 2688 0 
L 2688 319 
Q 2272 -88 1747 -88 
Q 1122 -88 709 369 
Q 300 834 300 1531 
Q 300 2213 709 2669 
Q 1116 3128 1731 3128 
Q 2266 3128 2688 2691 
L 2688 5278 
z
M 1019 1531 
Q 1019 1094 1253 819 
Q 1494 541 1859 541 
Q 2250 541 2491 809 
Q 2731 1088 2731 1516 
Q 2731 1944 2491 2222 
Q 2250 2494 1866 2494 
Q 1503 2494 1259 2219 
Q 1019 1941 1019 1531 
z
" transform="scale(0.015625)"/>
       </defs>
       <use xlink:href="#Futura-Medium-47"/>
       <use xlink:href="#Futura-Medium-72" x="84.228516"/>
       <use xlink:href="#Futura-Medium-69" x="123.130859"/>
       <use xlink:href="#Futura-Medium-64" x="148.033203"/>
      </g>
     </g>
    </g>
    <g id="xtick_6">
     <g id="line2d_6">
      <g>
       <use xlink:href="#me2036adf51" x="236.928757" y="252" style="fill: #ffffff; stroke: #ffffff; stroke-width: 0.8"/>
      </g>
     </g>
     <g id="text_6">
      <!-- Chroma -->
      <g style="fill: #ffffff" transform="translate(198.668756 302.862497)rotate(-45)scale(0.14 -0.14)">
       <defs>
        <path id="Futura-Medium-68" d="M 444 5278 
L 1147 5278 
L 1147 2791 
Q 1522 3128 1975 3128 
Q 2491 3128 2800 2794 
Q 3063 2503 3063 1866 
L 3063 0 
L 2359 0 
L 2359 1800 
Q 2359 2166 2229 2330 
Q 2100 2494 1813 2494 
Q 1444 2494 1294 2266 
Q 1147 2034 1147 1472 
L 1147 0 
L 444 0 
L 444 5278 
z
" transform="scale(0.015625)"/>
        <path id="Futura-Medium-6d" d="M 444 3044 
L 1147 3044 
L 1147 2763 
Q 1350 2975 1494 3050 
Q 1647 3128 1878 3128 
Q 2394 3128 2694 2678 
Q 3025 3128 3591 3128 
Q 4619 3128 4619 1881 
L 4619 0 
L 3913 0 
L 3913 1691 
Q 3913 2128 3806 2309 
Q 3697 2494 3447 2494 
Q 3156 2494 3023 2275 
Q 2891 2056 2891 1572 
L 2891 0 
L 2184 0 
L 2184 1681 
Q 2184 2494 1716 2494 
Q 1419 2494 1283 2272 
Q 1147 2050 1147 1572 
L 1147 0 
L 444 0 
L 444 3044 
z
" transform="scale(0.015625)"/>
        <path id="Futura-Medium-61" d="M 2688 3044 
L 3394 3044 
L 3394 0 
L 2688 0 
L 2688 319 
Q 2253 -88 1753 -88 
Q 1122 -88 709 369 
Q 300 834 300 1531 
Q 300 2216 709 2672 
Q 1119 3128 1734 3128 
Q 2266 3128 2688 2691 
L 2688 3044 
z
M 1019 1531 
Q 1019 1094 1253 819 
Q 1494 541 1859 541 
Q 2250 541 2491 809 
Q 2731 1088 2731 1516 
Q 2731 1944 2491 2222 
Q 2250 2494 1866 2494 
Q 1503 2494 1259 2219 
Q 1019 1941 1019 1531 
z
" transform="scale(0.015625)"/>
       </defs>
       <use xlink:href="#Futura-Medium-43"/>
       <use xlink:href="#Futura-Medium-68" x="70.068359"/>
       <use xlink:href="#Futura-Medium-72" x="124.902344"/>
       <use xlink:href="#Futura-Medium-6f" x="161.429688"/>
       <use xlink:href="#Futura-Medium-6d" x="221.537109"/>
       <use xlink:href="#Futura-Medium-61" x="300.638672"/>
      </g>
     </g>
    </g>
    <g id="xtick_7">
     <g id="line2d_7">
      <g>
       <use xlink:href="#me2036adf51" x="267.986271" y="252" style="fill: #ffffff; stroke: #ffffff; stroke-width: 0.8"/>
      </g>
     </g>
     <g id="text_7">
      <!-- BQCD -->
      <g style="fill: #ffffff" transform="translate(236.601778 295.986988)rotate(-45)scale(0.14 -0.14)">
       <defs>
        <path id="Futura-Medium-42" d="M 578 0 
L 578 4825 
L 1303 4825 
Q 1788 4825 2075 4750 
Q 2366 4675 2566 4497 
Q 2769 4313 2888 4038 
Q 3009 3759 3009 3475 
Q 3009 2956 2613 2597 
Q 2997 2466 3219 2138 
Q 3444 1813 3444 1381 
Q 3444 816 3044 425 
Q 2803 184 2503 91 
Q 2175 0 1681 0 
L 578 0 
z
M 1306 2753 
L 1534 2753 
Q 1941 2753 2130 2933 
Q 2319 3113 2319 3463 
Q 2319 3803 2125 3979 
Q 1931 4156 1563 4156 
L 1306 4156 
L 1306 2753 
z
M 1306 684 
L 1756 684 
Q 2250 684 2481 878 
Q 2725 1088 2725 1409 
Q 2725 1722 2491 1934 
Q 2263 2144 1675 2144 
L 1306 2144 
L 1306 684 
z
" transform="scale(0.015625)"/>
       </defs>
       <use xlink:href="#Futura-Medium-42"/>
       <use xlink:href="#Futura-Medium-51" x="59.130859"/>
       <use xlink:href="#Futura-Medium-43" x="148.486328"/>
       <use xlink:href="#Futura-Medium-44" x="218.554688"/>
      </g>
     </g>
    </g>
    <g id="xtick_8">
     <g id="line2d_8">
      <g>
       <use xlink:href="#me2036adf51" x="299.043785" y="252" style="fill: #ffffff; stroke: #ffffff; stroke-width: 0.8"/>
      </g>
     </g>
     <g id="text_8">
      <!-- QUDA -->
      <g style="fill: #ffffff" transform="translate(266.172821 297.473459)rotate(-45)scale(0.14 -0.14)">
       <defs>
        <path id="Futura-Medium-55" d="M 1306 4825 
L 1306 1919 
Q 1306 1297 1509 1009 
Q 1813 594 2363 594 
Q 2916 594 3219 1009 
Q 3422 1288 3422 1919 
L 3422 4825 
L 4150 4825 
L 4150 1719 
Q 4150 956 3675 463 
Q 3141 -88 2363 -88 
Q 1584 -88 1053 463 
Q 578 956 578 1719 
L 578 4825 
L 1306 4825 
z
" transform="scale(0.015625)"/>
        <path id="Futura-Medium-41" d="M 3413 1172 
L 1347 1172 
L 809 0 
L 25 0 
L 2413 5128 
L 4716 0 
L 3919 0 
L 3413 1172 
z
M 3116 1856 
L 2400 3497 
L 1650 1856 
L 3116 1856 
z
" transform="scale(0.015625)"/>
       </defs>
       <use xlink:href="#Futura-Medium-51"/>
       <use xlink:href="#Futura-Medium-55" x="89.355469"/>
       <use xlink:href="#Futura-Medium-44" x="163.232422"/>
       <use xlink:href="#Futura-Medium-41" x="232.089844"/>
      </g>
     </g>
    </g>
    <g id="xtick_9">
     <g id="line2d_9">
      <g>
       <use xlink:href="#me2036adf51" x="330.101299" y="252" style="fill: #ffffff; stroke: #ffffff; stroke-width: 0.8"/>
      </g>
     </g>
     <g id="text_9">
      <!-- QPhiX -->
      <g style="fill: #ffffff" transform="translate(299.340165 295.363629)rotate(-45)scale(0.14 -0.14)">
       <defs>
        <path id="Futura-Medium-50" d="M 1306 1959 
L 1306 0 
L 578 0 
L 578 4825 
L 1403 4825 
Q 2009 4825 2319 4741 
Q 2631 4656 2869 4422 
Q 3284 4016 3284 3397 
Q 3284 2734 2840 2346 
Q 2397 1959 1644 1959 
L 1306 1959 
z
M 1306 2634 
L 1578 2634 
Q 2581 2634 2581 3406 
Q 2581 4153 1547 4153 
L 1306 4153 
L 1306 2634 
z
" transform="scale(0.015625)"/>
        <path id="Futura-Medium-58" d="M 1588 2522 
L 259 4825 
L 1088 4825 
L 2009 3191 
L 2978 4825 
L 3813 4825 
L 2422 2522 
L 3881 0 
L 3066 0 
L 1997 1847 
L 897 0 
L 72 0 
L 1588 2522 
z
" transform="scale(0.015625)"/>
       </defs>
       <use xlink:href="#Futura-Medium-51"/>
       <use xlink:href="#Futura-Medium-50" x="89.355469"/>
       <use xlink:href="#Futura-Medium-68" x="143.359375"/>
       <use xlink:href="#Futura-Medium-69" x="198.193359"/>
       <use xlink:href="#Futura-Medium-58" x="223.095703"/>
      </g>
     </g>
    </g>
    <g id="xtick_10">
     <g id="line2d_10">
      <g>
       <use xlink:href="#me2036adf51" x="361.158813" y="252" style="fill: #ffffff; stroke: #ffffff; stroke-width: 0.8"/>
      </g>
     </g>
     <g id="text_10">
      <!-- l2hmc-qcd -->
      <g style="fill: #ffffff" transform="translate(313.223602 312.537706)rotate(-45)scale(0.14 -0.14)">
       <defs>
        <path id="Futura-Medium-6c" d="M 1147 5278 
L 1147 0 
L 444 0 
L 444 5278 
L 1147 5278 
z
" transform="scale(0.015625)"/>
        <path id="Futura-Medium-63" d="M 2813 2913 
L 2813 1978 
Q 2572 2272 2381 2381 
Q 2194 2494 1941 2494 
Q 1544 2494 1281 2216 
Q 1019 1938 1019 1519 
Q 1019 1091 1272 816 
Q 1528 541 1925 541 
Q 2178 541 2372 650 
Q 2559 756 2813 1063 
L 2813 134 
Q 2384 -88 1956 -88 
Q 1250 -88 775 369 
Q 300 828 300 1509 
Q 300 2191 781 2659 
Q 1263 3128 1963 3128 
Q 2413 3128 2813 2913 
z
" transform="scale(0.015625)"/>
        <path id="Futura-Medium-2d" d="M 0 1853 
L 1394 1853 
L 1394 1241 
L 0 1241 
L 0 1853 
z
" transform="scale(0.015625)"/>
        <path id="Futura-Medium-71" d="M 2688 -1656 
L 2688 341 
Q 2269 -88 1731 -88 
Q 1116 -88 709 366 
Q 300 822 300 1506 
Q 300 2200 709 2666 
Q 1122 3128 1744 3128 
Q 2272 3128 2688 2713 
L 2688 3044 
L 3394 3044 
L 3394 -1656 
L 2688 -1656 
z
M 1019 1538 
Q 1019 1097 1256 822 
Q 1494 541 1859 541 
Q 2247 541 2488 809 
Q 2731 1081 2731 1516 
Q 2731 1944 2491 2222 
Q 2250 2494 1866 2494 
Q 1503 2494 1259 2219 
Q 1019 1941 1019 1538 
z
" transform="scale(0.015625)"/>
       </defs>
       <use xlink:href="#Futura-Medium-6c"/>
       <use xlink:href="#Futura-Medium-32" x="24.902344"/>
       <use xlink:href="#Futura-Medium-68" x="86.621094"/>
       <use xlink:href="#Futura-Medium-6d" x="141.455078"/>
       <use xlink:href="#Futura-Medium-63" x="220.556641"/>
       <use xlink:href="#Futura-Medium-2d" x="268.212891"/>
       <use xlink:href="#Futura-Medium-71" x="289.990234"/>
       <use xlink:href="#Futura-Medium-63" x="350.701172"/>
       <use xlink:href="#Futura-Medium-64" x="398.357422"/>
      </g>
     </g>
    </g>
   </g>
   <g id="matplotlib.axis_2">
    <g id="ytick_1">
     <g id="line2d_11">
      <defs>
       <path id="m61258250c3" d="M 0 0 
L -3.5 0 
" style="stroke: #ffffff; stroke-width: 0.8"/>
      </defs>
      <g>
       <use xlink:href="#m61258250c3" x="54" y="252" style="fill: #ffffff; stroke: #ffffff; stroke-width: 0.8"/>
      </g>
     </g>
     <g id="text_11">
      <!-- 0.0 -->
      <g style="fill: #ffffff" transform="translate(25.398437 257.772812)scale(0.14 -0.14)">
       <defs>
        <path id="Futura-Medium-30" d="M 272 2444 
Q 272 3597 809 4284 
Q 1291 4906 1975 4906 
Q 2659 4906 3141 4284 
Q 3678 3597 3678 2413 
Q 3678 1231 3141 544 
Q 2659 -78 1978 -78 
Q 1297 -78 809 544 
Q 272 1231 272 2444 
z
M 988 2441 
Q 988 1638 1266 1106 
Q 1544 584 1975 584 
Q 2403 584 2684 1106 
Q 2966 1625 2966 2416 
Q 2966 3206 2684 3728 
Q 2403 4247 1975 4247 
Q 1550 4247 1269 3728 
Q 988 3213 988 2441 
z
" transform="scale(0.015625)"/>
        <path id="Futura-Medium-2e" d="M 553 350 
Q 553 525 681 653 
Q 809 781 988 781 
Q 1166 781 1294 653 
Q 1422 525 1422 347 
Q 1422 166 1294 38 
Q 1169 -88 988 -88 
Q 803 -88 678 37 
Q 553 163 553 350 
z
" transform="scale(0.015625)"/>
       </defs>
       <use xlink:href="#Futura-Medium-30"/>
       <use xlink:href="#Futura-Medium-2e" x="61.71875"/>
       <use xlink:href="#Futura-Medium-30" x="92.578125"/>
      </g>
     </g>
    </g>
    <g id="ytick_2">
     <g id="line2d_12">
      <g>
       <use xlink:href="#m61258250c3" x="54" y="215.020408" style="fill: #ffffff; stroke: #ffffff; stroke-width: 0.8"/>
      </g>
     </g>
     <g id="text_12">
      <!-- 2.5 -->
      <g style="fill: #ffffff" transform="translate(25.398437 220.793221)scale(0.14 -0.14)">
       <defs>
        <path id="Futura-Medium-35" d="M 3366 4144 
L 1878 4144 
L 1641 3344 
Q 1694 3350 1742 3353 
Q 1791 3356 1831 3356 
Q 2534 3356 2984 2881 
Q 3438 2409 3438 1672 
Q 3438 909 2925 415 
Q 2413 -78 1634 -78 
Q 675 -78 122 822 
L 672 1288 
Q 900 900 1131 741 
Q 1363 584 1697 584 
Q 2134 584 2431 891 
Q 2728 1206 2728 1656 
Q 2728 2119 2434 2413 
Q 2141 2716 1700 2716 
Q 1209 2716 853 2288 
L 613 2288 
L 1372 4825 
L 3366 4825 
L 3366 4144 
z
" transform="scale(0.015625)"/>
       </defs>
       <use xlink:href="#Futura-Medium-32"/>
       <use xlink:href="#Futura-Medium-2e" x="61.71875"/>
       <use xlink:href="#Futura-Medium-35" x="92.578125"/>
      </g>
     </g>
    </g>
    <g id="ytick_3">
     <g id="line2d_13">
      <g>
       <use xlink:href="#m61258250c3" x="54" y="178.040816" style="fill: #ffffff; stroke: #ffffff; stroke-width: 0.8"/>
      </g>
     </g>
     <g id="text_13">
      <!-- 5.0 -->
      <g style="fill: #ffffff" transform="translate(25.398437 183.813629)scale(0.14 -0.14)">
       <use xlink:href="#Futura-Medium-35"/>
       <use xlink:href="#Futura-Medium-2e" x="61.71875"/>
       <use xlink:href="#Futura-Medium-30" x="92.578125"/>
      </g>
     </g>
    </g>
    <g id="ytick_4">
     <g id="line2d_14">
      <g>
       <use xlink:href="#m61258250c3" x="54" y="141.061224" style="fill: #ffffff; stroke: #ffffff; stroke-width: 0.8"/>
      </g>
     </g>
     <g id="text_14">
      <!-- 7.5 -->
      <g style="fill: #ffffff" transform="translate(27.375937 146.834037)scale(0.14 -0.14)">
       <defs>
        <path id="Futura-Medium-37" d="M 2713 4144 
L 331 4144 
L 331 4825 
L 3928 4825 
L 884 -166 
L 306 200 
L 2713 4144 
z
" transform="scale(0.015625)"/>
       </defs>
       <use xlink:href="#Futura-Medium-37"/>
       <use xlink:href="#Futura-Medium-2e" x="47.59375"/>
       <use xlink:href="#Futura-Medium-35" x="78.453125"/>
      </g>
     </g>
    </g>
    <g id="ytick_5">
     <g id="line2d_15">
      <g>
       <use xlink:href="#m61258250c3" x="54" y="104.081633" style="fill: #ffffff; stroke: #ffffff; stroke-width: 0.8"/>
      </g>
     </g>
     <g id="text_15">
      <!-- 10.0 -->
      <g style="fill: #ffffff" transform="translate(17.597812 109.854445)scale(0.14 -0.14)">
       <defs>
        <path id="Futura-Medium-31" d="M 1734 4144 
L 900 4144 
L 1300 4825 
L 2463 4825 
L 2463 0 
L 1734 0 
L 1734 4144 
z
" transform="scale(0.015625)"/>
       </defs>
       <use xlink:href="#Futura-Medium-31"/>
       <use xlink:href="#Futura-Medium-30" x="55.71875"/>
       <use xlink:href="#Futura-Medium-2e" x="117.4375"/>
       <use xlink:href="#Futura-Medium-30" x="148.296875"/>
      </g>
     </g>
    </g>
    <g id="ytick_6">
     <g id="line2d_16">
      <g>
       <use xlink:href="#m61258250c3" x="54" y="67.102041" style="fill: #ffffff; stroke: #ffffff; stroke-width: 0.8"/>
      </g>
     </g>
     <g id="text_16">
      <!-- 12.5 -->
      <g style="fill: #ffffff" transform="translate(17.860312 72.874853)scale(0.14 -0.14)">
       <use xlink:href="#Futura-Medium-31"/>
       <use xlink:href="#Futura-Medium-32" x="53.84375"/>
       <use xlink:href="#Futura-Medium-2e" x="115.5625"/>
       <use xlink:href="#Futura-Medium-35" x="146.421875"/>
      </g>
     </g>
    </g>
    <g id="text_17">
     <!-- count -->
     <g style="fill: #ffffff" transform="translate(9.975312 160.390625)rotate(-90)scale(0.14 -0.14)">
      <defs>
       <path id="Futura-Medium-75" d="M 1147 3044 
L 1147 1297 
Q 1147 541 1744 541 
Q 2341 541 2341 1297 
L 2341 3044 
L 3044 3044 
L 3044 1281 
Q 3044 916 2953 650 
Q 2866 413 2650 222 
Q 2294 -88 1744 -88 
Q 1197 -88 841 222 
Q 622 413 531 650 
Q 444 863 444 1281 
L 444 3044 
L 1147 3044 
z
" transform="scale(0.015625)"/>
       <path id="Futura-Medium-74" d="M 1169 2388 
L 1169 0 
L 466 0 
L 466 2388 
L 166 2388 
L 166 3044 
L 466 3044 
L 466 4159 
L 1169 4159 
L 1169 3044 
L 1716 3044 
L 1716 2388 
L 1169 2388 
z
" transform="scale(0.015625)"/>
      </defs>
      <use xlink:href="#Futura-Medium-63"/>
      <use xlink:href="#Futura-Medium-6f" x="47.65625"/>
      <use xlink:href="#Futura-Medium-75" x="107.763672"/>
      <use xlink:href="#Futura-Medium-6e" x="162.255859"/>
      <use xlink:href="#Futura-Medium-74" x="217.089844"/>
     </g>
    </g>
   </g>
   <g id="patch_13">
    <path d="M 54 252 
L 54 34.56 
" style="fill: none; stroke: #ffffff; stroke-width: 0.8; stroke-linejoin: miter; stroke-linecap: square"/>
   </g>
   <g id="patch_14">
    <path d="M 388.8 252 
L 388.8 34.56 
" style="fill: none; stroke: #ffffff; stroke-width: 0.8; stroke-linejoin: miter; stroke-linecap: square"/>
   </g>
   <g id="patch_15">
    <path d="M 54 252 
L 388.8 252 
" style="fill: none; stroke: #ffffff; stroke-width: 0.8; stroke-linejoin: miter; stroke-linecap: square"/>
   </g>
   <g id="patch_16">
    <path d="M 54 34.56 
L 388.8 34.56 
" style="fill: none; stroke: #ffffff; stroke-width: 0.8; stroke-linejoin: miter; stroke-linecap: square"/>
   </g>
   <g id="text_18">
    <!-- Out of 100 -->
    <g style="fill: #ffffff" transform="translate(318.5375 45.432)scale(0.14 -0.14)">
     <defs>
      <path id="Futura-Medium-4f" d="M 338 2434 
Q 338 3453 1084 4184 
Q 1828 4916 2872 4916 
Q 3903 4916 4641 4178 
Q 5381 3441 5381 2406 
Q 5381 1366 4638 641 
Q 3891 -88 2834 -88 
Q 1900 -88 1156 559 
Q 338 1275 338 2434 
z
M 1072 2425 
Q 1072 1625 1609 1109 
Q 2144 594 2844 594 
Q 3603 594 4125 1119 
Q 4647 1650 4647 2413 
Q 4647 3184 4131 3706 
Q 3619 4231 2863 4231 
Q 2109 4231 1591 3706 
Q 1072 3188 1072 2425 
z
" transform="scale(0.015625)"/>
      <path id="Futura-Medium-20" transform="scale(0.015625)"/>
      <path id="Futura-Medium-66" d="M 1172 2388 
L 1172 0 
L 466 0 
L 466 2388 
L 216 2388 
L 216 3044 
L 466 3044 
L 466 4219 
Q 466 4794 666 5031 
Q 941 5363 1466 5363 
Q 1653 5363 1938 5253 
L 1938 4534 
L 1866 4572 
Q 1638 4688 1491 4688 
Q 1303 4688 1238 4553 
Q 1172 4422 1172 4047 
L 1172 3044 
L 1938 3044 
L 1938 2388 
L 1172 2388 
z
" transform="scale(0.015625)"/>
     </defs>
     <use xlink:href="#Futura-Medium-4f"/>
     <use xlink:href="#Futura-Medium-75" x="89.355469"/>
     <use xlink:href="#Futura-Medium-74" x="143.847656"/>
     <use xlink:href="#Futura-Medium-20" x="171.191406"/>
     <use xlink:href="#Futura-Medium-6f" x="202.050781"/>
     <use xlink:href="#Futura-Medium-66" x="262.158203"/>
     <use xlink:href="#Futura-Medium-20" x="291.845703"/>
     <use xlink:href="#Futura-Medium-31" x="322.705078"/>
     <use xlink:href="#Futura-Medium-30" x="378.423828"/>
     <use xlink:href="#Futura-Medium-30" x="440.142578"/>
    </g>
   </g>
  </g>
 </g>
 <defs>
  <clipPath id="pf7f116ff05">
   <rect x="54" y="34.56" width="334.8" height="217.44"/>
  </clipPath>
 </defs>
</svg>
