<?xml version="1.0" encoding="utf-8" standalone="no"?>
<!DOCTYPE svg PUBLIC "-//W3C//DTD SVG 1.1//EN"
  "http://www.w3.org/Graphics/SVG/1.1/DTD/svg11.dtd">
<svg xmlns:xlink="http://www.w3.org/1999/xlink" width="460.8pt" height="345.6pt" viewBox="0 0 460.8 345.6" xmlns="http://www.w3.org/2000/svg" version="1.1">
 <metadata>
  <rdf:RDF xmlns:dc="http://purl.org/dc/elements/1.1/" xmlns:cc="http://creativecommons.org/ns#" xmlns:rdf="http://www.w3.org/1999/02/22-rdf-syntax-ns#">
   <cc:Work>
    <dc:type rdf:resource="http://purl.org/dc/dcmitype/StillImage"/>
    <dc:date>2022-05-26T15:03:07.014410</dc:date>
    <dc:format>image/svg+xml</dc:format>
    <dc:creator>
     <cc:Agent>
      <dc:title>Matplotlib v3.5.2, https://matplotlib.org/</dc:title>
     </cc:Agent>
    </dc:creator>
   </cc:Work>
  </rdf:RDF>
 </metadata>
 <defs>
  <style type="text/css">*{stroke-linejoin: round; stroke-linecap: butt}</style>
 </defs>
 <g id="figure_1">
  <g id="patch_1">
   <path d="M 0 345.6 
L 460.8 345.6 
L 460.8 0 
L 0 0 
L 0 345.6 
z
" style="fill: none"/>
  </g>
  <g id="axes_1">
   <g id="patch_2">
    <path d="M 99.743717 145.798208 
L 445.68 145.798208 
L 445.68 15.12 
L 99.743717 15.12 
L 99.743717 145.798208 
z
" style="fill: none"/>
   </g>
   <g id="patch_3">
    <path d="M 128.571741 145.798208 
L 186.227788 145.798208 
L 186.227788 21.342772 
L 128.571741 21.342772 
z
" clip-path="url(#p6360dab2a2)" style="fill: #8dd3c7"/>
   </g>
   <g id="patch_4">
    <path d="M 243.883835 145.798208 
L 301.539882 145.798208 
L 301.539882 86.845633 
L 243.883835 86.845633 
z
" clip-path="url(#p6360dab2a2)" style="fill: #8dd3c7"/>
   </g>
   <g id="patch_5">
    <path d="M 359.195929 145.798208 
L 416.851976 145.798208 
L 416.851976 119.597064 
L 359.195929 119.597064 
z
" clip-path="url(#p6360dab2a2)" style="fill: #8dd3c7"/>
   </g>
   <g id="matplotlib.axis_1">
    <g id="xtick_1">
     <g id="line2d_1">
      <defs>
       <path id="me121300751" d="M 0 0 
L 0 3.5 
" style="stroke: #ffffff; stroke-width: 0.8"/>
      </defs>
      <g>
       <use xlink:href="#me121300751" x="157.399764" y="145.798208" style="fill: #ffffff; stroke: #ffffff; stroke-width: 0.8"/>
      </g>
     </g>
     <g id="text_1">
      <!-- Acknowledges an HPC centre? -->
      <g style="fill: #ffffff" transform="translate(22.288673 293.462297)rotate(-45)scale(0.14 -0.14)">
       <defs>
        <path id="Futura-Book-41" d="M 3270 1370 
L 3840 0 
L 4435 0 
L 2266 5056 
L 38 0 
L 627 0 
L 1210 1370 
L 3270 1370 
z
M 3059 1869 
L 1427 1869 
L 2253 3802 
L 3059 1869 
z
" transform="scale(0.015625)"/>
        <path id="Futura-Book-63" d="M 2720 2790 
C 2451 2982 2118 3091 1792 3091 
C 909 3091 186 2400 186 1504 
C 186 595 877 -83 1786 -83 
C 2144 -83 2445 26 2739 224 
L 2739 909 
L 2726 909 
C 2477 582 2176 390 1747 390 
C 1120 390 710 909 710 1504 
C 710 2106 1152 2618 1773 2618 
C 2176 2618 2470 2413 2707 2112 
L 2720 2112 
L 2720 2790 
z
" transform="scale(0.015625)"/>
        <path id="Futura-Book-6b" d="M 973 5280 
L 461 5280 
L 461 0 
L 973 0 
L 973 1235 
L 1107 1370 
L 2317 0 
L 2995 0 
L 1466 1728 
L 2752 3008 
L 2067 3008 
L 973 1894 
L 973 5280 
z
" transform="scale(0.015625)"/>
        <path id="Futura-Book-6e" d="M 998 3008 
L 486 3008 
L 486 0 
L 998 0 
L 998 1427 
C 998 1965 1043 2618 1747 2618 
C 2342 2618 2381 2182 2381 1696 
L 2381 0 
L 2893 0 
L 2893 1786 
C 2893 2490 2701 3091 1869 3091 
C 1498 3091 1222 2931 1011 2643 
L 998 2643 
L 998 3008 
z
" transform="scale(0.015625)"/>
        <path id="Futura-Book-6f" d="M 1798 -83 
C 2675 -83 3379 614 3379 1498 
C 3379 2381 2682 3091 1798 3091 
C 915 3091 218 2381 218 1498 
C 218 614 922 -83 1798 -83 
z
M 1798 2618 
C 2432 2618 2867 2112 2867 1504 
C 2867 890 2432 390 1798 390 
C 1165 390 730 890 730 1504 
C 730 2112 1165 2618 1798 2618 
z
" transform="scale(0.015625)"/>
        <path id="Futura-Book-77" d="M 602 3008 
L 19 3008 
L 1498 -211 
L 2426 2029 
L 3354 -211 
L 4845 3008 
L 4262 3008 
L 3366 973 
L 2426 3238 
L 1491 973 
L 602 3008 
z
" transform="scale(0.015625)"/>
        <path id="Futura-Book-6c" d="M 986 5280 
L 474 5280 
L 474 0 
L 986 0 
L 986 5280 
z
" transform="scale(0.015625)"/>
        <path id="Futura-Book-65" d="M 3104 1395 
C 3155 2291 2643 3091 1677 3091 
C 736 3091 218 2355 218 1466 
C 218 602 794 -83 1690 -83 
C 2304 -83 2790 224 3078 762 
L 2643 1011 
C 2445 653 2163 390 1728 390 
C 1146 390 749 838 742 1395 
L 3104 1395 
z
M 768 1830 
C 832 2266 1242 2618 1683 2618 
C 2131 2618 2496 2266 2566 1830 
L 768 1830 
z
" transform="scale(0.015625)"/>
        <path id="Futura-Book-64" d="M 1734 2618 
C 2368 2618 2746 2131 2746 1530 
C 2746 922 2400 390 1741 390 
C 1101 390 755 947 755 1536 
C 755 2099 1139 2618 1734 2618 
z
M 2720 0 
L 3232 0 
L 3232 5280 
L 2720 5280 
L 2720 2579 
L 2707 2579 
C 2464 2899 2080 3091 1677 3091 
C 774 3091 230 2355 230 1498 
C 230 666 787 -83 1670 -83 
C 2080 -83 2458 90 2707 416 
L 2720 416 
L 2720 0 
z
" transform="scale(0.015625)"/>
        <path id="Futura-Book-67" d="M 1702 2618 
C 2336 2618 2714 2131 2714 1530 
C 2714 922 2368 390 1709 390 
C 1069 390 723 947 723 1536 
C 723 2099 1107 2618 1702 2618 
z
M 3200 3008 
L 2688 3008 
L 2688 2579 
L 2675 2579 
C 2432 2906 2067 3091 1651 3091 
C 762 3091 198 2336 198 1491 
C 198 653 755 -83 1632 -83 
C 2035 -83 2432 102 2675 416 
L 2688 416 
L 2688 58 
C 2688 -621 2515 -1203 1722 -1203 
C 1171 -1203 768 -851 762 -294 
L 250 -294 
C 269 -1146 890 -1677 1728 -1677 
C 2176 -1677 2611 -1504 2893 -1146 
C 3200 -749 3200 -333 3200 147 
L 3200 3008 
z
" transform="scale(0.015625)"/>
        <path id="Futura-Book-73" d="M 2131 2534 
C 1997 2848 1677 3091 1331 3091 
C 845 3091 435 2746 435 2240 
C 435 1293 1792 1523 1792 851 
C 1792 576 1581 390 1306 390 
C 966 390 819 589 691 870 
L 237 678 
C 397 205 794 -83 1299 -83 
C 1856 -83 2317 326 2317 896 
C 2317 1402 1971 1613 1619 1760 
C 1267 1907 922 2010 922 2285 
C 922 2477 1114 2618 1293 2618 
C 1478 2618 1632 2470 1702 2310 
L 2131 2534 
z
" transform="scale(0.015625)"/>
        <path id="Futura-Book-20" transform="scale(0.015625)"/>
        <path id="Futura-Book-61" d="M 1734 2618 
C 2368 2618 2746 2131 2746 1530 
C 2746 922 2400 390 1741 390 
C 1101 390 755 947 755 1536 
C 755 2099 1139 2618 1734 2618 
z
M 3232 3008 
L 2720 3008 
L 2720 2579 
L 2707 2579 
C 2458 2899 2086 3091 1677 3091 
C 774 3091 230 2355 230 1498 
C 230 666 787 -83 1670 -83 
C 2093 -83 2445 83 2707 416 
L 2720 416 
L 2720 0 
L 3232 0 
L 3232 3008 
z
" transform="scale(0.015625)"/>
        <path id="Futura-Book-48" d="M 1050 2867 
L 1050 4826 
L 512 4826 
L 512 0 
L 1050 0 
L 1050 2368 
L 3520 2368 
L 3520 0 
L 4058 0 
L 4058 4826 
L 3520 4826 
L 3520 2867 
L 1050 2867 
z
" transform="scale(0.015625)"/>
        <path id="Futura-Book-50" d="M 1024 2112 
L 1414 2112 
C 1818 2112 2234 2163 2560 2432 
C 2861 2682 3021 3078 3021 3469 
C 3021 3898 2835 4320 2477 4570 
C 2125 4813 1696 4826 1280 4826 
L 486 4826 
L 486 0 
L 1024 0 
L 1024 2112 
z
M 1024 4326 
L 1222 4326 
C 1850 4326 2483 4269 2483 3482 
C 2483 2790 1978 2611 1382 2611 
L 1024 2611 
L 1024 4326 
z
" transform="scale(0.015625)"/>
        <path id="Futura-Book-43" d="M 4166 4435 
C 3738 4755 3264 4909 2726 4909 
C 1344 4909 211 3776 211 2394 
C 211 1024 1363 -83 2726 -83 
C 3238 -83 3750 90 4166 390 
L 4166 1056 
C 3782 672 3251 416 2707 416 
C 1626 416 749 1350 749 2413 
C 749 3475 1619 4410 2694 4410 
C 3251 4410 3782 4166 4166 3770 
L 4166 4435 
z
" transform="scale(0.015625)"/>
        <path id="Futura-Book-74" d="M 1024 2534 
L 1562 2534 
L 1562 3008 
L 1024 3008 
L 1024 4090 
L 512 4090 
L 512 3008 
L 198 3008 
L 198 2534 
L 512 2534 
L 512 0 
L 1024 0 
L 1024 2534 
z
" transform="scale(0.015625)"/>
        <path id="Futura-Book-72" d="M 973 3008 
L 461 3008 
L 461 0 
L 973 0 
L 973 1504 
C 973 1894 998 2618 1562 2618 
C 1696 2618 1766 2554 1869 2483 
L 2112 2950 
C 1965 3034 1824 3091 1651 3091 
C 1318 3091 1165 2918 986 2682 
L 973 2682 
L 973 3008 
z
" transform="scale(0.015625)"/>
        <path id="Futura-Book-3f" d="M 2080 2099 
C 2080 1779 1920 1485 1562 1485 
C 1274 1485 1037 1709 1037 1997 
C 1037 2317 1254 2451 1530 2528 
C 1811 2611 2157 2701 2381 2899 
C 2611 3110 2726 3443 2726 3757 
C 2726 4410 2227 4909 1574 4909 
C 941 4909 397 4480 397 3814 
L 422 3475 
L 954 3475 
C 928 3578 915 3680 915 3782 
C 915 4134 1178 4416 1542 4416 
C 1926 4416 2202 4141 2202 3750 
C 2202 3226 1798 3142 1389 3014 
C 902 2854 512 2611 512 2035 
C 512 1446 960 992 1555 992 
C 2176 992 2618 1485 2598 2099 
L 2080 2099 
z
M 1549 634 
C 1350 634 1190 474 1190 282 
C 1190 83 1350 -83 1549 -83 
C 1747 -83 1907 83 1907 282 
C 1907 474 1747 634 1549 634 
z
" transform="scale(0.015625)"/>
       </defs>
       <use xlink:href="#Futura-Book-41"/>
       <use xlink:href="#Futura-Book-63" x="69.899994"/>
       <use xlink:href="#Futura-Book-6b" x="117.499985"/>
       <use xlink:href="#Futura-Book-6e" x="164.499969"/>
       <use xlink:href="#Futura-Book-6f" x="217.299957"/>
       <use xlink:href="#Futura-Book-77" x="273.499954"/>
       <use xlink:href="#Futura-Book-6c" x="349.499939"/>
       <use xlink:href="#Futura-Book-65" x="372.199936"/>
       <use xlink:href="#Futura-Book-64" x="424.09993"/>
       <use xlink:href="#Futura-Book-67" x="481.799927"/>
       <use xlink:href="#Futura-Book-65" x="539.799911"/>
       <use xlink:href="#Futura-Book-73" x="591.699905"/>
       <use xlink:href="#Futura-Book-20" x="631.599899"/>
       <use xlink:href="#Futura-Book-61" x="662.399887"/>
       <use xlink:href="#Futura-Book-6e" x="720.099884"/>
       <use xlink:href="#Futura-Book-20" x="772.899872"/>
       <use xlink:href="#Futura-Book-48" x="803.69986"/>
       <use xlink:href="#Futura-Book-50" x="875.099854"/>
       <use xlink:href="#Futura-Book-43" x="925.399841"/>
       <use xlink:href="#Futura-Book-20" x="997.099823"/>
       <use xlink:href="#Futura-Book-63" x="1027.899811"/>
       <use xlink:href="#Futura-Book-65" x="1075.499802"/>
       <use xlink:href="#Futura-Book-6e" x="1127.399796"/>
       <use xlink:href="#Futura-Book-74" x="1180.199783"/>
       <use xlink:href="#Futura-Book-72" x="1204.199768"/>
       <use xlink:href="#Futura-Book-65" x="1237.699753"/>
       <use xlink:href="#Futura-Book-3f" x="1289.599747"/>
      </g>
     </g>
    </g>
    <g id="xtick_2">
     <g id="line2d_2">
      <g>
       <use xlink:href="#me121300751" x="272.711859" y="145.798208" style="fill: #ffffff; stroke: #ffffff; stroke-width: 0.8"/>
      </g>
     </g>
     <g id="text_2">
      <!-- Acknowledges DiRAC -->
      <g style="fill: #ffffff" transform="translate(175.83138 255.231685)rotate(-45)scale(0.14 -0.14)">
       <defs>
        <path id="Futura-Book-44" d="M 486 0 
L 1382 0 
C 2138 0 2714 96 3290 608 
C 3821 1082 4077 1702 4077 2406 
C 4077 3123 3827 3770 3277 4243 
C 2707 4730 2118 4826 1395 4826 
L 486 4826 
L 486 0 
z
M 1024 499 
L 1024 4326 
L 1414 4326 
C 1984 4326 2470 4250 2912 3859 
C 3328 3494 3539 2963 3539 2413 
C 3539 1875 3334 1370 2938 998 
C 2496 582 2003 499 1414 499 
L 1024 499 
z
" transform="scale(0.015625)"/>
        <path id="Futura-Book-69" d="M 1094 3008 
L 582 3008 
L 582 0 
L 1094 0 
L 1094 3008 
z
M 838 4506 
C 640 4506 474 4339 474 4141 
C 474 3936 640 3776 838 3776 
C 1037 3776 1203 3936 1203 4141 
C 1203 4339 1037 4506 838 4506 
z
" transform="scale(0.015625)"/>
        <path id="Futura-Book-52" d="M 1024 4326 
L 1184 4326 
C 1830 4326 2413 4250 2413 3456 
C 2413 2707 1798 2592 1190 2592 
L 1024 2592 
L 1024 4326 
z
M 1024 2118 
L 1158 2118 
L 2618 0 
L 3277 0 
L 1741 2163 
C 2483 2227 2950 2752 2950 3494 
C 2950 4582 2099 4826 1184 4826 
L 486 4826 
L 486 0 
L 1024 0 
L 1024 2118 
z
" transform="scale(0.015625)"/>
       </defs>
       <use xlink:href="#Futura-Book-41"/>
       <use xlink:href="#Futura-Book-63" x="69.899994"/>
       <use xlink:href="#Futura-Book-6b" x="117.499985"/>
       <use xlink:href="#Futura-Book-6e" x="164.499969"/>
       <use xlink:href="#Futura-Book-6f" x="217.299957"/>
       <use xlink:href="#Futura-Book-77" x="273.499954"/>
       <use xlink:href="#Futura-Book-6c" x="349.499939"/>
       <use xlink:href="#Futura-Book-65" x="372.199936"/>
       <use xlink:href="#Futura-Book-64" x="424.09993"/>
       <use xlink:href="#Futura-Book-67" x="481.799927"/>
       <use xlink:href="#Futura-Book-65" x="539.799911"/>
       <use xlink:href="#Futura-Book-73" x="591.699905"/>
       <use xlink:href="#Futura-Book-20" x="631.599899"/>
       <use xlink:href="#Futura-Book-44" x="662.399887"/>
       <use xlink:href="#Futura-Book-69" x="730.199875"/>
       <use xlink:href="#Futura-Book-52" x="756.399872"/>
       <use xlink:href="#Futura-Book-41" x="810.599869"/>
       <use xlink:href="#Futura-Book-43" x="880.499863"/>
      </g>
     </g>
    </g>
    <g id="xtick_3">
     <g id="line2d_3">
      <g>
       <use xlink:href="#me121300751" x="388.023953" y="145.798208" style="fill: #ffffff; stroke: #ffffff; stroke-width: 0.8"/>
      </g>
     </g>
     <g id="text_3">
      <!-- Acknowledges Supercomputing Wales -->
      <g style="fill: #ffffff" transform="translate(219.568579 326.80658)rotate(-45)scale(0.14 -0.14)">
       <defs>
        <path id="Futura-Book-53" d="M 3104 4160 
C 2848 4634 2394 4909 1856 4909 
C 1139 4909 506 4429 506 3680 
C 506 2989 992 2701 1555 2445 
L 1850 2317 
C 2298 2112 2739 1920 2739 1357 
C 2739 813 2266 416 1747 416 
C 1229 416 851 819 781 1312 
L 256 1165 
C 410 416 986 -83 1760 -83 
C 2598 -83 3277 563 3277 1408 
C 3277 2176 2746 2490 2118 2765 
L 1798 2906 
C 1472 3053 1043 3245 1043 3661 
C 1043 4102 1414 4410 1843 4410 
C 2253 4410 2483 4218 2675 3885 
L 3104 4160 
z
" transform="scale(0.015625)"/>
        <path id="Futura-Book-75" d="M 960 3008 
L 448 3008 
L 448 1274 
C 448 474 749 -83 1638 -83 
C 2528 -83 2829 474 2829 1274 
L 2829 3008 
L 2317 3008 
L 2317 1331 
C 2317 826 2259 390 1638 390 
C 1018 390 960 826 960 1331 
L 960 3008 
z
" transform="scale(0.015625)"/>
        <path id="Futura-Book-70" d="M 1926 2618 
C 2560 2618 2938 2131 2938 1530 
C 2938 922 2592 390 1933 390 
C 1293 390 947 947 947 1536 
C 947 2099 1331 2618 1926 2618 
z
M 973 3008 
L 461 3008 
L 461 -1690 
L 973 -1690 
L 973 422 
L 986 422 
C 1229 96 1606 -83 2016 -83 
C 2918 -83 3462 640 3462 1498 
C 3462 2330 2906 3091 2022 3091 
C 1606 3091 1235 2912 986 2579 
L 973 2579 
L 973 3008 
z
" transform="scale(0.015625)"/>
        <path id="Futura-Book-6d" d="M 998 3008 
L 486 3008 
L 486 0 
L 998 0 
L 998 1555 
C 998 2010 1062 2618 1664 2618 
C 2157 2618 2202 2080 2202 1709 
L 2202 0 
L 2714 0 
L 2714 1594 
C 2714 2048 2778 2618 3366 2618 
C 3891 2618 3917 2138 3917 1747 
L 3917 0 
L 4429 0 
L 4429 1830 
C 4429 2464 4237 3091 3469 3091 
C 3104 3091 2746 2925 2566 2592 
C 2406 2906 2086 3091 1734 3091 
C 1427 3091 1171 2931 1011 2682 
L 998 2682 
L 998 3008 
z
" transform="scale(0.015625)"/>
        <path id="Futura-Book-57" d="M 666 4826 
L 83 4826 
L 1933 -250 
L 3494 3635 
L 5056 -250 
L 6906 4826 
L 6323 4826 
L 5056 1210 
L 3494 5075 
L 1933 1210 
L 666 4826 
z
" transform="scale(0.015625)"/>
       </defs>
       <use xlink:href="#Futura-Book-41"/>
       <use xlink:href="#Futura-Book-63" x="69.899994"/>
       <use xlink:href="#Futura-Book-6b" x="117.499985"/>
       <use xlink:href="#Futura-Book-6e" x="164.499969"/>
       <use xlink:href="#Futura-Book-6f" x="217.299957"/>
       <use xlink:href="#Futura-Book-77" x="273.499954"/>
       <use xlink:href="#Futura-Book-6c" x="349.499939"/>
       <use xlink:href="#Futura-Book-65" x="372.199936"/>
       <use xlink:href="#Futura-Book-64" x="424.09993"/>
       <use xlink:href="#Futura-Book-67" x="481.799927"/>
       <use xlink:href="#Futura-Book-65" x="539.799911"/>
       <use xlink:href="#Futura-Book-73" x="591.699905"/>
       <use xlink:href="#Futura-Book-20" x="631.599899"/>
       <use xlink:href="#Futura-Book-53" x="662.399887"/>
       <use xlink:href="#Futura-Book-75" x="718.299881"/>
       <use xlink:href="#Futura-Book-70" x="769.499878"/>
       <use xlink:href="#Futura-Book-65" x="827.199875"/>
       <use xlink:href="#Futura-Book-72" x="879.099869"/>
       <use xlink:href="#Futura-Book-63" x="912.599854"/>
       <use xlink:href="#Futura-Book-6f" x="960.199844"/>
       <use xlink:href="#Futura-Book-6d" x="1016.399841"/>
       <use xlink:href="#Futura-Book-70" x="1093.199829"/>
       <use xlink:href="#Futura-Book-75" x="1150.899826"/>
       <use xlink:href="#Futura-Book-74" x="1202.099823"/>
       <use xlink:href="#Futura-Book-69" x="1226.099808"/>
       <use xlink:href="#Futura-Book-6e" x="1252.299805"/>
       <use xlink:href="#Futura-Book-67" x="1305.099792"/>
       <use xlink:href="#Futura-Book-20" x="1363.099777"/>
       <use xlink:href="#Futura-Book-57" x="1393.899765"/>
       <use xlink:href="#Futura-Book-61" x="1502.999756"/>
       <use xlink:href="#Futura-Book-6c" x="1560.699753"/>
       <use xlink:href="#Futura-Book-65" x="1583.39975"/>
       <use xlink:href="#Futura-Book-73" x="1635.299744"/>
      </g>
     </g>
    </g>
   </g>
   <g id="matplotlib.axis_2">
    <g id="ytick_1">
     <g id="line2d_4">
      <defs>
       <path id="m25fa380377" d="M 0 0 
L -3.5 0 
" style="stroke: #ffffff; stroke-width: 0.8"/>
      </defs>
      <g>
       <use xlink:href="#m25fa380377" x="99.743717" y="145.798208" style="fill: #ffffff; stroke: #ffffff; stroke-width: 0.8"/>
      </g>
     </g>
     <g id="text_4">
      <!-- 0 -->
      <g style="fill: #ffffff" transform="translate(84.120592 151.573208)scale(0.14 -0.14)">
       <defs>
        <path id="Futura-Book-30" d="M 1971 4909 
C 749 4909 243 3398 243 2406 
C 243 1216 870 -83 1971 -83 
C 3072 -83 3699 1216 3699 2406 
C 3699 3398 3194 4909 1971 4909 
z
M 1971 4410 
C 2880 4410 3174 3066 3162 2381 
C 3149 1702 2861 416 1971 416 
C 1082 416 794 1702 781 2381 
C 768 3066 1062 4410 1971 4410 
z
" transform="scale(0.015625)"/>
       </defs>
       <use xlink:href="#Futura-Book-30"/>
      </g>
     </g>
    </g>
    <g id="ytick_2">
     <g id="line2d_5">
      <g>
       <use xlink:href="#m25fa380377" x="99.743717" y="113.046777" style="fill: #ffffff; stroke: #ffffff; stroke-width: 0.8"/>
      </g>
     </g>
     <g id="text_5">
      <!-- 20 -->
      <g style="fill: #ffffff" transform="translate(75.497467 118.821777)scale(0.14 -0.14)">
       <defs>
        <path id="Futura-Book-32" d="M 1350 499 
L 3021 2464 
C 3270 2752 3386 3091 3386 3482 
C 3386 4320 2675 4909 1869 4909 
C 1018 4909 397 4262 378 3418 
L 915 3418 
C 928 3981 1306 4410 1888 4410 
C 2413 4410 2848 4013 2848 3475 
C 2848 3162 2714 2899 2522 2669 
L 262 0 
L 3386 0 
L 3386 499 
L 1350 499 
z
" transform="scale(0.015625)"/>
       </defs>
       <use xlink:href="#Futura-Book-32"/>
       <use xlink:href="#Futura-Book-30" x="61.599991"/>
      </g>
     </g>
    </g>
    <g id="ytick_3">
     <g id="line2d_6">
      <g>
       <use xlink:href="#m25fa380377" x="99.743717" y="80.295347" style="fill: #ffffff; stroke: #ffffff; stroke-width: 0.8"/>
      </g>
     </g>
     <g id="text_6">
      <!-- 40 -->
      <g style="fill: #ffffff" transform="translate(75.497467 86.070347)scale(0.14 -0.14)">
       <defs>
        <path id="Futura-Book-34" d="M 3046 1280 
L 3046 5094 
L 3034 5094 
L 38 781 
L 2509 781 
L 2509 0 
L 3046 0 
L 3046 781 
L 3642 781 
L 3642 1280 
L 3046 1280 
z
M 2509 1280 
L 979 1280 
L 2496 3462 
L 2509 3462 
L 2509 1280 
z
" transform="scale(0.015625)"/>
       </defs>
       <use xlink:href="#Futura-Book-34"/>
       <use xlink:href="#Futura-Book-30" x="61.599991"/>
      </g>
     </g>
    </g>
    <g id="ytick_4">
     <g id="line2d_7">
      <g>
       <use xlink:href="#m25fa380377" x="99.743717" y="47.543916" style="fill: #ffffff; stroke: #ffffff; stroke-width: 0.8"/>
      </g>
     </g>
     <g id="text_7">
      <!-- 60 -->
      <g style="fill: #ffffff" transform="translate(75.497467 53.318916)scale(0.14 -0.14)">
       <defs>
        <path id="Futura-Book-36" d="M 2323 4909 
L 723 2726 
C 480 2387 282 2010 282 1568 
C 282 659 1030 -83 1946 -83 
C 2854 -83 3610 653 3610 1574 
C 3610 2445 2925 3168 2048 3168 
C 1901 3168 1754 3142 1626 3098 
L 1613 3110 
L 2726 4608 
L 2323 4909 
z
M 1946 416 
C 1318 416 819 928 819 1555 
C 819 2182 1318 2669 1946 2669 
C 2566 2669 3072 2182 3072 1555 
C 3072 928 2573 416 1946 416 
z
" transform="scale(0.015625)"/>
       </defs>
       <use xlink:href="#Futura-Book-36"/>
       <use xlink:href="#Futura-Book-30" x="61.599991"/>
      </g>
     </g>
    </g>
    <g id="text_8">
     <!-- count -->
     <g style="fill: #ffffff" transform="translate(67.800592 96.684885)rotate(-90)scale(0.14 -0.14)">
      <use xlink:href="#Futura-Book-63"/>
      <use xlink:href="#Futura-Book-6f" x="47.599991"/>
      <use xlink:href="#Futura-Book-75" x="103.799988"/>
      <use xlink:href="#Futura-Book-6e" x="154.999985"/>
      <use xlink:href="#Futura-Book-74" x="207.799973"/>
     </g>
    </g>
   </g>
   <g id="patch_6">
    <path d="M 99.743717 145.798208 
L 99.743717 15.12 
" style="fill: none; stroke: #ffffff; stroke-width: 0.8; stroke-linejoin: miter; stroke-linecap: square"/>
   </g>
   <g id="patch_7">
    <path d="M 445.68 145.798208 
L 445.68 15.12 
" style="fill: none; stroke: #ffffff; stroke-width: 0.8; stroke-linejoin: miter; stroke-linecap: square"/>
   </g>
   <g id="patch_8">
    <path d="M 99.743717 145.798208 
L 445.68 145.798208 
" style="fill: none; stroke: #ffffff; stroke-width: 0.8; stroke-linejoin: miter; stroke-linecap: square"/>
   </g>
   <g id="patch_9">
    <path d="M 99.743717 15.12 
L 445.68 15.12 
" style="fill: none; stroke: #ffffff; stroke-width: 0.8; stroke-linejoin: miter; stroke-linecap: square"/>
   </g>
   <g id="text_9">
    <!-- Out of 91 -->
    <g style="fill: #ffffff" transform="translate(378.589712 24.267475)scale(0.14 -0.14)">
     <defs>
      <path id="Futura-Book-4f" d="M 2758 4909 
C 1382 4909 243 3789 243 2406 
C 243 1018 1382 -83 2758 -83 
C 4134 -83 5274 1018 5274 2406 
C 5274 3789 4134 4909 2758 4909 
z
M 2758 4410 
C 3866 4410 4736 3507 4736 2413 
C 4736 1325 3853 416 2758 416 
C 1664 416 781 1325 781 2413 
C 781 3507 1651 4410 2758 4410 
z
" transform="scale(0.015625)"/>
      <path id="Futura-Book-66" d="M 1043 2534 
L 1805 2534 
L 1805 3008 
L 1043 3008 
L 1043 4026 
C 1043 4557 1043 4851 1459 4851 
C 1587 4851 1690 4819 1805 4781 
L 1805 5299 
C 1683 5338 1562 5363 1440 5363 
C 1133 5363 832 5254 666 4986 
C 531 4768 531 4454 531 4205 
L 531 3008 
L 250 3008 
L 250 2534 
L 531 2534 
L 531 0 
L 1043 0 
L 1043 2534 
z
" transform="scale(0.015625)"/>
      <path id="Futura-Book-39" d="M 1568 -83 
L 3168 2106 
C 3418 2451 3616 2829 3616 3264 
C 3616 4179 2861 4909 1952 4909 
C 1043 4909 288 4179 288 3264 
C 288 2387 966 1670 1850 1670 
C 1997 1670 2138 1696 2266 1734 
L 2278 1722 
L 1165 192 
L 1568 -83 
z
M 1952 4410 
C 2573 4410 3078 3904 3078 3283 
C 3078 2656 2573 2170 1952 2170 
C 1325 2170 826 2656 826 3283 
C 826 3904 1325 4410 1952 4410 
z
" transform="scale(0.015625)"/>
      <path id="Futura-Book-31" d="M 1811 4326 
L 1811 0 
L 2349 0 
L 2349 4826 
L 1293 4826 
L 1011 4326 
L 1811 4326 
z
" transform="scale(0.015625)"/>
     </defs>
     <use xlink:href="#Futura-Book-4f"/>
     <use xlink:href="#Futura-Book-75" x="86.199982"/>
     <use xlink:href="#Futura-Book-74" x="137.399979"/>
     <use xlink:href="#Futura-Book-20" x="161.399963"/>
     <use xlink:href="#Futura-Book-6f" x="192.199951"/>
     <use xlink:href="#Futura-Book-66" x="248.399948"/>
     <use xlink:href="#Futura-Book-20" x="275.799942"/>
     <use xlink:href="#Futura-Book-39" x="306.59993"/>
     <use xlink:href="#Futura-Book-31" x="368.199921"/>
    </g>
   </g>
  </g>
 </g>
 <defs>
  <clipPath id="p6360dab2a2">
   <rect x="99.743717" y="15.12" width="345.936283" height="130.678208"/>
  </clipPath>
 </defs>
</svg>
