<?xml version="1.0" encoding="utf-8" standalone="no"?>
<!DOCTYPE svg PUBLIC "-//W3C//DTD SVG 1.1//EN"
  "http://www.w3.org/Graphics/SVG/1.1/DTD/svg11.dtd">
<svg xmlns:xlink="http://www.w3.org/1999/xlink" width="432pt" height="288pt" viewBox="0 0 432 288" xmlns="http://www.w3.org/2000/svg" version="1.1">
 <metadata>
  <rdf:RDF xmlns:dc="http://purl.org/dc/elements/1.1/" xmlns:cc="http://creativecommons.org/ns#" xmlns:rdf="http://www.w3.org/1999/02/22-rdf-syntax-ns#">
   <cc:Work>
    <dc:type rdf:resource="http://purl.org/dc/dcmitype/StillImage"/>
    <dc:date>2022-05-25T21:41:07.581749</dc:date>
    <dc:format>image/svg+xml</dc:format>
    <dc:creator>
     <cc:Agent>
      <dc:title>Matplotlib v3.5.1, https://matplotlib.org/</dc:title>
     </cc:Agent>
    </dc:creator>
   </cc:Work>
  </rdf:RDF>
 </metadata>
 <defs>
  <style type="text/css">*{stroke-linejoin: round; stroke-linecap: butt}</style>
 </defs>
 <g id="figure_1">
  <g id="patch_1">
   <path d="M 0 288 
L 432 288 
L 432 0 
L 0 0 
L 0 288 
z
" style="fill: none"/>
  </g>
  <g id="axes_1">
   <g id="patch_2">
    <path d="M 54 252 
L 388.8 252 
L 388.8 34.56 
L 54 34.56 
L 54 252 
z
" style="fill: none"/>
   </g>
   <g id="patch_3">
    <path d="M 81.9 252 
L 137.7 252 
L 137.7 44.914286 
L 81.9 44.914286 
z
" clip-path="url(#pb16c1de917)" style="fill: #8dd3c7"/>
   </g>
   <g id="patch_4">
    <path d="M 193.5 252 
L 249.3 252 
L 249.3 153.906767 
L 193.5 153.906767 
z
" clip-path="url(#pb16c1de917)" style="fill: #8dd3c7"/>
   </g>
   <g id="patch_5">
    <path d="M 305.1 252 
L 360.9 252 
L 360.9 208.403008 
L 305.1 208.403008 
z
" clip-path="url(#pb16c1de917)" style="fill: #8dd3c7"/>
   </g>
   <g id="matplotlib.axis_1">
    <g id="xtick_1">
     <g id="line2d_1">
      <defs>
       <path id="m6a3e6fac90" d="M 0 0 
L 0 3.5 
" style="stroke: #ffffff; stroke-width: 0.8"/>
      </defs>
      <g>
       <use xlink:href="#m6a3e6fac90" x="109.8" y="252" style="fill: #ffffff; stroke: #ffffff; stroke-width: 0.8"/>
      </g>
     </g>
     <g id="text_1">
      <!-- Acknowledges an HPC centre? -->
      <g style="fill: #ffffff" transform="translate(-30.567104 404.958772)rotate(-45)scale(0.14 -0.14)">
       <defs>
        <path id="Futura-Medium-41" d="M 3413 1172 
L 1347 1172 
L 809 0 
L 25 0 
L 2413 5128 
L 4716 0 
L 3919 0 
L 3413 1172 
z
M 3116 1856 
L 2400 3497 
L 1650 1856 
L 3116 1856 
z
" transform="scale(0.015625)"/>
        <path id="Futura-Medium-63" d="M 2813 2913 
L 2813 1978 
Q 2572 2272 2381 2381 
Q 2194 2494 1941 2494 
Q 1544 2494 1281 2216 
Q 1019 1938 1019 1519 
Q 1019 1091 1272 816 
Q 1528 541 1925 541 
Q 2178 541 2372 650 
Q 2559 756 2813 1063 
L 2813 134 
Q 2384 -88 1956 -88 
Q 1250 -88 775 369 
Q 300 828 300 1509 
Q 300 2191 781 2659 
Q 1263 3128 1963 3128 
Q 2413 3128 2813 2913 
z
" transform="scale(0.015625)"/>
        <path id="Futura-Medium-6b" d="M 1147 5278 
L 1147 2059 
L 2138 3044 
L 3081 3044 
L 1759 1766 
L 3178 0 
L 2266 0 
L 1259 1284 
L 1147 1172 
L 1147 0 
L 444 0 
L 444 5278 
L 1147 5278 
z
" transform="scale(0.015625)"/>
        <path id="Futura-Medium-6e" d="M 444 3044 
L 1150 3044 
L 1150 2763 
Q 1519 3128 1981 3128 
Q 2513 3128 2809 2794 
Q 3066 2509 3066 1866 
L 3066 0 
L 2359 0 
L 2359 1700 
Q 2359 2150 2234 2322 
Q 2113 2497 1791 2497 
Q 1441 2497 1294 2266 
Q 1150 2038 1150 1469 
L 1150 0 
L 444 0 
L 444 3044 
z
" transform="scale(0.015625)"/>
        <path id="Futura-Medium-6f" d="M 300 1544 
Q 300 2203 772 2665 
Q 1244 3128 1922 3128 
Q 2603 3128 3078 2663 
Q 3547 2197 3547 1519 
Q 3547 834 3075 372 
Q 2600 -88 1909 -88 
Q 1225 -88 763 381 
Q 300 844 300 1544 
z
M 1019 1531 
Q 1019 1075 1263 809 
Q 1513 541 1922 541 
Q 2334 541 2581 806 
Q 2828 1072 2828 1516 
Q 2828 1959 2581 2225 
Q 2331 2494 1922 2494 
Q 1519 2494 1269 2225 
Q 1019 1956 1019 1531 
z
" transform="scale(0.015625)"/>
        <path id="Futura-Medium-77" d="M 825 3044 
L 1622 1306 
L 2481 3322 
L 3347 1306 
L 4134 3044 
L 4922 3044 
L 3328 -228 
L 2481 1731 
L 1625 -228 
L 34 3044 
L 825 3044 
z
" transform="scale(0.015625)"/>
        <path id="Futura-Medium-6c" d="M 1147 5278 
L 1147 0 
L 444 0 
L 444 5278 
L 1147 5278 
z
" transform="scale(0.015625)"/>
        <path id="Futura-Medium-65" d="M 3216 1356 
L 1034 1356 
Q 1063 981 1278 759 
Q 1494 541 1831 541 
Q 2094 541 2266 666 
Q 2434 791 2650 1128 
L 3244 797 
Q 3106 563 2953 395 
Q 2800 228 2625 120 
Q 2450 13 2247 -37 
Q 2044 -88 1806 -88 
Q 1125 -88 713 350 
Q 300 791 300 1519 
Q 300 2241 700 2688 
Q 1103 3128 1769 3128 
Q 2441 3128 2831 2700 
Q 3219 2275 3219 1522 
L 3216 1356 
z
M 2494 1931 
Q 2347 2494 1784 2494 
Q 1656 2494 1543 2455 
Q 1431 2416 1339 2342 
Q 1247 2269 1181 2166 
Q 1116 2063 1081 1931 
L 2494 1931 
z
" transform="scale(0.015625)"/>
        <path id="Futura-Medium-64" d="M 2688 5278 
L 3394 5278 
L 3394 0 
L 2688 0 
L 2688 319 
Q 2272 -88 1747 -88 
Q 1122 -88 709 369 
Q 300 834 300 1531 
Q 300 2213 709 2669 
Q 1116 3128 1731 3128 
Q 2266 3128 2688 2691 
L 2688 5278 
z
M 1019 1531 
Q 1019 1094 1253 819 
Q 1494 541 1859 541 
Q 2250 541 2491 809 
Q 2731 1088 2731 1516 
Q 2731 1944 2491 2222 
Q 2250 2494 1866 2494 
Q 1503 2494 1259 2219 
Q 1019 1941 1019 1531 
z
" transform="scale(0.015625)"/>
        <path id="Futura-Medium-67" d="M 3388 72 
Q 3388 -144 3373 -308 
Q 3359 -472 3334 -597 
Q 3259 -941 3041 -1188 
Q 2628 -1663 1906 -1663 
Q 1297 -1663 903 -1334 
Q 497 -997 434 -400 
L 1141 -400 
Q 1181 -625 1275 -747 
Q 1494 -1031 1913 -1031 
Q 2684 -1031 2684 -84 
L 2684 341 
Q 2266 -88 1719 -88 
Q 1097 -88 700 363 
Q 300 819 300 1503 
Q 300 2169 672 2634 
Q 1072 3128 1728 3128 
Q 2303 3128 2684 2700 
L 2684 3044 
L 3388 3044 
L 3388 72 
z
M 2713 1516 
Q 2713 1959 2475 2225 
Q 2234 2497 1859 2497 
Q 1459 2497 1228 2200 
Q 1019 1934 1019 1513 
Q 1019 1097 1228 831 
Q 1456 541 1859 541 
Q 2263 541 2497 834 
Q 2713 1100 2713 1516 
z
" transform="scale(0.015625)"/>
        <path id="Futura-Medium-73" d="M 2213 2525 
L 1631 2216 
Q 1494 2497 1291 2497 
Q 1194 2497 1125 2433 
Q 1056 2369 1056 2269 
Q 1056 2094 1463 1922 
Q 2022 1681 2215 1478 
Q 2409 1275 2409 931 
Q 2409 491 2084 194 
Q 1769 -88 1322 -88 
Q 556 -88 238 659 
L 838 938 
Q 963 719 1028 659 
Q 1156 541 1334 541 
Q 1691 541 1691 866 
Q 1691 1053 1416 1216 
Q 1309 1269 1203 1319 
Q 1097 1369 988 1422 
Q 681 1572 556 1722 
Q 397 1913 397 2213 
Q 397 2609 669 2869 
Q 947 3128 1344 3128 
Q 1928 3128 2213 2525 
z
" transform="scale(0.015625)"/>
        <path id="Futura-Medium-20" transform="scale(0.015625)"/>
        <path id="Futura-Medium-61" d="M 2688 3044 
L 3394 3044 
L 3394 0 
L 2688 0 
L 2688 319 
Q 2253 -88 1753 -88 
Q 1122 -88 709 369 
Q 300 834 300 1531 
Q 300 2216 709 2672 
Q 1119 3128 1734 3128 
Q 2266 3128 2688 2691 
L 2688 3044 
z
M 1019 1531 
Q 1019 1094 1253 819 
Q 1494 541 1859 541 
Q 2250 541 2491 809 
Q 2731 1088 2731 1516 
Q 2731 1944 2491 2222 
Q 2250 2494 1866 2494 
Q 1503 2494 1259 2219 
Q 1019 1941 1019 1531 
z
" transform="scale(0.015625)"/>
        <path id="Futura-Medium-48" d="M 1306 2938 
L 3388 2938 
L 3388 4825 
L 4116 4825 
L 4116 0 
L 3388 0 
L 3388 2253 
L 1306 2253 
L 1306 0 
L 578 0 
L 578 4825 
L 1306 4825 
L 1306 2938 
z
" transform="scale(0.015625)"/>
        <path id="Futura-Medium-50" d="M 1306 1959 
L 1306 0 
L 578 0 
L 578 4825 
L 1403 4825 
Q 2009 4825 2319 4741 
Q 2631 4656 2869 4422 
Q 3284 4016 3284 3397 
Q 3284 2734 2840 2346 
Q 2397 1959 1644 1959 
L 1306 1959 
z
M 1306 2634 
L 1578 2634 
Q 2581 2634 2581 3406 
Q 2581 4153 1547 4153 
L 1306 4153 
L 1306 2634 
z
" transform="scale(0.015625)"/>
        <path id="Futura-Medium-43" d="M 4144 4566 
L 4144 3703 
Q 3513 4231 2838 4231 
Q 2094 4231 1584 3697 
Q 1072 3166 1072 2397 
Q 1072 1638 1584 1116 
Q 2097 594 2841 594 
Q 3225 594 3494 719 
Q 3644 781 3805 887 
Q 3966 994 4144 1144 
L 4144 266 
Q 3519 -88 2831 -88 
Q 1797 -88 1066 634 
Q 338 1363 338 2391 
Q 338 3313 947 4034 
Q 1697 4919 2888 4919 
Q 3538 4919 4144 4566 
z
" transform="scale(0.015625)"/>
        <path id="Futura-Medium-74" d="M 1169 2388 
L 1169 0 
L 466 0 
L 466 2388 
L 166 2388 
L 166 3044 
L 466 3044 
L 466 4159 
L 1169 4159 
L 1169 3044 
L 1716 3044 
L 1716 2388 
L 1169 2388 
z
" transform="scale(0.015625)"/>
        <path id="Futura-Medium-72" d="M 444 3044 
L 1147 3044 
L 1147 2772 
Q 1341 2975 1491 3050 
Q 1644 3128 1853 3128 
Q 2131 3128 2434 2947 
L 2113 2303 
Q 1913 2447 1722 2447 
Q 1147 2447 1147 1578 
L 1147 0 
L 444 0 
L 444 3044 
z
" transform="scale(0.015625)"/>
        <path id="Futura-Medium-3f" d="M 1934 2253 
L 2641 2253 
Q 2641 1778 2388 1488 
Q 2059 1109 1547 1109 
Q 1097 1109 794 1422 
Q 488 1738 488 2194 
Q 488 2556 678 2775 
Q 872 2997 1334 3163 
Q 1794 3331 1916 3434 
Q 2041 3538 2041 3753 
Q 2041 3969 1911 4095 
Q 1781 4222 1566 4222 
Q 1350 4222 1222 4097 
Q 1094 3972 1094 3756 
Q 1094 3659 1131 3488 
L 403 3488 
Q 397 3569 392 3631 
Q 388 3694 388 3744 
Q 388 4238 722 4566 
Q 1053 4894 1559 4894 
Q 2069 4894 2409 4562 
Q 2750 4231 2750 3734 
Q 2750 3225 2409 2913 
Q 2194 2716 1597 2531 
Q 1191 2406 1191 2138 
Q 1191 2063 1220 1995 
Q 1250 1928 1300 1878 
Q 1350 1828 1417 1800 
Q 1484 1772 1559 1772 
Q 1903 1772 1934 2253 
z
M 1138 350 
Q 1138 525 1266 653 
Q 1394 781 1572 781 
Q 1750 781 1878 653 
Q 2006 525 2006 347 
Q 2006 166 1878 38 
Q 1753 -88 1575 -88 
Q 1391 -88 1266 38 
Q 1138 166 1138 350 
z
" transform="scale(0.015625)"/>
       </defs>
       <use xlink:href="#Futura-Medium-41"/>
       <use xlink:href="#Futura-Medium-63" x="73.572266"/>
       <use xlink:href="#Futura-Medium-6b" x="123.853516"/>
       <use xlink:href="#Futura-Medium-6e" x="173.658203"/>
       <use xlink:href="#Futura-Medium-6f" x="228.492188"/>
       <use xlink:href="#Futura-Medium-77" x="286.724609"/>
       <use xlink:href="#Futura-Medium-6c" x="364.992188"/>
       <use xlink:href="#Futura-Medium-65" x="389.894531"/>
       <use xlink:href="#Futura-Medium-64" x="445.216797"/>
       <use xlink:href="#Futura-Medium-67" x="505.177734"/>
       <use xlink:href="#Futura-Medium-65" x="565.041016"/>
       <use xlink:href="#Futura-Medium-73" x="620.363281"/>
       <use xlink:href="#Futura-Medium-20" x="660.939453"/>
       <use xlink:href="#Futura-Medium-61" x="691.798828"/>
       <use xlink:href="#Futura-Medium-6e" x="751.759766"/>
       <use xlink:href="#Futura-Medium-20" x="806.59375"/>
       <use xlink:href="#Futura-Medium-48" x="837.453125"/>
       <use xlink:href="#Futura-Medium-50" x="910.792969"/>
       <use xlink:href="#Futura-Medium-43" x="964.796875"/>
       <use xlink:href="#Futura-Medium-20" x="1034.865234"/>
       <use xlink:href="#Futura-Medium-63" x="1065.724609"/>
       <use xlink:href="#Futura-Medium-65" x="1113.380859"/>
       <use xlink:href="#Futura-Medium-6e" x="1168.703125"/>
       <use xlink:href="#Futura-Medium-74" x="1223.537109"/>
       <use xlink:href="#Futura-Medium-72" x="1250.880859"/>
       <use xlink:href="#Futura-Medium-65" x="1287.658203"/>
       <use xlink:href="#Futura-Medium-3f" x="1342.980469"/>
      </g>
     </g>
    </g>
    <g id="xtick_2">
     <g id="line2d_2">
      <g>
       <use xlink:href="#m6a3e6fac90" x="221.4" y="252" style="fill: #ffffff; stroke: #ffffff; stroke-width: 0.8"/>
      </g>
     </g>
     <g id="text_2">
      <!-- Acknowledges DiRAC -->
      <g style="fill: #ffffff" transform="translate(120.804117 365.187551)rotate(-45)scale(0.14 -0.14)">
       <defs>
        <path id="Futura-Medium-44" d="M 578 0 
L 578 4825 
L 1591 4825 
Q 2319 4825 2741 4681 
Q 3194 4541 3563 4203 
Q 4309 3522 4309 2413 
Q 4309 1300 3531 613 
Q 3141 269 2713 134 
Q 2313 0 1578 0 
L 578 0 
z
M 1306 684 
L 1634 684 
Q 2125 684 2450 788 
Q 2775 897 3038 1134 
Q 3575 1625 3575 2413 
Q 3575 3206 3044 3700 
Q 2566 4141 1634 4141 
L 1306 4141 
L 1306 684 
z
" transform="scale(0.015625)"/>
        <path id="Futura-Medium-69" d="M 1147 3044 
L 1147 0 
L 444 0 
L 444 3044 
L 1147 3044 
z
M 338 4309 
Q 338 4494 472 4628 
Q 606 4763 794 4763 
Q 984 4763 1119 4628 
Q 1253 4497 1253 4306 
Q 1253 4116 1119 3981 
Q 988 3847 797 3847 
Q 606 3847 472 3981 
Q 338 4116 338 4309 
z
" transform="scale(0.015625)"/>
        <path id="Futura-Medium-52" d="M 2213 2056 
L 3706 0 
L 2816 0 
L 1438 1975 
L 1306 1975 
L 1306 0 
L 578 0 
L 578 4825 
L 1431 4825 
Q 2388 4825 2813 4466 
Q 3281 4066 3281 3409 
Q 3281 2897 2987 2528 
Q 2694 2159 2213 2056 
z
M 1306 2609 
L 1538 2609 
Q 2572 2609 2572 3400 
Q 2572 4141 1566 4141 
L 1306 4141 
L 1306 2609 
z
" transform="scale(0.015625)"/>
       </defs>
       <use xlink:href="#Futura-Medium-41"/>
       <use xlink:href="#Futura-Medium-63" x="73.572266"/>
       <use xlink:href="#Futura-Medium-6b" x="123.853516"/>
       <use xlink:href="#Futura-Medium-6e" x="173.658203"/>
       <use xlink:href="#Futura-Medium-6f" x="228.492188"/>
       <use xlink:href="#Futura-Medium-77" x="286.724609"/>
       <use xlink:href="#Futura-Medium-6c" x="364.992188"/>
       <use xlink:href="#Futura-Medium-65" x="389.894531"/>
       <use xlink:href="#Futura-Medium-64" x="445.216797"/>
       <use xlink:href="#Futura-Medium-67" x="505.177734"/>
       <use xlink:href="#Futura-Medium-65" x="565.041016"/>
       <use xlink:href="#Futura-Medium-73" x="620.363281"/>
       <use xlink:href="#Futura-Medium-20" x="660.939453"/>
       <use xlink:href="#Futura-Medium-44" x="691.798828"/>
       <use xlink:href="#Futura-Medium-69" x="764.40625"/>
       <use xlink:href="#Futura-Medium-52" x="789.308594"/>
       <use xlink:href="#Futura-Medium-41" x="849.513672"/>
       <use xlink:href="#Futura-Medium-43" x="920.085938"/>
      </g>
     </g>
    </g>
    <g id="xtick_3">
     <g id="line2d_3">
      <g>
       <use xlink:href="#m6a3e6fac90" x="333" y="252" style="fill: #ffffff; stroke: #ffffff; stroke-width: 0.8"/>
      </g>
     </g>
     <g id="text_3">
      <!-- Acknowledges Supercomputing Wales -->
      <g style="fill: #ffffff" transform="translate(158.393018 439.19865)rotate(-45)scale(0.14 -0.14)">
       <defs>
        <path id="Futura-Medium-53" d="M 3306 4106 
L 2716 3756 
Q 2550 4044 2400 4131 
Q 2244 4231 1997 4231 
Q 1694 4231 1494 4059 
Q 1294 3891 1294 3634 
Q 1294 3281 1819 3066 
L 2300 2869 
Q 2888 2631 3159 2289 
Q 3431 1947 3431 1450 
Q 3431 784 2988 350 
Q 2541 -88 1878 -88 
Q 1250 -88 841 284 
Q 438 656 338 1331 
L 1075 1494 
Q 1125 1069 1250 906 
Q 1475 594 1906 594 
Q 2247 594 2472 822 
Q 2697 1050 2697 1400 
Q 2697 1541 2658 1658 
Q 2619 1775 2536 1873 
Q 2453 1972 2322 2058 
Q 2191 2144 2009 2222 
L 1544 2416 
Q 553 2834 553 3641 
Q 553 4184 969 4550 
Q 1384 4919 2003 4919 
Q 2838 4919 3306 4106 
z
" transform="scale(0.015625)"/>
        <path id="Futura-Medium-75" d="M 1147 3044 
L 1147 1297 
Q 1147 541 1744 541 
Q 2341 541 2341 1297 
L 2341 3044 
L 3044 3044 
L 3044 1281 
Q 3044 916 2953 650 
Q 2866 413 2650 222 
Q 2294 -88 1744 -88 
Q 1197 -88 841 222 
Q 622 413 531 650 
Q 444 863 444 1281 
L 444 3044 
L 1147 3044 
z
" transform="scale(0.015625)"/>
        <path id="Futura-Medium-70" d="M 1147 -1656 
L 444 -1656 
L 444 3044 
L 1147 3044 
L 1147 2713 
Q 1563 3128 2091 3128 
Q 2719 3128 3125 2666 
Q 3538 2206 3538 1506 
Q 3538 822 3128 366 
Q 2722 -88 2103 -88 
Q 1569 -88 1147 341 
L 1147 -1656 
z
M 2819 1503 
Q 2819 1941 2581 2216 
Q 2341 2494 1975 2494 
Q 1588 2494 1347 2225 
Q 1106 1956 1106 1519 
Q 1106 1091 1347 813 
Q 1584 541 1972 541 
Q 2338 541 2575 816 
Q 2819 1091 2819 1503 
z
" transform="scale(0.015625)"/>
        <path id="Futura-Medium-6d" d="M 444 3044 
L 1147 3044 
L 1147 2763 
Q 1350 2975 1494 3050 
Q 1647 3128 1878 3128 
Q 2394 3128 2694 2678 
Q 3025 3128 3591 3128 
Q 4619 3128 4619 1881 
L 4619 0 
L 3913 0 
L 3913 1691 
Q 3913 2128 3806 2309 
Q 3697 2494 3447 2494 
Q 3156 2494 3023 2275 
Q 2891 2056 2891 1572 
L 2891 0 
L 2184 0 
L 2184 1681 
Q 2184 2494 1716 2494 
Q 1419 2494 1283 2272 
Q 1147 2050 1147 1572 
L 1147 0 
L 444 0 
L 444 3044 
z
" transform="scale(0.015625)"/>
        <path id="Futura-Medium-57" d="M 816 4825 
L 2072 1600 
L 3384 5059 
L 4641 1600 
L 5975 4825 
L 6766 4825 
L 4609 -306 
L 3369 3113 
L 2075 -309 
L 25 4825 
L 816 4825 
z
" transform="scale(0.015625)"/>
       </defs>
       <use xlink:href="#Futura-Medium-41"/>
       <use xlink:href="#Futura-Medium-63" x="73.572266"/>
       <use xlink:href="#Futura-Medium-6b" x="123.853516"/>
       <use xlink:href="#Futura-Medium-6e" x="173.658203"/>
       <use xlink:href="#Futura-Medium-6f" x="228.492188"/>
       <use xlink:href="#Futura-Medium-77" x="286.724609"/>
       <use xlink:href="#Futura-Medium-6c" x="364.992188"/>
       <use xlink:href="#Futura-Medium-65" x="389.894531"/>
       <use xlink:href="#Futura-Medium-64" x="445.216797"/>
       <use xlink:href="#Futura-Medium-67" x="505.177734"/>
       <use xlink:href="#Futura-Medium-65" x="565.041016"/>
       <use xlink:href="#Futura-Medium-73" x="620.363281"/>
       <use xlink:href="#Futura-Medium-20" x="660.939453"/>
       <use xlink:href="#Futura-Medium-53" x="691.798828"/>
       <use xlink:href="#Futura-Medium-75" x="750.099609"/>
       <use xlink:href="#Futura-Medium-70" x="804.591797"/>
       <use xlink:href="#Futura-Medium-65" x="864.552734"/>
       <use xlink:href="#Futura-Medium-72" x="919.875"/>
       <use xlink:href="#Futura-Medium-63" x="956.402344"/>
       <use xlink:href="#Futura-Medium-6f" x="1004.058594"/>
       <use xlink:href="#Futura-Medium-6d" x="1064.166016"/>
       <use xlink:href="#Futura-Medium-70" x="1144.517578"/>
       <use xlink:href="#Futura-Medium-75" x="1204.478516"/>
       <use xlink:href="#Futura-Medium-74" x="1258.970703"/>
       <use xlink:href="#Futura-Medium-69" x="1286.314453"/>
       <use xlink:href="#Futura-Medium-6e" x="1311.216797"/>
       <use xlink:href="#Futura-Medium-67" x="1366.050781"/>
       <use xlink:href="#Futura-Medium-20" x="1425.914062"/>
       <use xlink:href="#Futura-Medium-57" x="1456.773438"/>
       <use xlink:href="#Futura-Medium-61" x="1556.953125"/>
       <use xlink:href="#Futura-Medium-6c" x="1616.914062"/>
       <use xlink:href="#Futura-Medium-65" x="1641.816406"/>
       <use xlink:href="#Futura-Medium-73" x="1697.138672"/>
      </g>
     </g>
    </g>
   </g>
   <g id="matplotlib.axis_2">
    <g id="ytick_1">
     <g id="line2d_4">
      <defs>
       <path id="md7775e611f" d="M 0 0 
L -3.5 0 
" style="stroke: #ffffff; stroke-width: 0.8"/>
      </defs>
      <g>
       <use xlink:href="#md7775e611f" x="54" y="252" style="fill: #ffffff; stroke: #ffffff; stroke-width: 0.8"/>
      </g>
     </g>
     <g id="text_4">
      <!-- 0 -->
      <g style="fill: #ffffff" transform="translate(38.359375 257.772812)scale(0.14 -0.14)">
       <defs>
        <path id="Futura-Medium-30" d="M 272 2444 
Q 272 3597 809 4284 
Q 1291 4906 1975 4906 
Q 2659 4906 3141 4284 
Q 3678 3597 3678 2413 
Q 3678 1231 3141 544 
Q 2659 -78 1978 -78 
Q 1297 -78 809 544 
Q 272 1231 272 2444 
z
M 988 2441 
Q 988 1638 1266 1106 
Q 1544 584 1975 584 
Q 2403 584 2684 1106 
Q 2966 1625 2966 2416 
Q 2966 3206 2684 3728 
Q 2403 4247 1975 4247 
Q 1550 4247 1269 3728 
Q 988 3213 988 2441 
z
" transform="scale(0.015625)"/>
       </defs>
       <use xlink:href="#Futura-Medium-30"/>
      </g>
     </g>
    </g>
    <g id="ytick_2">
     <g id="line2d_5">
      <g>
       <use xlink:href="#md7775e611f" x="54" y="197.503759" style="fill: #ffffff; stroke: #ffffff; stroke-width: 0.8"/>
      </g>
     </g>
     <g id="text_5">
      <!-- 20 -->
      <g style="fill: #ffffff" transform="translate(29.71875 203.276572)scale(0.14 -0.14)">
       <defs>
        <path id="Futura-Medium-32" d="M 1603 684 
L 3400 684 
L 3400 0 
L 159 0 
L 1834 2028 
Q 2081 2331 2248 2553 
Q 2416 2775 2503 2925 
Q 2681 3219 2681 3453 
Q 2681 3791 2443 4019 
Q 2206 4247 1856 4247 
Q 1125 4247 1019 3381 
L 294 3381 
Q 469 4906 1834 4906 
Q 2494 4906 2941 4488 
Q 3391 4069 3391 3450 
Q 3391 3056 3181 2678 
Q 3075 2481 2870 2211 
Q 2666 1941 2353 1572 
L 1603 684 
z
" transform="scale(0.015625)"/>
       </defs>
       <use xlink:href="#Futura-Medium-32"/>
       <use xlink:href="#Futura-Medium-30" x="61.71875"/>
      </g>
     </g>
    </g>
    <g id="ytick_3">
     <g id="line2d_6">
      <g>
       <use xlink:href="#md7775e611f" x="54" y="143.007519" style="fill: #ffffff; stroke: #ffffff; stroke-width: 0.8"/>
      </g>
     </g>
     <g id="text_6">
      <!-- 40 -->
      <g style="fill: #ffffff" transform="translate(29.71875 148.780331)scale(0.14 -0.14)">
       <defs>
        <path id="Futura-Medium-34" d="M 3156 1347 
L 3669 1347 
L 3669 684 
L 3156 684 
L 3156 0 
L 2428 0 
L 2428 684 
L 59 684 
L 3156 5184 
L 3156 1347 
z
M 2428 1347 
L 2428 2963 
L 1316 1347 
L 2428 1347 
z
" transform="scale(0.015625)"/>
       </defs>
       <use xlink:href="#Futura-Medium-34"/>
       <use xlink:href="#Futura-Medium-30" x="61.71875"/>
      </g>
     </g>
    </g>
    <g id="ytick_4">
     <g id="line2d_7">
      <g>
       <use xlink:href="#md7775e611f" x="54" y="88.511278" style="fill: #ffffff; stroke: #ffffff; stroke-width: 0.8"/>
      </g>
     </g>
     <g id="text_7">
      <!-- 60 -->
      <g style="fill: #ffffff" transform="translate(29.71875 94.284091)scale(0.14 -0.14)">
       <defs>
        <path id="Futura-Medium-36" d="M 2513 4994 
L 3047 4594 
L 1894 3025 
Q 1988 3038 2053 3044 
Q 2119 3050 2156 3050 
Q 2744 3050 3172 2600 
Q 3597 2156 3597 1531 
Q 3597 869 3122 394 
Q 2650 -78 1988 -78 
Q 1331 -78 838 388 
Q 353 853 353 1491 
Q 353 2063 825 2703 
L 2513 4994 
z
M 2888 1484 
Q 2888 1869 2622 2134 
Q 2353 2403 1975 2403 
Q 1594 2403 1328 2137 
Q 1063 1872 1063 1494 
Q 1063 1116 1328 850 
Q 1594 584 1978 584 
Q 2353 584 2619 850 
Q 2888 1119 2888 1484 
z
" transform="scale(0.015625)"/>
       </defs>
       <use xlink:href="#Futura-Medium-36"/>
       <use xlink:href="#Futura-Medium-30" x="61.71875"/>
      </g>
     </g>
    </g>
    <g id="text_8">
     <!-- count -->
     <g style="fill: #ffffff" transform="translate(22.09625 160.390625)rotate(-90)scale(0.14 -0.14)">
      <use xlink:href="#Futura-Medium-63"/>
      <use xlink:href="#Futura-Medium-6f" x="47.65625"/>
      <use xlink:href="#Futura-Medium-75" x="107.763672"/>
      <use xlink:href="#Futura-Medium-6e" x="162.255859"/>
      <use xlink:href="#Futura-Medium-74" x="217.089844"/>
     </g>
    </g>
   </g>
   <g id="patch_6">
    <path d="M 54 252 
L 54 34.56 
" style="fill: none; stroke: #ffffff; stroke-width: 0.8; stroke-linejoin: miter; stroke-linecap: square"/>
   </g>
   <g id="patch_7">
    <path d="M 388.8 252 
L 388.8 34.56 
" style="fill: none; stroke: #ffffff; stroke-width: 0.8; stroke-linejoin: miter; stroke-linecap: square"/>
   </g>
   <g id="patch_8">
    <path d="M 54 252 
L 388.8 252 
" style="fill: none; stroke: #ffffff; stroke-width: 0.8; stroke-linejoin: miter; stroke-linecap: square"/>
   </g>
   <g id="patch_9">
    <path d="M 54 34.56 
L 388.8 34.56 
" style="fill: none; stroke: #ffffff; stroke-width: 0.8; stroke-linejoin: miter; stroke-linecap: square"/>
   </g>
   <g id="text_9">
    <!-- Out of 91 -->
    <g style="fill: #ffffff" transform="translate(327.370625 45.432)scale(0.14 -0.14)">
     <defs>
      <path id="Futura-Medium-4f" d="M 338 2434 
Q 338 3453 1084 4184 
Q 1828 4916 2872 4916 
Q 3903 4916 4641 4178 
Q 5381 3441 5381 2406 
Q 5381 1366 4638 641 
Q 3891 -88 2834 -88 
Q 1900 -88 1156 559 
Q 338 1275 338 2434 
z
M 1072 2425 
Q 1072 1625 1609 1109 
Q 2144 594 2844 594 
Q 3603 594 4125 1119 
Q 4647 1650 4647 2413 
Q 4647 3184 4131 3706 
Q 3619 4231 2863 4231 
Q 2109 4231 1591 3706 
Q 1072 3188 1072 2425 
z
" transform="scale(0.015625)"/>
      <path id="Futura-Medium-66" d="M 1172 2388 
L 1172 0 
L 466 0 
L 466 2388 
L 216 2388 
L 216 3044 
L 466 3044 
L 466 4219 
Q 466 4794 666 5031 
Q 941 5363 1466 5363 
Q 1653 5363 1938 5253 
L 1938 4534 
L 1866 4572 
Q 1638 4688 1491 4688 
Q 1303 4688 1238 4553 
Q 1172 4422 1172 4047 
L 1172 3044 
L 1938 3044 
L 1938 2388 
L 1172 2388 
z
" transform="scale(0.015625)"/>
      <path id="Futura-Medium-39" d="M 1438 -166 
L 903 231 
L 2056 1803 
Q 1963 1791 1897 1784 
Q 1831 1778 1791 1778 
Q 1206 1778 778 2225 
Q 353 2669 353 3294 
Q 353 3959 825 4431 
Q 1300 4906 1963 4906 
Q 2622 4906 3109 4438 
Q 3597 3972 3597 3338 
Q 3597 2775 3122 2122 
L 1438 -166 
z
M 1063 3347 
Q 1063 2956 1328 2691 
Q 1597 2422 1975 2422 
Q 2353 2422 2619 2688 
Q 2888 2956 2888 3334 
Q 2888 3713 2619 3981 
Q 2353 4247 1972 4247 
Q 1597 4247 1331 3981 
Q 1063 3713 1063 3347 
z
" transform="scale(0.015625)"/>
      <path id="Futura-Medium-31" d="M 1734 4144 
L 900 4144 
L 1300 4825 
L 2463 4825 
L 2463 0 
L 1734 0 
L 1734 4144 
z
" transform="scale(0.015625)"/>
     </defs>
     <use xlink:href="#Futura-Medium-4f"/>
     <use xlink:href="#Futura-Medium-75" x="89.355469"/>
     <use xlink:href="#Futura-Medium-74" x="143.847656"/>
     <use xlink:href="#Futura-Medium-20" x="171.191406"/>
     <use xlink:href="#Futura-Medium-6f" x="202.050781"/>
     <use xlink:href="#Futura-Medium-66" x="262.158203"/>
     <use xlink:href="#Futura-Medium-20" x="291.845703"/>
     <use xlink:href="#Futura-Medium-39" x="322.705078"/>
     <use xlink:href="#Futura-Medium-31" x="377.048828"/>
    </g>
   </g>
  </g>
 </g>
 <defs>
  <clipPath id="pb16c1de917">
   <rect x="54" y="34.56" width="334.8" height="217.44"/>
  </clipPath>
 </defs>
</svg>
