<?xml version="1.0" encoding="utf-8" standalone="no"?>
<!DOCTYPE svg PUBLIC "-//W3C//DTD SVG 1.1//EN"
  "http://www.w3.org/Graphics/SVG/1.1/DTD/svg11.dtd">
<svg xmlns:xlink="http://www.w3.org/1999/xlink" width="912.87pt" height="360pt" viewBox="0 0 912.87 360" xmlns="http://www.w3.org/2000/svg" version="1.1">
 <metadata>
  <rdf:RDF xmlns:dc="http://purl.org/dc/elements/1.1/" xmlns:cc="http://creativecommons.org/ns#" xmlns:rdf="http://www.w3.org/1999/02/22-rdf-syntax-ns#">
   <cc:Work>
    <dc:type rdf:resource="http://purl.org/dc/dcmitype/StillImage"/>
    <dc:date>2022-05-26T15:03:03.030471</dc:date>
    <dc:format>image/svg+xml</dc:format>
    <dc:creator>
     <cc:Agent>
      <dc:title>Matplotlib v3.5.2, https://matplotlib.org/</dc:title>
     </cc:Agent>
    </dc:creator>
   </cc:Work>
  </rdf:RDF>
 </metadata>
 <defs>
  <style type="text/css">*{stroke-linejoin: round; stroke-linecap: butt}</style>
 </defs>
 <g id="figure_1">
  <g id="patch_1">
   <path d="M 0 360 
L 912.87 360 
L 912.87 0 
L 0 0 
L 0 360 
z
" style="fill: none"/>
  </g>
  <g id="axes_1">
   <g id="patch_2">
    <path d="M 86.063355 302.2 
L 389.335519 302.2 
L 389.335519 33.36 
L 86.063355 33.36 
L 86.063355 302.2 
z
" style="fill: none"/>
   </g>
   <g id="patch_3">
    <path d="M 101.226963 302.2 
L 121.445107 302.2 
L 121.445107 168.771697 
L 101.226963 168.771697 
z
" clip-path="url(#p2c1d235e8b)" style="fill: #96cac1"/>
   </g>
   <g id="patch_4">
    <path d="M 252.863045 302.2 
L 273.08119 302.2 
L 273.08119 46.161905 
L 252.863045 46.161905 
z
" clip-path="url(#p2c1d235e8b)" style="fill: #96cac1"/>
   </g>
   <g id="patch_5">
    <path d="M 121.445107 302.2 
L 141.663252 302.2 
L 141.663252 298.59383 
L 121.445107 298.59383 
z
" clip-path="url(#p2c1d235e8b)" style="fill: #f5f6bc"/>
   </g>
   <g id="patch_6">
    <path d="M 273.08119 302.2 
L 293.299334 302.2 
L 293.299334 300.396915 
L 273.08119 300.396915 
z
" clip-path="url(#p2c1d235e8b)" style="fill: #f5f6bc"/>
   </g>
   <g id="patch_7">
    <path d="M 141.663252 302.2 
L 161.881396 302.2 
L 161.881396 296.790744 
L 141.663252 296.790744 
z
" clip-path="url(#p2c1d235e8b)" style="fill: #c2bfd5"/>
   </g>
   <g id="patch_8">
    <path d="M 293.299334 302.2 
L 313.517478 302.2 
L 313.517478 300.396915 
L 293.299334 300.396915 
z
" clip-path="url(#p2c1d235e8b)" style="fill: #c2bfd5"/>
   </g>
   <g id="patch_9">
    <path d="M 161.881396 302.2 
L 182.09954 302.2 
L 182.09954 300.396915 
L 161.881396 300.396915 
z
" clip-path="url(#p2c1d235e8b)" style="fill: #e98e85"/>
   </g>
   <g id="patch_10">
    <path d="M 0 0 
z
" clip-path="url(#p2c1d235e8b)" style="fill: #e98e85"/>
   </g>
   <g id="patch_11">
    <path d="M 182.09954 302.2 
L 202.317685 302.2 
L 202.317685 298.59383 
L 182.09954 298.59383 
z
" clip-path="url(#p2c1d235e8b)" style="fill: #8bafc8"/>
   </g>
   <g id="patch_12">
    <path d="M 333.735622 302.2 
L 353.953767 302.2 
L 353.953767 298.59383 
L 333.735622 298.59383 
z
" clip-path="url(#p2c1d235e8b)" style="fill: #8bafc8"/>
   </g>
   <g id="patch_13">
    <path d="M 202.317685 302.2 
L 222.535829 302.2 
L 222.535829 300.396915 
L 202.317685 300.396915 
z
" clip-path="url(#p2c1d235e8b)" style="fill: #eab375"/>
   </g>
   <g id="patch_14">
    <path d="M 0 0 
z
" clip-path="url(#p2c1d235e8b)" style="fill: #eab375"/>
   </g>
   <g id="matplotlib.axis_1">
    <g id="xtick_1">
     <g id="line2d_1">
      <defs>
       <path id="ma0cfe187be" d="M 0 0 
L 0 3.5 
" style="stroke: #ffffff; stroke-width: 0.8"/>
      </defs>
      <g>
       <use xlink:href="#ma0cfe187be" x="161.881396" y="302.2" style="fill: #ffffff; stroke: #ffffff; stroke-width: 0.8"/>
      </g>
     </g>
     <g id="text_1">
      <!-- hep-lat -->
      <g style="fill: #ffffff" transform="translate(141.74874 320.75)scale(0.14 -0.14)">
       <defs>
        <path id="Futura-Book-68" d="M 486 5280 
L 486 0 
L 998 0 
L 998 1427 
C 998 1965 1043 2618 1747 2618 
C 2342 2618 2381 2182 2381 1696 
L 2381 0 
L 2893 0 
L 2893 1786 
C 2893 2490 2701 3091 1869 3091 
C 1498 3091 1222 2931 1011 2643 
L 998 2656 
L 998 5280 
L 486 5280 
z
" transform="scale(0.015625)"/>
        <path id="Futura-Book-65" d="M 3104 1395 
C 3155 2291 2643 3091 1677 3091 
C 736 3091 218 2355 218 1466 
C 218 602 794 -83 1690 -83 
C 2304 -83 2790 224 3078 762 
L 2643 1011 
C 2445 653 2163 390 1728 390 
C 1146 390 749 838 742 1395 
L 3104 1395 
z
M 768 1830 
C 832 2266 1242 2618 1683 2618 
C 2131 2618 2496 2266 2566 1830 
L 768 1830 
z
" transform="scale(0.015625)"/>
        <path id="Futura-Book-70" d="M 1926 2618 
C 2560 2618 2938 2131 2938 1530 
C 2938 922 2592 390 1933 390 
C 1293 390 947 947 947 1536 
C 947 2099 1331 2618 1926 2618 
z
M 973 3008 
L 461 3008 
L 461 -1690 
L 973 -1690 
L 973 422 
L 986 422 
C 1229 96 1606 -83 2016 -83 
C 2918 -83 3462 640 3462 1498 
C 3462 2330 2906 3091 2022 3091 
C 1606 3091 1235 2912 986 2579 
L 973 2579 
L 973 3008 
z
" transform="scale(0.015625)"/>
        <path id="Futura-Book-2d" d="M 13 1779 
L 13 1306 
L 1325 1306 
L 1325 1779 
L 13 1779 
z
" transform="scale(0.015625)"/>
        <path id="Futura-Book-6c" d="M 986 5280 
L 474 5280 
L 474 0 
L 986 0 
L 986 5280 
z
" transform="scale(0.015625)"/>
        <path id="Futura-Book-61" d="M 1734 2618 
C 2368 2618 2746 2131 2746 1530 
C 2746 922 2400 390 1741 390 
C 1101 390 755 947 755 1536 
C 755 2099 1139 2618 1734 2618 
z
M 3232 3008 
L 2720 3008 
L 2720 2579 
L 2707 2579 
C 2458 2899 2086 3091 1677 3091 
C 774 3091 230 2355 230 1498 
C 230 666 787 -83 1670 -83 
C 2093 -83 2445 83 2707 416 
L 2720 416 
L 2720 0 
L 3232 0 
L 3232 3008 
z
" transform="scale(0.015625)"/>
        <path id="Futura-Book-74" d="M 1024 2534 
L 1562 2534 
L 1562 3008 
L 1024 3008 
L 1024 4090 
L 512 4090 
L 512 3008 
L 198 3008 
L 198 2534 
L 512 2534 
L 512 0 
L 1024 0 
L 1024 2534 
z
" transform="scale(0.015625)"/>
       </defs>
       <use xlink:href="#Futura-Book-68"/>
       <use xlink:href="#Futura-Book-65" x="52.799988"/>
       <use xlink:href="#Futura-Book-70" x="104.699982"/>
       <use xlink:href="#Futura-Book-2d" x="162.399979"/>
       <use xlink:href="#Futura-Book-6c" x="183.199966"/>
       <use xlink:href="#Futura-Book-61" x="205.899963"/>
       <use xlink:href="#Futura-Book-74" x="263.59996"/>
      </g>
     </g>
    </g>
    <g id="xtick_2">
     <g id="line2d_2">
      <g>
       <use xlink:href="#ma0cfe187be" x="313.517478" y="302.2" style="fill: #ffffff; stroke: #ffffff; stroke-width: 0.8"/>
      </g>
     </g>
     <g id="text_2">
      <!-- Crosslist -->
      <g style="fill: #ffffff" transform="translate(288.735291 320.75)scale(0.14 -0.14)">
       <defs>
        <path id="Futura-Book-43" d="M 4166 4435 
C 3738 4755 3264 4909 2726 4909 
C 1344 4909 211 3776 211 2394 
C 211 1024 1363 -83 2726 -83 
C 3238 -83 3750 90 4166 390 
L 4166 1056 
C 3782 672 3251 416 2707 416 
C 1626 416 749 1350 749 2413 
C 749 3475 1619 4410 2694 4410 
C 3251 4410 3782 4166 4166 3770 
L 4166 4435 
z
" transform="scale(0.015625)"/>
        <path id="Futura-Book-72" d="M 973 3008 
L 461 3008 
L 461 0 
L 973 0 
L 973 1504 
C 973 1894 998 2618 1562 2618 
C 1696 2618 1766 2554 1869 2483 
L 2112 2950 
C 1965 3034 1824 3091 1651 3091 
C 1318 3091 1165 2918 986 2682 
L 973 2682 
L 973 3008 
z
" transform="scale(0.015625)"/>
        <path id="Futura-Book-6f" d="M 1798 -83 
C 2675 -83 3379 614 3379 1498 
C 3379 2381 2682 3091 1798 3091 
C 915 3091 218 2381 218 1498 
C 218 614 922 -83 1798 -83 
z
M 1798 2618 
C 2432 2618 2867 2112 2867 1504 
C 2867 890 2432 390 1798 390 
C 1165 390 730 890 730 1504 
C 730 2112 1165 2618 1798 2618 
z
" transform="scale(0.015625)"/>
        <path id="Futura-Book-73" d="M 2131 2534 
C 1997 2848 1677 3091 1331 3091 
C 845 3091 435 2746 435 2240 
C 435 1293 1792 1523 1792 851 
C 1792 576 1581 390 1306 390 
C 966 390 819 589 691 870 
L 237 678 
C 397 205 794 -83 1299 -83 
C 1856 -83 2317 326 2317 896 
C 2317 1402 1971 1613 1619 1760 
C 1267 1907 922 2010 922 2285 
C 922 2477 1114 2618 1293 2618 
C 1478 2618 1632 2470 1702 2310 
L 2131 2534 
z
" transform="scale(0.015625)"/>
        <path id="Futura-Book-69" d="M 1094 3008 
L 582 3008 
L 582 0 
L 1094 0 
L 1094 3008 
z
M 838 4506 
C 640 4506 474 4339 474 4141 
C 474 3936 640 3776 838 3776 
C 1037 3776 1203 3936 1203 4141 
C 1203 4339 1037 4506 838 4506 
z
" transform="scale(0.015625)"/>
       </defs>
       <use xlink:href="#Futura-Book-43"/>
       <use xlink:href="#Futura-Book-72" x="71.699982"/>
       <use xlink:href="#Futura-Book-6f" x="105.199966"/>
       <use xlink:href="#Futura-Book-73" x="161.399963"/>
       <use xlink:href="#Futura-Book-73" x="201.299957"/>
       <use xlink:href="#Futura-Book-6c" x="241.199951"/>
       <use xlink:href="#Futura-Book-69" x="263.899948"/>
       <use xlink:href="#Futura-Book-73" x="290.099945"/>
       <use xlink:href="#Futura-Book-74" x="329.999939"/>
      </g>
     </g>
    </g>
    <g id="text_3">
     <!-- Is crosslist -->
     <g style="fill: #ffffff" transform="translate(207.98225 339.996875)scale(0.14 -0.14)">
      <defs>
       <path id="Futura-Book-49" d="M 1037 4826 
L 499 4826 
L 499 0 
L 1037 0 
L 1037 4826 
z
" transform="scale(0.015625)"/>
       <path id="Futura-Book-20" transform="scale(0.015625)"/>
       <path id="Futura-Book-63" d="M 2720 2790 
C 2451 2982 2118 3091 1792 3091 
C 909 3091 186 2400 186 1504 
C 186 595 877 -83 1786 -83 
C 2144 -83 2445 26 2739 224 
L 2739 909 
L 2726 909 
C 2477 582 2176 390 1747 390 
C 1120 390 710 909 710 1504 
C 710 2106 1152 2618 1773 2618 
C 2176 2618 2470 2413 2707 2112 
L 2720 2112 
L 2720 2790 
z
" transform="scale(0.015625)"/>
      </defs>
      <use xlink:href="#Futura-Book-49"/>
      <use xlink:href="#Futura-Book-73" x="23.899994"/>
      <use xlink:href="#Futura-Book-20" x="63.799988"/>
      <use xlink:href="#Futura-Book-63" x="94.599976"/>
      <use xlink:href="#Futura-Book-72" x="142.199966"/>
      <use xlink:href="#Futura-Book-6f" x="175.699951"/>
      <use xlink:href="#Futura-Book-73" x="231.899948"/>
      <use xlink:href="#Futura-Book-73" x="271.799942"/>
      <use xlink:href="#Futura-Book-6c" x="311.699936"/>
      <use xlink:href="#Futura-Book-69" x="334.399933"/>
      <use xlink:href="#Futura-Book-73" x="360.59993"/>
      <use xlink:href="#Futura-Book-74" x="400.499924"/>
     </g>
    </g>
   </g>
   <g id="matplotlib.axis_2">
    <g id="ytick_1">
     <g id="line2d_3">
      <defs>
       <path id="m77e0fff09e" d="M 0 0 
L -3.5 0 
" style="stroke: #ffffff; stroke-width: 0.8"/>
      </defs>
      <g>
       <use xlink:href="#m77e0fff09e" x="86.063355" y="302.2" style="fill: #ffffff; stroke: #ffffff; stroke-width: 0.8"/>
      </g>
     </g>
     <g id="text_4">
      <!-- 0 -->
      <g style="fill: #ffffff" transform="translate(70.44023 307.975)scale(0.14 -0.14)">
       <defs>
        <path id="Futura-Book-30" d="M 1971 4909 
C 749 4909 243 3398 243 2406 
C 243 1216 870 -83 1971 -83 
C 3072 -83 3699 1216 3699 2406 
C 3699 3398 3194 4909 1971 4909 
z
M 1971 4410 
C 2880 4410 3174 3066 3162 2381 
C 3149 1702 2861 416 1971 416 
C 1082 416 794 1702 781 2381 
C 768 3066 1062 4410 1971 4410 
z
" transform="scale(0.015625)"/>
       </defs>
       <use xlink:href="#Futura-Book-30"/>
      </g>
     </g>
    </g>
    <g id="ytick_2">
     <g id="line2d_4">
      <g>
       <use xlink:href="#m77e0fff09e" x="86.063355" y="266.138296" style="fill: #ffffff; stroke: #ffffff; stroke-width: 0.8"/>
      </g>
     </g>
     <g id="text_5">
      <!-- 20 -->
      <g style="fill: #ffffff" transform="translate(61.817105 271.913296)scale(0.14 -0.14)">
       <defs>
        <path id="Futura-Book-32" d="M 1350 499 
L 3021 2464 
C 3270 2752 3386 3091 3386 3482 
C 3386 4320 2675 4909 1869 4909 
C 1018 4909 397 4262 378 3418 
L 915 3418 
C 928 3981 1306 4410 1888 4410 
C 2413 4410 2848 4013 2848 3475 
C 2848 3162 2714 2899 2522 2669 
L 262 0 
L 3386 0 
L 3386 499 
L 1350 499 
z
" transform="scale(0.015625)"/>
       </defs>
       <use xlink:href="#Futura-Book-32"/>
       <use xlink:href="#Futura-Book-30" x="61.599991"/>
      </g>
     </g>
    </g>
    <g id="ytick_3">
     <g id="line2d_5">
      <g>
       <use xlink:href="#m77e0fff09e" x="86.063355" y="230.076593" style="fill: #ffffff; stroke: #ffffff; stroke-width: 0.8"/>
      </g>
     </g>
     <g id="text_6">
      <!-- 40 -->
      <g style="fill: #ffffff" transform="translate(61.817105 235.851593)scale(0.14 -0.14)">
       <defs>
        <path id="Futura-Book-34" d="M 3046 1280 
L 3046 5094 
L 3034 5094 
L 38 781 
L 2509 781 
L 2509 0 
L 3046 0 
L 3046 781 
L 3642 781 
L 3642 1280 
L 3046 1280 
z
M 2509 1280 
L 979 1280 
L 2496 3462 
L 2509 3462 
L 2509 1280 
z
" transform="scale(0.015625)"/>
       </defs>
       <use xlink:href="#Futura-Book-34"/>
       <use xlink:href="#Futura-Book-30" x="61.599991"/>
      </g>
     </g>
    </g>
    <g id="ytick_4">
     <g id="line2d_6">
      <g>
       <use xlink:href="#m77e0fff09e" x="86.063355" y="194.014889" style="fill: #ffffff; stroke: #ffffff; stroke-width: 0.8"/>
      </g>
     </g>
     <g id="text_7">
      <!-- 60 -->
      <g style="fill: #ffffff" transform="translate(61.817105 199.789889)scale(0.14 -0.14)">
       <defs>
        <path id="Futura-Book-36" d="M 2323 4909 
L 723 2726 
C 480 2387 282 2010 282 1568 
C 282 659 1030 -83 1946 -83 
C 2854 -83 3610 653 3610 1574 
C 3610 2445 2925 3168 2048 3168 
C 1901 3168 1754 3142 1626 3098 
L 1613 3110 
L 2726 4608 
L 2323 4909 
z
M 1946 416 
C 1318 416 819 928 819 1555 
C 819 2182 1318 2669 1946 2669 
C 2566 2669 3072 2182 3072 1555 
C 3072 928 2573 416 1946 416 
z
" transform="scale(0.015625)"/>
       </defs>
       <use xlink:href="#Futura-Book-36"/>
       <use xlink:href="#Futura-Book-30" x="61.599991"/>
      </g>
     </g>
    </g>
    <g id="ytick_5">
     <g id="line2d_7">
      <g>
       <use xlink:href="#m77e0fff09e" x="86.063355" y="157.953186" style="fill: #ffffff; stroke: #ffffff; stroke-width: 0.8"/>
      </g>
     </g>
     <g id="text_8">
      <!-- 80 -->
      <g style="fill: #ffffff" transform="translate(61.817105 163.728186)scale(0.14 -0.14)">
       <defs>
        <path id="Futura-Book-38" d="M 1971 2272 
C 2496 2272 2906 1856 2906 1344 
C 2906 832 2496 416 1971 416 
C 1446 416 1037 832 1037 1344 
C 1037 1856 1446 2272 1971 2272 
z
M 1971 4909 
C 1216 4909 621 4339 621 3565 
C 621 3142 838 2720 1210 2509 
C 755 2304 499 1843 499 1350 
C 499 518 1139 -83 1971 -83 
C 2803 -83 3443 518 3443 1350 
C 3443 1843 3187 2304 2733 2509 
C 3104 2720 3322 3142 3322 3565 
C 3322 4339 2726 4909 1971 4909 
z
M 1971 4410 
C 2432 4410 2810 4038 2810 3578 
C 2810 3110 2432 2733 1971 2733 
C 1510 2733 1133 3110 1133 3578 
C 1133 4038 1510 4410 1971 4410 
z
" transform="scale(0.015625)"/>
       </defs>
       <use xlink:href="#Futura-Book-38"/>
       <use xlink:href="#Futura-Book-30" x="61.599991"/>
      </g>
     </g>
    </g>
    <g id="ytick_6">
     <g id="line2d_8">
      <g>
       <use xlink:href="#m77e0fff09e" x="86.063355" y="121.891482" style="fill: #ffffff; stroke: #ffffff; stroke-width: 0.8"/>
      </g>
     </g>
     <g id="text_9">
      <!-- 100 -->
      <g style="fill: #ffffff" transform="translate(53.19398 127.666482)scale(0.14 -0.14)">
       <defs>
        <path id="Futura-Book-31" d="M 1811 4326 
L 1811 0 
L 2349 0 
L 2349 4826 
L 1293 4826 
L 1011 4326 
L 1811 4326 
z
" transform="scale(0.015625)"/>
       </defs>
       <use xlink:href="#Futura-Book-31"/>
       <use xlink:href="#Futura-Book-30" x="61.599991"/>
       <use xlink:href="#Futura-Book-30" x="123.199982"/>
      </g>
     </g>
    </g>
    <g id="ytick_7">
     <g id="line2d_9">
      <g>
       <use xlink:href="#m77e0fff09e" x="86.063355" y="85.829779" style="fill: #ffffff; stroke: #ffffff; stroke-width: 0.8"/>
      </g>
     </g>
     <g id="text_10">
      <!-- 120 -->
      <g style="fill: #ffffff" transform="translate(53.19398 91.604779)scale(0.14 -0.14)">
       <use xlink:href="#Futura-Book-31"/>
       <use xlink:href="#Futura-Book-32" x="61.599991"/>
       <use xlink:href="#Futura-Book-30" x="123.199982"/>
      </g>
     </g>
    </g>
    <g id="ytick_8">
     <g id="line2d_10">
      <g>
       <use xlink:href="#m77e0fff09e" x="86.063355" y="49.768075" style="fill: #ffffff; stroke: #ffffff; stroke-width: 0.8"/>
      </g>
     </g>
     <g id="text_11">
      <!-- 140 -->
      <g style="fill: #ffffff" transform="translate(53.19398 55.543075)scale(0.14 -0.14)">
       <use xlink:href="#Futura-Book-31"/>
       <use xlink:href="#Futura-Book-34" x="61.599991"/>
       <use xlink:href="#Futura-Book-30" x="123.199982"/>
      </g>
     </g>
    </g>
    <g id="text_12">
     <!-- count -->
     <g style="fill: #ffffff" transform="translate(45.497105 184.005781)rotate(-90)scale(0.14 -0.14)">
      <defs>
       <path id="Futura-Book-75" d="M 960 3008 
L 448 3008 
L 448 1274 
C 448 474 749 -83 1638 -83 
C 2528 -83 2829 474 2829 1274 
L 2829 3008 
L 2317 3008 
L 2317 1331 
C 2317 826 2259 390 1638 390 
C 1018 390 960 826 960 1331 
L 960 3008 
z
" transform="scale(0.015625)"/>
       <path id="Futura-Book-6e" d="M 998 3008 
L 486 3008 
L 486 0 
L 998 0 
L 998 1427 
C 998 1965 1043 2618 1747 2618 
C 2342 2618 2381 2182 2381 1696 
L 2381 0 
L 2893 0 
L 2893 1786 
C 2893 2490 2701 3091 1869 3091 
C 1498 3091 1222 2931 1011 2643 
L 998 2643 
L 998 3008 
z
" transform="scale(0.015625)"/>
      </defs>
      <use xlink:href="#Futura-Book-63"/>
      <use xlink:href="#Futura-Book-6f" x="47.599991"/>
      <use xlink:href="#Futura-Book-75" x="103.799988"/>
      <use xlink:href="#Futura-Book-6e" x="154.999985"/>
      <use xlink:href="#Futura-Book-74" x="207.799973"/>
     </g>
    </g>
   </g>
   <g id="patch_15">
    <path d="M 86.063355 302.2 
L 86.063355 33.36 
" style="fill: none; stroke: #ffffff; stroke-width: 0.8; stroke-linejoin: miter; stroke-linecap: square"/>
   </g>
   <g id="patch_16">
    <path d="M 86.063355 302.2 
L 389.335519 302.2 
" style="fill: none; stroke: #ffffff; stroke-width: 0.8; stroke-linejoin: miter; stroke-linecap: square"/>
   </g>
   <g id="text_13">
    <!-- Out of 231 -->
    <g style="fill: #ffffff" transform="translate(320.540832 46.802)scale(0.14 -0.14)">
     <defs>
      <path id="Futura-Book-4f" d="M 2758 4909 
C 1382 4909 243 3789 243 2406 
C 243 1018 1382 -83 2758 -83 
C 4134 -83 5274 1018 5274 2406 
C 5274 3789 4134 4909 2758 4909 
z
M 2758 4410 
C 3866 4410 4736 3507 4736 2413 
C 4736 1325 3853 416 2758 416 
C 1664 416 781 1325 781 2413 
C 781 3507 1651 4410 2758 4410 
z
" transform="scale(0.015625)"/>
      <path id="Futura-Book-66" d="M 1043 2534 
L 1805 2534 
L 1805 3008 
L 1043 3008 
L 1043 4026 
C 1043 4557 1043 4851 1459 4851 
C 1587 4851 1690 4819 1805 4781 
L 1805 5299 
C 1683 5338 1562 5363 1440 5363 
C 1133 5363 832 5254 666 4986 
C 531 4768 531 4454 531 4205 
L 531 3008 
L 250 3008 
L 250 2534 
L 531 2534 
L 531 0 
L 1043 0 
L 1043 2534 
z
" transform="scale(0.015625)"/>
      <path id="Futura-Book-33" d="M 1734 2285 
C 2323 2304 2758 1997 2758 1382 
C 2758 851 2355 416 1818 416 
C 1331 416 915 762 890 1254 
L 365 1254 
C 378 448 1018 -83 1798 -83 
C 2624 -83 3296 506 3296 1350 
C 3296 1843 3072 2323 2605 2534 
C 2995 2733 3226 3162 3226 3590 
C 3226 4384 2630 4909 1856 4909 
C 1062 4909 595 4403 518 3635 
L 1050 3635 
C 1094 4090 1363 4410 1843 4410 
C 2349 4410 2688 4077 2688 3565 
C 2688 2957 2246 2803 1734 2784 
L 1734 2285 
z
" transform="scale(0.015625)"/>
     </defs>
     <use xlink:href="#Futura-Book-4f"/>
     <use xlink:href="#Futura-Book-75" x="86.199982"/>
     <use xlink:href="#Futura-Book-74" x="137.399979"/>
     <use xlink:href="#Futura-Book-20" x="161.399963"/>
     <use xlink:href="#Futura-Book-6f" x="192.199951"/>
     <use xlink:href="#Futura-Book-66" x="248.399948"/>
     <use xlink:href="#Futura-Book-20" x="275.799942"/>
     <use xlink:href="#Futura-Book-32" x="306.59993"/>
     <use xlink:href="#Futura-Book-33" x="368.199921"/>
     <use xlink:href="#Futura-Book-31" x="429.799911"/>
    </g>
   </g>
   <g id="text_14">
    <!-- All non-UK -->
    <g style="fill: #ffffff" transform="translate(205.618656 27.36)scale(0.14 -0.14)">
     <defs>
      <path id="Futura-Book-41" d="M 3270 1370 
L 3840 0 
L 4435 0 
L 2266 5056 
L 38 0 
L 627 0 
L 1210 1370 
L 3270 1370 
z
M 3059 1869 
L 1427 1869 
L 2253 3802 
L 3059 1869 
z
" transform="scale(0.015625)"/>
      <path id="Futura-Book-55" d="M 1011 4826 
L 474 4826 
L 474 1805 
C 474 1254 525 813 947 410 
C 1274 90 1741 -83 2195 -83 
C 2682 -83 3162 109 3494 467 
C 3878 864 3917 1280 3917 1805 
L 3917 4826 
L 3379 4826 
L 3379 1952 
C 3379 1574 3398 1152 3142 845 
C 2918 576 2541 416 2195 416 
C 1843 416 1434 582 1222 877 
C 998 1184 1011 1594 1011 1952 
L 1011 4826 
z
" transform="scale(0.015625)"/>
      <path id="Futura-Book-4b" d="M 1024 2758 
L 1024 4826 
L 486 4826 
L 486 0 
L 1024 0 
L 1024 2080 
L 1158 2214 
L 3136 0 
L 3878 0 
L 1536 2579 
L 3802 4826 
L 3078 4826 
L 1024 2758 
z
" transform="scale(0.015625)"/>
     </defs>
     <use xlink:href="#Futura-Book-41"/>
     <use xlink:href="#Futura-Book-6c" x="69.899994"/>
     <use xlink:href="#Futura-Book-6c" x="92.599991"/>
     <use xlink:href="#Futura-Book-20" x="115.299988"/>
     <use xlink:href="#Futura-Book-6e" x="146.099976"/>
     <use xlink:href="#Futura-Book-6f" x="198.899963"/>
     <use xlink:href="#Futura-Book-6e" x="255.09996"/>
     <use xlink:href="#Futura-Book-2d" x="307.899948"/>
     <use xlink:href="#Futura-Book-55" x="328.699936"/>
     <use xlink:href="#Futura-Book-4b" x="397.199921"/>
    </g>
   </g>
  </g>
  <g id="axes_2">
   <g id="patch_17">
    <path d="M 407.599136 302.2 
L 710.8713 302.2 
L 710.8713 33.36 
L 407.599136 33.36 
L 407.599136 302.2 
z
" style="fill: none"/>
   </g>
   <g id="patch_18">
    <path d="M 422.762744 302.2 
L 442.980888 302.2 
L 442.980888 284.169148 
L 422.762744 284.169148 
z
" clip-path="url(#p7a1e52a27a)" style="fill: #96cac1"/>
   </g>
   <g id="patch_19">
    <path d="M 574.398826 302.2 
L 594.61697 302.2 
L 594.61697 291.381489 
L 574.398826 291.381489 
z
" clip-path="url(#p7a1e52a27a)" style="fill: #96cac1"/>
   </g>
   <g id="patch_20">
    <path d="M 0 0 
z
" clip-path="url(#p7a1e52a27a)" style="fill: #f5f6bc"/>
   </g>
   <g id="patch_21">
    <path d="M 0 0 
z
" clip-path="url(#p7a1e52a27a)" style="fill: #f5f6bc"/>
   </g>
   <g id="patch_22">
    <path d="M 463.199033 302.2 
L 483.417177 302.2 
L 483.417177 300.396915 
L 463.199033 300.396915 
z
" clip-path="url(#p7a1e52a27a)" style="fill: #c2bfd5"/>
   </g>
   <g id="patch_23">
    <path d="M 0 0 
z
" clip-path="url(#p7a1e52a27a)" style="fill: #c2bfd5"/>
   </g>
   <g id="patch_24">
    <path d="M 0 0 
z
" clip-path="url(#p7a1e52a27a)" style="fill: #e98e85"/>
   </g>
   <g id="patch_25">
    <path d="M 0 0 
z
" clip-path="url(#p7a1e52a27a)" style="fill: #e98e85"/>
   </g>
   <g id="patch_26">
    <path d="M 0 0 
z
" clip-path="url(#p7a1e52a27a)" style="fill: #8bafc8"/>
   </g>
   <g id="patch_27">
    <path d="M 0 0 
z
" clip-path="url(#p7a1e52a27a)" style="fill: #8bafc8"/>
   </g>
   <g id="patch_28">
    <path d="M 0 0 
z
" clip-path="url(#p7a1e52a27a)" style="fill: #eab375"/>
   </g>
   <g id="patch_29">
    <path d="M 0 0 
z
" clip-path="url(#p7a1e52a27a)" style="fill: #eab375"/>
   </g>
   <g id="matplotlib.axis_3">
    <g id="xtick_3">
     <g id="line2d_11">
      <g>
       <use xlink:href="#ma0cfe187be" x="483.417177" y="302.2" style="fill: #ffffff; stroke: #ffffff; stroke-width: 0.8"/>
      </g>
     </g>
     <g id="text_15">
      <!-- hep-lat -->
      <g style="fill: #ffffff" transform="translate(463.284521 320.75)scale(0.14 -0.14)">
       <use xlink:href="#Futura-Book-68"/>
       <use xlink:href="#Futura-Book-65" x="52.799988"/>
       <use xlink:href="#Futura-Book-70" x="104.699982"/>
       <use xlink:href="#Futura-Book-2d" x="162.399979"/>
       <use xlink:href="#Futura-Book-6c" x="183.199966"/>
       <use xlink:href="#Futura-Book-61" x="205.899963"/>
       <use xlink:href="#Futura-Book-74" x="263.59996"/>
      </g>
     </g>
    </g>
    <g id="xtick_4">
     <g id="line2d_12">
      <g>
       <use xlink:href="#ma0cfe187be" x="635.053259" y="302.2" style="fill: #ffffff; stroke: #ffffff; stroke-width: 0.8"/>
      </g>
     </g>
     <g id="text_16">
      <!-- Crosslist -->
      <g style="fill: #ffffff" transform="translate(610.271071 320.75)scale(0.14 -0.14)">
       <use xlink:href="#Futura-Book-43"/>
       <use xlink:href="#Futura-Book-72" x="71.699982"/>
       <use xlink:href="#Futura-Book-6f" x="105.199966"/>
       <use xlink:href="#Futura-Book-73" x="161.399963"/>
       <use xlink:href="#Futura-Book-73" x="201.299957"/>
       <use xlink:href="#Futura-Book-6c" x="241.199951"/>
       <use xlink:href="#Futura-Book-69" x="263.899948"/>
       <use xlink:href="#Futura-Book-73" x="290.099945"/>
       <use xlink:href="#Futura-Book-74" x="329.999939"/>
      </g>
     </g>
    </g>
    <g id="text_17">
     <!-- Is crosslist -->
     <g style="fill: #ffffff" transform="translate(529.51803 339.996875)scale(0.14 -0.14)">
      <use xlink:href="#Futura-Book-49"/>
      <use xlink:href="#Futura-Book-73" x="23.899994"/>
      <use xlink:href="#Futura-Book-20" x="63.799988"/>
      <use xlink:href="#Futura-Book-63" x="94.599976"/>
      <use xlink:href="#Futura-Book-72" x="142.199966"/>
      <use xlink:href="#Futura-Book-6f" x="175.699951"/>
      <use xlink:href="#Futura-Book-73" x="231.899948"/>
      <use xlink:href="#Futura-Book-73" x="271.799942"/>
      <use xlink:href="#Futura-Book-6c" x="311.699936"/>
      <use xlink:href="#Futura-Book-69" x="334.399933"/>
      <use xlink:href="#Futura-Book-73" x="360.59993"/>
      <use xlink:href="#Futura-Book-74" x="400.499924"/>
     </g>
    </g>
   </g>
   <g id="matplotlib.axis_4">
    <g id="ytick_9">
     <g id="line2d_13">
      <g>
       <use xlink:href="#m77e0fff09e" x="407.599136" y="302.2" style="fill: #ffffff; stroke: #ffffff; stroke-width: 0.8"/>
      </g>
     </g>
    </g>
    <g id="ytick_10">
     <g id="line2d_14">
      <g>
       <use xlink:href="#m77e0fff09e" x="407.599136" y="266.138296" style="fill: #ffffff; stroke: #ffffff; stroke-width: 0.8"/>
      </g>
     </g>
    </g>
    <g id="ytick_11">
     <g id="line2d_15">
      <g>
       <use xlink:href="#m77e0fff09e" x="407.599136" y="230.076593" style="fill: #ffffff; stroke: #ffffff; stroke-width: 0.8"/>
      </g>
     </g>
    </g>
    <g id="ytick_12">
     <g id="line2d_16">
      <g>
       <use xlink:href="#m77e0fff09e" x="407.599136" y="194.014889" style="fill: #ffffff; stroke: #ffffff; stroke-width: 0.8"/>
      </g>
     </g>
    </g>
    <g id="ytick_13">
     <g id="line2d_17">
      <g>
       <use xlink:href="#m77e0fff09e" x="407.599136" y="157.953186" style="fill: #ffffff; stroke: #ffffff; stroke-width: 0.8"/>
      </g>
     </g>
    </g>
    <g id="ytick_14">
     <g id="line2d_18">
      <g>
       <use xlink:href="#m77e0fff09e" x="407.599136" y="121.891482" style="fill: #ffffff; stroke: #ffffff; stroke-width: 0.8"/>
      </g>
     </g>
    </g>
    <g id="ytick_15">
     <g id="line2d_19">
      <g>
       <use xlink:href="#m77e0fff09e" x="407.599136" y="85.829779" style="fill: #ffffff; stroke: #ffffff; stroke-width: 0.8"/>
      </g>
     </g>
    </g>
    <g id="ytick_16">
     <g id="line2d_20">
      <g>
       <use xlink:href="#m77e0fff09e" x="407.599136" y="49.768075" style="fill: #ffffff; stroke: #ffffff; stroke-width: 0.8"/>
      </g>
     </g>
    </g>
   </g>
   <g id="patch_30">
    <path d="M 407.599136 302.2 
L 407.599136 33.36 
" style="fill: none; stroke: #ffffff; stroke-width: 0.8; stroke-linejoin: miter; stroke-linecap: square"/>
   </g>
   <g id="patch_31">
    <path d="M 407.599136 302.2 
L 710.8713 302.2 
" style="fill: none; stroke: #ffffff; stroke-width: 0.8; stroke-linejoin: miter; stroke-linecap: square"/>
   </g>
   <g id="text_18">
    <!-- Out of 17 -->
    <g style="fill: #ffffff" transform="translate(650.699737 46.802)scale(0.14 -0.14)">
     <defs>
      <path id="Futura-Book-37" d="M 2963 4326 
L 224 166 
L 646 -83 
L 3885 4826 
L 326 4826 
L 326 4326 
L 2963 4326 
z
" transform="scale(0.015625)"/>
     </defs>
     <use xlink:href="#Futura-Book-4f"/>
     <use xlink:href="#Futura-Book-75" x="86.199982"/>
     <use xlink:href="#Futura-Book-74" x="137.399979"/>
     <use xlink:href="#Futura-Book-20" x="161.399963"/>
     <use xlink:href="#Futura-Book-6f" x="192.199951"/>
     <use xlink:href="#Futura-Book-66" x="248.399948"/>
     <use xlink:href="#Futura-Book-20" x="275.799942"/>
     <use xlink:href="#Futura-Book-31" x="306.59993"/>
     <use xlink:href="#Futura-Book-37" x="368.199921"/>
    </g>
   </g>
   <g id="text_19">
    <!-- UK author(s) -->
    <g style="fill: #ffffff" transform="translate(521.917562 27.36)scale(0.14 -0.14)">
     <defs>
      <path id="Futura-Book-28" d="M 1178 5043 
C 730 4090 595 2790 595 1754 
C 595 717 730 -582 1178 -1536 
L 1632 -1318 
C 1267 -352 1120 704 1120 1754 
C 1120 2803 1267 3859 1632 4826 
L 1178 5043 
z
" transform="scale(0.015625)"/>
      <path id="Futura-Book-29" d="M 205 4826 
C 570 3859 717 2803 717 1754 
C 717 704 570 -352 205 -1318 
L 659 -1536 
C 1107 -582 1242 717 1242 1754 
C 1242 2790 1107 4090 659 5043 
L 205 4826 
z
" transform="scale(0.015625)"/>
     </defs>
     <use xlink:href="#Futura-Book-55"/>
     <use xlink:href="#Futura-Book-4b" x="68.499985"/>
     <use xlink:href="#Futura-Book-20" x="129.599976"/>
     <use xlink:href="#Futura-Book-61" x="160.399963"/>
     <use xlink:href="#Futura-Book-75" x="218.09996"/>
     <use xlink:href="#Futura-Book-74" x="269.299957"/>
     <use xlink:href="#Futura-Book-68" x="293.299942"/>
     <use xlink:href="#Futura-Book-6f" x="346.09993"/>
     <use xlink:href="#Futura-Book-72" x="402.299927"/>
     <use xlink:href="#Futura-Book-28" x="435.799911"/>
     <use xlink:href="#Futura-Book-73" x="464.499908"/>
     <use xlink:href="#Futura-Book-29" x="504.399902"/>
    </g>
   </g>
  </g>
  <g id="legend_1">
   <g id="text_20">
    <!-- Cites other existing data -->
    <g style="fill: #ffffff" transform="translate(736.269844 117.185937)scale(0.14 -0.14)">
     <defs>
      <path id="Futura-Book-78" d="M 1286 1600 
L 6 0 
L 646 0 
L 1606 1222 
L 2560 0 
L 3181 0 
L 1933 1600 
L 3034 3008 
L 2394 3008 
L 1606 1984 
L 819 3008 
L 192 3008 
L 1286 1600 
z
" transform="scale(0.015625)"/>
      <path id="Futura-Book-67" d="M 1702 2618 
C 2336 2618 2714 2131 2714 1530 
C 2714 922 2368 390 1709 390 
C 1069 390 723 947 723 1536 
C 723 2099 1107 2618 1702 2618 
z
M 3200 3008 
L 2688 3008 
L 2688 2579 
L 2675 2579 
C 2432 2906 2067 3091 1651 3091 
C 762 3091 198 2336 198 1491 
C 198 653 755 -83 1632 -83 
C 2035 -83 2432 102 2675 416 
L 2688 416 
L 2688 58 
C 2688 -621 2515 -1203 1722 -1203 
C 1171 -1203 768 -851 762 -294 
L 250 -294 
C 269 -1146 890 -1677 1728 -1677 
C 2176 -1677 2611 -1504 2893 -1146 
C 3200 -749 3200 -333 3200 147 
L 3200 3008 
z
" transform="scale(0.015625)"/>
      <path id="Futura-Book-64" d="M 1734 2618 
C 2368 2618 2746 2131 2746 1530 
C 2746 922 2400 390 1741 390 
C 1101 390 755 947 755 1536 
C 755 2099 1139 2618 1734 2618 
z
M 2720 0 
L 3232 0 
L 3232 5280 
L 2720 5280 
L 2720 2579 
L 2707 2579 
C 2464 2899 2080 3091 1677 3091 
C 774 3091 230 2355 230 1498 
C 230 666 787 -83 1670 -83 
C 2080 -83 2458 90 2707 416 
L 2720 416 
L 2720 0 
z
" transform="scale(0.015625)"/>
     </defs>
     <use xlink:href="#Futura-Book-43"/>
     <use xlink:href="#Futura-Book-69" x="71.699982"/>
     <use xlink:href="#Futura-Book-74" x="97.899979"/>
     <use xlink:href="#Futura-Book-65" x="121.899963"/>
     <use xlink:href="#Futura-Book-73" x="173.799957"/>
     <use xlink:href="#Futura-Book-20" x="213.699951"/>
     <use xlink:href="#Futura-Book-6f" x="244.499939"/>
     <use xlink:href="#Futura-Book-74" x="300.699936"/>
     <use xlink:href="#Futura-Book-68" x="324.699921"/>
     <use xlink:href="#Futura-Book-65" x="377.499908"/>
     <use xlink:href="#Futura-Book-72" x="429.399902"/>
     <use xlink:href="#Futura-Book-20" x="462.899887"/>
     <use xlink:href="#Futura-Book-65" x="493.699875"/>
     <use xlink:href="#Futura-Book-78" x="545.599869"/>
     <use xlink:href="#Futura-Book-69" x="595.399857"/>
     <use xlink:href="#Futura-Book-73" x="621.599854"/>
     <use xlink:href="#Futura-Book-74" x="661.499847"/>
     <use xlink:href="#Futura-Book-69" x="685.499832"/>
     <use xlink:href="#Futura-Book-6e" x="711.699829"/>
     <use xlink:href="#Futura-Book-67" x="764.499817"/>
     <use xlink:href="#Futura-Book-20" x="822.499802"/>
     <use xlink:href="#Futura-Book-64" x="853.299789"/>
     <use xlink:href="#Futura-Book-61" x="910.999786"/>
     <use xlink:href="#Futura-Book-74" x="968.699783"/>
     <use xlink:href="#Futura-Book-61" x="992.699768"/>
    </g>
   </g>
   <g id="patch_32">
    <path d="M 719.330938 139.432812 
L 747.330938 139.432812 
L 747.330938 129.632812 
L 719.330938 129.632812 
z
" style="fill: #96cac1"/>
   </g>
   <g id="text_21">
    <!-- Paper citation -->
    <g style="fill: #ffffff" transform="translate(758.530938 139.432812)scale(0.14 -0.14)">
     <defs>
      <path id="Futura-Book-50" d="M 1024 2112 
L 1414 2112 
C 1818 2112 2234 2163 2560 2432 
C 2861 2682 3021 3078 3021 3469 
C 3021 3898 2835 4320 2477 4570 
C 2125 4813 1696 4826 1280 4826 
L 486 4826 
L 486 0 
L 1024 0 
L 1024 2112 
z
M 1024 4326 
L 1222 4326 
C 1850 4326 2483 4269 2483 3482 
C 2483 2790 1978 2611 1382 2611 
L 1024 2611 
L 1024 4326 
z
" transform="scale(0.015625)"/>
     </defs>
     <use xlink:href="#Futura-Book-50"/>
     <use xlink:href="#Futura-Book-61" x="50.299988"/>
     <use xlink:href="#Futura-Book-70" x="107.999985"/>
     <use xlink:href="#Futura-Book-65" x="165.699982"/>
     <use xlink:href="#Futura-Book-72" x="217.599976"/>
     <use xlink:href="#Futura-Book-20" x="251.09996"/>
     <use xlink:href="#Futura-Book-63" x="281.899948"/>
     <use xlink:href="#Futura-Book-69" x="329.499939"/>
     <use xlink:href="#Futura-Book-74" x="355.699936"/>
     <use xlink:href="#Futura-Book-61" x="379.699921"/>
     <use xlink:href="#Futura-Book-74" x="437.399918"/>
     <use xlink:href="#Futura-Book-69" x="461.399902"/>
     <use xlink:href="#Futura-Book-6f" x="487.599899"/>
     <use xlink:href="#Futura-Book-6e" x="543.799896"/>
    </g>
   </g>
   <g id="patch_33">
    <path d="M 719.330938 161.679688 
L 747.330938 161.679688 
L 747.330938 151.879687 
L 719.330938 151.879687 
z
" style="fill: #f5f6bc"/>
   </g>
   <g id="text_22">
    <!-- Mentioned by name -->
    <g style="fill: #ffffff" transform="translate(758.530938 161.679688)scale(0.14 -0.14)">
     <defs>
      <path id="Futura-Book-4d" d="M 134 0 
L 685 0 
L 1306 3264 
L 1318 3264 
L 2867 -198 
L 4422 3264 
L 4435 3264 
L 5056 0 
L 5606 0 
L 4627 5101 
L 2867 1050 
L 1114 5101 
L 134 0 
z
" transform="scale(0.015625)"/>
      <path id="Futura-Book-62" d="M 1926 2618 
C 2560 2618 2938 2131 2938 1530 
C 2938 922 2592 390 1933 390 
C 1293 390 947 947 947 1536 
C 947 2099 1331 2618 1926 2618 
z
M 461 0 
L 973 0 
L 973 416 
L 986 416 
C 1229 90 1606 -83 2022 -83 
C 2906 -83 3462 666 3462 1504 
C 3462 2355 2912 3091 2016 3091 
C 1606 3091 1229 2899 986 2579 
L 973 2579 
L 973 5280 
L 461 5280 
L 461 0 
z
" transform="scale(0.015625)"/>
      <path id="Futura-Book-79" d="M 1370 282 
L 397 -1690 
L 979 -1690 
L 3200 3008 
L 2618 3008 
L 1645 851 
L 582 3008 
L -13 3008 
L 1370 282 
z
" transform="scale(0.015625)"/>
      <path id="Futura-Book-6d" d="M 998 3008 
L 486 3008 
L 486 0 
L 998 0 
L 998 1555 
C 998 2010 1062 2618 1664 2618 
C 2157 2618 2202 2080 2202 1709 
L 2202 0 
L 2714 0 
L 2714 1594 
C 2714 2048 2778 2618 3366 2618 
C 3891 2618 3917 2138 3917 1747 
L 3917 0 
L 4429 0 
L 4429 1830 
C 4429 2464 4237 3091 3469 3091 
C 3104 3091 2746 2925 2566 2592 
C 2406 2906 2086 3091 1734 3091 
C 1427 3091 1171 2931 1011 2682 
L 998 2682 
L 998 3008 
z
" transform="scale(0.015625)"/>
     </defs>
     <use xlink:href="#Futura-Book-4d"/>
     <use xlink:href="#Futura-Book-65" x="89.599991"/>
     <use xlink:href="#Futura-Book-6e" x="141.499985"/>
     <use xlink:href="#Futura-Book-74" x="194.299973"/>
     <use xlink:href="#Futura-Book-69" x="218.299957"/>
     <use xlink:href="#Futura-Book-6f" x="244.499954"/>
     <use xlink:href="#Futura-Book-6e" x="300.699951"/>
     <use xlink:href="#Futura-Book-65" x="353.499939"/>
     <use xlink:href="#Futura-Book-64" x="405.399933"/>
     <use xlink:href="#Futura-Book-20" x="463.09993"/>
     <use xlink:href="#Futura-Book-62" x="493.899918"/>
     <use xlink:href="#Futura-Book-79" x="551.599915"/>
     <use xlink:href="#Futura-Book-20" x="601.399902"/>
     <use xlink:href="#Futura-Book-6e" x="632.19989"/>
     <use xlink:href="#Futura-Book-61" x="684.999878"/>
     <use xlink:href="#Futura-Book-6d" x="742.699875"/>
     <use xlink:href="#Futura-Book-65" x="819.499863"/>
    </g>
   </g>
   <g id="patch_34">
    <path d="M 719.330938 183.926562 
L 747.330938 183.926562 
L 747.330938 174.126562 
L 719.330938 174.126562 
z
" style="fill: #c2bfd5"/>
   </g>
   <g id="text_23">
    <!-- No -->
    <g style="fill: #ffffff" transform="translate(758.530938 183.926562)scale(0.14 -0.14)">
     <defs>
      <path id="Futura-Book-4e" d="M 518 0 
L 1056 0 
L 1056 3718 
L 4819 -218 
L 4819 4826 
L 4282 4826 
L 4282 1088 
L 518 5030 
L 518 0 
z
" transform="scale(0.015625)"/>
     </defs>
     <use xlink:href="#Futura-Book-4e"/>
     <use xlink:href="#Futura-Book-6f" x="83.399994"/>
    </g>
   </g>
   <g id="patch_35">
    <path d="M 719.330938 206.173437 
L 747.330938 206.173437 
L 747.330938 196.373437 
L 719.330938 196.373437 
z
" style="fill: #e98e85"/>
   </g>
   <g id="text_24">
    <!-- Footnote/inline URL -->
    <g style="fill: #ffffff" transform="translate(758.530938 206.173437)scale(0.14 -0.14)">
     <defs>
      <path id="Futura-Book-46" d="M 2682 4326 
L 2682 4826 
L 486 4826 
L 486 0 
L 1024 0 
L 1024 2394 
L 2630 2394 
L 2630 2893 
L 1024 2893 
L 1024 4326 
L 2682 4326 
z
" transform="scale(0.015625)"/>
      <path id="Futura-Book-2f" d="M 3110 5280 
L 115 -813 
L 531 -1005 
L 3533 5088 
L 3110 5280 
z
" transform="scale(0.015625)"/>
      <path id="Futura-Book-52" d="M 1024 4326 
L 1184 4326 
C 1830 4326 2413 4250 2413 3456 
C 2413 2707 1798 2592 1190 2592 
L 1024 2592 
L 1024 4326 
z
M 1024 2118 
L 1158 2118 
L 2618 0 
L 3277 0 
L 1741 2163 
C 2483 2227 2950 2752 2950 3494 
C 2950 4582 2099 4826 1184 4826 
L 486 4826 
L 486 0 
L 1024 0 
L 1024 2118 
z
" transform="scale(0.015625)"/>
      <path id="Futura-Book-4c" d="M 1024 4826 
L 486 4826 
L 486 0 
L 2355 0 
L 2355 499 
L 1024 499 
L 1024 4826 
z
" transform="scale(0.015625)"/>
     </defs>
     <use xlink:href="#Futura-Book-46"/>
     <use xlink:href="#Futura-Book-6f" x="47.799988"/>
     <use xlink:href="#Futura-Book-6f" x="103.999985"/>
     <use xlink:href="#Futura-Book-74" x="160.199982"/>
     <use xlink:href="#Futura-Book-6e" x="184.199966"/>
     <use xlink:href="#Futura-Book-6f" x="236.999954"/>
     <use xlink:href="#Futura-Book-74" x="293.199951"/>
     <use xlink:href="#Futura-Book-65" x="317.199936"/>
     <use xlink:href="#Futura-Book-2f" x="369.09993"/>
     <use xlink:href="#Futura-Book-69" x="426.099915"/>
     <use xlink:href="#Futura-Book-6e" x="452.299911"/>
     <use xlink:href="#Futura-Book-6c" x="505.099899"/>
     <use xlink:href="#Futura-Book-69" x="527.799896"/>
     <use xlink:href="#Futura-Book-6e" x="553.999893"/>
     <use xlink:href="#Futura-Book-65" x="606.799881"/>
     <use xlink:href="#Futura-Book-20" x="658.699875"/>
     <use xlink:href="#Futura-Book-55" x="689.499863"/>
     <use xlink:href="#Futura-Book-52" x="757.999847"/>
     <use xlink:href="#Futura-Book-4c" x="812.199844"/>
    </g>
   </g>
   <g id="patch_36">
    <path d="M 719.330938 228.420312 
L 747.330938 228.420312 
L 747.330938 218.620312 
L 719.330938 218.620312 
z
" style="fill: #8bafc8"/>
   </g>
   <g id="text_25">
    <!-- Data repository citation -->
    <g style="fill: #ffffff" transform="translate(758.530938 228.420312)scale(0.14 -0.14)">
     <defs>
      <path id="Futura-Book-44" d="M 486 0 
L 1382 0 
C 2138 0 2714 96 3290 608 
C 3821 1082 4077 1702 4077 2406 
C 4077 3123 3827 3770 3277 4243 
C 2707 4730 2118 4826 1395 4826 
L 486 4826 
L 486 0 
z
M 1024 499 
L 1024 4326 
L 1414 4326 
C 1984 4326 2470 4250 2912 3859 
C 3328 3494 3539 2963 3539 2413 
C 3539 1875 3334 1370 2938 998 
C 2496 582 2003 499 1414 499 
L 1024 499 
z
" transform="scale(0.015625)"/>
     </defs>
     <use xlink:href="#Futura-Book-44"/>
     <use xlink:href="#Futura-Book-61" x="67.799988"/>
     <use xlink:href="#Futura-Book-74" x="125.499985"/>
     <use xlink:href="#Futura-Book-61" x="149.499969"/>
     <use xlink:href="#Futura-Book-20" x="207.199966"/>
     <use xlink:href="#Futura-Book-72" x="237.999954"/>
     <use xlink:href="#Futura-Book-65" x="271.499939"/>
     <use xlink:href="#Futura-Book-70" x="323.399933"/>
     <use xlink:href="#Futura-Book-6f" x="381.09993"/>
     <use xlink:href="#Futura-Book-73" x="437.299927"/>
     <use xlink:href="#Futura-Book-69" x="477.199921"/>
     <use xlink:href="#Futura-Book-74" x="503.399918"/>
     <use xlink:href="#Futura-Book-6f" x="527.399902"/>
     <use xlink:href="#Futura-Book-72" x="583.599899"/>
     <use xlink:href="#Futura-Book-79" x="617.099884"/>
     <use xlink:href="#Futura-Book-20" x="666.899872"/>
     <use xlink:href="#Futura-Book-63" x="697.69986"/>
     <use xlink:href="#Futura-Book-69" x="745.29985"/>
     <use xlink:href="#Futura-Book-74" x="771.499847"/>
     <use xlink:href="#Futura-Book-61" x="795.499832"/>
     <use xlink:href="#Futura-Book-74" x="853.199829"/>
     <use xlink:href="#Futura-Book-69" x="877.199814"/>
     <use xlink:href="#Futura-Book-6f" x="903.399811"/>
     <use xlink:href="#Futura-Book-6e" x="959.599808"/>
    </g>
   </g>
   <g id="patch_37">
    <path d="M 719.330938 250.667188 
L 747.330938 250.667188 
L 747.330938 240.867188 
L 719.330938 240.867188 
z
" style="fill: #eab375"/>
   </g>
   <g id="text_26">
    <!-- URL citation -->
    <g style="fill: #ffffff" transform="translate(758.530938 250.667188)scale(0.14 -0.14)">
     <use xlink:href="#Futura-Book-55"/>
     <use xlink:href="#Futura-Book-52" x="68.499985"/>
     <use xlink:href="#Futura-Book-4c" x="122.699982"/>
     <use xlink:href="#Futura-Book-20" x="160.199966"/>
     <use xlink:href="#Futura-Book-63" x="190.999954"/>
     <use xlink:href="#Futura-Book-69" x="238.599945"/>
     <use xlink:href="#Futura-Book-74" x="264.799942"/>
     <use xlink:href="#Futura-Book-61" x="288.799927"/>
     <use xlink:href="#Futura-Book-74" x="346.499924"/>
     <use xlink:href="#Futura-Book-69" x="370.499908"/>
     <use xlink:href="#Futura-Book-6f" x="396.699905"/>
     <use xlink:href="#Futura-Book-6e" x="452.899902"/>
    </g>
   </g>
  </g>
 </g>
 <defs>
  <clipPath id="p2c1d235e8b">
   <rect x="86.063355" y="33.36" width="303.272164" height="268.84"/>
  </clipPath>
  <clipPath id="p7a1e52a27a">
   <rect x="407.599136" y="33.36" width="303.272164" height="268.84"/>
  </clipPath>
 </defs>
</svg>
