<?xml version="1.0" encoding="utf-8" standalone="no"?>
<!DOCTYPE svg PUBLIC "-//W3C//DTD SVG 1.1//EN"
  "http://www.w3.org/Graphics/SVG/1.1/DTD/svg11.dtd">
<svg xmlns:xlink="http://www.w3.org/1999/xlink" width="460.8pt" height="345.6pt" viewBox="0 0 460.8 345.6" xmlns="http://www.w3.org/2000/svg" version="1.1">
 <metadata>
  <rdf:RDF xmlns:dc="http://purl.org/dc/elements/1.1/" xmlns:cc="http://creativecommons.org/ns#" xmlns:rdf="http://www.w3.org/1999/02/22-rdf-syntax-ns#">
   <cc:Work>
    <dc:type rdf:resource="http://purl.org/dc/dcmitype/StillImage"/>
    <dc:date>2022-05-26T15:03:01.999222</dc:date>
    <dc:format>image/svg+xml</dc:format>
    <dc:creator>
     <cc:Agent>
      <dc:title>Matplotlib v3.5.2, https://matplotlib.org/</dc:title>
     </cc:Agent>
    </dc:creator>
   </cc:Work>
  </rdf:RDF>
 </metadata>
 <defs>
  <style type="text/css">*{stroke-linejoin: round; stroke-linecap: butt}</style>
 </defs>
 <g id="figure_1">
  <g id="patch_1">
   <path d="M 0 345.6 
L 460.8 345.6 
L 460.8 0 
L 0 0 
L 0 345.6 
z
" style="fill: none"/>
  </g>
  <g id="axes_1">
   <g id="patch_2">
    <path d="M 39.4 268.368097 
L 445.68 268.368097 
L 445.68 15.12 
L 39.4 15.12 
L 39.4 268.368097 
z
" style="fill: none"/>
   </g>
   <g id="patch_3">
    <path d="M 57.867273 268.368097 
L 88.017922 268.368097 
L 88.017922 27.179433 
L 57.867273 27.179433 
z
" clip-path="url(#p75d25a73a4)" style="fill: #8dd3c7"/>
   </g>
   <g id="patch_4">
    <path d="M 95.555584 268.368097 
L 125.706234 268.368097 
L 125.706234 153.016997 
L 95.555584 153.016997 
z
" clip-path="url(#p75d25a73a4)" style="fill: #8dd3c7"/>
   </g>
   <g id="patch_5">
    <path d="M 133.243896 268.368097 
L 163.394545 268.368097 
L 163.394545 179.233156 
L 133.243896 179.233156 
z
" clip-path="url(#p75d25a73a4)" style="fill: #8dd3c7"/>
   </g>
   <g id="patch_6">
    <path d="M 170.932208 268.368097 
L 201.082857 268.368097 
L 201.082857 179.233156 
L 170.932208 179.233156 
z
" clip-path="url(#p75d25a73a4)" style="fill: #8dd3c7"/>
   </g>
   <g id="patch_7">
    <path d="M 208.620519 268.368097 
L 238.771169 268.368097 
L 238.771169 184.476388 
L 208.620519 184.476388 
z
" clip-path="url(#p75d25a73a4)" style="fill: #8dd3c7"/>
   </g>
   <g id="patch_8">
    <path d="M 246.308831 268.368097 
L 276.459481 268.368097 
L 276.459481 184.476388 
L 246.308831 184.476388 
z
" clip-path="url(#p75d25a73a4)" style="fill: #8dd3c7"/>
   </g>
   <g id="patch_9">
    <path d="M 283.997143 268.368097 
L 314.147792 268.368097 
L 314.147792 189.71962 
L 283.997143 189.71962 
z
" clip-path="url(#p75d25a73a4)" style="fill: #8dd3c7"/>
   </g>
   <g id="patch_10">
    <path d="M 321.685455 268.368097 
L 351.836104 268.368097 
L 351.836104 194.962852 
L 321.685455 194.962852 
z
" clip-path="url(#p75d25a73a4)" style="fill: #8dd3c7"/>
   </g>
   <g id="patch_11">
    <path d="M 359.373766 268.368097 
L 389.524416 268.368097 
L 389.524416 231.665475 
L 359.373766 231.665475 
z
" clip-path="url(#p75d25a73a4)" style="fill: #8dd3c7"/>
   </g>
   <g id="patch_12">
    <path d="M 397.062078 268.368097 
L 427.212727 268.368097 
L 427.212727 231.665475 
L 397.062078 231.665475 
z
" clip-path="url(#p75d25a73a4)" style="fill: #8dd3c7"/>
   </g>
   <g id="matplotlib.axis_1">
    <g id="xtick_1">
     <g id="line2d_1">
      <defs>
       <path id="mb4e86aa981" d="M 0 0 
L 0 3.5 
" style="stroke: #ffffff; stroke-width: 0.8"/>
      </defs>
      <g>
       <use xlink:href="#mb4e86aa981" x="72.942597" y="268.368097" style="fill: #ffffff; stroke: #ffffff; stroke-width: 0.8"/>
      </g>
     </g>
     <g id="text_1">
      <!-- Chroma -->
      <g style="fill: #ffffff" transform="translate(35.808664 318.055029)rotate(-45)scale(0.14 -0.14)">
       <defs>
        <path id="Futura-Book-43" d="M 4166 4435 
C 3738 4755 3264 4909 2726 4909 
C 1344 4909 211 3776 211 2394 
C 211 1024 1363 -83 2726 -83 
C 3238 -83 3750 90 4166 390 
L 4166 1056 
C 3782 672 3251 416 2707 416 
C 1626 416 749 1350 749 2413 
C 749 3475 1619 4410 2694 4410 
C 3251 4410 3782 4166 4166 3770 
L 4166 4435 
z
" transform="scale(0.015625)"/>
        <path id="Futura-Book-68" d="M 486 5280 
L 486 0 
L 998 0 
L 998 1427 
C 998 1965 1043 2618 1747 2618 
C 2342 2618 2381 2182 2381 1696 
L 2381 0 
L 2893 0 
L 2893 1786 
C 2893 2490 2701 3091 1869 3091 
C 1498 3091 1222 2931 1011 2643 
L 998 2656 
L 998 5280 
L 486 5280 
z
" transform="scale(0.015625)"/>
        <path id="Futura-Book-72" d="M 973 3008 
L 461 3008 
L 461 0 
L 973 0 
L 973 1504 
C 973 1894 998 2618 1562 2618 
C 1696 2618 1766 2554 1869 2483 
L 2112 2950 
C 1965 3034 1824 3091 1651 3091 
C 1318 3091 1165 2918 986 2682 
L 973 2682 
L 973 3008 
z
" transform="scale(0.015625)"/>
        <path id="Futura-Book-6f" d="M 1798 -83 
C 2675 -83 3379 614 3379 1498 
C 3379 2381 2682 3091 1798 3091 
C 915 3091 218 2381 218 1498 
C 218 614 922 -83 1798 -83 
z
M 1798 2618 
C 2432 2618 2867 2112 2867 1504 
C 2867 890 2432 390 1798 390 
C 1165 390 730 890 730 1504 
C 730 2112 1165 2618 1798 2618 
z
" transform="scale(0.015625)"/>
        <path id="Futura-Book-6d" d="M 998 3008 
L 486 3008 
L 486 0 
L 998 0 
L 998 1555 
C 998 2010 1062 2618 1664 2618 
C 2157 2618 2202 2080 2202 1709 
L 2202 0 
L 2714 0 
L 2714 1594 
C 2714 2048 2778 2618 3366 2618 
C 3891 2618 3917 2138 3917 1747 
L 3917 0 
L 4429 0 
L 4429 1830 
C 4429 2464 4237 3091 3469 3091 
C 3104 3091 2746 2925 2566 2592 
C 2406 2906 2086 3091 1734 3091 
C 1427 3091 1171 2931 1011 2682 
L 998 2682 
L 998 3008 
z
" transform="scale(0.015625)"/>
        <path id="Futura-Book-61" d="M 1734 2618 
C 2368 2618 2746 2131 2746 1530 
C 2746 922 2400 390 1741 390 
C 1101 390 755 947 755 1536 
C 755 2099 1139 2618 1734 2618 
z
M 3232 3008 
L 2720 3008 
L 2720 2579 
L 2707 2579 
C 2458 2899 2086 3091 1677 3091 
C 774 3091 230 2355 230 1498 
C 230 666 787 -83 1670 -83 
C 2093 -83 2445 83 2707 416 
L 2720 416 
L 2720 0 
L 3232 0 
L 3232 3008 
z
" transform="scale(0.015625)"/>
       </defs>
       <use xlink:href="#Futura-Book-43"/>
       <use xlink:href="#Futura-Book-68" x="71.699982"/>
       <use xlink:href="#Futura-Book-72" x="124.499969"/>
       <use xlink:href="#Futura-Book-6f" x="157.999954"/>
       <use xlink:href="#Futura-Book-6d" x="214.199951"/>
       <use xlink:href="#Futura-Book-61" x="290.999939"/>
      </g>
     </g>
    </g>
    <g id="xtick_2">
     <g id="line2d_2">
      <g>
       <use xlink:href="#mb4e86aa981" x="110.630909" y="268.368097" style="fill: #ffffff; stroke: #ffffff; stroke-width: 0.8"/>
      </g>
     </g>
     <g id="text_2">
      <!-- QUDA -->
      <g style="fill: #ffffff" transform="translate(79.070082 312.481923)rotate(-45)scale(0.14 -0.14)">
       <defs>
        <path id="Futura-Book-51" d="M 3373 1946 
L 2669 1946 
L 3834 774 
C 3539 550 3117 416 2758 416 
C 1664 416 781 1325 781 2413 
C 781 3507 1651 4410 2758 4410 
C 3866 4410 4736 3514 4736 2413 
C 4736 1894 4563 1453 4205 1075 
L 3373 1946 
z
M 4614 -45 
L 5299 -45 
L 4576 691 
C 5030 1178 5274 1722 5274 2394 
C 5274 3776 4154 4909 2758 4909 
C 1382 4909 243 3789 243 2406 
C 243 1018 1382 -83 2758 -83 
C 3245 -83 3814 90 4211 390 
L 4614 -45 
z
" transform="scale(0.015625)"/>
        <path id="Futura-Book-55" d="M 1011 4826 
L 474 4826 
L 474 1805 
C 474 1254 525 813 947 410 
C 1274 90 1741 -83 2195 -83 
C 2682 -83 3162 109 3494 467 
C 3878 864 3917 1280 3917 1805 
L 3917 4826 
L 3379 4826 
L 3379 1952 
C 3379 1574 3398 1152 3142 845 
C 2918 576 2541 416 2195 416 
C 1843 416 1434 582 1222 877 
C 998 1184 1011 1594 1011 1952 
L 1011 4826 
z
" transform="scale(0.015625)"/>
        <path id="Futura-Book-44" d="M 486 0 
L 1382 0 
C 2138 0 2714 96 3290 608 
C 3821 1082 4077 1702 4077 2406 
C 4077 3123 3827 3770 3277 4243 
C 2707 4730 2118 4826 1395 4826 
L 486 4826 
L 486 0 
z
M 1024 499 
L 1024 4326 
L 1414 4326 
C 1984 4326 2470 4250 2912 3859 
C 3328 3494 3539 2963 3539 2413 
C 3539 1875 3334 1370 2938 998 
C 2496 582 2003 499 1414 499 
L 1024 499 
z
" transform="scale(0.015625)"/>
        <path id="Futura-Book-41" d="M 3270 1370 
L 3840 0 
L 4435 0 
L 2266 5056 
L 38 0 
L 627 0 
L 1210 1370 
L 3270 1370 
z
M 3059 1869 
L 1427 1869 
L 2253 3802 
L 3059 1869 
z
" transform="scale(0.015625)"/>
       </defs>
       <use xlink:href="#Futura-Book-51"/>
       <use xlink:href="#Futura-Book-55" x="86.199982"/>
       <use xlink:href="#Futura-Book-44" x="154.699966"/>
       <use xlink:href="#Futura-Book-41" x="222.499954"/>
      </g>
     </g>
    </g>
    <g id="xtick_3">
     <g id="line2d_3">
      <g>
       <use xlink:href="#mb4e86aa981" x="148.319221" y="268.368097" style="fill: #ffffff; stroke: #ffffff; stroke-width: 0.8"/>
      </g>
     </g>
     <g id="text_3">
      <!-- MILC -->
      <g style="fill: #ffffff" transform="translate(123.658651 305.581665)rotate(-45)scale(0.14 -0.14)">
       <defs>
        <path id="Futura-Book-4d" d="M 134 0 
L 685 0 
L 1306 3264 
L 1318 3264 
L 2867 -198 
L 4422 3264 
L 4435 3264 
L 5056 0 
L 5606 0 
L 4627 5101 
L 2867 1050 
L 1114 5101 
L 134 0 
z
" transform="scale(0.015625)"/>
        <path id="Futura-Book-49" d="M 1037 4826 
L 499 4826 
L 499 0 
L 1037 0 
L 1037 4826 
z
" transform="scale(0.015625)"/>
        <path id="Futura-Book-4c" d="M 1024 4826 
L 486 4826 
L 486 0 
L 2355 0 
L 2355 499 
L 1024 499 
L 1024 4826 
z
" transform="scale(0.015625)"/>
       </defs>
       <use xlink:href="#Futura-Book-4d"/>
       <use xlink:href="#Futura-Book-49" x="89.599991"/>
       <use xlink:href="#Futura-Book-4c" x="113.499985"/>
       <use xlink:href="#Futura-Book-43" x="150.999969"/>
      </g>
     </g>
    </g>
    <g id="xtick_4">
     <g id="line2d_4">
      <g>
       <use xlink:href="#mb4e86aa981" x="186.007532" y="268.368097" style="fill: #ffffff; stroke: #ffffff; stroke-width: 0.8"/>
      </g>
     </g>
     <g id="text_4">
      <!-- Grid -->
      <g style="fill: #ffffff" transform="translate(163.653235 303.275392)rotate(-45)scale(0.14 -0.14)">
       <defs>
        <path id="Futura-Book-47" d="M 2963 2426 
L 2963 1926 
L 4397 1926 
C 4397 1030 3514 416 2675 416 
C 2170 416 1658 678 1306 1030 
C 947 1395 742 1882 742 2394 
C 742 3482 1613 4410 2714 4410 
C 3424 4410 3968 4070 4371 3501 
L 4762 3866 
C 4250 4531 3565 4909 2720 4909 
C 1331 4909 205 3782 205 2400 
C 205 1043 1331 -83 2688 -83 
C 3360 -83 4032 211 4474 723 
C 4915 1235 4986 1773 4973 2426 
L 2963 2426 
z
" transform="scale(0.015625)"/>
        <path id="Futura-Book-69" d="M 1094 3008 
L 582 3008 
L 582 0 
L 1094 0 
L 1094 3008 
z
M 838 4506 
C 640 4506 474 4339 474 4141 
C 474 3936 640 3776 838 3776 
C 1037 3776 1203 3936 1203 4141 
C 1203 4339 1037 4506 838 4506 
z
" transform="scale(0.015625)"/>
        <path id="Futura-Book-64" d="M 1734 2618 
C 2368 2618 2746 2131 2746 1530 
C 2746 922 2400 390 1741 390 
C 1101 390 755 947 755 1536 
C 755 2099 1139 2618 1734 2618 
z
M 2720 0 
L 3232 0 
L 3232 5280 
L 2720 5280 
L 2720 2579 
L 2707 2579 
C 2464 2899 2080 3091 1677 3091 
C 774 3091 230 2355 230 1498 
C 230 666 787 -83 1670 -83 
C 2080 -83 2458 90 2707 416 
L 2720 416 
L 2720 0 
z
" transform="scale(0.015625)"/>
       </defs>
       <use xlink:href="#Futura-Book-47"/>
       <use xlink:href="#Futura-Book-72" x="81.999985"/>
       <use xlink:href="#Futura-Book-69" x="115.499969"/>
       <use xlink:href="#Futura-Book-64" x="141.699966"/>
      </g>
     </g>
    </g>
    <g id="xtick_5">
     <g id="line2d_5">
      <g>
       <use xlink:href="#mb4e86aa981" x="223.695844" y="268.368097" style="fill: #ffffff; stroke: #ffffff; stroke-width: 0.8"/>
      </g>
     </g>
     <g id="text_5">
      <!-- QPhiX -->
      <g style="fill: #ffffff" transform="translate(194.164413 310.452526)rotate(-45)scale(0.14 -0.14)">
       <defs>
        <path id="Futura-Book-50" d="M 1024 2112 
L 1414 2112 
C 1818 2112 2234 2163 2560 2432 
C 2861 2682 3021 3078 3021 3469 
C 3021 3898 2835 4320 2477 4570 
C 2125 4813 1696 4826 1280 4826 
L 486 4826 
L 486 0 
L 1024 0 
L 1024 2112 
z
M 1024 4326 
L 1222 4326 
C 1850 4326 2483 4269 2483 3482 
C 2483 2790 1978 2611 1382 2611 
L 1024 2611 
L 1024 4326 
z
" transform="scale(0.015625)"/>
        <path id="Futura-Book-58" d="M 1510 2496 
L 83 0 
L 698 0 
L 1805 1984 
L 2912 0 
L 3526 0 
L 2099 2496 
L 3405 4826 
L 2790 4826 
L 1805 3008 
L 819 4826 
L 205 4826 
L 1510 2496 
z
" transform="scale(0.015625)"/>
       </defs>
       <use xlink:href="#Futura-Book-51"/>
       <use xlink:href="#Futura-Book-50" x="86.199982"/>
       <use xlink:href="#Futura-Book-68" x="136.499969"/>
       <use xlink:href="#Futura-Book-69" x="189.299957"/>
       <use xlink:href="#Futura-Book-58" x="215.499954"/>
      </g>
     </g>
    </g>
    <g id="xtick_6">
     <g id="line2d_6">
      <g>
       <use xlink:href="#mb4e86aa981" x="261.384156" y="268.368097" style="fill: #ffffff; stroke: #ffffff; stroke-width: 0.8"/>
      </g>
     </g>
     <g id="text_6">
      <!-- openQCD -->
      <g style="fill: #ffffff" transform="translate(214.785377 327.519874)rotate(-45)scale(0.14 -0.14)">
       <defs>
        <path id="Futura-Book-70" d="M 1926 2618 
C 2560 2618 2938 2131 2938 1530 
C 2938 922 2592 390 1933 390 
C 1293 390 947 947 947 1536 
C 947 2099 1331 2618 1926 2618 
z
M 973 3008 
L 461 3008 
L 461 -1690 
L 973 -1690 
L 973 422 
L 986 422 
C 1229 96 1606 -83 2016 -83 
C 2918 -83 3462 640 3462 1498 
C 3462 2330 2906 3091 2022 3091 
C 1606 3091 1235 2912 986 2579 
L 973 2579 
L 973 3008 
z
" transform="scale(0.015625)"/>
        <path id="Futura-Book-65" d="M 3104 1395 
C 3155 2291 2643 3091 1677 3091 
C 736 3091 218 2355 218 1466 
C 218 602 794 -83 1690 -83 
C 2304 -83 2790 224 3078 762 
L 2643 1011 
C 2445 653 2163 390 1728 390 
C 1146 390 749 838 742 1395 
L 3104 1395 
z
M 768 1830 
C 832 2266 1242 2618 1683 2618 
C 2131 2618 2496 2266 2566 1830 
L 768 1830 
z
" transform="scale(0.015625)"/>
        <path id="Futura-Book-6e" d="M 998 3008 
L 486 3008 
L 486 0 
L 998 0 
L 998 1427 
C 998 1965 1043 2618 1747 2618 
C 2342 2618 2381 2182 2381 1696 
L 2381 0 
L 2893 0 
L 2893 1786 
C 2893 2490 2701 3091 1869 3091 
C 1498 3091 1222 2931 1011 2643 
L 998 2643 
L 998 3008 
z
" transform="scale(0.015625)"/>
       </defs>
       <use xlink:href="#Futura-Book-6f"/>
       <use xlink:href="#Futura-Book-70" x="56.199997"/>
       <use xlink:href="#Futura-Book-65" x="113.899994"/>
       <use xlink:href="#Futura-Book-6e" x="165.799988"/>
       <use xlink:href="#Futura-Book-51" x="218.599976"/>
       <use xlink:href="#Futura-Book-43" x="304.799957"/>
       <use xlink:href="#Futura-Book-44" x="376.499939"/>
      </g>
     </g>
    </g>
    <g id="xtick_7">
     <g id="line2d_7">
      <g>
       <use xlink:href="#mb4e86aa981" x="299.072468" y="268.368097" style="fill: #ffffff; stroke: #ffffff; stroke-width: 0.8"/>
      </g>
     </g>
     <g id="text_7">
      <!-- Qlua -->
      <g style="fill: #ffffff" transform="translate(274.896045 305.097518)rotate(-45)scale(0.14 -0.14)">
       <defs>
        <path id="Futura-Book-6c" d="M 986 5280 
L 474 5280 
L 474 0 
L 986 0 
L 986 5280 
z
" transform="scale(0.015625)"/>
        <path id="Futura-Book-75" d="M 960 3008 
L 448 3008 
L 448 1274 
C 448 474 749 -83 1638 -83 
C 2528 -83 2829 474 2829 1274 
L 2829 3008 
L 2317 3008 
L 2317 1331 
C 2317 826 2259 390 1638 390 
C 1018 390 960 826 960 1331 
L 960 3008 
z
" transform="scale(0.015625)"/>
       </defs>
       <use xlink:href="#Futura-Book-51"/>
       <use xlink:href="#Futura-Book-6c" x="86.199982"/>
       <use xlink:href="#Futura-Book-75" x="108.899979"/>
       <use xlink:href="#Futura-Book-61" x="160.099976"/>
      </g>
     </g>
    </g>
    <g id="xtick_8">
     <g id="line2d_8">
      <g>
       <use xlink:href="#mb4e86aa981" x="336.760779" y="268.368097" style="fill: #ffffff; stroke: #ffffff; stroke-width: 0.8"/>
      </g>
     </g>
     <g id="text_8">
      <!-- Bridge++ -->
      <g style="fill: #ffffff" transform="translate(293.82636 323.855514)rotate(-45)scale(0.14 -0.14)">
       <defs>
        <path id="Futura-Book-42" d="M 1024 2240 
L 1491 2240 
C 2080 2240 2797 2131 2797 1382 
C 2797 646 2163 499 1562 499 
L 1024 499 
L 1024 2240 
z
M 486 0 
L 1606 0 
C 2560 0 3334 384 3334 1344 
C 3334 1920 2995 2438 2419 2579 
C 2746 2797 2893 3130 2893 3520 
C 2893 4506 2157 4826 1280 4826 
L 486 4826 
L 486 0 
z
M 1024 4326 
L 1235 4326 
C 1894 4326 2355 4250 2355 3520 
C 2355 2771 1837 2701 1229 2701 
L 1024 2701 
L 1024 4326 
z
" transform="scale(0.015625)"/>
        <path id="Futura-Book-67" d="M 1702 2618 
C 2336 2618 2714 2131 2714 1530 
C 2714 922 2368 390 1709 390 
C 1069 390 723 947 723 1536 
C 723 2099 1107 2618 1702 2618 
z
M 3200 3008 
L 2688 3008 
L 2688 2579 
L 2675 2579 
C 2432 2906 2067 3091 1651 3091 
C 762 3091 198 2336 198 1491 
C 198 653 755 -83 1632 -83 
C 2035 -83 2432 102 2675 416 
L 2688 416 
L 2688 58 
C 2688 -621 2515 -1203 1722 -1203 
C 1171 -1203 768 -851 762 -294 
L 250 -294 
C 269 -1146 890 -1677 1728 -1677 
C 2176 -1677 2611 -1504 2893 -1146 
C 3200 -749 3200 -333 3200 147 
L 3200 3008 
z
" transform="scale(0.015625)"/>
        <path id="Futura-Book-2b" d="M 1722 3187 
L 1722 1888 
L 422 1888 
L 422 1389 
L 1722 1389 
L 1722 90 
L 2221 90 
L 2221 1389 
L 3520 1389 
L 3520 1888 
L 2221 1888 
L 2221 3187 
L 1722 3187 
z
" transform="scale(0.015625)"/>
       </defs>
       <use xlink:href="#Futura-Book-42"/>
       <use xlink:href="#Futura-Book-72" x="56.799988"/>
       <use xlink:href="#Futura-Book-69" x="90.299973"/>
       <use xlink:href="#Futura-Book-64" x="116.499969"/>
       <use xlink:href="#Futura-Book-67" x="174.199966"/>
       <use xlink:href="#Futura-Book-65" x="232.199951"/>
       <use xlink:href="#Futura-Book-2b" x="284.099945"/>
       <use xlink:href="#Futura-Book-2b" x="345.699936"/>
      </g>
     </g>
    </g>
    <g id="xtick_9">
     <g id="line2d_9">
      <g>
       <use xlink:href="#mb4e86aa981" x="374.449091" y="268.368097" style="fill: #ffffff; stroke: #ffffff; stroke-width: 0.8"/>
      </g>
     </g>
     <g id="text_9">
      <!-- QDP-JIT -->
      <g style="fill: #ffffff" transform="translate(339.42344 315.946746)rotate(-45)scale(0.14 -0.14)">
       <defs>
        <path id="Futura-Book-2d" d="M 13 1779 
L 13 1306 
L 1325 1306 
L 1325 1779 
L 13 1779 
z
" transform="scale(0.015625)"/>
        <path id="Futura-Book-4a" d="M 1510 4826 
L 973 4826 
L 973 1005 
C 973 627 973 0 448 0 
C 198 0 51 115 -122 275 
L -422 -141 
C -179 -346 115 -499 435 -499 
C 762 -499 1069 -365 1267 -102 
C 1510 218 1510 621 1510 1005 
L 1510 4826 
z
" transform="scale(0.015625)"/>
        <path id="Futura-Book-54" d="M 1766 4326 
L 2944 4326 
L 2944 4826 
L 64 4826 
L 64 4326 
L 1229 4326 
L 1229 0 
L 1766 0 
L 1766 4326 
z
" transform="scale(0.015625)"/>
       </defs>
       <use xlink:href="#Futura-Book-51"/>
       <use xlink:href="#Futura-Book-44" x="86.199982"/>
       <use xlink:href="#Futura-Book-50" x="153.999969"/>
       <use xlink:href="#Futura-Book-2d" x="204.299957"/>
       <use xlink:href="#Futura-Book-4a" x="225.099945"/>
       <use xlink:href="#Futura-Book-49" x="256.499939"/>
       <use xlink:href="#Futura-Book-54" x="280.399933"/>
      </g>
     </g>
    </g>
    <g id="xtick_10">
     <g id="line2d_10">
      <g>
       <use xlink:href="#mb4e86aa981" x="412.137403" y="268.368097" style="fill: #ffffff; stroke: #ffffff; stroke-width: 0.8"/>
      </g>
     </g>
     <g id="text_10">
      <!-- QDP++ -->
      <g style="fill: #ffffff" transform="translate(377.104018 315.95448)rotate(-45)scale(0.14 -0.14)">
       <use xlink:href="#Futura-Book-51"/>
       <use xlink:href="#Futura-Book-44" x="86.199982"/>
       <use xlink:href="#Futura-Book-50" x="153.999969"/>
       <use xlink:href="#Futura-Book-2b" x="204.299957"/>
       <use xlink:href="#Futura-Book-2b" x="265.899948"/>
      </g>
     </g>
    </g>
   </g>
   <g id="matplotlib.axis_2">
    <g id="ytick_1">
     <g id="line2d_11">
      <defs>
       <path id="m8e9a80303d" d="M 0 0 
L -3.5 0 
" style="stroke: #ffffff; stroke-width: 0.8"/>
      </defs>
      <g>
       <use xlink:href="#m8e9a80303d" x="39.4" y="268.368097" style="fill: #ffffff; stroke: #ffffff; stroke-width: 0.8"/>
      </g>
     </g>
     <g id="text_11">
      <!-- 0 -->
      <g style="fill: #ffffff" transform="translate(23.776875 274.143097)scale(0.14 -0.14)">
       <defs>
        <path id="Futura-Book-30" d="M 1971 4909 
C 749 4909 243 3398 243 2406 
C 243 1216 870 -83 1971 -83 
C 3072 -83 3699 1216 3699 2406 
C 3699 3398 3194 4909 1971 4909 
z
M 1971 4410 
C 2880 4410 3174 3066 3162 2381 
C 3149 1702 2861 416 1971 416 
C 1082 416 794 1702 781 2381 
C 768 3066 1062 4410 1971 4410 
z
" transform="scale(0.015625)"/>
       </defs>
       <use xlink:href="#Futura-Book-30"/>
      </g>
     </g>
    </g>
    <g id="ytick_2">
     <g id="line2d_12">
      <g>
       <use xlink:href="#m8e9a80303d" x="39.4" y="215.935779" style="fill: #ffffff; stroke: #ffffff; stroke-width: 0.8"/>
      </g>
     </g>
     <g id="text_12">
      <!-- 10 -->
      <g style="fill: #ffffff" transform="translate(15.15375 221.710779)scale(0.14 -0.14)">
       <defs>
        <path id="Futura-Book-31" d="M 1811 4326 
L 1811 0 
L 2349 0 
L 2349 4826 
L 1293 4826 
L 1011 4326 
L 1811 4326 
z
" transform="scale(0.015625)"/>
       </defs>
       <use xlink:href="#Futura-Book-31"/>
       <use xlink:href="#Futura-Book-30" x="61.599991"/>
      </g>
     </g>
    </g>
    <g id="ytick_3">
     <g id="line2d_13">
      <g>
       <use xlink:href="#m8e9a80303d" x="39.4" y="163.503461" style="fill: #ffffff; stroke: #ffffff; stroke-width: 0.8"/>
      </g>
     </g>
     <g id="text_13">
      <!-- 20 -->
      <g style="fill: #ffffff" transform="translate(15.15375 169.278461)scale(0.14 -0.14)">
       <defs>
        <path id="Futura-Book-32" d="M 1350 499 
L 3021 2464 
C 3270 2752 3386 3091 3386 3482 
C 3386 4320 2675 4909 1869 4909 
C 1018 4909 397 4262 378 3418 
L 915 3418 
C 928 3981 1306 4410 1888 4410 
C 2413 4410 2848 4013 2848 3475 
C 2848 3162 2714 2899 2522 2669 
L 262 0 
L 3386 0 
L 3386 499 
L 1350 499 
z
" transform="scale(0.015625)"/>
       </defs>
       <use xlink:href="#Futura-Book-32"/>
       <use xlink:href="#Futura-Book-30" x="61.599991"/>
      </g>
     </g>
    </g>
    <g id="ytick_4">
     <g id="line2d_14">
      <g>
       <use xlink:href="#m8e9a80303d" x="39.4" y="111.071143" style="fill: #ffffff; stroke: #ffffff; stroke-width: 0.8"/>
      </g>
     </g>
     <g id="text_14">
      <!-- 30 -->
      <g style="fill: #ffffff" transform="translate(15.15375 116.846143)scale(0.14 -0.14)">
       <defs>
        <path id="Futura-Book-33" d="M 1734 2285 
C 2323 2304 2758 1997 2758 1382 
C 2758 851 2355 416 1818 416 
C 1331 416 915 762 890 1254 
L 365 1254 
C 378 448 1018 -83 1798 -83 
C 2624 -83 3296 506 3296 1350 
C 3296 1843 3072 2323 2605 2534 
C 2995 2733 3226 3162 3226 3590 
C 3226 4384 2630 4909 1856 4909 
C 1062 4909 595 4403 518 3635 
L 1050 3635 
C 1094 4090 1363 4410 1843 4410 
C 2349 4410 2688 4077 2688 3565 
C 2688 2957 2246 2803 1734 2784 
L 1734 2285 
z
" transform="scale(0.015625)"/>
       </defs>
       <use xlink:href="#Futura-Book-33"/>
       <use xlink:href="#Futura-Book-30" x="61.599991"/>
      </g>
     </g>
    </g>
    <g id="ytick_5">
     <g id="line2d_15">
      <g>
       <use xlink:href="#m8e9a80303d" x="39.4" y="58.638824" style="fill: #ffffff; stroke: #ffffff; stroke-width: 0.8"/>
      </g>
     </g>
     <g id="text_15">
      <!-- 40 -->
      <g style="fill: #ffffff" transform="translate(15.15375 64.413824)scale(0.14 -0.14)">
       <defs>
        <path id="Futura-Book-34" d="M 3046 1280 
L 3046 5094 
L 3034 5094 
L 38 781 
L 2509 781 
L 2509 0 
L 3046 0 
L 3046 781 
L 3642 781 
L 3642 1280 
L 3046 1280 
z
M 2509 1280 
L 979 1280 
L 2496 3462 
L 2509 3462 
L 2509 1280 
z
" transform="scale(0.015625)"/>
       </defs>
       <use xlink:href="#Futura-Book-34"/>
       <use xlink:href="#Futura-Book-30" x="61.599991"/>
      </g>
     </g>
    </g>
   </g>
   <g id="patch_13">
    <path d="M 39.4 268.368097 
L 39.4 15.12 
" style="fill: none; stroke: #ffffff; stroke-width: 0.8; stroke-linejoin: miter; stroke-linecap: square"/>
   </g>
   <g id="patch_14">
    <path d="M 445.68 268.368097 
L 445.68 15.12 
" style="fill: none; stroke: #ffffff; stroke-width: 0.8; stroke-linejoin: miter; stroke-linecap: square"/>
   </g>
   <g id="patch_15">
    <path d="M 39.4 268.368097 
L 445.68 268.368097 
" style="fill: none; stroke: #ffffff; stroke-width: 0.8; stroke-linejoin: miter; stroke-linecap: square"/>
   </g>
   <g id="patch_16">
    <path d="M 39.4 15.12 
L 445.68 15.12 
" style="fill: none; stroke: #ffffff; stroke-width: 0.8; stroke-linejoin: miter; stroke-linecap: square"/>
   </g>
   <g id="text_16">
    <!-- Out of 165 -->
    <g style="fill: #ffffff" transform="translate(368.759712 32.847367)scale(0.14 -0.14)">
     <defs>
      <path id="Futura-Book-4f" d="M 2758 4909 
C 1382 4909 243 3789 243 2406 
C 243 1018 1382 -83 2758 -83 
C 4134 -83 5274 1018 5274 2406 
C 5274 3789 4134 4909 2758 4909 
z
M 2758 4410 
C 3866 4410 4736 3507 4736 2413 
C 4736 1325 3853 416 2758 416 
C 1664 416 781 1325 781 2413 
C 781 3507 1651 4410 2758 4410 
z
" transform="scale(0.015625)"/>
      <path id="Futura-Book-74" d="M 1024 2534 
L 1562 2534 
L 1562 3008 
L 1024 3008 
L 1024 4090 
L 512 4090 
L 512 3008 
L 198 3008 
L 198 2534 
L 512 2534 
L 512 0 
L 1024 0 
L 1024 2534 
z
" transform="scale(0.015625)"/>
      <path id="Futura-Book-20" transform="scale(0.015625)"/>
      <path id="Futura-Book-66" d="M 1043 2534 
L 1805 2534 
L 1805 3008 
L 1043 3008 
L 1043 4026 
C 1043 4557 1043 4851 1459 4851 
C 1587 4851 1690 4819 1805 4781 
L 1805 5299 
C 1683 5338 1562 5363 1440 5363 
C 1133 5363 832 5254 666 4986 
C 531 4768 531 4454 531 4205 
L 531 3008 
L 250 3008 
L 250 2534 
L 531 2534 
L 531 0 
L 1043 0 
L 1043 2534 
z
" transform="scale(0.015625)"/>
      <path id="Futura-Book-36" d="M 2323 4909 
L 723 2726 
C 480 2387 282 2010 282 1568 
C 282 659 1030 -83 1946 -83 
C 2854 -83 3610 653 3610 1574 
C 3610 2445 2925 3168 2048 3168 
C 1901 3168 1754 3142 1626 3098 
L 1613 3110 
L 2726 4608 
L 2323 4909 
z
M 1946 416 
C 1318 416 819 928 819 1555 
C 819 2182 1318 2669 1946 2669 
C 2566 2669 3072 2182 3072 1555 
C 3072 928 2573 416 1946 416 
z
" transform="scale(0.015625)"/>
      <path id="Futura-Book-35" d="M 3347 4326 
L 3347 4826 
L 1427 4826 
L 730 2515 
C 1005 2694 1312 2822 1645 2822 
C 2317 2822 2848 2336 2848 1651 
C 2848 947 2342 416 1632 416 
C 1171 416 781 698 563 1088 
L 134 781 
C 454 237 979 -83 1613 -83 
C 2598 -83 3386 640 3386 1638 
C 3386 2573 2733 3322 1779 3322 
L 1491 3296 
L 1805 4326 
L 3347 4326 
z
" transform="scale(0.015625)"/>
     </defs>
     <use xlink:href="#Futura-Book-4f"/>
     <use xlink:href="#Futura-Book-75" x="86.199982"/>
     <use xlink:href="#Futura-Book-74" x="137.399979"/>
     <use xlink:href="#Futura-Book-20" x="161.399963"/>
     <use xlink:href="#Futura-Book-6f" x="192.199951"/>
     <use xlink:href="#Futura-Book-66" x="248.399948"/>
     <use xlink:href="#Futura-Book-20" x="275.799942"/>
     <use xlink:href="#Futura-Book-31" x="306.59993"/>
     <use xlink:href="#Futura-Book-36" x="368.199921"/>
     <use xlink:href="#Futura-Book-35" x="429.799911"/>
    </g>
   </g>
  </g>
 </g>
 <defs>
  <clipPath id="p75d25a73a4">
   <rect x="39.4" y="15.12" width="406.28" height="253.248097"/>
  </clipPath>
 </defs>
</svg>
