<?xml version="1.0" encoding="utf-8" standalone="no"?>
<!DOCTYPE svg PUBLIC "-//W3C//DTD SVG 1.1//EN"
  "http://www.w3.org/Graphics/SVG/1.1/DTD/svg11.dtd">
<svg xmlns:xlink="http://www.w3.org/1999/xlink" width="942.275pt" height="360pt" viewBox="0 0 942.275 360" xmlns="http://www.w3.org/2000/svg" version="1.1">
 <metadata>
  <rdf:RDF xmlns:dc="http://purl.org/dc/elements/1.1/" xmlns:cc="http://creativecommons.org/ns#" xmlns:rdf="http://www.w3.org/1999/02/22-rdf-syntax-ns#">
   <cc:Work>
    <dc:type rdf:resource="http://purl.org/dc/dcmitype/StillImage"/>
    <dc:date>2022-05-25T21:41:05.291179</dc:date>
    <dc:format>image/svg+xml</dc:format>
    <dc:creator>
     <cc:Agent>
      <dc:title>Matplotlib v3.5.1, https://matplotlib.org/</dc:title>
     </cc:Agent>
    </dc:creator>
   </cc:Work>
  </rdf:RDF>
 </metadata>
 <defs>
  <style type="text/css">*{stroke-linejoin: round; stroke-linecap: butt}</style>
 </defs>
 <g id="figure_1">
  <g id="patch_1">
   <path d="M 0 360 
L 942.275 360 
L 942.275 0 
L 0 0 
L 0 360 
z
" style="fill: none"/>
  </g>
  <g id="axes_1">
   <g id="patch_2">
    <path d="M 88.986095 301.88 
L 390.695238 301.88 
L 390.695238 33.12 
L 88.986095 33.12 
L 88.986095 301.88 
z
" style="fill: none"/>
   </g>
   <g id="patch_3">
    <path d="M 104.071552 301.88 
L 144.299438 301.88 
L 144.299438 45.918095 
L 104.071552 45.918095 
z
" clip-path="url(#pae5fc28e94)" style="fill: #96cac1"/>
   </g>
   <g id="patch_4">
    <path d="M 254.926124 301.88 
L 295.15401 301.88 
L 295.15401 103.562409 
L 254.926124 103.562409 
z
" clip-path="url(#pae5fc28e94)" style="fill: #96cac1"/>
   </g>
   <g id="patch_5">
    <path d="M 0 0 
z
" clip-path="url(#pae5fc28e94)" style="fill: #f5f6bc"/>
   </g>
   <g id="patch_6">
    <path d="M 295.15401 301.88 
L 335.381896 301.88 
L 335.381896 298.178072 
L 295.15401 298.178072 
z
" clip-path="url(#pae5fc28e94)" style="fill: #f5f6bc"/>
   </g>
   <g id="patch_7">
    <path d="M 184.527324 301.88 
L 224.75521 301.88 
L 224.75521 294.476143 
L 184.527324 294.476143 
z
" clip-path="url(#pae5fc28e94)" style="fill: #c2bfd5"/>
   </g>
   <g id="patch_8">
    <path d="M 335.381896 301.88 
L 375.609781 301.88 
L 375.609781 296.591531 
L 335.381896 296.591531 
z
" clip-path="url(#pae5fc28e94)" style="fill: #c2bfd5"/>
   </g>
   <g id="matplotlib.axis_1">
    <g id="xtick_1">
     <g id="line2d_1">
      <defs>
       <path id="md10956f715" d="M 0 0 
L 0 3.5 
" style="stroke: #ffffff; stroke-width: 0.8"/>
      </defs>
      <g>
       <use xlink:href="#md10956f715" x="164.413381" y="301.88" style="fill: #ffffff; stroke: #ffffff; stroke-width: 0.8"/>
      </g>
     </g>
     <g id="text_1">
      <!-- hep-lat -->
      <g style="fill: #ffffff" transform="translate(143.124631 320.425625)scale(0.14 -0.14)">
       <defs>
        <path id="Futura-Medium-68" d="M 444 5278 
L 1147 5278 
L 1147 2791 
Q 1522 3128 1975 3128 
Q 2491 3128 2800 2794 
Q 3063 2503 3063 1866 
L 3063 0 
L 2359 0 
L 2359 1800 
Q 2359 2166 2229 2330 
Q 2100 2494 1813 2494 
Q 1444 2494 1294 2266 
Q 1147 2034 1147 1472 
L 1147 0 
L 444 0 
L 444 5278 
z
" transform="scale(0.015625)"/>
        <path id="Futura-Medium-65" d="M 3216 1356 
L 1034 1356 
Q 1063 981 1278 759 
Q 1494 541 1831 541 
Q 2094 541 2266 666 
Q 2434 791 2650 1128 
L 3244 797 
Q 3106 563 2953 395 
Q 2800 228 2625 120 
Q 2450 13 2247 -37 
Q 2044 -88 1806 -88 
Q 1125 -88 713 350 
Q 300 791 300 1519 
Q 300 2241 700 2688 
Q 1103 3128 1769 3128 
Q 2441 3128 2831 2700 
Q 3219 2275 3219 1522 
L 3216 1356 
z
M 2494 1931 
Q 2347 2494 1784 2494 
Q 1656 2494 1543 2455 
Q 1431 2416 1339 2342 
Q 1247 2269 1181 2166 
Q 1116 2063 1081 1931 
L 2494 1931 
z
" transform="scale(0.015625)"/>
        <path id="Futura-Medium-70" d="M 1147 -1656 
L 444 -1656 
L 444 3044 
L 1147 3044 
L 1147 2713 
Q 1563 3128 2091 3128 
Q 2719 3128 3125 2666 
Q 3538 2206 3538 1506 
Q 3538 822 3128 366 
Q 2722 -88 2103 -88 
Q 1569 -88 1147 341 
L 1147 -1656 
z
M 2819 1503 
Q 2819 1941 2581 2216 
Q 2341 2494 1975 2494 
Q 1588 2494 1347 2225 
Q 1106 1956 1106 1519 
Q 1106 1091 1347 813 
Q 1584 541 1972 541 
Q 2338 541 2575 816 
Q 2819 1091 2819 1503 
z
" transform="scale(0.015625)"/>
        <path id="Futura-Medium-2d" d="M 0 1853 
L 1394 1853 
L 1394 1241 
L 0 1241 
L 0 1853 
z
" transform="scale(0.015625)"/>
        <path id="Futura-Medium-6c" d="M 1147 5278 
L 1147 0 
L 444 0 
L 444 5278 
L 1147 5278 
z
" transform="scale(0.015625)"/>
        <path id="Futura-Medium-61" d="M 2688 3044 
L 3394 3044 
L 3394 0 
L 2688 0 
L 2688 319 
Q 2253 -88 1753 -88 
Q 1122 -88 709 369 
Q 300 834 300 1531 
Q 300 2216 709 2672 
Q 1119 3128 1734 3128 
Q 2266 3128 2688 2691 
L 2688 3044 
z
M 1019 1531 
Q 1019 1094 1253 819 
Q 1494 541 1859 541 
Q 2250 541 2491 809 
Q 2731 1088 2731 1516 
Q 2731 1944 2491 2222 
Q 2250 2494 1866 2494 
Q 1503 2494 1259 2219 
Q 1019 1941 1019 1531 
z
" transform="scale(0.015625)"/>
        <path id="Futura-Medium-74" d="M 1169 2388 
L 1169 0 
L 466 0 
L 466 2388 
L 166 2388 
L 166 3044 
L 466 3044 
L 466 4159 
L 1169 4159 
L 1169 3044 
L 1716 3044 
L 1716 2388 
L 1169 2388 
z
" transform="scale(0.015625)"/>
       </defs>
       <use xlink:href="#Futura-Medium-68"/>
       <use xlink:href="#Futura-Medium-65" x="54.833984"/>
       <use xlink:href="#Futura-Medium-70" x="110.15625"/>
       <use xlink:href="#Futura-Medium-2d" x="170.117188"/>
       <use xlink:href="#Futura-Medium-6c" x="191.894531"/>
       <use xlink:href="#Futura-Medium-61" x="216.796875"/>
       <use xlink:href="#Futura-Medium-74" x="276.757812"/>
      </g>
     </g>
    </g>
    <g id="xtick_2">
     <g id="line2d_2">
      <g>
       <use xlink:href="#md10956f715" x="315.267953" y="301.88" style="fill: #ffffff; stroke: #ffffff; stroke-width: 0.8"/>
      </g>
     </g>
     <g id="text_2">
      <!-- Crosslist -->
      <g style="fill: #ffffff" transform="translate(289.67639 320.425625)scale(0.14 -0.14)">
       <defs>
        <path id="Futura-Medium-43" d="M 4144 4566 
L 4144 3703 
Q 3513 4231 2838 4231 
Q 2094 4231 1584 3697 
Q 1072 3166 1072 2397 
Q 1072 1638 1584 1116 
Q 2097 594 2841 594 
Q 3225 594 3494 719 
Q 3644 781 3805 887 
Q 3966 994 4144 1144 
L 4144 266 
Q 3519 -88 2831 -88 
Q 1797 -88 1066 634 
Q 338 1363 338 2391 
Q 338 3313 947 4034 
Q 1697 4919 2888 4919 
Q 3538 4919 4144 4566 
z
" transform="scale(0.015625)"/>
        <path id="Futura-Medium-72" d="M 444 3044 
L 1147 3044 
L 1147 2772 
Q 1341 2975 1491 3050 
Q 1644 3128 1853 3128 
Q 2131 3128 2434 2947 
L 2113 2303 
Q 1913 2447 1722 2447 
Q 1147 2447 1147 1578 
L 1147 0 
L 444 0 
L 444 3044 
z
" transform="scale(0.015625)"/>
        <path id="Futura-Medium-6f" d="M 300 1544 
Q 300 2203 772 2665 
Q 1244 3128 1922 3128 
Q 2603 3128 3078 2663 
Q 3547 2197 3547 1519 
Q 3547 834 3075 372 
Q 2600 -88 1909 -88 
Q 1225 -88 763 381 
Q 300 844 300 1544 
z
M 1019 1531 
Q 1019 1075 1263 809 
Q 1513 541 1922 541 
Q 2334 541 2581 806 
Q 2828 1072 2828 1516 
Q 2828 1959 2581 2225 
Q 2331 2494 1922 2494 
Q 1519 2494 1269 2225 
Q 1019 1956 1019 1531 
z
" transform="scale(0.015625)"/>
        <path id="Futura-Medium-73" d="M 2213 2525 
L 1631 2216 
Q 1494 2497 1291 2497 
Q 1194 2497 1125 2433 
Q 1056 2369 1056 2269 
Q 1056 2094 1463 1922 
Q 2022 1681 2215 1478 
Q 2409 1275 2409 931 
Q 2409 491 2084 194 
Q 1769 -88 1322 -88 
Q 556 -88 238 659 
L 838 938 
Q 963 719 1028 659 
Q 1156 541 1334 541 
Q 1691 541 1691 866 
Q 1691 1053 1416 1216 
Q 1309 1269 1203 1319 
Q 1097 1369 988 1422 
Q 681 1572 556 1722 
Q 397 1913 397 2213 
Q 397 2609 669 2869 
Q 947 3128 1344 3128 
Q 1928 3128 2213 2525 
z
" transform="scale(0.015625)"/>
        <path id="Futura-Medium-69" d="M 1147 3044 
L 1147 0 
L 444 0 
L 444 3044 
L 1147 3044 
z
M 338 4309 
Q 338 4494 472 4628 
Q 606 4763 794 4763 
Q 984 4763 1119 4628 
Q 1253 4497 1253 4306 
Q 1253 4116 1119 3981 
Q 988 3847 797 3847 
Q 606 3847 472 3981 
Q 338 4116 338 4309 
z
" transform="scale(0.015625)"/>
       </defs>
       <use xlink:href="#Futura-Medium-43"/>
       <use xlink:href="#Futura-Medium-72" x="70.068359"/>
       <use xlink:href="#Futura-Medium-6f" x="106.595703"/>
       <use xlink:href="#Futura-Medium-73" x="166.703125"/>
       <use xlink:href="#Futura-Medium-73" x="207.279297"/>
       <use xlink:href="#Futura-Medium-6c" x="247.855469"/>
       <use xlink:href="#Futura-Medium-69" x="272.757812"/>
       <use xlink:href="#Futura-Medium-73" x="297.660156"/>
       <use xlink:href="#Futura-Medium-74" x="338.236328"/>
      </g>
     </g>
    </g>
    <g id="text_3">
     <!-- Is crosslist -->
     <g style="fill: #ffffff" transform="translate(208.751917 339.59375)scale(0.14 -0.14)">
      <defs>
       <path id="Futura-Medium-49" d="M 1306 4825 
L 1306 0 
L 578 0 
L 578 4825 
L 1306 4825 
z
" transform="scale(0.015625)"/>
       <path id="Futura-Medium-20" transform="scale(0.015625)"/>
       <path id="Futura-Medium-63" d="M 2813 2913 
L 2813 1978 
Q 2572 2272 2381 2381 
Q 2194 2494 1941 2494 
Q 1544 2494 1281 2216 
Q 1019 1938 1019 1519 
Q 1019 1091 1272 816 
Q 1528 541 1925 541 
Q 2178 541 2372 650 
Q 2559 756 2813 1063 
L 2813 134 
Q 2384 -88 1956 -88 
Q 1250 -88 775 369 
Q 300 828 300 1509 
Q 300 2191 781 2659 
Q 1263 3128 1963 3128 
Q 2413 3128 2813 2913 
z
" transform="scale(0.015625)"/>
      </defs>
      <use xlink:href="#Futura-Medium-49"/>
      <use xlink:href="#Futura-Medium-73" x="29.492188"/>
      <use xlink:href="#Futura-Medium-20" x="70.068359"/>
      <use xlink:href="#Futura-Medium-63" x="100.927734"/>
      <use xlink:href="#Futura-Medium-72" x="148.583984"/>
      <use xlink:href="#Futura-Medium-6f" x="185.111328"/>
      <use xlink:href="#Futura-Medium-73" x="245.21875"/>
      <use xlink:href="#Futura-Medium-73" x="285.794922"/>
      <use xlink:href="#Futura-Medium-6c" x="326.371094"/>
      <use xlink:href="#Futura-Medium-69" x="351.273438"/>
      <use xlink:href="#Futura-Medium-73" x="376.175781"/>
      <use xlink:href="#Futura-Medium-74" x="416.751953"/>
     </g>
    </g>
   </g>
   <g id="matplotlib.axis_2">
    <g id="ytick_1">
     <g id="line2d_3">
      <defs>
       <path id="m3966e8e51b" d="M 0 0 
L -3.5 0 
" style="stroke: #ffffff; stroke-width: 0.8"/>
      </defs>
      <g>
       <use xlink:href="#m3966e8e51b" x="88.986095" y="301.88" style="fill: #ffffff; stroke: #ffffff; stroke-width: 0.8"/>
      </g>
     </g>
     <g id="text_4">
      <!-- 0 -->
      <g style="fill: #ffffff" transform="translate(73.34547 307.652813)scale(0.14 -0.14)">
       <defs>
        <path id="Futura-Medium-30" d="M 272 2444 
Q 272 3597 809 4284 
Q 1291 4906 1975 4906 
Q 2659 4906 3141 4284 
Q 3678 3597 3678 2413 
Q 3678 1231 3141 544 
Q 2659 -78 1978 -78 
Q 1297 -78 809 544 
Q 272 1231 272 2444 
z
M 988 2441 
Q 988 1638 1266 1106 
Q 1544 584 1975 584 
Q 2403 584 2684 1106 
Q 2966 1625 2966 2416 
Q 2966 3206 2684 3728 
Q 2403 4247 1975 4247 
Q 1550 4247 1269 3728 
Q 988 3213 988 2441 
z
" transform="scale(0.015625)"/>
       </defs>
       <use xlink:href="#Futura-Medium-30"/>
      </g>
     </g>
    </g>
    <g id="ytick_2">
     <g id="line2d_4">
      <g>
       <use xlink:href="#m3966e8e51b" x="88.986095" y="248.995309" style="fill: #ffffff; stroke: #ffffff; stroke-width: 0.8"/>
      </g>
     </g>
     <g id="text_5">
      <!-- 100 -->
      <g style="fill: #ffffff" transform="translate(56.90422 254.768121)scale(0.14 -0.14)">
       <defs>
        <path id="Futura-Medium-31" d="M 1734 4144 
L 900 4144 
L 1300 4825 
L 2463 4825 
L 2463 0 
L 1734 0 
L 1734 4144 
z
" transform="scale(0.015625)"/>
       </defs>
       <use xlink:href="#Futura-Medium-31"/>
       <use xlink:href="#Futura-Medium-30" x="55.71875"/>
       <use xlink:href="#Futura-Medium-30" x="117.4375"/>
      </g>
     </g>
    </g>
    <g id="ytick_3">
     <g id="line2d_5">
      <g>
       <use xlink:href="#m3966e8e51b" x="88.986095" y="196.110618" style="fill: #ffffff; stroke: #ffffff; stroke-width: 0.8"/>
      </g>
     </g>
     <g id="text_6">
      <!-- 200 -->
      <g style="fill: #ffffff" transform="translate(56.06422 201.88343)scale(0.14 -0.14)">
       <defs>
        <path id="Futura-Medium-32" d="M 1603 684 
L 3400 684 
L 3400 0 
L 159 0 
L 1834 2028 
Q 2081 2331 2248 2553 
Q 2416 2775 2503 2925 
Q 2681 3219 2681 3453 
Q 2681 3791 2443 4019 
Q 2206 4247 1856 4247 
Q 1125 4247 1019 3381 
L 294 3381 
Q 469 4906 1834 4906 
Q 2494 4906 2941 4488 
Q 3391 4069 3391 3450 
Q 3391 3056 3181 2678 
Q 3075 2481 2870 2211 
Q 2666 1941 2353 1572 
L 1603 684 
z
" transform="scale(0.015625)"/>
       </defs>
       <use xlink:href="#Futura-Medium-32"/>
       <use xlink:href="#Futura-Medium-30" x="61.71875"/>
       <use xlink:href="#Futura-Medium-30" x="123.4375"/>
      </g>
     </g>
    </g>
    <g id="ytick_4">
     <g id="line2d_6">
      <g>
       <use xlink:href="#m3966e8e51b" x="88.986095" y="143.225927" style="fill: #ffffff; stroke: #ffffff; stroke-width: 0.8"/>
      </g>
     </g>
     <g id="text_7">
      <!-- 300 -->
      <g style="fill: #ffffff" transform="translate(56.06422 148.998739)scale(0.14 -0.14)">
       <defs>
        <path id="Futura-Medium-33" d="M 1656 2241 
L 1656 2863 
Q 2119 2863 2278 2966 
Q 2563 3147 2563 3547 
Q 2563 3856 2356 4050 
Q 2153 4247 1828 4247 
Q 1525 4247 1359 4100 
Q 1200 3950 1122 3594 
L 397 3594 
Q 509 4275 859 4592 
Q 1209 4909 1838 4909 
Q 2472 4909 2872 4534 
Q 3272 4163 3272 3575 
Q 3272 2913 2747 2544 
Q 3347 2191 3347 1397 
Q 3347 747 2909 334 
Q 2472 -78 1788 -78 
Q 916 -78 494 563 
Q 319 831 272 1306 
L 975 1306 
Q 1031 956 1248 770 
Q 1466 584 1816 584 
Q 2169 584 2400 819 
Q 2631 1059 2631 1428 
Q 2631 1916 2284 2122 
Q 2081 2241 1656 2241 
z
" transform="scale(0.015625)"/>
       </defs>
       <use xlink:href="#Futura-Medium-33"/>
       <use xlink:href="#Futura-Medium-30" x="61.71875"/>
       <use xlink:href="#Futura-Medium-30" x="123.4375"/>
      </g>
     </g>
    </g>
    <g id="ytick_5">
     <g id="line2d_7">
      <g>
       <use xlink:href="#m3966e8e51b" x="88.986095" y="90.341236" style="fill: #ffffff; stroke: #ffffff; stroke-width: 0.8"/>
      </g>
     </g>
     <g id="text_8">
      <!-- 400 -->
      <g style="fill: #ffffff" transform="translate(56.06422 96.114048)scale(0.14 -0.14)">
       <defs>
        <path id="Futura-Medium-34" d="M 3156 1347 
L 3669 1347 
L 3669 684 
L 3156 684 
L 3156 0 
L 2428 0 
L 2428 684 
L 59 684 
L 3156 5184 
L 3156 1347 
z
M 2428 1347 
L 2428 2963 
L 1316 1347 
L 2428 1347 
z
" transform="scale(0.015625)"/>
       </defs>
       <use xlink:href="#Futura-Medium-34"/>
       <use xlink:href="#Futura-Medium-30" x="61.71875"/>
       <use xlink:href="#Futura-Medium-30" x="123.4375"/>
      </g>
     </g>
    </g>
    <g id="ytick_6">
     <g id="line2d_8">
      <g>
       <use xlink:href="#m3966e8e51b" x="88.986095" y="37.456545" style="fill: #ffffff; stroke: #ffffff; stroke-width: 0.8"/>
      </g>
     </g>
     <g id="text_9">
      <!-- 500 -->
      <g style="fill: #ffffff" transform="translate(56.06422 43.229357)scale(0.14 -0.14)">
       <defs>
        <path id="Futura-Medium-35" d="M 3366 4144 
L 1878 4144 
L 1641 3344 
Q 1694 3350 1742 3353 
Q 1791 3356 1831 3356 
Q 2534 3356 2984 2881 
Q 3438 2409 3438 1672 
Q 3438 909 2925 415 
Q 2413 -78 1634 -78 
Q 675 -78 122 822 
L 672 1288 
Q 900 900 1131 741 
Q 1363 584 1697 584 
Q 2134 584 2431 891 
Q 2728 1206 2728 1656 
Q 2728 2119 2434 2413 
Q 2141 2716 1700 2716 
Q 1209 2716 853 2288 
L 613 2288 
L 1372 4825 
L 3366 4825 
L 3366 4144 
z
" transform="scale(0.015625)"/>
       </defs>
       <use xlink:href="#Futura-Medium-35"/>
       <use xlink:href="#Futura-Medium-30" x="61.71875"/>
       <use xlink:href="#Futura-Medium-30" x="123.4375"/>
      </g>
     </g>
    </g>
    <g id="text_10">
     <!-- count -->
     <g style="fill: #ffffff" transform="translate(48.44172 184.610625)rotate(-90)scale(0.14 -0.14)">
      <defs>
       <path id="Futura-Medium-75" d="M 1147 3044 
L 1147 1297 
Q 1147 541 1744 541 
Q 2341 541 2341 1297 
L 2341 3044 
L 3044 3044 
L 3044 1281 
Q 3044 916 2953 650 
Q 2866 413 2650 222 
Q 2294 -88 1744 -88 
Q 1197 -88 841 222 
Q 622 413 531 650 
Q 444 863 444 1281 
L 444 3044 
L 1147 3044 
z
" transform="scale(0.015625)"/>
       <path id="Futura-Medium-6e" d="M 444 3044 
L 1150 3044 
L 1150 2763 
Q 1519 3128 1981 3128 
Q 2513 3128 2809 2794 
Q 3066 2509 3066 1866 
L 3066 0 
L 2359 0 
L 2359 1700 
Q 2359 2150 2234 2322 
Q 2113 2497 1791 2497 
Q 1441 2497 1294 2266 
Q 1150 2038 1150 1469 
L 1150 0 
L 444 0 
L 444 3044 
z
" transform="scale(0.015625)"/>
      </defs>
      <use xlink:href="#Futura-Medium-63"/>
      <use xlink:href="#Futura-Medium-6f" x="47.65625"/>
      <use xlink:href="#Futura-Medium-75" x="107.763672"/>
      <use xlink:href="#Futura-Medium-6e" x="162.255859"/>
      <use xlink:href="#Futura-Medium-74" x="217.089844"/>
     </g>
    </g>
   </g>
   <g id="patch_9">
    <path d="M 88.986095 301.88 
L 88.986095 33.12 
" style="fill: none; stroke: #ffffff; stroke-width: 0.8; stroke-linejoin: miter; stroke-linecap: square"/>
   </g>
   <g id="patch_10">
    <path d="M 88.986095 301.88 
L 390.695238 301.88 
" style="fill: none; stroke: #ffffff; stroke-width: 0.8; stroke-linejoin: miter; stroke-linecap: square"/>
   </g>
   <g id="text_11">
    <!-- Out of 890 -->
    <g style="fill: #ffffff" transform="translate(319.592738 46.558)scale(0.14 -0.14)">
     <defs>
      <path id="Futura-Medium-4f" d="M 338 2434 
Q 338 3453 1084 4184 
Q 1828 4916 2872 4916 
Q 3903 4916 4641 4178 
Q 5381 3441 5381 2406 
Q 5381 1366 4638 641 
Q 3891 -88 2834 -88 
Q 1900 -88 1156 559 
Q 338 1275 338 2434 
z
M 1072 2425 
Q 1072 1625 1609 1109 
Q 2144 594 2844 594 
Q 3603 594 4125 1119 
Q 4647 1650 4647 2413 
Q 4647 3184 4131 3706 
Q 3619 4231 2863 4231 
Q 2109 4231 1591 3706 
Q 1072 3188 1072 2425 
z
" transform="scale(0.015625)"/>
      <path id="Futura-Medium-66" d="M 1172 2388 
L 1172 0 
L 466 0 
L 466 2388 
L 216 2388 
L 216 3044 
L 466 3044 
L 466 4219 
Q 466 4794 666 5031 
Q 941 5363 1466 5363 
Q 1653 5363 1938 5253 
L 1938 4534 
L 1866 4572 
Q 1638 4688 1491 4688 
Q 1303 4688 1238 4553 
Q 1172 4422 1172 4047 
L 1172 3044 
L 1938 3044 
L 1938 2388 
L 1172 2388 
z
" transform="scale(0.015625)"/>
      <path id="Futura-Medium-38" d="M 1113 2509 
Q 581 2884 581 3531 
Q 581 4119 984 4513 
Q 1391 4906 1994 4906 
Q 2594 4906 2994 4513 
Q 3394 4122 3394 3528 
Q 3394 2906 2866 2513 
Q 3156 2356 3322 2056 
Q 3491 1756 3491 1381 
Q 3491 741 3072 331 
Q 2653 -78 2000 -78 
Q 1331 -78 897 334 
Q 459 747 459 1372 
Q 459 2184 1113 2509 
z
M 1266 3534 
Q 1266 3225 1475 3016 
Q 1688 2803 1988 2803 
Q 2284 2803 2496 3015 
Q 2709 3228 2709 3525 
Q 2709 3822 2496 4034 
Q 2284 4247 1988 4247 
Q 1691 4247 1478 4034 
Q 1266 3822 1266 3534 
z
M 1175 1397 
Q 1175 1063 1406 822 
Q 1641 584 1975 584 
Q 2306 584 2541 819 
Q 2775 1056 2775 1388 
Q 2775 1722 2540 1956 
Q 2306 2191 1975 2191 
Q 1647 2191 1409 1956 
Q 1175 1722 1175 1397 
z
" transform="scale(0.015625)"/>
      <path id="Futura-Medium-39" d="M 1438 -166 
L 903 231 
L 2056 1803 
Q 1963 1791 1897 1784 
Q 1831 1778 1791 1778 
Q 1206 1778 778 2225 
Q 353 2669 353 3294 
Q 353 3959 825 4431 
Q 1300 4906 1963 4906 
Q 2622 4906 3109 4438 
Q 3597 3972 3597 3338 
Q 3597 2775 3122 2122 
L 1438 -166 
z
M 1063 3347 
Q 1063 2956 1328 2691 
Q 1597 2422 1975 2422 
Q 2353 2422 2619 2688 
Q 2888 2956 2888 3334 
Q 2888 3713 2619 3981 
Q 2353 4247 1972 4247 
Q 1597 4247 1331 3981 
Q 1063 3713 1063 3347 
z
" transform="scale(0.015625)"/>
     </defs>
     <use xlink:href="#Futura-Medium-4f"/>
     <use xlink:href="#Futura-Medium-75" x="89.355469"/>
     <use xlink:href="#Futura-Medium-74" x="143.847656"/>
     <use xlink:href="#Futura-Medium-20" x="171.191406"/>
     <use xlink:href="#Futura-Medium-6f" x="202.050781"/>
     <use xlink:href="#Futura-Medium-66" x="262.158203"/>
     <use xlink:href="#Futura-Medium-20" x="291.845703"/>
     <use xlink:href="#Futura-Medium-38" x="322.705078"/>
     <use xlink:href="#Futura-Medium-39" x="384.423828"/>
     <use xlink:href="#Futura-Medium-30" x="446.142578"/>
    </g>
   </g>
   <g id="text_12">
    <!-- All non-UK -->
    <g style="fill: #ffffff" transform="translate(205.790042 27.12)scale(0.14 -0.14)">
     <defs>
      <path id="Futura-Medium-41" d="M 3413 1172 
L 1347 1172 
L 809 0 
L 25 0 
L 2413 5128 
L 4716 0 
L 3919 0 
L 3413 1172 
z
M 3116 1856 
L 2400 3497 
L 1650 1856 
L 3116 1856 
z
" transform="scale(0.015625)"/>
      <path id="Futura-Medium-55" d="M 1306 4825 
L 1306 1919 
Q 1306 1297 1509 1009 
Q 1813 594 2363 594 
Q 2916 594 3219 1009 
Q 3422 1288 3422 1919 
L 3422 4825 
L 4150 4825 
L 4150 1719 
Q 4150 956 3675 463 
Q 3141 -88 2363 -88 
Q 1584 -88 1053 463 
Q 578 956 578 1719 
L 578 4825 
L 1306 4825 
z
" transform="scale(0.015625)"/>
      <path id="Futura-Medium-4b" d="M 1306 2900 
L 3184 4825 
L 4156 4825 
L 1975 2641 
L 4169 0 
L 3194 0 
L 1456 2147 
L 1306 1997 
L 1306 0 
L 578 0 
L 578 4825 
L 1306 4825 
L 1306 2900 
z
" transform="scale(0.015625)"/>
     </defs>
     <use xlink:href="#Futura-Medium-41"/>
     <use xlink:href="#Futura-Medium-6c" x="74.072266"/>
     <use xlink:href="#Futura-Medium-6c" x="98.974609"/>
     <use xlink:href="#Futura-Medium-20" x="123.876953"/>
     <use xlink:href="#Futura-Medium-6e" x="154.736328"/>
     <use xlink:href="#Futura-Medium-6f" x="209.570312"/>
     <use xlink:href="#Futura-Medium-6e" x="269.677734"/>
     <use xlink:href="#Futura-Medium-2d" x="324.511719"/>
     <use xlink:href="#Futura-Medium-55" x="346.289062"/>
     <use xlink:href="#Futura-Medium-4b" x="420.166016"/>
    </g>
   </g>
  </g>
  <g id="axes_2">
   <g id="patch_11">
    <path d="M 408.868107 301.88 
L 710.57725 301.88 
L 710.57725 33.12 
L 408.868107 33.12 
L 408.868107 301.88 
z
" style="fill: none"/>
   </g>
   <g id="patch_12">
    <path d="M 423.953564 301.88 
L 464.18145 301.88 
L 464.18145 256.928013 
L 423.953564 256.928013 
z
" clip-path="url(#p7db71b7769)" style="fill: #96cac1"/>
   </g>
   <g id="patch_13">
    <path d="M 574.808136 301.88 
L 615.036021 301.88 
L 615.036021 285.485746 
L 574.808136 285.485746 
z
" clip-path="url(#p7db71b7769)" style="fill: #96cac1"/>
   </g>
   <g id="patch_14">
    <path d="M 0 0 
z
" clip-path="url(#p7db71b7769)" style="fill: #f5f6bc"/>
   </g>
   <g id="patch_15">
    <path d="M 0 0 
z
" clip-path="url(#p7db71b7769)" style="fill: #f5f6bc"/>
   </g>
   <g id="patch_16">
    <path d="M 504.409336 301.88 
L 544.637221 301.88 
L 544.637221 298.706919 
L 504.409336 298.706919 
z
" clip-path="url(#p7db71b7769)" style="fill: #c2bfd5"/>
   </g>
   <g id="patch_17">
    <path d="M 655.263907 301.88 
L 695.491793 301.88 
L 695.491793 301.351153 
L 655.263907 301.351153 
z
" clip-path="url(#p7db71b7769)" style="fill: #c2bfd5"/>
   </g>
   <g id="matplotlib.axis_3">
    <g id="xtick_3">
     <g id="line2d_9">
      <g>
       <use xlink:href="#md10956f715" x="484.295393" y="301.88" style="fill: #ffffff; stroke: #ffffff; stroke-width: 0.8"/>
      </g>
     </g>
     <g id="text_13">
      <!-- hep-lat -->
      <g style="fill: #ffffff" transform="translate(463.006643 320.425625)scale(0.14 -0.14)">
       <use xlink:href="#Futura-Medium-68"/>
       <use xlink:href="#Futura-Medium-65" x="54.833984"/>
       <use xlink:href="#Futura-Medium-70" x="110.15625"/>
       <use xlink:href="#Futura-Medium-2d" x="170.117188"/>
       <use xlink:href="#Futura-Medium-6c" x="191.894531"/>
       <use xlink:href="#Futura-Medium-61" x="216.796875"/>
       <use xlink:href="#Futura-Medium-74" x="276.757812"/>
      </g>
     </g>
    </g>
    <g id="xtick_4">
     <g id="line2d_10">
      <g>
       <use xlink:href="#md10956f715" x="635.149964" y="301.88" style="fill: #ffffff; stroke: #ffffff; stroke-width: 0.8"/>
      </g>
     </g>
     <g id="text_14">
      <!-- Crosslist -->
      <g style="fill: #ffffff" transform="translate(609.558402 320.425625)scale(0.14 -0.14)">
       <use xlink:href="#Futura-Medium-43"/>
       <use xlink:href="#Futura-Medium-72" x="70.068359"/>
       <use xlink:href="#Futura-Medium-6f" x="106.595703"/>
       <use xlink:href="#Futura-Medium-73" x="166.703125"/>
       <use xlink:href="#Futura-Medium-73" x="207.279297"/>
       <use xlink:href="#Futura-Medium-6c" x="247.855469"/>
       <use xlink:href="#Futura-Medium-69" x="272.757812"/>
       <use xlink:href="#Futura-Medium-73" x="297.660156"/>
       <use xlink:href="#Futura-Medium-74" x="338.236328"/>
      </g>
     </g>
    </g>
    <g id="text_15">
     <!-- Is crosslist -->
     <g style="fill: #ffffff" transform="translate(528.633928 339.59375)scale(0.14 -0.14)">
      <use xlink:href="#Futura-Medium-49"/>
      <use xlink:href="#Futura-Medium-73" x="29.492188"/>
      <use xlink:href="#Futura-Medium-20" x="70.068359"/>
      <use xlink:href="#Futura-Medium-63" x="100.927734"/>
      <use xlink:href="#Futura-Medium-72" x="148.583984"/>
      <use xlink:href="#Futura-Medium-6f" x="185.111328"/>
      <use xlink:href="#Futura-Medium-73" x="245.21875"/>
      <use xlink:href="#Futura-Medium-73" x="285.794922"/>
      <use xlink:href="#Futura-Medium-6c" x="326.371094"/>
      <use xlink:href="#Futura-Medium-69" x="351.273438"/>
      <use xlink:href="#Futura-Medium-73" x="376.175781"/>
      <use xlink:href="#Futura-Medium-74" x="416.751953"/>
     </g>
    </g>
   </g>
   <g id="matplotlib.axis_4">
    <g id="ytick_7">
     <g id="line2d_11">
      <g>
       <use xlink:href="#m3966e8e51b" x="408.868107" y="301.88" style="fill: #ffffff; stroke: #ffffff; stroke-width: 0.8"/>
      </g>
     </g>
    </g>
    <g id="ytick_8">
     <g id="line2d_12">
      <g>
       <use xlink:href="#m3966e8e51b" x="408.868107" y="248.995309" style="fill: #ffffff; stroke: #ffffff; stroke-width: 0.8"/>
      </g>
     </g>
    </g>
    <g id="ytick_9">
     <g id="line2d_13">
      <g>
       <use xlink:href="#m3966e8e51b" x="408.868107" y="196.110618" style="fill: #ffffff; stroke: #ffffff; stroke-width: 0.8"/>
      </g>
     </g>
    </g>
    <g id="ytick_10">
     <g id="line2d_14">
      <g>
       <use xlink:href="#m3966e8e51b" x="408.868107" y="143.225927" style="fill: #ffffff; stroke: #ffffff; stroke-width: 0.8"/>
      </g>
     </g>
    </g>
    <g id="ytick_11">
     <g id="line2d_15">
      <g>
       <use xlink:href="#m3966e8e51b" x="408.868107" y="90.341236" style="fill: #ffffff; stroke: #ffffff; stroke-width: 0.8"/>
      </g>
     </g>
    </g>
    <g id="ytick_12">
     <g id="line2d_16">
      <g>
       <use xlink:href="#m3966e8e51b" x="408.868107" y="37.456545" style="fill: #ffffff; stroke: #ffffff; stroke-width: 0.8"/>
      </g>
     </g>
    </g>
   </g>
   <g id="patch_18">
    <path d="M 408.868107 301.88 
L 408.868107 33.12 
" style="fill: none; stroke: #ffffff; stroke-width: 0.8; stroke-linejoin: miter; stroke-linecap: square"/>
   </g>
   <g id="patch_19">
    <path d="M 408.868107 301.88 
L 710.57725 301.88 
" style="fill: none; stroke: #ffffff; stroke-width: 0.8; stroke-linejoin: miter; stroke-linecap: square"/>
   </g>
   <g id="text_16">
    <!-- Out of 123 -->
    <g style="fill: #ffffff" transform="translate(640.57725 46.558)scale(0.14 -0.14)">
     <use xlink:href="#Futura-Medium-4f"/>
     <use xlink:href="#Futura-Medium-75" x="89.355469"/>
     <use xlink:href="#Futura-Medium-74" x="143.847656"/>
     <use xlink:href="#Futura-Medium-20" x="171.191406"/>
     <use xlink:href="#Futura-Medium-6f" x="202.050781"/>
     <use xlink:href="#Futura-Medium-66" x="262.158203"/>
     <use xlink:href="#Futura-Medium-20" x="291.845703"/>
     <use xlink:href="#Futura-Medium-31" x="322.705078"/>
     <use xlink:href="#Futura-Medium-32" x="376.548828"/>
     <use xlink:href="#Futura-Medium-33" x="438.267578"/>
    </g>
   </g>
   <g id="text_17">
    <!-- UK author(s) -->
    <g style="fill: #ffffff" transform="translate(519.053772 27.12)scale(0.14 -0.14)">
     <defs>
      <path id="Futura-Medium-28" d="M 1259 5331 
L 1909 5081 
Q 1569 4266 1431 3575 
Q 1363 3225 1328 2839 
Q 1294 2453 1294 1997 
Q 1294 1538 1328 1152 
Q 1363 766 1431 416 
Q 1566 -272 1909 -1088 
L 1259 -1338 
Q 578 91 578 1997 
Q 578 3903 1259 5331 
z
" transform="scale(0.015625)"/>
      <path id="Futura-Medium-29" d="M 1084 -1338 
L 434 -1088 
Q 778 -272 913 416 
Q 1053 1103 1053 1997 
Q 1053 2884 913 3575 
Q 775 4266 434 5081 
L 1084 5331 
Q 1766 3903 1766 1997 
Q 1766 91 1084 -1338 
z
" transform="scale(0.015625)"/>
     </defs>
     <use xlink:href="#Futura-Medium-55"/>
     <use xlink:href="#Futura-Medium-4b" x="73.876953"/>
     <use xlink:href="#Futura-Medium-20" x="140.136719"/>
     <use xlink:href="#Futura-Medium-61" x="170.996094"/>
     <use xlink:href="#Futura-Medium-75" x="230.957031"/>
     <use xlink:href="#Futura-Medium-74" x="285.449219"/>
     <use xlink:href="#Futura-Medium-68" x="314.792969"/>
     <use xlink:href="#Futura-Medium-6f" x="369.626953"/>
     <use xlink:href="#Futura-Medium-72" x="429.734375"/>
     <use xlink:href="#Futura-Medium-28" x="467.136719"/>
     <use xlink:href="#Futura-Medium-73" x="503.757812"/>
     <use xlink:href="#Futura-Medium-29" x="544.333984"/>
    </g>
   </g>
  </g>
  <g id="legend_1">
   <g id="text_18">
    <!-- Data published -->
    <g style="fill: #ffffff" transform="translate(776.148594 150.709375)scale(0.14 -0.14)">
     <defs>
      <path id="Futura-Medium-44" d="M 578 0 
L 578 4825 
L 1591 4825 
Q 2319 4825 2741 4681 
Q 3194 4541 3563 4203 
Q 4309 3522 4309 2413 
Q 4309 1300 3531 613 
Q 3141 269 2713 134 
Q 2313 0 1578 0 
L 578 0 
z
M 1306 684 
L 1634 684 
Q 2125 684 2450 788 
Q 2775 897 3038 1134 
Q 3575 1625 3575 2413 
Q 3575 3206 3044 3700 
Q 2566 4141 1634 4141 
L 1306 4141 
L 1306 684 
z
" transform="scale(0.015625)"/>
      <path id="Futura-Medium-62" d="M 1147 5278 
L 1147 2691 
Q 1569 3128 2103 3128 
Q 2719 3128 3128 2669 
Q 3538 2213 3538 1531 
Q 3538 828 3125 369 
Q 2716 -88 2091 -88 
Q 1563 -88 1147 319 
L 1147 0 
L 444 0 
L 444 5278 
L 1147 5278 
z
M 2819 1500 
Q 2819 1938 2581 2213 
Q 2341 2494 1978 2494 
Q 1591 2494 1347 2222 
Q 1106 1953 1106 1522 
Q 1106 1078 1344 813 
Q 1581 541 1969 541 
Q 2334 541 2575 813 
Q 2819 1088 2819 1500 
z
" transform="scale(0.015625)"/>
      <path id="Futura-Medium-64" d="M 2688 5278 
L 3394 5278 
L 3394 0 
L 2688 0 
L 2688 319 
Q 2272 -88 1747 -88 
Q 1122 -88 709 369 
Q 300 834 300 1531 
Q 300 2213 709 2669 
Q 1116 3128 1731 3128 
Q 2266 3128 2688 2691 
L 2688 5278 
z
M 1019 1531 
Q 1019 1094 1253 819 
Q 1494 541 1859 541 
Q 2250 541 2491 809 
Q 2731 1088 2731 1516 
Q 2731 1944 2491 2222 
Q 2250 2494 1866 2494 
Q 1503 2494 1259 2219 
Q 1019 1941 1019 1531 
z
" transform="scale(0.015625)"/>
     </defs>
     <use xlink:href="#Futura-Medium-44"/>
     <use xlink:href="#Futura-Medium-61" x="72.607422"/>
     <use xlink:href="#Futura-Medium-74" x="132.568359"/>
     <use xlink:href="#Futura-Medium-61" x="160.787109"/>
     <use xlink:href="#Futura-Medium-20" x="220.748047"/>
     <use xlink:href="#Futura-Medium-70" x="251.607422"/>
     <use xlink:href="#Futura-Medium-75" x="311.568359"/>
     <use xlink:href="#Futura-Medium-62" x="366.060547"/>
     <use xlink:href="#Futura-Medium-6c" x="426.021484"/>
     <use xlink:href="#Futura-Medium-69" x="450.923828"/>
     <use xlink:href="#Futura-Medium-73" x="475.826172"/>
     <use xlink:href="#Futura-Medium-68" x="516.402344"/>
     <use xlink:href="#Futura-Medium-65" x="571.236328"/>
     <use xlink:href="#Futura-Medium-64" x="626.558594"/>
    </g>
   </g>
   <g id="patch_20">
    <path d="M 718.743125 172.8775 
L 746.743125 172.8775 
L 746.743125 163.0775 
L 718.743125 163.0775 
z
" style="fill: #96cac1"/>
   </g>
   <g id="text_19">
    <!-- None -->
    <g style="fill: #ffffff" transform="translate(757.943125 172.8775)scale(0.14 -0.14)">
     <defs>
      <path id="Futura-Medium-4e" d="M 578 0 
L 578 5153 
L 4097 1472 
L 4097 4825 
L 4825 4825 
L 4825 -294 
L 1306 3378 
L 1306 0 
L 578 0 
z
" transform="scale(0.015625)"/>
     </defs>
     <use xlink:href="#Futura-Medium-4e"/>
     <use xlink:href="#Futura-Medium-6f" x="85.048828"/>
     <use xlink:href="#Futura-Medium-6e" x="145.15625"/>
     <use xlink:href="#Futura-Medium-65" x="199.990234"/>
    </g>
   </g>
   <g id="patch_21">
    <path d="M 718.743125 195.045625 
L 746.743125 195.045625 
L 746.743125 185.245625 
L 718.743125 185.245625 
z
" style="fill: #f5f6bc"/>
   </g>
   <g id="text_20">
    <!-- Data available on request -->
    <g style="fill: #ffffff" transform="translate(757.943125 195.045625)scale(0.14 -0.14)">
     <defs>
      <path id="Futura-Medium-76" d="M 822 3044 
L 1609 1334 
L 2394 3044 
L 3184 3044 
L 1603 -209 
L 34 3044 
L 822 3044 
z
" transform="scale(0.015625)"/>
      <path id="Futura-Medium-71" d="M 2688 -1656 
L 2688 341 
Q 2269 -88 1731 -88 
Q 1116 -88 709 366 
Q 300 822 300 1506 
Q 300 2200 709 2666 
Q 1122 3128 1744 3128 
Q 2272 3128 2688 2713 
L 2688 3044 
L 3394 3044 
L 3394 -1656 
L 2688 -1656 
z
M 1019 1538 
Q 1019 1097 1256 822 
Q 1494 541 1859 541 
Q 2247 541 2488 809 
Q 2731 1081 2731 1516 
Q 2731 1944 2491 2222 
Q 2250 2494 1866 2494 
Q 1503 2494 1259 2219 
Q 1019 1941 1019 1538 
z
" transform="scale(0.015625)"/>
     </defs>
     <use xlink:href="#Futura-Medium-44"/>
     <use xlink:href="#Futura-Medium-61" x="72.607422"/>
     <use xlink:href="#Futura-Medium-74" x="132.568359"/>
     <use xlink:href="#Futura-Medium-61" x="160.787109"/>
     <use xlink:href="#Futura-Medium-20" x="220.748047"/>
     <use xlink:href="#Futura-Medium-61" x="251.607422"/>
     <use xlink:href="#Futura-Medium-76" x="312.443359"/>
     <use xlink:href="#Futura-Medium-61" x="360.9375"/>
     <use xlink:href="#Futura-Medium-69" x="420.898438"/>
     <use xlink:href="#Futura-Medium-6c" x="445.800781"/>
     <use xlink:href="#Futura-Medium-61" x="470.703125"/>
     <use xlink:href="#Futura-Medium-62" x="530.664062"/>
     <use xlink:href="#Futura-Medium-6c" x="590.625"/>
     <use xlink:href="#Futura-Medium-65" x="615.527344"/>
     <use xlink:href="#Futura-Medium-20" x="670.849609"/>
     <use xlink:href="#Futura-Medium-6f" x="701.708984"/>
     <use xlink:href="#Futura-Medium-6e" x="761.816406"/>
     <use xlink:href="#Futura-Medium-20" x="816.650391"/>
     <use xlink:href="#Futura-Medium-72" x="847.509766"/>
     <use xlink:href="#Futura-Medium-65" x="884.287109"/>
     <use xlink:href="#Futura-Medium-71" x="939.609375"/>
     <use xlink:href="#Futura-Medium-75" x="1000.695312"/>
     <use xlink:href="#Futura-Medium-65" x="1055.1875"/>
     <use xlink:href="#Futura-Medium-73" x="1110.509766"/>
     <use xlink:href="#Futura-Medium-74" x="1151.085938"/>
    </g>
   </g>
   <g id="patch_22">
    <path d="M 718.743125 217.21375 
L 746.743125 217.21375 
L 746.743125 207.41375 
L 718.743125 207.41375 
z
" style="fill: #c2bfd5"/>
   </g>
   <g id="text_21">
    <!-- Some or all data published -->
    <g style="fill: #ffffff" transform="translate(757.943125 217.21375)scale(0.14 -0.14)">
     <defs>
      <path id="Futura-Medium-53" d="M 3306 4106 
L 2716 3756 
Q 2550 4044 2400 4131 
Q 2244 4231 1997 4231 
Q 1694 4231 1494 4059 
Q 1294 3891 1294 3634 
Q 1294 3281 1819 3066 
L 2300 2869 
Q 2888 2631 3159 2289 
Q 3431 1947 3431 1450 
Q 3431 784 2988 350 
Q 2541 -88 1878 -88 
Q 1250 -88 841 284 
Q 438 656 338 1331 
L 1075 1494 
Q 1125 1069 1250 906 
Q 1475 594 1906 594 
Q 2247 594 2472 822 
Q 2697 1050 2697 1400 
Q 2697 1541 2658 1658 
Q 2619 1775 2536 1873 
Q 2453 1972 2322 2058 
Q 2191 2144 2009 2222 
L 1544 2416 
Q 553 2834 553 3641 
Q 553 4184 969 4550 
Q 1384 4919 2003 4919 
Q 2838 4919 3306 4106 
z
" transform="scale(0.015625)"/>
      <path id="Futura-Medium-6d" d="M 444 3044 
L 1147 3044 
L 1147 2763 
Q 1350 2975 1494 3050 
Q 1647 3128 1878 3128 
Q 2394 3128 2694 2678 
Q 3025 3128 3591 3128 
Q 4619 3128 4619 1881 
L 4619 0 
L 3913 0 
L 3913 1691 
Q 3913 2128 3806 2309 
Q 3697 2494 3447 2494 
Q 3156 2494 3023 2275 
Q 2891 2056 2891 1572 
L 2891 0 
L 2184 0 
L 2184 1681 
Q 2184 2494 1716 2494 
Q 1419 2494 1283 2272 
Q 1147 2050 1147 1572 
L 1147 0 
L 444 0 
L 444 3044 
z
" transform="scale(0.015625)"/>
     </defs>
     <use xlink:href="#Futura-Medium-53"/>
     <use xlink:href="#Futura-Medium-6f" x="58.300781"/>
     <use xlink:href="#Futura-Medium-6d" x="118.408203"/>
     <use xlink:href="#Futura-Medium-65" x="197.509766"/>
     <use xlink:href="#Futura-Medium-20" x="252.832031"/>
     <use xlink:href="#Futura-Medium-6f" x="283.691406"/>
     <use xlink:href="#Futura-Medium-72" x="343.798828"/>
     <use xlink:href="#Futura-Medium-20" x="381.201172"/>
     <use xlink:href="#Futura-Medium-61" x="412.060547"/>
     <use xlink:href="#Futura-Medium-6c" x="472.021484"/>
     <use xlink:href="#Futura-Medium-6c" x="496.923828"/>
     <use xlink:href="#Futura-Medium-20" x="521.826172"/>
     <use xlink:href="#Futura-Medium-64" x="552.685547"/>
     <use xlink:href="#Futura-Medium-61" x="612.646484"/>
     <use xlink:href="#Futura-Medium-74" x="672.607422"/>
     <use xlink:href="#Futura-Medium-61" x="700.826172"/>
     <use xlink:href="#Futura-Medium-20" x="760.787109"/>
     <use xlink:href="#Futura-Medium-70" x="791.646484"/>
     <use xlink:href="#Futura-Medium-75" x="851.607422"/>
     <use xlink:href="#Futura-Medium-62" x="906.099609"/>
     <use xlink:href="#Futura-Medium-6c" x="966.060547"/>
     <use xlink:href="#Futura-Medium-69" x="990.962891"/>
     <use xlink:href="#Futura-Medium-73" x="1015.865234"/>
     <use xlink:href="#Futura-Medium-68" x="1056.441406"/>
     <use xlink:href="#Futura-Medium-65" x="1111.275391"/>
     <use xlink:href="#Futura-Medium-64" x="1166.597656"/>
    </g>
   </g>
  </g>
 </g>
 <defs>
  <clipPath id="pae5fc28e94">
   <rect x="88.986095" y="33.12" width="301.709143" height="268.76"/>
  </clipPath>
  <clipPath id="p7db71b7769">
   <rect x="408.868107" y="33.12" width="301.709143" height="268.76"/>
  </clipPath>
 </defs>
</svg>
