<?xml version="1.0" encoding="utf-8" standalone="no"?>
<!DOCTYPE svg PUBLIC "-//W3C//DTD SVG 1.1//EN"
  "http://www.w3.org/Graphics/SVG/1.1/DTD/svg11.dtd">
<svg xmlns:xlink="http://www.w3.org/1999/xlink" width="935.1pt" height="360pt" viewBox="0 0 935.1 360" xmlns="http://www.w3.org/2000/svg" version="1.1">
 <metadata>
  <rdf:RDF xmlns:dc="http://purl.org/dc/elements/1.1/" xmlns:cc="http://creativecommons.org/ns#" xmlns:rdf="http://www.w3.org/1999/02/22-rdf-syntax-ns#">
   <cc:Work>
    <dc:type rdf:resource="http://purl.org/dc/dcmitype/StillImage"/>
    <dc:date>2022-05-26T15:03:03.638295</dc:date>
    <dc:format>image/svg+xml</dc:format>
    <dc:creator>
     <cc:Agent>
      <dc:title>Matplotlib v3.5.2, https://matplotlib.org/</dc:title>
     </cc:Agent>
    </dc:creator>
   </cc:Work>
  </rdf:RDF>
 </metadata>
 <defs>
  <style type="text/css">*{stroke-linejoin: round; stroke-linecap: butt}</style>
 </defs>
 <g id="figure_1">
  <g id="patch_1">
   <path d="M 0 360 
L 935.1 360 
L 935.1 0 
L 0 0 
L 0 360 
z
" style="fill: none"/>
  </g>
  <g id="axes_1">
   <g id="patch_2">
    <path d="M 88.15915 302.2 
L 390.306146 302.2 
L 390.306146 33.36 
L 88.15915 33.36 
L 88.15915 302.2 
z
" style="fill: none"/>
   </g>
   <g id="patch_3">
    <path d="M 103.2665 302.2 
L 143.552766 302.2 
L 143.552766 46.161905 
L 103.2665 46.161905 
z
" clip-path="url(#p94dba3e123)" style="fill: #96cac1"/>
   </g>
   <g id="patch_4">
    <path d="M 254.339998 302.2 
L 294.626264 302.2 
L 294.626264 103.823377 
L 254.339998 103.823377 
z
" clip-path="url(#p94dba3e123)" style="fill: #96cac1"/>
   </g>
   <g id="patch_5">
    <path d="M 0 0 
z
" clip-path="url(#p94dba3e123)" style="fill: #f5f6bc"/>
   </g>
   <g id="patch_6">
    <path d="M 294.626264 302.2 
L 334.91253 302.2 
L 334.91253 298.49697 
L 294.626264 298.49697 
z
" clip-path="url(#p94dba3e123)" style="fill: #f5f6bc"/>
   </g>
   <g id="patch_7">
    <path d="M 183.839032 302.2 
L 224.125298 302.2 
L 224.125298 294.793939 
L 183.839032 294.793939 
z
" clip-path="url(#p94dba3e123)" style="fill: #c2bfd5"/>
   </g>
   <g id="patch_8">
    <path d="M 334.91253 302.2 
L 375.198797 302.2 
L 375.198797 296.909957 
L 334.91253 296.909957 
z
" clip-path="url(#p94dba3e123)" style="fill: #c2bfd5"/>
   </g>
   <g id="matplotlib.axis_1">
    <g id="xtick_1">
     <g id="line2d_1">
      <defs>
       <path id="m372562e6a6" d="M 0 0 
L 0 3.5 
" style="stroke: #ffffff; stroke-width: 0.8"/>
      </defs>
      <g>
       <use xlink:href="#m372562e6a6" x="163.695899" y="302.2" style="fill: #ffffff; stroke: #ffffff; stroke-width: 0.8"/>
      </g>
     </g>
     <g id="text_1">
      <!-- hep-lat -->
      <g style="fill: #ffffff" transform="translate(143.563243 320.75)scale(0.14 -0.14)">
       <defs>
        <path id="Futura-Book-68" d="M 486 5280 
L 486 0 
L 998 0 
L 998 1427 
C 998 1965 1043 2618 1747 2618 
C 2342 2618 2381 2182 2381 1696 
L 2381 0 
L 2893 0 
L 2893 1786 
C 2893 2490 2701 3091 1869 3091 
C 1498 3091 1222 2931 1011 2643 
L 998 2656 
L 998 5280 
L 486 5280 
z
" transform="scale(0.015625)"/>
        <path id="Futura-Book-65" d="M 3104 1395 
C 3155 2291 2643 3091 1677 3091 
C 736 3091 218 2355 218 1466 
C 218 602 794 -83 1690 -83 
C 2304 -83 2790 224 3078 762 
L 2643 1011 
C 2445 653 2163 390 1728 390 
C 1146 390 749 838 742 1395 
L 3104 1395 
z
M 768 1830 
C 832 2266 1242 2618 1683 2618 
C 2131 2618 2496 2266 2566 1830 
L 768 1830 
z
" transform="scale(0.015625)"/>
        <path id="Futura-Book-70" d="M 1926 2618 
C 2560 2618 2938 2131 2938 1530 
C 2938 922 2592 390 1933 390 
C 1293 390 947 947 947 1536 
C 947 2099 1331 2618 1926 2618 
z
M 973 3008 
L 461 3008 
L 461 -1690 
L 973 -1690 
L 973 422 
L 986 422 
C 1229 96 1606 -83 2016 -83 
C 2918 -83 3462 640 3462 1498 
C 3462 2330 2906 3091 2022 3091 
C 1606 3091 1235 2912 986 2579 
L 973 2579 
L 973 3008 
z
" transform="scale(0.015625)"/>
        <path id="Futura-Book-2d" d="M 13 1779 
L 13 1306 
L 1325 1306 
L 1325 1779 
L 13 1779 
z
" transform="scale(0.015625)"/>
        <path id="Futura-Book-6c" d="M 986 5280 
L 474 5280 
L 474 0 
L 986 0 
L 986 5280 
z
" transform="scale(0.015625)"/>
        <path id="Futura-Book-61" d="M 1734 2618 
C 2368 2618 2746 2131 2746 1530 
C 2746 922 2400 390 1741 390 
C 1101 390 755 947 755 1536 
C 755 2099 1139 2618 1734 2618 
z
M 3232 3008 
L 2720 3008 
L 2720 2579 
L 2707 2579 
C 2458 2899 2086 3091 1677 3091 
C 774 3091 230 2355 230 1498 
C 230 666 787 -83 1670 -83 
C 2093 -83 2445 83 2707 416 
L 2720 416 
L 2720 0 
L 3232 0 
L 3232 3008 
z
" transform="scale(0.015625)"/>
        <path id="Futura-Book-74" d="M 1024 2534 
L 1562 2534 
L 1562 3008 
L 1024 3008 
L 1024 4090 
L 512 4090 
L 512 3008 
L 198 3008 
L 198 2534 
L 512 2534 
L 512 0 
L 1024 0 
L 1024 2534 
z
" transform="scale(0.015625)"/>
       </defs>
       <use xlink:href="#Futura-Book-68"/>
       <use xlink:href="#Futura-Book-65" x="52.799988"/>
       <use xlink:href="#Futura-Book-70" x="104.699982"/>
       <use xlink:href="#Futura-Book-2d" x="162.399979"/>
       <use xlink:href="#Futura-Book-6c" x="183.199966"/>
       <use xlink:href="#Futura-Book-61" x="205.899963"/>
       <use xlink:href="#Futura-Book-74" x="263.59996"/>
      </g>
     </g>
    </g>
    <g id="xtick_2">
     <g id="line2d_2">
      <g>
       <use xlink:href="#m372562e6a6" x="314.769397" y="302.2" style="fill: #ffffff; stroke: #ffffff; stroke-width: 0.8"/>
      </g>
     </g>
     <g id="text_2">
      <!-- Crosslist -->
      <g style="fill: #ffffff" transform="translate(289.98721 320.75)scale(0.14 -0.14)">
       <defs>
        <path id="Futura-Book-43" d="M 4166 4435 
C 3738 4755 3264 4909 2726 4909 
C 1344 4909 211 3776 211 2394 
C 211 1024 1363 -83 2726 -83 
C 3238 -83 3750 90 4166 390 
L 4166 1056 
C 3782 672 3251 416 2707 416 
C 1626 416 749 1350 749 2413 
C 749 3475 1619 4410 2694 4410 
C 3251 4410 3782 4166 4166 3770 
L 4166 4435 
z
" transform="scale(0.015625)"/>
        <path id="Futura-Book-72" d="M 973 3008 
L 461 3008 
L 461 0 
L 973 0 
L 973 1504 
C 973 1894 998 2618 1562 2618 
C 1696 2618 1766 2554 1869 2483 
L 2112 2950 
C 1965 3034 1824 3091 1651 3091 
C 1318 3091 1165 2918 986 2682 
L 973 2682 
L 973 3008 
z
" transform="scale(0.015625)"/>
        <path id="Futura-Book-6f" d="M 1798 -83 
C 2675 -83 3379 614 3379 1498 
C 3379 2381 2682 3091 1798 3091 
C 915 3091 218 2381 218 1498 
C 218 614 922 -83 1798 -83 
z
M 1798 2618 
C 2432 2618 2867 2112 2867 1504 
C 2867 890 2432 390 1798 390 
C 1165 390 730 890 730 1504 
C 730 2112 1165 2618 1798 2618 
z
" transform="scale(0.015625)"/>
        <path id="Futura-Book-73" d="M 2131 2534 
C 1997 2848 1677 3091 1331 3091 
C 845 3091 435 2746 435 2240 
C 435 1293 1792 1523 1792 851 
C 1792 576 1581 390 1306 390 
C 966 390 819 589 691 870 
L 237 678 
C 397 205 794 -83 1299 -83 
C 1856 -83 2317 326 2317 896 
C 2317 1402 1971 1613 1619 1760 
C 1267 1907 922 2010 922 2285 
C 922 2477 1114 2618 1293 2618 
C 1478 2618 1632 2470 1702 2310 
L 2131 2534 
z
" transform="scale(0.015625)"/>
        <path id="Futura-Book-69" d="M 1094 3008 
L 582 3008 
L 582 0 
L 1094 0 
L 1094 3008 
z
M 838 4506 
C 640 4506 474 4339 474 4141 
C 474 3936 640 3776 838 3776 
C 1037 3776 1203 3936 1203 4141 
C 1203 4339 1037 4506 838 4506 
z
" transform="scale(0.015625)"/>
       </defs>
       <use xlink:href="#Futura-Book-43"/>
       <use xlink:href="#Futura-Book-72" x="71.699982"/>
       <use xlink:href="#Futura-Book-6f" x="105.199966"/>
       <use xlink:href="#Futura-Book-73" x="161.399963"/>
       <use xlink:href="#Futura-Book-73" x="201.299957"/>
       <use xlink:href="#Futura-Book-6c" x="241.199951"/>
       <use xlink:href="#Futura-Book-69" x="263.899948"/>
       <use xlink:href="#Futura-Book-73" x="290.099945"/>
       <use xlink:href="#Futura-Book-74" x="329.999939"/>
      </g>
     </g>
    </g>
    <g id="text_3">
     <!-- Is crosslist -->
     <g style="fill: #ffffff" transform="translate(209.515461 339.996875)scale(0.14 -0.14)">
      <defs>
       <path id="Futura-Book-49" d="M 1037 4826 
L 499 4826 
L 499 0 
L 1037 0 
L 1037 4826 
z
" transform="scale(0.015625)"/>
       <path id="Futura-Book-20" transform="scale(0.015625)"/>
       <path id="Futura-Book-63" d="M 2720 2790 
C 2451 2982 2118 3091 1792 3091 
C 909 3091 186 2400 186 1504 
C 186 595 877 -83 1786 -83 
C 2144 -83 2445 26 2739 224 
L 2739 909 
L 2726 909 
C 2477 582 2176 390 1747 390 
C 1120 390 710 909 710 1504 
C 710 2106 1152 2618 1773 2618 
C 2176 2618 2470 2413 2707 2112 
L 2720 2112 
L 2720 2790 
z
" transform="scale(0.015625)"/>
      </defs>
      <use xlink:href="#Futura-Book-49"/>
      <use xlink:href="#Futura-Book-73" x="23.899994"/>
      <use xlink:href="#Futura-Book-20" x="63.799988"/>
      <use xlink:href="#Futura-Book-63" x="94.599976"/>
      <use xlink:href="#Futura-Book-72" x="142.199966"/>
      <use xlink:href="#Futura-Book-6f" x="175.699951"/>
      <use xlink:href="#Futura-Book-73" x="231.899948"/>
      <use xlink:href="#Futura-Book-73" x="271.799942"/>
      <use xlink:href="#Futura-Book-6c" x="311.699936"/>
      <use xlink:href="#Futura-Book-69" x="334.399933"/>
      <use xlink:href="#Futura-Book-73" x="360.59993"/>
      <use xlink:href="#Futura-Book-74" x="400.499924"/>
     </g>
    </g>
   </g>
   <g id="matplotlib.axis_2">
    <g id="ytick_1">
     <g id="line2d_3">
      <defs>
       <path id="md81c1f5f0e" d="M 0 0 
L -3.5 0 
" style="stroke: #ffffff; stroke-width: 0.8"/>
      </defs>
      <g>
       <use xlink:href="#md81c1f5f0e" x="88.15915" y="302.2" style="fill: #ffffff; stroke: #ffffff; stroke-width: 0.8"/>
      </g>
     </g>
     <g id="text_4">
      <!-- 0 -->
      <g style="fill: #ffffff" transform="translate(72.536025 307.975)scale(0.14 -0.14)">
       <defs>
        <path id="Futura-Book-30" d="M 1971 4909 
C 749 4909 243 3398 243 2406 
C 243 1216 870 -83 1971 -83 
C 3072 -83 3699 1216 3699 2406 
C 3699 3398 3194 4909 1971 4909 
z
M 1971 4410 
C 2880 4410 3174 3066 3162 2381 
C 3149 1702 2861 416 1971 416 
C 1082 416 794 1702 781 2381 
C 768 3066 1062 4410 1971 4410 
z
" transform="scale(0.015625)"/>
       </defs>
       <use xlink:href="#Futura-Book-30"/>
      </g>
     </g>
    </g>
    <g id="ytick_2">
     <g id="line2d_4">
      <g>
       <use xlink:href="#md81c1f5f0e" x="88.15915" y="249.299567" style="fill: #ffffff; stroke: #ffffff; stroke-width: 0.8"/>
      </g>
     </g>
     <g id="text_5">
      <!-- 100 -->
      <g style="fill: #ffffff" transform="translate(55.289775 255.074567)scale(0.14 -0.14)">
       <defs>
        <path id="Futura-Book-31" d="M 1811 4326 
L 1811 0 
L 2349 0 
L 2349 4826 
L 1293 4826 
L 1011 4326 
L 1811 4326 
z
" transform="scale(0.015625)"/>
       </defs>
       <use xlink:href="#Futura-Book-31"/>
       <use xlink:href="#Futura-Book-30" x="61.599991"/>
       <use xlink:href="#Futura-Book-30" x="123.199982"/>
      </g>
     </g>
    </g>
    <g id="ytick_3">
     <g id="line2d_5">
      <g>
       <use xlink:href="#md81c1f5f0e" x="88.15915" y="196.399134" style="fill: #ffffff; stroke: #ffffff; stroke-width: 0.8"/>
      </g>
     </g>
     <g id="text_6">
      <!-- 200 -->
      <g style="fill: #ffffff" transform="translate(55.289775 202.174134)scale(0.14 -0.14)">
       <defs>
        <path id="Futura-Book-32" d="M 1350 499 
L 3021 2464 
C 3270 2752 3386 3091 3386 3482 
C 3386 4320 2675 4909 1869 4909 
C 1018 4909 397 4262 378 3418 
L 915 3418 
C 928 3981 1306 4410 1888 4410 
C 2413 4410 2848 4013 2848 3475 
C 2848 3162 2714 2899 2522 2669 
L 262 0 
L 3386 0 
L 3386 499 
L 1350 499 
z
" transform="scale(0.015625)"/>
       </defs>
       <use xlink:href="#Futura-Book-32"/>
       <use xlink:href="#Futura-Book-30" x="61.599991"/>
       <use xlink:href="#Futura-Book-30" x="123.199982"/>
      </g>
     </g>
    </g>
    <g id="ytick_4">
     <g id="line2d_6">
      <g>
       <use xlink:href="#md81c1f5f0e" x="88.15915" y="143.498701" style="fill: #ffffff; stroke: #ffffff; stroke-width: 0.8"/>
      </g>
     </g>
     <g id="text_7">
      <!-- 300 -->
      <g style="fill: #ffffff" transform="translate(55.289775 149.273701)scale(0.14 -0.14)">
       <defs>
        <path id="Futura-Book-33" d="M 1734 2285 
C 2323 2304 2758 1997 2758 1382 
C 2758 851 2355 416 1818 416 
C 1331 416 915 762 890 1254 
L 365 1254 
C 378 448 1018 -83 1798 -83 
C 2624 -83 3296 506 3296 1350 
C 3296 1843 3072 2323 2605 2534 
C 2995 2733 3226 3162 3226 3590 
C 3226 4384 2630 4909 1856 4909 
C 1062 4909 595 4403 518 3635 
L 1050 3635 
C 1094 4090 1363 4410 1843 4410 
C 2349 4410 2688 4077 2688 3565 
C 2688 2957 2246 2803 1734 2784 
L 1734 2285 
z
" transform="scale(0.015625)"/>
       </defs>
       <use xlink:href="#Futura-Book-33"/>
       <use xlink:href="#Futura-Book-30" x="61.599991"/>
       <use xlink:href="#Futura-Book-30" x="123.199982"/>
      </g>
     </g>
    </g>
    <g id="ytick_5">
     <g id="line2d_7">
      <g>
       <use xlink:href="#md81c1f5f0e" x="88.15915" y="90.598268" style="fill: #ffffff; stroke: #ffffff; stroke-width: 0.8"/>
      </g>
     </g>
     <g id="text_8">
      <!-- 400 -->
      <g style="fill: #ffffff" transform="translate(55.289775 96.373268)scale(0.14 -0.14)">
       <defs>
        <path id="Futura-Book-34" d="M 3046 1280 
L 3046 5094 
L 3034 5094 
L 38 781 
L 2509 781 
L 2509 0 
L 3046 0 
L 3046 781 
L 3642 781 
L 3642 1280 
L 3046 1280 
z
M 2509 1280 
L 979 1280 
L 2496 3462 
L 2509 3462 
L 2509 1280 
z
" transform="scale(0.015625)"/>
       </defs>
       <use xlink:href="#Futura-Book-34"/>
       <use xlink:href="#Futura-Book-30" x="61.599991"/>
       <use xlink:href="#Futura-Book-30" x="123.199982"/>
      </g>
     </g>
    </g>
    <g id="ytick_6">
     <g id="line2d_8">
      <g>
       <use xlink:href="#md81c1f5f0e" x="88.15915" y="37.697835" style="fill: #ffffff; stroke: #ffffff; stroke-width: 0.8"/>
      </g>
     </g>
     <g id="text_9">
      <!-- 500 -->
      <g style="fill: #ffffff" transform="translate(55.289775 43.472835)scale(0.14 -0.14)">
       <defs>
        <path id="Futura-Book-35" d="M 3347 4326 
L 3347 4826 
L 1427 4826 
L 730 2515 
C 1005 2694 1312 2822 1645 2822 
C 2317 2822 2848 2336 2848 1651 
C 2848 947 2342 416 1632 416 
C 1171 416 781 698 563 1088 
L 134 781 
C 454 237 979 -83 1613 -83 
C 2598 -83 3386 640 3386 1638 
C 3386 2573 2733 3322 1779 3322 
L 1491 3296 
L 1805 4326 
L 3347 4326 
z
" transform="scale(0.015625)"/>
       </defs>
       <use xlink:href="#Futura-Book-35"/>
       <use xlink:href="#Futura-Book-30" x="61.599991"/>
       <use xlink:href="#Futura-Book-30" x="123.199982"/>
      </g>
     </g>
    </g>
    <g id="text_10">
     <!-- count -->
     <g style="fill: #ffffff" transform="translate(47.5929 184.005781)rotate(-90)scale(0.14 -0.14)">
      <defs>
       <path id="Futura-Book-75" d="M 960 3008 
L 448 3008 
L 448 1274 
C 448 474 749 -83 1638 -83 
C 2528 -83 2829 474 2829 1274 
L 2829 3008 
L 2317 3008 
L 2317 1331 
C 2317 826 2259 390 1638 390 
C 1018 390 960 826 960 1331 
L 960 3008 
z
" transform="scale(0.015625)"/>
       <path id="Futura-Book-6e" d="M 998 3008 
L 486 3008 
L 486 0 
L 998 0 
L 998 1427 
C 998 1965 1043 2618 1747 2618 
C 2342 2618 2381 2182 2381 1696 
L 2381 0 
L 2893 0 
L 2893 1786 
C 2893 2490 2701 3091 1869 3091 
C 1498 3091 1222 2931 1011 2643 
L 998 2643 
L 998 3008 
z
" transform="scale(0.015625)"/>
      </defs>
      <use xlink:href="#Futura-Book-63"/>
      <use xlink:href="#Futura-Book-6f" x="47.599991"/>
      <use xlink:href="#Futura-Book-75" x="103.799988"/>
      <use xlink:href="#Futura-Book-6e" x="154.999985"/>
      <use xlink:href="#Futura-Book-74" x="207.799973"/>
     </g>
    </g>
   </g>
   <g id="patch_9">
    <path d="M 88.15915 302.2 
L 88.15915 33.36 
" style="fill: none; stroke: #ffffff; stroke-width: 0.8; stroke-linejoin: miter; stroke-linecap: square"/>
   </g>
   <g id="patch_10">
    <path d="M 88.15915 302.2 
L 390.306146 302.2 
" style="fill: none; stroke: #ffffff; stroke-width: 0.8; stroke-linejoin: miter; stroke-linecap: square"/>
   </g>
   <g id="text_11">
    <!-- Out of 890 -->
    <g style="fill: #ffffff" transform="translate(321.511459 46.802)scale(0.14 -0.14)">
     <defs>
      <path id="Futura-Book-4f" d="M 2758 4909 
C 1382 4909 243 3789 243 2406 
C 243 1018 1382 -83 2758 -83 
C 4134 -83 5274 1018 5274 2406 
C 5274 3789 4134 4909 2758 4909 
z
M 2758 4410 
C 3866 4410 4736 3507 4736 2413 
C 4736 1325 3853 416 2758 416 
C 1664 416 781 1325 781 2413 
C 781 3507 1651 4410 2758 4410 
z
" transform="scale(0.015625)"/>
      <path id="Futura-Book-66" d="M 1043 2534 
L 1805 2534 
L 1805 3008 
L 1043 3008 
L 1043 4026 
C 1043 4557 1043 4851 1459 4851 
C 1587 4851 1690 4819 1805 4781 
L 1805 5299 
C 1683 5338 1562 5363 1440 5363 
C 1133 5363 832 5254 666 4986 
C 531 4768 531 4454 531 4205 
L 531 3008 
L 250 3008 
L 250 2534 
L 531 2534 
L 531 0 
L 1043 0 
L 1043 2534 
z
" transform="scale(0.015625)"/>
      <path id="Futura-Book-38" d="M 1971 2272 
C 2496 2272 2906 1856 2906 1344 
C 2906 832 2496 416 1971 416 
C 1446 416 1037 832 1037 1344 
C 1037 1856 1446 2272 1971 2272 
z
M 1971 4909 
C 1216 4909 621 4339 621 3565 
C 621 3142 838 2720 1210 2509 
C 755 2304 499 1843 499 1350 
C 499 518 1139 -83 1971 -83 
C 2803 -83 3443 518 3443 1350 
C 3443 1843 3187 2304 2733 2509 
C 3104 2720 3322 3142 3322 3565 
C 3322 4339 2726 4909 1971 4909 
z
M 1971 4410 
C 2432 4410 2810 4038 2810 3578 
C 2810 3110 2432 2733 1971 2733 
C 1510 2733 1133 3110 1133 3578 
C 1133 4038 1510 4410 1971 4410 
z
" transform="scale(0.015625)"/>
      <path id="Futura-Book-39" d="M 1568 -83 
L 3168 2106 
C 3418 2451 3616 2829 3616 3264 
C 3616 4179 2861 4909 1952 4909 
C 1043 4909 288 4179 288 3264 
C 288 2387 966 1670 1850 1670 
C 1997 1670 2138 1696 2266 1734 
L 2278 1722 
L 1165 192 
L 1568 -83 
z
M 1952 4410 
C 2573 4410 3078 3904 3078 3283 
C 3078 2656 2573 2170 1952 2170 
C 1325 2170 826 2656 826 3283 
C 826 3904 1325 4410 1952 4410 
z
" transform="scale(0.015625)"/>
     </defs>
     <use xlink:href="#Futura-Book-4f"/>
     <use xlink:href="#Futura-Book-75" x="86.199982"/>
     <use xlink:href="#Futura-Book-74" x="137.399979"/>
     <use xlink:href="#Futura-Book-20" x="161.399963"/>
     <use xlink:href="#Futura-Book-6f" x="192.199951"/>
     <use xlink:href="#Futura-Book-66" x="248.399948"/>
     <use xlink:href="#Futura-Book-20" x="275.799942"/>
     <use xlink:href="#Futura-Book-38" x="306.59993"/>
     <use xlink:href="#Futura-Book-39" x="368.199921"/>
     <use xlink:href="#Futura-Book-30" x="429.799911"/>
    </g>
   </g>
   <g id="text_12">
    <!-- All non-UK -->
    <g style="fill: #ffffff" transform="translate(207.151867 27.36)scale(0.14 -0.14)">
     <defs>
      <path id="Futura-Book-41" d="M 3270 1370 
L 3840 0 
L 4435 0 
L 2266 5056 
L 38 0 
L 627 0 
L 1210 1370 
L 3270 1370 
z
M 3059 1869 
L 1427 1869 
L 2253 3802 
L 3059 1869 
z
" transform="scale(0.015625)"/>
      <path id="Futura-Book-55" d="M 1011 4826 
L 474 4826 
L 474 1805 
C 474 1254 525 813 947 410 
C 1274 90 1741 -83 2195 -83 
C 2682 -83 3162 109 3494 467 
C 3878 864 3917 1280 3917 1805 
L 3917 4826 
L 3379 4826 
L 3379 1952 
C 3379 1574 3398 1152 3142 845 
C 2918 576 2541 416 2195 416 
C 1843 416 1434 582 1222 877 
C 998 1184 1011 1594 1011 1952 
L 1011 4826 
z
" transform="scale(0.015625)"/>
      <path id="Futura-Book-4b" d="M 1024 2758 
L 1024 4826 
L 486 4826 
L 486 0 
L 1024 0 
L 1024 2080 
L 1158 2214 
L 3136 0 
L 3878 0 
L 1536 2579 
L 3802 4826 
L 3078 4826 
L 1024 2758 
z
" transform="scale(0.015625)"/>
     </defs>
     <use xlink:href="#Futura-Book-41"/>
     <use xlink:href="#Futura-Book-6c" x="69.899994"/>
     <use xlink:href="#Futura-Book-6c" x="92.599991"/>
     <use xlink:href="#Futura-Book-20" x="115.299988"/>
     <use xlink:href="#Futura-Book-6e" x="146.099976"/>
     <use xlink:href="#Futura-Book-6f" x="198.899963"/>
     <use xlink:href="#Futura-Book-6e" x="255.09996"/>
     <use xlink:href="#Futura-Book-2d" x="307.899948"/>
     <use xlink:href="#Futura-Book-55" x="328.699936"/>
     <use xlink:href="#Futura-Book-4b" x="397.199921"/>
    </g>
   </g>
  </g>
  <g id="axes_2">
   <g id="patch_11">
    <path d="M 408.502004 302.2 
L 710.649 302.2 
L 710.649 33.36 
L 408.502004 33.36 
L 408.502004 302.2 
z
" style="fill: none"/>
   </g>
   <g id="patch_12">
    <path d="M 423.609353 302.2 
L 463.89562 302.2 
L 463.89562 257.234632 
L 423.609353 257.234632 
z
" clip-path="url(#pc67dfe8f10)" style="fill: #96cac1"/>
   </g>
   <g id="patch_13">
    <path d="M 574.682852 302.2 
L 614.969118 302.2 
L 614.969118 285.800866 
L 574.682852 285.800866 
z
" clip-path="url(#pc67dfe8f10)" style="fill: #96cac1"/>
   </g>
   <g id="patch_14">
    <path d="M 0 0 
z
" clip-path="url(#pc67dfe8f10)" style="fill: #f5f6bc"/>
   </g>
   <g id="patch_15">
    <path d="M 0 0 
z
" clip-path="url(#pc67dfe8f10)" style="fill: #f5f6bc"/>
   </g>
   <g id="patch_16">
    <path d="M 504.181886 302.2 
L 544.468152 302.2 
L 544.468152 299.025974 
L 504.181886 299.025974 
z
" clip-path="url(#pc67dfe8f10)" style="fill: #c2bfd5"/>
   </g>
   <g id="patch_17">
    <path d="M 655.255384 302.2 
L 695.54165 302.2 
L 695.54165 301.670996 
L 655.255384 301.670996 
z
" clip-path="url(#pc67dfe8f10)" style="fill: #c2bfd5"/>
   </g>
   <g id="matplotlib.axis_3">
    <g id="xtick_3">
     <g id="line2d_9">
      <g>
       <use xlink:href="#m372562e6a6" x="484.038753" y="302.2" style="fill: #ffffff; stroke: #ffffff; stroke-width: 0.8"/>
      </g>
     </g>
     <g id="text_13">
      <!-- hep-lat -->
      <g style="fill: #ffffff" transform="translate(463.906096 320.75)scale(0.14 -0.14)">
       <use xlink:href="#Futura-Book-68"/>
       <use xlink:href="#Futura-Book-65" x="52.799988"/>
       <use xlink:href="#Futura-Book-70" x="104.699982"/>
       <use xlink:href="#Futura-Book-2d" x="162.399979"/>
       <use xlink:href="#Futura-Book-6c" x="183.199966"/>
       <use xlink:href="#Futura-Book-61" x="205.899963"/>
       <use xlink:href="#Futura-Book-74" x="263.59996"/>
      </g>
     </g>
    </g>
    <g id="xtick_4">
     <g id="line2d_10">
      <g>
       <use xlink:href="#m372562e6a6" x="635.112251" y="302.2" style="fill: #ffffff; stroke: #ffffff; stroke-width: 0.8"/>
      </g>
     </g>
     <g id="text_14">
      <!-- Crosslist -->
      <g style="fill: #ffffff" transform="translate(610.330063 320.75)scale(0.14 -0.14)">
       <use xlink:href="#Futura-Book-43"/>
       <use xlink:href="#Futura-Book-72" x="71.699982"/>
       <use xlink:href="#Futura-Book-6f" x="105.199966"/>
       <use xlink:href="#Futura-Book-73" x="161.399963"/>
       <use xlink:href="#Futura-Book-73" x="201.299957"/>
       <use xlink:href="#Futura-Book-6c" x="241.199951"/>
       <use xlink:href="#Futura-Book-69" x="263.899948"/>
       <use xlink:href="#Futura-Book-73" x="290.099945"/>
       <use xlink:href="#Futura-Book-74" x="329.999939"/>
      </g>
     </g>
    </g>
    <g id="text_15">
     <!-- Is crosslist -->
     <g style="fill: #ffffff" transform="translate(529.858314 339.996875)scale(0.14 -0.14)">
      <use xlink:href="#Futura-Book-49"/>
      <use xlink:href="#Futura-Book-73" x="23.899994"/>
      <use xlink:href="#Futura-Book-20" x="63.799988"/>
      <use xlink:href="#Futura-Book-63" x="94.599976"/>
      <use xlink:href="#Futura-Book-72" x="142.199966"/>
      <use xlink:href="#Futura-Book-6f" x="175.699951"/>
      <use xlink:href="#Futura-Book-73" x="231.899948"/>
      <use xlink:href="#Futura-Book-73" x="271.799942"/>
      <use xlink:href="#Futura-Book-6c" x="311.699936"/>
      <use xlink:href="#Futura-Book-69" x="334.399933"/>
      <use xlink:href="#Futura-Book-73" x="360.59993"/>
      <use xlink:href="#Futura-Book-74" x="400.499924"/>
     </g>
    </g>
   </g>
   <g id="matplotlib.axis_4">
    <g id="ytick_7">
     <g id="line2d_11">
      <g>
       <use xlink:href="#md81c1f5f0e" x="408.502004" y="302.2" style="fill: #ffffff; stroke: #ffffff; stroke-width: 0.8"/>
      </g>
     </g>
    </g>
    <g id="ytick_8">
     <g id="line2d_12">
      <g>
       <use xlink:href="#md81c1f5f0e" x="408.502004" y="249.299567" style="fill: #ffffff; stroke: #ffffff; stroke-width: 0.8"/>
      </g>
     </g>
    </g>
    <g id="ytick_9">
     <g id="line2d_13">
      <g>
       <use xlink:href="#md81c1f5f0e" x="408.502004" y="196.399134" style="fill: #ffffff; stroke: #ffffff; stroke-width: 0.8"/>
      </g>
     </g>
    </g>
    <g id="ytick_10">
     <g id="line2d_14">
      <g>
       <use xlink:href="#md81c1f5f0e" x="408.502004" y="143.498701" style="fill: #ffffff; stroke: #ffffff; stroke-width: 0.8"/>
      </g>
     </g>
    </g>
    <g id="ytick_11">
     <g id="line2d_15">
      <g>
       <use xlink:href="#md81c1f5f0e" x="408.502004" y="90.598268" style="fill: #ffffff; stroke: #ffffff; stroke-width: 0.8"/>
      </g>
     </g>
    </g>
    <g id="ytick_12">
     <g id="line2d_16">
      <g>
       <use xlink:href="#md81c1f5f0e" x="408.502004" y="37.697835" style="fill: #ffffff; stroke: #ffffff; stroke-width: 0.8"/>
      </g>
     </g>
    </g>
   </g>
   <g id="patch_18">
    <path d="M 408.502004 302.2 
L 408.502004 33.36 
" style="fill: none; stroke: #ffffff; stroke-width: 0.8; stroke-linejoin: miter; stroke-linecap: square"/>
   </g>
   <g id="patch_19">
    <path d="M 408.502004 302.2 
L 710.649 302.2 
" style="fill: none; stroke: #ffffff; stroke-width: 0.8; stroke-linejoin: miter; stroke-linecap: square"/>
   </g>
   <g id="text_16">
    <!-- Out of 123 -->
    <g style="fill: #ffffff" transform="translate(641.854312 46.802)scale(0.14 -0.14)">
     <use xlink:href="#Futura-Book-4f"/>
     <use xlink:href="#Futura-Book-75" x="86.199982"/>
     <use xlink:href="#Futura-Book-74" x="137.399979"/>
     <use xlink:href="#Futura-Book-20" x="161.399963"/>
     <use xlink:href="#Futura-Book-6f" x="192.199951"/>
     <use xlink:href="#Futura-Book-66" x="248.399948"/>
     <use xlink:href="#Futura-Book-20" x="275.799942"/>
     <use xlink:href="#Futura-Book-31" x="306.59993"/>
     <use xlink:href="#Futura-Book-32" x="368.199921"/>
     <use xlink:href="#Futura-Book-33" x="429.799911"/>
    </g>
   </g>
   <g id="text_17">
    <!-- UK author(s) -->
    <g style="fill: #ffffff" transform="translate(522.257846 27.36)scale(0.14 -0.14)">
     <defs>
      <path id="Futura-Book-28" d="M 1178 5043 
C 730 4090 595 2790 595 1754 
C 595 717 730 -582 1178 -1536 
L 1632 -1318 
C 1267 -352 1120 704 1120 1754 
C 1120 2803 1267 3859 1632 4826 
L 1178 5043 
z
" transform="scale(0.015625)"/>
      <path id="Futura-Book-29" d="M 205 4826 
C 570 3859 717 2803 717 1754 
C 717 704 570 -352 205 -1318 
L 659 -1536 
C 1107 -582 1242 717 1242 1754 
C 1242 2790 1107 4090 659 5043 
L 205 4826 
z
" transform="scale(0.015625)"/>
     </defs>
     <use xlink:href="#Futura-Book-55"/>
     <use xlink:href="#Futura-Book-4b" x="68.499985"/>
     <use xlink:href="#Futura-Book-20" x="129.599976"/>
     <use xlink:href="#Futura-Book-61" x="160.399963"/>
     <use xlink:href="#Futura-Book-75" x="218.09996"/>
     <use xlink:href="#Futura-Book-74" x="269.299957"/>
     <use xlink:href="#Futura-Book-68" x="293.299942"/>
     <use xlink:href="#Futura-Book-6f" x="346.09993"/>
     <use xlink:href="#Futura-Book-72" x="402.299927"/>
     <use xlink:href="#Futura-Book-28" x="435.799911"/>
     <use xlink:href="#Futura-Book-73" x="464.499908"/>
     <use xlink:href="#Futura-Book-29" x="504.399902"/>
    </g>
   </g>
  </g>
  <g id="legend_1">
   <g id="text_18">
    <!-- Data published -->
    <g style="fill: #ffffff" transform="translate(774.969531 150.55625)scale(0.14 -0.14)">
     <defs>
      <path id="Futura-Book-44" d="M 486 0 
L 1382 0 
C 2138 0 2714 96 3290 608 
C 3821 1082 4077 1702 4077 2406 
C 4077 3123 3827 3770 3277 4243 
C 2707 4730 2118 4826 1395 4826 
L 486 4826 
L 486 0 
z
M 1024 499 
L 1024 4326 
L 1414 4326 
C 1984 4326 2470 4250 2912 3859 
C 3328 3494 3539 2963 3539 2413 
C 3539 1875 3334 1370 2938 998 
C 2496 582 2003 499 1414 499 
L 1024 499 
z
" transform="scale(0.015625)"/>
      <path id="Futura-Book-62" d="M 1926 2618 
C 2560 2618 2938 2131 2938 1530 
C 2938 922 2592 390 1933 390 
C 1293 390 947 947 947 1536 
C 947 2099 1331 2618 1926 2618 
z
M 461 0 
L 973 0 
L 973 416 
L 986 416 
C 1229 90 1606 -83 2022 -83 
C 2906 -83 3462 666 3462 1504 
C 3462 2355 2912 3091 2016 3091 
C 1606 3091 1229 2899 986 2579 
L 973 2579 
L 973 5280 
L 461 5280 
L 461 0 
z
" transform="scale(0.015625)"/>
      <path id="Futura-Book-64" d="M 1734 2618 
C 2368 2618 2746 2131 2746 1530 
C 2746 922 2400 390 1741 390 
C 1101 390 755 947 755 1536 
C 755 2099 1139 2618 1734 2618 
z
M 2720 0 
L 3232 0 
L 3232 5280 
L 2720 5280 
L 2720 2579 
L 2707 2579 
C 2464 2899 2080 3091 1677 3091 
C 774 3091 230 2355 230 1498 
C 230 666 787 -83 1670 -83 
C 2080 -83 2458 90 2707 416 
L 2720 416 
L 2720 0 
z
" transform="scale(0.015625)"/>
     </defs>
     <use xlink:href="#Futura-Book-44"/>
     <use xlink:href="#Futura-Book-61" x="67.799988"/>
     <use xlink:href="#Futura-Book-74" x="125.499985"/>
     <use xlink:href="#Futura-Book-61" x="149.499969"/>
     <use xlink:href="#Futura-Book-20" x="207.199966"/>
     <use xlink:href="#Futura-Book-70" x="237.999954"/>
     <use xlink:href="#Futura-Book-75" x="295.699951"/>
     <use xlink:href="#Futura-Book-62" x="346.899948"/>
     <use xlink:href="#Futura-Book-6c" x="404.599945"/>
     <use xlink:href="#Futura-Book-69" x="427.299942"/>
     <use xlink:href="#Futura-Book-73" x="453.499939"/>
     <use xlink:href="#Futura-Book-68" x="493.399933"/>
     <use xlink:href="#Futura-Book-65" x="546.199921"/>
     <use xlink:href="#Futura-Book-64" x="598.099915"/>
    </g>
   </g>
   <g id="patch_20">
    <path d="M 719.255 172.803125 
L 747.255 172.803125 
L 747.255 163.003125 
L 719.255 163.003125 
z
" style="fill: #96cac1"/>
   </g>
   <g id="text_19">
    <!-- None -->
    <g style="fill: #ffffff" transform="translate(758.455 172.803125)scale(0.14 -0.14)">
     <defs>
      <path id="Futura-Book-4e" d="M 518 0 
L 1056 0 
L 1056 3718 
L 4819 -218 
L 4819 4826 
L 4282 4826 
L 4282 1088 
L 518 5030 
L 518 0 
z
" transform="scale(0.015625)"/>
     </defs>
     <use xlink:href="#Futura-Book-4e"/>
     <use xlink:href="#Futura-Book-6f" x="83.399994"/>
     <use xlink:href="#Futura-Book-6e" x="139.599991"/>
     <use xlink:href="#Futura-Book-65" x="192.399979"/>
    </g>
   </g>
   <g id="patch_21">
    <path d="M 719.255 195.05 
L 747.255 195.05 
L 747.255 185.25 
L 719.255 185.25 
z
" style="fill: #f5f6bc"/>
   </g>
   <g id="text_20">
    <!-- Data available on request -->
    <g style="fill: #ffffff" transform="translate(758.455 195.05)scale(0.14 -0.14)">
     <defs>
      <path id="Futura-Book-76" d="M 589 3008 
L 6 3008 
L 1485 -198 
L 2957 3008 
L 2381 3008 
L 1485 986 
L 589 3008 
z
" transform="scale(0.015625)"/>
      <path id="Futura-Book-71" d="M 1734 2618 
C 2368 2618 2746 2131 2746 1530 
C 2746 922 2400 390 1741 390 
C 1101 390 755 947 755 1536 
C 755 2099 1139 2618 1734 2618 
z
M 3232 3008 
L 2720 3008 
L 2720 2579 
L 2707 2579 
C 2458 2912 2080 3091 1670 3091 
C 781 3091 230 2330 230 1491 
C 230 640 774 -83 1677 -83 
C 2080 -83 2464 96 2707 422 
L 2720 422 
L 2720 -1690 
L 3232 -1690 
L 3232 3008 
z
" transform="scale(0.015625)"/>
     </defs>
     <use xlink:href="#Futura-Book-44"/>
     <use xlink:href="#Futura-Book-61" x="67.799988"/>
     <use xlink:href="#Futura-Book-74" x="125.499985"/>
     <use xlink:href="#Futura-Book-61" x="149.499969"/>
     <use xlink:href="#Futura-Book-20" x="207.199966"/>
     <use xlink:href="#Futura-Book-61" x="237.999954"/>
     <use xlink:href="#Futura-Book-76" x="295.699951"/>
     <use xlink:href="#Futura-Book-61" x="341.999939"/>
     <use xlink:href="#Futura-Book-69" x="399.699936"/>
     <use xlink:href="#Futura-Book-6c" x="425.899933"/>
     <use xlink:href="#Futura-Book-61" x="448.59993"/>
     <use xlink:href="#Futura-Book-62" x="506.299927"/>
     <use xlink:href="#Futura-Book-6c" x="563.999924"/>
     <use xlink:href="#Futura-Book-65" x="586.699921"/>
     <use xlink:href="#Futura-Book-20" x="638.599915"/>
     <use xlink:href="#Futura-Book-6f" x="669.399902"/>
     <use xlink:href="#Futura-Book-6e" x="725.599899"/>
     <use xlink:href="#Futura-Book-20" x="778.399887"/>
     <use xlink:href="#Futura-Book-72" x="809.199875"/>
     <use xlink:href="#Futura-Book-65" x="842.69986"/>
     <use xlink:href="#Futura-Book-71" x="894.599854"/>
     <use xlink:href="#Futura-Book-75" x="952.29985"/>
     <use xlink:href="#Futura-Book-65" x="1003.499847"/>
     <use xlink:href="#Futura-Book-73" x="1055.399841"/>
     <use xlink:href="#Futura-Book-74" x="1095.299835"/>
    </g>
   </g>
   <g id="patch_22">
    <path d="M 719.255 217.296875 
L 747.255 217.296875 
L 747.255 207.496875 
L 719.255 207.496875 
z
" style="fill: #c2bfd5"/>
   </g>
   <g id="text_21">
    <!-- Some or all data published -->
    <g style="fill: #ffffff" transform="translate(758.455 217.296875)scale(0.14 -0.14)">
     <defs>
      <path id="Futura-Book-53" d="M 3104 4160 
C 2848 4634 2394 4909 1856 4909 
C 1139 4909 506 4429 506 3680 
C 506 2989 992 2701 1555 2445 
L 1850 2317 
C 2298 2112 2739 1920 2739 1357 
C 2739 813 2266 416 1747 416 
C 1229 416 851 819 781 1312 
L 256 1165 
C 410 416 986 -83 1760 -83 
C 2598 -83 3277 563 3277 1408 
C 3277 2176 2746 2490 2118 2765 
L 1798 2906 
C 1472 3053 1043 3245 1043 3661 
C 1043 4102 1414 4410 1843 4410 
C 2253 4410 2483 4218 2675 3885 
L 3104 4160 
z
" transform="scale(0.015625)"/>
      <path id="Futura-Book-6d" d="M 998 3008 
L 486 3008 
L 486 0 
L 998 0 
L 998 1555 
C 998 2010 1062 2618 1664 2618 
C 2157 2618 2202 2080 2202 1709 
L 2202 0 
L 2714 0 
L 2714 1594 
C 2714 2048 2778 2618 3366 2618 
C 3891 2618 3917 2138 3917 1747 
L 3917 0 
L 4429 0 
L 4429 1830 
C 4429 2464 4237 3091 3469 3091 
C 3104 3091 2746 2925 2566 2592 
C 2406 2906 2086 3091 1734 3091 
C 1427 3091 1171 2931 1011 2682 
L 998 2682 
L 998 3008 
z
" transform="scale(0.015625)"/>
     </defs>
     <use xlink:href="#Futura-Book-53"/>
     <use xlink:href="#Futura-Book-6f" x="55.899994"/>
     <use xlink:href="#Futura-Book-6d" x="112.099991"/>
     <use xlink:href="#Futura-Book-65" x="188.899979"/>
     <use xlink:href="#Futura-Book-20" x="240.799973"/>
     <use xlink:href="#Futura-Book-6f" x="271.59996"/>
     <use xlink:href="#Futura-Book-72" x="327.799957"/>
     <use xlink:href="#Futura-Book-20" x="361.299942"/>
     <use xlink:href="#Futura-Book-61" x="392.09993"/>
     <use xlink:href="#Futura-Book-6c" x="449.799927"/>
     <use xlink:href="#Futura-Book-6c" x="472.499924"/>
     <use xlink:href="#Futura-Book-20" x="495.199921"/>
     <use xlink:href="#Futura-Book-64" x="525.999908"/>
     <use xlink:href="#Futura-Book-61" x="583.699905"/>
     <use xlink:href="#Futura-Book-74" x="641.399902"/>
     <use xlink:href="#Futura-Book-61" x="665.399887"/>
     <use xlink:href="#Futura-Book-20" x="723.099884"/>
     <use xlink:href="#Futura-Book-70" x="753.899872"/>
     <use xlink:href="#Futura-Book-75" x="811.599869"/>
     <use xlink:href="#Futura-Book-62" x="862.799866"/>
     <use xlink:href="#Futura-Book-6c" x="920.499863"/>
     <use xlink:href="#Futura-Book-69" x="943.19986"/>
     <use xlink:href="#Futura-Book-73" x="969.399857"/>
     <use xlink:href="#Futura-Book-68" x="1009.29985"/>
     <use xlink:href="#Futura-Book-65" x="1062.099838"/>
     <use xlink:href="#Futura-Book-64" x="1113.999832"/>
    </g>
   </g>
  </g>
 </g>
 <defs>
  <clipPath id="p94dba3e123">
   <rect x="88.15915" y="33.36" width="302.146996" height="268.84"/>
  </clipPath>
  <clipPath id="pc67dfe8f10">
   <rect x="408.502004" y="33.36" width="302.146996" height="268.84"/>
  </clipPath>
 </defs>
</svg>
