<?xml version="1.0" encoding="utf-8" standalone="no"?>
<!DOCTYPE svg PUBLIC "-//W3C//DTD SVG 1.1//EN"
  "http://www.w3.org/Graphics/SVG/1.1/DTD/svg11.dtd">
<svg xmlns:xlink="http://www.w3.org/1999/xlink" width="432pt" height="288pt" viewBox="0 0 432 288" xmlns="http://www.w3.org/2000/svg" version="1.1">
 <metadata>
  <rdf:RDF xmlns:dc="http://purl.org/dc/elements/1.1/" xmlns:cc="http://creativecommons.org/ns#" xmlns:rdf="http://www.w3.org/1999/02/22-rdf-syntax-ns#">
   <cc:Work>
    <dc:type rdf:resource="http://purl.org/dc/dcmitype/StillImage"/>
    <dc:date>2022-05-25T21:41:04.119333</dc:date>
    <dc:format>image/svg+xml</dc:format>
    <dc:creator>
     <cc:Agent>
      <dc:title>Matplotlib v3.5.1, https://matplotlib.org/</dc:title>
     </cc:Agent>
    </dc:creator>
   </cc:Work>
  </rdf:RDF>
 </metadata>
 <defs>
  <style type="text/css">*{stroke-linejoin: round; stroke-linecap: butt}</style>
 </defs>
 <g id="figure_1">
  <g id="patch_1">
   <path d="M 0 288 
L 432 288 
L 432 0 
L 0 0 
L 0 288 
z
" style="fill: none"/>
  </g>
  <g id="axes_1">
   <g id="patch_2">
    <path d="M 59.37 196.937089 
L 416.88 196.937089 
L 416.88 16.248 
L 59.37 16.248 
L 59.37 196.937089 
z
" style="fill: none"/>
   </g>
   <g id="patch_3">
    <path d="M 75.620455 196.937089 
L 102.151809 196.937089 
L 102.151809 24.852242 
L 75.620455 24.852242 
z
" clip-path="url(#pdd1b14c9dd)" style="fill: #8dd3c7"/>
   </g>
   <g id="patch_4">
    <path d="M 108.784647 196.937089 
L 135.316002 196.937089 
L 135.316002 24.852242 
L 108.784647 24.852242 
z
" clip-path="url(#pdd1b14c9dd)" style="fill: #8dd3c7"/>
   </g>
   <g id="patch_5">
    <path d="M 141.94884 196.937089 
L 168.480195 196.937089 
L 168.480195 55.739266 
L 141.94884 55.739266 
z
" clip-path="url(#pdd1b14c9dd)" style="fill: #8dd3c7"/>
   </g>
   <g id="patch_6">
    <path d="M 175.113033 196.937089 
L 201.644388 196.937089 
L 201.644388 60.151698 
L 175.113033 60.151698 
z
" clip-path="url(#pdd1b14c9dd)" style="fill: #8dd3c7"/>
   </g>
   <g id="patch_7">
    <path d="M 208.277226 196.937089 
L 234.808581 196.937089 
L 234.808581 135.163041 
L 208.277226 135.163041 
z
" clip-path="url(#pdd1b14c9dd)" style="fill: #8dd3c7"/>
   </g>
   <g id="patch_8">
    <path d="M 241.441419 196.937089 
L 267.972774 196.937089 
L 267.972774 157.225201 
L 241.441419 157.225201 
z
" clip-path="url(#pdd1b14c9dd)" style="fill: #8dd3c7"/>
   </g>
   <g id="patch_9">
    <path d="M 274.605612 196.937089 
L 301.136967 196.937089 
L 301.136967 166.050065 
L 274.605612 166.050065 
z
" clip-path="url(#pdd1b14c9dd)" style="fill: #8dd3c7"/>
   </g>
   <g id="patch_10">
    <path d="M 307.769805 196.937089 
L 334.30116 196.937089 
L 334.30116 170.462497 
L 307.769805 170.462497 
z
" clip-path="url(#pdd1b14c9dd)" style="fill: #8dd3c7"/>
   </g>
   <g id="patch_11">
    <path d="M 340.933998 196.937089 
L 367.465353 196.937089 
L 367.465353 170.462497 
L 340.933998 170.462497 
z
" clip-path="url(#pdd1b14c9dd)" style="fill: #8dd3c7"/>
   </g>
   <g id="patch_12">
    <path d="M 374.098191 196.937089 
L 400.629545 196.937089 
L 400.629545 174.874929 
L 374.098191 174.874929 
z
" clip-path="url(#pdd1b14c9dd)" style="fill: #8dd3c7"/>
   </g>
   <g id="matplotlib.axis_1">
    <g id="xtick_1">
     <g id="line2d_1">
      <defs>
       <path id="m5693d73aa8" d="M 0 0 
L 0 3.5 
" style="stroke: #ffffff; stroke-width: 0.8"/>
      </defs>
      <g>
       <use xlink:href="#m5693d73aa8" x="88.886132" y="196.937089" style="fill: #ffffff; stroke: #ffffff; stroke-width: 0.8"/>
      </g>
     </g>
     <g id="text_1">
      <!-- ETMC -->
      <g style="fill: #ffffff" transform="translate(59.497006 238.92871)rotate(-45)scale(0.14 -0.14)">
       <defs>
        <path id="Futura-Medium-45" d="M 3241 4141 
L 1306 4141 
L 1306 2981 
L 3184 2981 
L 3184 2297 
L 1306 2297 
L 1306 684 
L 3241 684 
L 3241 0 
L 578 0 
L 578 4825 
L 3241 4825 
L 3241 4141 
z
" transform="scale(0.015625)"/>
        <path id="Futura-Medium-54" d="M 1909 4141 
L 1909 0 
L 1181 0 
L 1181 4141 
L 72 4141 
L 72 4825 
L 3016 4825 
L 3016 4141 
L 1909 4141 
z
" transform="scale(0.015625)"/>
        <path id="Futura-Medium-4d" d="M 409 0 
L 1425 5188 
L 3081 1438 
L 4797 5188 
L 5709 0 
L 4963 0 
L 4497 2913 
L 3069 -222 
L 1681 2916 
L 1163 0 
L 409 0 
z
" transform="scale(0.015625)"/>
        <path id="Futura-Medium-43" d="M 4144 4566 
L 4144 3703 
Q 3513 4231 2838 4231 
Q 2094 4231 1584 3697 
Q 1072 3166 1072 2397 
Q 1072 1638 1584 1116 
Q 2097 594 2841 594 
Q 3225 594 3494 719 
Q 3644 781 3805 887 
Q 3966 994 4144 1144 
L 4144 266 
Q 3519 -88 2831 -88 
Q 1797 -88 1066 634 
Q 338 1363 338 2391 
Q 338 3313 947 4034 
Q 1697 4919 2888 4919 
Q 3538 4919 4144 4566 
z
" transform="scale(0.015625)"/>
       </defs>
       <use xlink:href="#Futura-Medium-45"/>
       <use xlink:href="#Futura-Medium-54" x="56.542969"/>
       <use xlink:href="#Futura-Medium-4d" x="104.785156"/>
       <use xlink:href="#Futura-Medium-43" x="200.927734"/>
      </g>
     </g>
    </g>
    <g id="xtick_2">
     <g id="line2d_2">
      <g>
       <use xlink:href="#m5693d73aa8" x="122.050325" y="196.937089" style="fill: #ffffff; stroke: #ffffff; stroke-width: 0.8"/>
      </g>
     </g>
     <g id="text_2">
      <!-- CLS -->
      <g style="fill: #ffffff" transform="translate(102.367345 229.222564)rotate(-45)scale(0.14 -0.14)">
       <defs>
        <path id="Futura-Medium-4c" d="M 1306 4825 
L 1306 684 
L 2725 684 
L 2725 0 
L 578 0 
L 578 4825 
L 1306 4825 
z
" transform="scale(0.015625)"/>
        <path id="Futura-Medium-53" d="M 3306 4106 
L 2716 3756 
Q 2550 4044 2400 4131 
Q 2244 4231 1997 4231 
Q 1694 4231 1494 4059 
Q 1294 3891 1294 3634 
Q 1294 3281 1819 3066 
L 2300 2869 
Q 2888 2631 3159 2289 
Q 3431 1947 3431 1450 
Q 3431 784 2988 350 
Q 2541 -88 1878 -88 
Q 1250 -88 841 284 
Q 438 656 338 1331 
L 1075 1494 
Q 1125 1069 1250 906 
Q 1475 594 1906 594 
Q 2247 594 2472 822 
Q 2697 1050 2697 1400 
Q 2697 1541 2658 1658 
Q 2619 1775 2536 1873 
Q 2453 1972 2322 2058 
Q 2191 2144 2009 2222 
L 1544 2416 
Q 553 2834 553 3641 
Q 553 4184 969 4550 
Q 1384 4919 2003 4919 
Q 2838 4919 3306 4106 
z
" transform="scale(0.015625)"/>
       </defs>
       <use xlink:href="#Futura-Medium-43"/>
       <use xlink:href="#Futura-Medium-4c" x="70.068359"/>
       <use xlink:href="#Futura-Medium-53" x="114.654297"/>
      </g>
     </g>
    </g>
    <g id="xtick_3">
     <g id="line2d_3">
      <g>
       <use xlink:href="#m5693d73aa8" x="155.214518" y="196.937089" style="fill: #ffffff; stroke: #ffffff; stroke-width: 0.8"/>
      </g>
     </g>
     <g id="text_3">
      <!-- MILC -->
      <g style="fill: #ffffff" transform="translate(129.223703 235.530399)rotate(-45)scale(0.14 -0.14)">
       <defs>
        <path id="Futura-Medium-49" d="M 1306 4825 
L 1306 0 
L 578 0 
L 578 4825 
L 1306 4825 
z
" transform="scale(0.015625)"/>
       </defs>
       <use xlink:href="#Futura-Medium-4d"/>
       <use xlink:href="#Futura-Medium-49" x="96.142578"/>
       <use xlink:href="#Futura-Medium-4c" x="125.634766"/>
       <use xlink:href="#Futura-Medium-43" x="166.595703"/>
      </g>
     </g>
    </g>
    <g id="xtick_4">
     <g id="line2d_4">
      <g>
       <use xlink:href="#m5693d73aa8" x="188.378711" y="196.937089" style="fill: #ffffff; stroke: #ffffff; stroke-width: 0.8"/>
      </g>
     </g>
     <g id="text_4">
      <!-- RBC-UKQCD -->
      <g style="fill: #ffffff" transform="translate(128.069131 269.849164)rotate(-45)scale(0.14 -0.14)">
       <defs>
        <path id="Futura-Medium-52" d="M 2213 2056 
L 3706 0 
L 2816 0 
L 1438 1975 
L 1306 1975 
L 1306 0 
L 578 0 
L 578 4825 
L 1431 4825 
Q 2388 4825 2813 4466 
Q 3281 4066 3281 3409 
Q 3281 2897 2987 2528 
Q 2694 2159 2213 2056 
z
M 1306 2609 
L 1538 2609 
Q 2572 2609 2572 3400 
Q 2572 4141 1566 4141 
L 1306 4141 
L 1306 2609 
z
" transform="scale(0.015625)"/>
        <path id="Futura-Medium-42" d="M 578 0 
L 578 4825 
L 1303 4825 
Q 1788 4825 2075 4750 
Q 2366 4675 2566 4497 
Q 2769 4313 2888 4038 
Q 3009 3759 3009 3475 
Q 3009 2956 2613 2597 
Q 2997 2466 3219 2138 
Q 3444 1813 3444 1381 
Q 3444 816 3044 425 
Q 2803 184 2503 91 
Q 2175 0 1681 0 
L 578 0 
z
M 1306 2753 
L 1534 2753 
Q 1941 2753 2130 2933 
Q 2319 3113 2319 3463 
Q 2319 3803 2125 3979 
Q 1931 4156 1563 4156 
L 1306 4156 
L 1306 2753 
z
M 1306 684 
L 1756 684 
Q 2250 684 2481 878 
Q 2725 1088 2725 1409 
Q 2725 1722 2491 1934 
Q 2263 2144 1675 2144 
L 1306 2144 
L 1306 684 
z
" transform="scale(0.015625)"/>
        <path id="Futura-Medium-2d" d="M 0 1853 
L 1394 1853 
L 1394 1241 
L 0 1241 
L 0 1853 
z
" transform="scale(0.015625)"/>
        <path id="Futura-Medium-55" d="M 1306 4825 
L 1306 1919 
Q 1306 1297 1509 1009 
Q 1813 594 2363 594 
Q 2916 594 3219 1009 
Q 3422 1288 3422 1919 
L 3422 4825 
L 4150 4825 
L 4150 1719 
Q 4150 956 3675 463 
Q 3141 -88 2363 -88 
Q 1584 -88 1053 463 
Q 578 956 578 1719 
L 578 4825 
L 1306 4825 
z
" transform="scale(0.015625)"/>
        <path id="Futura-Medium-4b" d="M 1306 2900 
L 3184 4825 
L 4156 4825 
L 1975 2641 
L 4169 0 
L 3194 0 
L 1456 2147 
L 1306 1997 
L 1306 0 
L 578 0 
L 578 4825 
L 1306 4825 
L 1306 2900 
z
" transform="scale(0.015625)"/>
        <path id="Futura-Medium-51" d="M 5488 -88 
L 4572 -88 
L 4194 300 
Q 3591 -88 2850 -88 
Q 1891 -88 1147 563 
Q 338 1278 338 2391 
Q 338 3481 1103 4209 
Q 1847 4916 2859 4916 
Q 3778 4916 4506 4297 
Q 5381 3553 5381 2356 
Q 5381 1419 4691 691 
L 5488 -88 
z
M 3484 1909 
L 4184 1213 
Q 4647 1694 4647 2403 
Q 4647 3181 4131 3706 
Q 3616 4231 2850 4231 
Q 2075 4231 1575 3706 
Q 1072 3184 1072 2384 
Q 1072 1603 1591 1106 
Q 2131 594 2825 594 
Q 3297 594 3678 809 
L 2544 1909 
L 3484 1909 
z
" transform="scale(0.015625)"/>
        <path id="Futura-Medium-44" d="M 578 0 
L 578 4825 
L 1591 4825 
Q 2319 4825 2741 4681 
Q 3194 4541 3563 4203 
Q 4309 3522 4309 2413 
Q 4309 1300 3531 613 
Q 3141 269 2713 134 
Q 2313 0 1578 0 
L 578 0 
z
M 1306 684 
L 1634 684 
Q 2125 684 2450 788 
Q 2775 897 3038 1134 
Q 3575 1625 3575 2413 
Q 3575 3206 3044 3700 
Q 2566 4141 1634 4141 
L 1306 4141 
L 1306 684 
z
" transform="scale(0.015625)"/>
       </defs>
       <use xlink:href="#Futura-Medium-52"/>
       <use xlink:href="#Futura-Medium-42" x="60.205078"/>
       <use xlink:href="#Futura-Medium-43" x="119.335938"/>
       <use xlink:href="#Futura-Medium-2d" x="189.404297"/>
       <use xlink:href="#Futura-Medium-55" x="211.181641"/>
       <use xlink:href="#Futura-Medium-4b" x="285.058594"/>
       <use xlink:href="#Futura-Medium-51" x="351.318359"/>
       <use xlink:href="#Futura-Medium-43" x="440.673828"/>
       <use xlink:href="#Futura-Medium-44" x="510.742188"/>
      </g>
     </g>
    </g>
    <g id="xtick_5">
     <g id="line2d_5">
      <g>
       <use xlink:href="#m5693d73aa8" x="221.542904" y="196.937089" style="fill: #ffffff; stroke: #ffffff; stroke-width: 0.8"/>
      </g>
     </g>
     <g id="text_5">
      <!-- HotQCD -->
      <g style="fill: #ffffff" transform="translate(180.031537 251.050951)rotate(-45)scale(0.14 -0.14)">
       <defs>
        <path id="Futura-Medium-48" d="M 1306 2938 
L 3388 2938 
L 3388 4825 
L 4116 4825 
L 4116 0 
L 3388 0 
L 3388 2253 
L 1306 2253 
L 1306 0 
L 578 0 
L 578 4825 
L 1306 4825 
L 1306 2938 
z
" transform="scale(0.015625)"/>
        <path id="Futura-Medium-6f" d="M 300 1544 
Q 300 2203 772 2665 
Q 1244 3128 1922 3128 
Q 2603 3128 3078 2663 
Q 3547 2197 3547 1519 
Q 3547 834 3075 372 
Q 2600 -88 1909 -88 
Q 1225 -88 763 381 
Q 300 844 300 1544 
z
M 1019 1531 
Q 1019 1075 1263 809 
Q 1513 541 1922 541 
Q 2334 541 2581 806 
Q 2828 1072 2828 1516 
Q 2828 1959 2581 2225 
Q 2331 2494 1922 2494 
Q 1519 2494 1269 2225 
Q 1019 1956 1019 1531 
z
" transform="scale(0.015625)"/>
        <path id="Futura-Medium-74" d="M 1169 2388 
L 1169 0 
L 466 0 
L 466 2388 
L 166 2388 
L 166 3044 
L 466 3044 
L 466 4159 
L 1169 4159 
L 1169 3044 
L 1716 3044 
L 1716 2388 
L 1169 2388 
z
" transform="scale(0.015625)"/>
       </defs>
       <use xlink:href="#Futura-Medium-48"/>
       <use xlink:href="#Futura-Medium-6f" x="73.339844"/>
       <use xlink:href="#Futura-Medium-74" x="134.072266"/>
       <use xlink:href="#Futura-Medium-51" x="161.416016"/>
       <use xlink:href="#Futura-Medium-43" x="250.771484"/>
       <use xlink:href="#Futura-Medium-44" x="320.839844"/>
      </g>
     </g>
    </g>
    <g id="xtick_6">
     <g id="line2d_6">
      <g>
       <use xlink:href="#m5693d73aa8" x="254.707096" y="196.937089" style="fill: #ffffff; stroke: #ffffff; stroke-width: 0.8"/>
      </g>
     </g>
     <g id="text_6">
      <!-- PACS-CS -->
      <g style="fill: #ffffff" transform="translate(212.787376 251.459305)rotate(-45)scale(0.14 -0.14)">
       <defs>
        <path id="Futura-Medium-50" d="M 1306 1959 
L 1306 0 
L 578 0 
L 578 4825 
L 1403 4825 
Q 2009 4825 2319 4741 
Q 2631 4656 2869 4422 
Q 3284 4016 3284 3397 
Q 3284 2734 2840 2346 
Q 2397 1959 1644 1959 
L 1306 1959 
z
M 1306 2634 
L 1578 2634 
Q 2581 2634 2581 3406 
Q 2581 4153 1547 4153 
L 1306 4153 
L 1306 2634 
z
" transform="scale(0.015625)"/>
        <path id="Futura-Medium-41" d="M 3413 1172 
L 1347 1172 
L 809 0 
L 25 0 
L 2413 5128 
L 4716 0 
L 3919 0 
L 3413 1172 
z
M 3116 1856 
L 2400 3497 
L 1650 1856 
L 3116 1856 
z
" transform="scale(0.015625)"/>
       </defs>
       <use xlink:href="#Futura-Medium-50"/>
       <use xlink:href="#Futura-Medium-41" x="48.503906"/>
       <use xlink:href="#Futura-Medium-43" x="119.076172"/>
       <use xlink:href="#Futura-Medium-53" x="189.144531"/>
       <use xlink:href="#Futura-Medium-2d" x="247.445312"/>
       <use xlink:href="#Futura-Medium-43" x="269.222656"/>
       <use xlink:href="#Futura-Medium-53" x="339.291016"/>
      </g>
     </g>
    </g>
    <g id="xtick_7">
     <g id="line2d_7">
      <g>
       <use xlink:href="#m5693d73aa8" x="287.871289" y="196.937089" style="fill: #ffffff; stroke: #ffffff; stroke-width: 0.8"/>
      </g>
     </g>
     <g id="text_7">
      <!-- JLQCD -->
      <g style="fill: #ffffff" transform="translate(253.889726 243.521147)rotate(-45)scale(0.14 -0.14)">
       <defs>
        <path id="Futura-Medium-4a" d="M 2047 4825 
L 2047 1703 
Q 2047 1144 1969 869 
Q 1891 556 1703 341 
Q 1338 -88 734 -88 
Q 278 -88 -119 150 
L 238 772 
Q 503 594 734 594 
Q 1059 594 1184 841 
Q 1316 1088 1316 1703 
L 1316 4825 
L 2047 4825 
z
" transform="scale(0.015625)"/>
       </defs>
       <use xlink:href="#Futura-Medium-4a"/>
       <use xlink:href="#Futura-Medium-4c" x="41.015625"/>
       <use xlink:href="#Futura-Medium-51" x="85.351562"/>
       <use xlink:href="#Futura-Medium-43" x="174.707031"/>
       <use xlink:href="#Futura-Medium-44" x="244.775391"/>
      </g>
     </g>
    </g>
    <g id="xtick_8">
     <g id="line2d_8">
      <g>
       <use xlink:href="#m5693d73aa8" x="321.035482" y="196.937089" style="fill: #ffffff; stroke: #ffffff; stroke-width: 0.8"/>
      </g>
     </g>
     <g id="text_8">
      <!-- PACS -->
      <g style="fill: #ffffff" transform="translate(293.978925 236.596141)rotate(-45)scale(0.14 -0.14)">
       <use xlink:href="#Futura-Medium-50"/>
       <use xlink:href="#Futura-Medium-41" x="48.503906"/>
       <use xlink:href="#Futura-Medium-43" x="119.076172"/>
       <use xlink:href="#Futura-Medium-53" x="189.144531"/>
      </g>
     </g>
    </g>
    <g id="xtick_9">
     <g id="line2d_9">
      <g>
       <use xlink:href="#m5693d73aa8" x="354.199675" y="196.937089" style="fill: #ffffff; stroke: #ffffff; stroke-width: 0.8"/>
      </g>
     </g>
     <g id="text_9">
      <!-- FASTSUM -->
      <g style="fill: #ffffff" transform="translate(306.494937 257.244322)rotate(-45)scale(0.14 -0.14)">
       <defs>
        <path id="Futura-Medium-46" d="M 2988 4141 
L 1306 4141 
L 1306 2981 
L 2928 2981 
L 2928 2297 
L 1306 2297 
L 1306 0 
L 578 0 
L 578 4825 
L 2988 4825 
L 2988 4141 
z
" transform="scale(0.015625)"/>
       </defs>
       <use xlink:href="#Futura-Medium-46"/>
       <use xlink:href="#Futura-Medium-41" x="45.830078"/>
       <use xlink:href="#Futura-Medium-53" x="119.902344"/>
       <use xlink:href="#Futura-Medium-54" x="179.578125"/>
       <use xlink:href="#Futura-Medium-53" x="227.695312"/>
       <use xlink:href="#Futura-Medium-55" x="285.996094"/>
       <use xlink:href="#Futura-Medium-4d" x="359.873047"/>
      </g>
     </g>
    </g>
    <g id="xtick_10">
     <g id="line2d_10">
      <g>
       <use xlink:href="#m5693d73aa8" x="387.363868" y="196.937089" style="fill: #ffffff; stroke: #ffffff; stroke-width: 0.8"/>
      </g>
     </g>
     <g id="text_10">
      <!-- NPLQCD -->
      <g style="fill: #ffffff" transform="translate(343.739578 253.163874)rotate(-45)scale(0.14 -0.14)">
       <defs>
        <path id="Futura-Medium-4e" d="M 578 0 
L 578 5153 
L 4097 1472 
L 4097 4825 
L 4825 4825 
L 4825 -294 
L 1306 3378 
L 1306 0 
L 578 0 
z
" transform="scale(0.015625)"/>
       </defs>
       <use xlink:href="#Futura-Medium-4e"/>
       <use xlink:href="#Futura-Medium-50" x="84.423828"/>
       <use xlink:href="#Futura-Medium-4c" x="138.427734"/>
       <use xlink:href="#Futura-Medium-51" x="182.763672"/>
       <use xlink:href="#Futura-Medium-43" x="272.119141"/>
       <use xlink:href="#Futura-Medium-44" x="342.1875"/>
      </g>
     </g>
    </g>
   </g>
   <g id="matplotlib.axis_2">
    <g id="ytick_1">
     <g id="line2d_11">
      <defs>
       <path id="m18e607fd7a" d="M 0 0 
L -3.5 0 
" style="stroke: #ffffff; stroke-width: 0.8"/>
      </defs>
      <g>
       <use xlink:href="#m18e607fd7a" x="59.37" y="196.937089" style="fill: #ffffff; stroke: #ffffff; stroke-width: 0.8"/>
      </g>
     </g>
     <g id="text_11">
      <!-- 0 -->
      <g style="fill: #ffffff" transform="translate(43.729375 202.709901)scale(0.14 -0.14)">
       <defs>
        <path id="Futura-Medium-30" d="M 272 2444 
Q 272 3597 809 4284 
Q 1291 4906 1975 4906 
Q 2659 4906 3141 4284 
Q 3678 3597 3678 2413 
Q 3678 1231 3141 544 
Q 2659 -78 1978 -78 
Q 1297 -78 809 544 
Q 272 1231 272 2444 
z
M 988 2441 
Q 988 1638 1266 1106 
Q 1544 584 1975 584 
Q 2403 584 2684 1106 
Q 2966 1625 2966 2416 
Q 2966 3206 2684 3728 
Q 2403 4247 1975 4247 
Q 1550 4247 1269 3728 
Q 988 3213 988 2441 
z
" transform="scale(0.015625)"/>
       </defs>
       <use xlink:href="#Futura-Medium-30"/>
      </g>
     </g>
    </g>
    <g id="ytick_2">
     <g id="line2d_12">
      <g>
       <use xlink:href="#m18e607fd7a" x="59.37" y="152.812769" style="fill: #ffffff; stroke: #ffffff; stroke-width: 0.8"/>
      </g>
     </g>
     <g id="text_12">
      <!-- 10 -->
      <g style="fill: #ffffff" transform="translate(35.92875 158.585582)scale(0.14 -0.14)">
       <defs>
        <path id="Futura-Medium-31" d="M 1734 4144 
L 900 4144 
L 1300 4825 
L 2463 4825 
L 2463 0 
L 1734 0 
L 1734 4144 
z
" transform="scale(0.015625)"/>
       </defs>
       <use xlink:href="#Futura-Medium-31"/>
       <use xlink:href="#Futura-Medium-30" x="55.71875"/>
      </g>
     </g>
    </g>
    <g id="ytick_3">
     <g id="line2d_13">
      <g>
       <use xlink:href="#m18e607fd7a" x="59.37" y="108.68845" style="fill: #ffffff; stroke: #ffffff; stroke-width: 0.8"/>
      </g>
     </g>
     <g id="text_13">
      <!-- 20 -->
      <g style="fill: #ffffff" transform="translate(35.08875 114.461262)scale(0.14 -0.14)">
       <defs>
        <path id="Futura-Medium-32" d="M 1603 684 
L 3400 684 
L 3400 0 
L 159 0 
L 1834 2028 
Q 2081 2331 2248 2553 
Q 2416 2775 2503 2925 
Q 2681 3219 2681 3453 
Q 2681 3791 2443 4019 
Q 2206 4247 1856 4247 
Q 1125 4247 1019 3381 
L 294 3381 
Q 469 4906 1834 4906 
Q 2494 4906 2941 4488 
Q 3391 4069 3391 3450 
Q 3391 3056 3181 2678 
Q 3075 2481 2870 2211 
Q 2666 1941 2353 1572 
L 1603 684 
z
" transform="scale(0.015625)"/>
       </defs>
       <use xlink:href="#Futura-Medium-32"/>
       <use xlink:href="#Futura-Medium-30" x="61.71875"/>
      </g>
     </g>
    </g>
    <g id="ytick_4">
     <g id="line2d_14">
      <g>
       <use xlink:href="#m18e607fd7a" x="59.37" y="64.56413" style="fill: #ffffff; stroke: #ffffff; stroke-width: 0.8"/>
      </g>
     </g>
     <g id="text_14">
      <!-- 30 -->
      <g style="fill: #ffffff" transform="translate(35.08875 70.336942)scale(0.14 -0.14)">
       <defs>
        <path id="Futura-Medium-33" d="M 1656 2241 
L 1656 2863 
Q 2119 2863 2278 2966 
Q 2563 3147 2563 3547 
Q 2563 3856 2356 4050 
Q 2153 4247 1828 4247 
Q 1525 4247 1359 4100 
Q 1200 3950 1122 3594 
L 397 3594 
Q 509 4275 859 4592 
Q 1209 4909 1838 4909 
Q 2472 4909 2872 4534 
Q 3272 4163 3272 3575 
Q 3272 2913 2747 2544 
Q 3347 2191 3347 1397 
Q 3347 747 2909 334 
Q 2472 -78 1788 -78 
Q 916 -78 494 563 
Q 319 831 272 1306 
L 975 1306 
Q 1031 956 1248 770 
Q 1466 584 1816 584 
Q 2169 584 2400 819 
Q 2631 1059 2631 1428 
Q 2631 1916 2284 2122 
Q 2081 2241 1656 2241 
z
" transform="scale(0.015625)"/>
       </defs>
       <use xlink:href="#Futura-Medium-33"/>
       <use xlink:href="#Futura-Medium-30" x="61.71875"/>
      </g>
     </g>
    </g>
    <g id="ytick_5">
     <g id="line2d_15">
      <g>
       <use xlink:href="#m18e607fd7a" x="59.37" y="20.43981" style="fill: #ffffff; stroke: #ffffff; stroke-width: 0.8"/>
      </g>
     </g>
     <g id="text_15">
      <!-- 40 -->
      <g style="fill: #ffffff" transform="translate(35.08875 26.212623)scale(0.14 -0.14)">
       <defs>
        <path id="Futura-Medium-34" d="M 3156 1347 
L 3669 1347 
L 3669 684 
L 3156 684 
L 3156 0 
L 2428 0 
L 2428 684 
L 59 684 
L 3156 5184 
L 3156 1347 
z
M 2428 1347 
L 2428 2963 
L 1316 1347 
L 2428 1347 
z
" transform="scale(0.015625)"/>
       </defs>
       <use xlink:href="#Futura-Medium-34"/>
       <use xlink:href="#Futura-Medium-30" x="61.71875"/>
      </g>
     </g>
    </g>
    <g id="text_16">
     <!-- count -->
     <g style="fill: #ffffff" transform="translate(27.46625 123.703169)rotate(-90)scale(0.14 -0.14)">
      <defs>
       <path id="Futura-Medium-63" d="M 2813 2913 
L 2813 1978 
Q 2572 2272 2381 2381 
Q 2194 2494 1941 2494 
Q 1544 2494 1281 2216 
Q 1019 1938 1019 1519 
Q 1019 1091 1272 816 
Q 1528 541 1925 541 
Q 2178 541 2372 650 
Q 2559 756 2813 1063 
L 2813 134 
Q 2384 -88 1956 -88 
Q 1250 -88 775 369 
Q 300 828 300 1509 
Q 300 2191 781 2659 
Q 1263 3128 1963 3128 
Q 2413 3128 2813 2913 
z
" transform="scale(0.015625)"/>
       <path id="Futura-Medium-75" d="M 1147 3044 
L 1147 1297 
Q 1147 541 1744 541 
Q 2341 541 2341 1297 
L 2341 3044 
L 3044 3044 
L 3044 1281 
Q 3044 916 2953 650 
Q 2866 413 2650 222 
Q 2294 -88 1744 -88 
Q 1197 -88 841 222 
Q 622 413 531 650 
Q 444 863 444 1281 
L 444 3044 
L 1147 3044 
z
" transform="scale(0.015625)"/>
       <path id="Futura-Medium-6e" d="M 444 3044 
L 1150 3044 
L 1150 2763 
Q 1519 3128 1981 3128 
Q 2513 3128 2809 2794 
Q 3066 2509 3066 1866 
L 3066 0 
L 2359 0 
L 2359 1700 
Q 2359 2150 2234 2322 
Q 2113 2497 1791 2497 
Q 1441 2497 1294 2266 
Q 1150 2038 1150 1469 
L 1150 0 
L 444 0 
L 444 3044 
z
" transform="scale(0.015625)"/>
      </defs>
      <use xlink:href="#Futura-Medium-63"/>
      <use xlink:href="#Futura-Medium-6f" x="47.65625"/>
      <use xlink:href="#Futura-Medium-75" x="107.763672"/>
      <use xlink:href="#Futura-Medium-6e" x="162.255859"/>
      <use xlink:href="#Futura-Medium-74" x="217.089844"/>
     </g>
    </g>
   </g>
   <g id="patch_13">
    <path d="M 59.37 196.937089 
L 59.37 16.248 
" style="fill: none; stroke: #ffffff; stroke-width: 0.8; stroke-linejoin: miter; stroke-linecap: square"/>
   </g>
   <g id="patch_14">
    <path d="M 416.88 196.937089 
L 416.88 16.248 
" style="fill: none; stroke: #ffffff; stroke-width: 0.8; stroke-linejoin: miter; stroke-linecap: square"/>
   </g>
   <g id="patch_15">
    <path d="M 59.37 196.937089 
L 416.88 196.937089 
" style="fill: none; stroke: #ffffff; stroke-width: 0.8; stroke-linejoin: miter; stroke-linecap: square"/>
   </g>
   <g id="patch_16">
    <path d="M 59.37 16.248 
L 416.88 16.248 
" style="fill: none; stroke: #ffffff; stroke-width: 0.8; stroke-linejoin: miter; stroke-linecap: square"/>
   </g>
   <g id="text_17">
    <!-- Out of 235 -->
    <g style="fill: #ffffff" transform="translate(345.7775 25.282454)scale(0.14 -0.14)">
     <defs>
      <path id="Futura-Medium-4f" d="M 338 2434 
Q 338 3453 1084 4184 
Q 1828 4916 2872 4916 
Q 3903 4916 4641 4178 
Q 5381 3441 5381 2406 
Q 5381 1366 4638 641 
Q 3891 -88 2834 -88 
Q 1900 -88 1156 559 
Q 338 1275 338 2434 
z
M 1072 2425 
Q 1072 1625 1609 1109 
Q 2144 594 2844 594 
Q 3603 594 4125 1119 
Q 4647 1650 4647 2413 
Q 4647 3184 4131 3706 
Q 3619 4231 2863 4231 
Q 2109 4231 1591 3706 
Q 1072 3188 1072 2425 
z
" transform="scale(0.015625)"/>
      <path id="Futura-Medium-20" transform="scale(0.015625)"/>
      <path id="Futura-Medium-66" d="M 1172 2388 
L 1172 0 
L 466 0 
L 466 2388 
L 216 2388 
L 216 3044 
L 466 3044 
L 466 4219 
Q 466 4794 666 5031 
Q 941 5363 1466 5363 
Q 1653 5363 1938 5253 
L 1938 4534 
L 1866 4572 
Q 1638 4688 1491 4688 
Q 1303 4688 1238 4553 
Q 1172 4422 1172 4047 
L 1172 3044 
L 1938 3044 
L 1938 2388 
L 1172 2388 
z
" transform="scale(0.015625)"/>
      <path id="Futura-Medium-35" d="M 3366 4144 
L 1878 4144 
L 1641 3344 
Q 1694 3350 1742 3353 
Q 1791 3356 1831 3356 
Q 2534 3356 2984 2881 
Q 3438 2409 3438 1672 
Q 3438 909 2925 415 
Q 2413 -78 1634 -78 
Q 675 -78 122 822 
L 672 1288 
Q 900 900 1131 741 
Q 1363 584 1697 584 
Q 2134 584 2431 891 
Q 2728 1206 2728 1656 
Q 2728 2119 2434 2413 
Q 2141 2716 1700 2716 
Q 1209 2716 853 2288 
L 613 2288 
L 1372 4825 
L 3366 4825 
L 3366 4144 
z
" transform="scale(0.015625)"/>
     </defs>
     <use xlink:href="#Futura-Medium-4f"/>
     <use xlink:href="#Futura-Medium-75" x="89.355469"/>
     <use xlink:href="#Futura-Medium-74" x="143.847656"/>
     <use xlink:href="#Futura-Medium-20" x="171.191406"/>
     <use xlink:href="#Futura-Medium-6f" x="202.050781"/>
     <use xlink:href="#Futura-Medium-66" x="262.158203"/>
     <use xlink:href="#Futura-Medium-20" x="291.845703"/>
     <use xlink:href="#Futura-Medium-32" x="322.705078"/>
     <use xlink:href="#Futura-Medium-33" x="384.423828"/>
     <use xlink:href="#Futura-Medium-35" x="446.142578"/>
    </g>
   </g>
  </g>
 </g>
 <defs>
  <clipPath id="pdd1b14c9dd">
   <rect x="59.37" y="16.248" width="357.51" height="180.689089"/>
  </clipPath>
 </defs>
</svg>
