<?xml version="1.0" encoding="utf-8" standalone="no"?>
<!DOCTYPE svg PUBLIC "-//W3C//DTD SVG 1.1//EN"
  "http://www.w3.org/Graphics/SVG/1.1/DTD/svg11.dtd">
<svg xmlns:xlink="http://www.w3.org/1999/xlink" width="460.8pt" height="345.6pt" viewBox="0 0 460.8 345.6" xmlns="http://www.w3.org/2000/svg" version="1.1">
 <metadata>
  <rdf:RDF xmlns:dc="http://purl.org/dc/elements/1.1/" xmlns:cc="http://creativecommons.org/ns#" xmlns:rdf="http://www.w3.org/1999/02/22-rdf-syntax-ns#">
   <cc:Work>
    <dc:type rdf:resource="http://purl.org/dc/dcmitype/StillImage"/>
    <dc:date>2022-05-26T15:03:01.066008</dc:date>
    <dc:format>image/svg+xml</dc:format>
    <dc:creator>
     <cc:Agent>
      <dc:title>Matplotlib v3.5.2, https://matplotlib.org/</dc:title>
     </cc:Agent>
    </dc:creator>
   </cc:Work>
  </rdf:RDF>
 </metadata>
 <defs>
  <style type="text/css">*{stroke-linejoin: round; stroke-linecap: butt}</style>
 </defs>
 <g id="figure_1">
  <g id="patch_1">
   <path d="M 0 345.6 
L 460.8 345.6 
L 460.8 0 
L 0 0 
L 0 345.6 
z
" style="fill: none"/>
  </g>
  <g id="axes_1">
   <g id="patch_2">
    <path d="M 59.24 256.912968 
L 445.68 256.912968 
L 445.68 15.12 
L 59.24 15.12 
L 59.24 256.912968 
z
" style="fill: none"/>
   </g>
   <g id="patch_3">
    <path d="M 76.805455 256.912968 
L 105.483748 256.912968 
L 105.483748 26.633951 
L 76.805455 26.633951 
z
" clip-path="url(#p085fbd9c62)" style="fill: #8dd3c7"/>
   </g>
   <g id="patch_4">
    <path d="M 112.653321 256.912968 
L 141.331614 256.912968 
L 141.331614 26.633951 
L 112.653321 26.633951 
z
" clip-path="url(#p085fbd9c62)" style="fill: #8dd3c7"/>
   </g>
   <g id="patch_5">
    <path d="M 148.501187 256.912968 
L 177.179481 256.912968 
L 177.179481 67.966082 
L 148.501187 67.966082 
z
" clip-path="url(#p085fbd9c62)" style="fill: #8dd3c7"/>
   </g>
   <g id="patch_6">
    <path d="M 184.349054 256.912968 
L 213.027347 256.912968 
L 213.027347 73.870672 
L 184.349054 73.870672 
z
" clip-path="url(#p085fbd9c62)" style="fill: #8dd3c7"/>
   </g>
   <g id="patch_7">
    <path d="M 220.19692 256.912968 
L 248.875213 256.912968 
L 248.875213 174.248705 
L 220.19692 174.248705 
z
" clip-path="url(#p085fbd9c62)" style="fill: #8dd3c7"/>
   </g>
   <g id="patch_8">
    <path d="M 256.044787 256.912968 
L 284.72308 256.912968 
L 284.72308 203.771656 
L 256.044787 203.771656 
z
" clip-path="url(#p085fbd9c62)" style="fill: #8dd3c7"/>
   </g>
   <g id="patch_9">
    <path d="M 291.892653 256.912968 
L 320.570946 256.912968 
L 320.570946 215.580836 
L 291.892653 215.580836 
z
" clip-path="url(#p085fbd9c62)" style="fill: #8dd3c7"/>
   </g>
   <g id="patch_10">
    <path d="M 327.740519 256.912968 
L 356.418813 256.912968 
L 356.418813 221.485427 
L 327.740519 221.485427 
z
" clip-path="url(#p085fbd9c62)" style="fill: #8dd3c7"/>
   </g>
   <g id="patch_11">
    <path d="M 363.588386 256.912968 
L 392.266679 256.912968 
L 392.266679 221.485427 
L 363.588386 221.485427 
z
" clip-path="url(#p085fbd9c62)" style="fill: #8dd3c7"/>
   </g>
   <g id="patch_12">
    <path d="M 399.436252 256.912968 
L 428.114545 256.912968 
L 428.114545 227.390017 
L 399.436252 227.390017 
z
" clip-path="url(#p085fbd9c62)" style="fill: #8dd3c7"/>
   </g>
   <g id="matplotlib.axis_1">
    <g id="xtick_1">
     <g id="line2d_1">
      <defs>
       <path id="mc3b21583ce" d="M 0 0 
L 0 3.5 
" style="stroke: #ffffff; stroke-width: 0.8"/>
      </defs>
      <g>
       <use xlink:href="#mc3b21583ce" x="91.144601" y="256.912968" style="fill: #ffffff; stroke: #ffffff; stroke-width: 0.8"/>
      </g>
     </g>
     <g id="text_1">
      <!-- ETMC -->
      <g style="fill: #ffffff" transform="translate(62.623228 297.987339)rotate(-45)scale(0.14 -0.14)">
       <defs>
        <path id="Futura-Book-45" d="M 486 0 
L 2989 0 
L 2989 499 
L 1024 499 
L 1024 2394 
L 2931 2394 
L 2931 2893 
L 1024 2893 
L 1024 4326 
L 2989 4326 
L 2989 4826 
L 486 4826 
L 486 0 
z
" transform="scale(0.015625)"/>
        <path id="Futura-Book-54" d="M 1766 4326 
L 2944 4326 
L 2944 4826 
L 64 4826 
L 64 4326 
L 1229 4326 
L 1229 0 
L 1766 0 
L 1766 4326 
z
" transform="scale(0.015625)"/>
        <path id="Futura-Book-4d" d="M 134 0 
L 685 0 
L 1306 3264 
L 1318 3264 
L 2867 -198 
L 4422 3264 
L 4435 3264 
L 5056 0 
L 5606 0 
L 4627 5101 
L 2867 1050 
L 1114 5101 
L 134 0 
z
" transform="scale(0.015625)"/>
        <path id="Futura-Book-43" d="M 4166 4435 
C 3738 4755 3264 4909 2726 4909 
C 1344 4909 211 3776 211 2394 
C 211 1024 1363 -83 2726 -83 
C 3238 -83 3750 90 4166 390 
L 4166 1056 
C 3782 672 3251 416 2707 416 
C 1626 416 749 1350 749 2413 
C 749 3475 1619 4410 2694 4410 
C 3251 4410 3782 4166 4166 3770 
L 4166 4435 
z
" transform="scale(0.015625)"/>
       </defs>
       <use xlink:href="#Futura-Book-45"/>
       <use xlink:href="#Futura-Book-54" x="53.399994"/>
       <use xlink:href="#Futura-Book-4d" x="100.399979"/>
       <use xlink:href="#Futura-Book-43" x="189.999969"/>
      </g>
     </g>
    </g>
    <g id="xtick_2">
     <g id="line2d_2">
      <g>
       <use xlink:href="#mc3b21583ce" x="126.992468" y="256.912968" style="fill: #ffffff; stroke: #ffffff; stroke-width: 0.8"/>
      </g>
     </g>
     <g id="text_2">
      <!-- CLS -->
      <g style="fill: #ffffff" transform="translate(108.033388 288.425045)rotate(-45)scale(0.14 -0.14)">
       <defs>
        <path id="Futura-Book-4c" d="M 1024 4826 
L 486 4826 
L 486 0 
L 2355 0 
L 2355 499 
L 1024 499 
L 1024 4826 
z
" transform="scale(0.015625)"/>
        <path id="Futura-Book-53" d="M 3104 4160 
C 2848 4634 2394 4909 1856 4909 
C 1139 4909 506 4429 506 3680 
C 506 2989 992 2701 1555 2445 
L 1850 2317 
C 2298 2112 2739 1920 2739 1357 
C 2739 813 2266 416 1747 416 
C 1229 416 851 819 781 1312 
L 256 1165 
C 410 416 986 -83 1760 -83 
C 2598 -83 3277 563 3277 1408 
C 3277 2176 2746 2490 2118 2765 
L 1798 2906 
C 1472 3053 1043 3245 1043 3661 
C 1043 4102 1414 4410 1843 4410 
C 2253 4410 2483 4218 2675 3885 
L 3104 4160 
z
" transform="scale(0.015625)"/>
       </defs>
       <use xlink:href="#Futura-Book-43"/>
       <use xlink:href="#Futura-Book-4c" x="71.699982"/>
       <use xlink:href="#Futura-Book-53" x="109.199966"/>
      </g>
     </g>
    </g>
    <g id="xtick_3">
     <g id="line2d_3">
      <g>
       <use xlink:href="#mc3b21583ce" x="162.840334" y="256.912968" style="fill: #ffffff; stroke: #ffffff; stroke-width: 0.8"/>
      </g>
     </g>
     <g id="text_3">
      <!-- MILC -->
      <g style="fill: #ffffff" transform="translate(138.179764 294.126536)rotate(-45)scale(0.14 -0.14)">
       <defs>
        <path id="Futura-Book-49" d="M 1037 4826 
L 499 4826 
L 499 0 
L 1037 0 
L 1037 4826 
z
" transform="scale(0.015625)"/>
       </defs>
       <use xlink:href="#Futura-Book-4d"/>
       <use xlink:href="#Futura-Book-49" x="89.599991"/>
       <use xlink:href="#Futura-Book-4c" x="113.499985"/>
       <use xlink:href="#Futura-Book-43" x="150.999969"/>
      </g>
     </g>
    </g>
    <g id="xtick_4">
     <g id="line2d_4">
      <g>
       <use xlink:href="#mc3b21583ce" x="198.6882" y="256.912968" style="fill: #ffffff; stroke: #ffffff; stroke-width: 0.8"/>
      </g>
     </g>
     <g id="text_4">
      <!-- RBC-UKQCD -->
      <g style="fill: #ffffff" transform="translate(140.756047 327.398119)rotate(-45)scale(0.14 -0.14)">
       <defs>
        <path id="Futura-Book-52" d="M 1024 4326 
L 1184 4326 
C 1830 4326 2413 4250 2413 3456 
C 2413 2707 1798 2592 1190 2592 
L 1024 2592 
L 1024 4326 
z
M 1024 2118 
L 1158 2118 
L 2618 0 
L 3277 0 
L 1741 2163 
C 2483 2227 2950 2752 2950 3494 
C 2950 4582 2099 4826 1184 4826 
L 486 4826 
L 486 0 
L 1024 0 
L 1024 2118 
z
" transform="scale(0.015625)"/>
        <path id="Futura-Book-42" d="M 1024 2240 
L 1491 2240 
C 2080 2240 2797 2131 2797 1382 
C 2797 646 2163 499 1562 499 
L 1024 499 
L 1024 2240 
z
M 486 0 
L 1606 0 
C 2560 0 3334 384 3334 1344 
C 3334 1920 2995 2438 2419 2579 
C 2746 2797 2893 3130 2893 3520 
C 2893 4506 2157 4826 1280 4826 
L 486 4826 
L 486 0 
z
M 1024 4326 
L 1235 4326 
C 1894 4326 2355 4250 2355 3520 
C 2355 2771 1837 2701 1229 2701 
L 1024 2701 
L 1024 4326 
z
" transform="scale(0.015625)"/>
        <path id="Futura-Book-2d" d="M 13 1779 
L 13 1306 
L 1325 1306 
L 1325 1779 
L 13 1779 
z
" transform="scale(0.015625)"/>
        <path id="Futura-Book-55" d="M 1011 4826 
L 474 4826 
L 474 1805 
C 474 1254 525 813 947 410 
C 1274 90 1741 -83 2195 -83 
C 2682 -83 3162 109 3494 467 
C 3878 864 3917 1280 3917 1805 
L 3917 4826 
L 3379 4826 
L 3379 1952 
C 3379 1574 3398 1152 3142 845 
C 2918 576 2541 416 2195 416 
C 1843 416 1434 582 1222 877 
C 998 1184 1011 1594 1011 1952 
L 1011 4826 
z
" transform="scale(0.015625)"/>
        <path id="Futura-Book-4b" d="M 1024 2758 
L 1024 4826 
L 486 4826 
L 486 0 
L 1024 0 
L 1024 2080 
L 1158 2214 
L 3136 0 
L 3878 0 
L 1536 2579 
L 3802 4826 
L 3078 4826 
L 1024 2758 
z
" transform="scale(0.015625)"/>
        <path id="Futura-Book-51" d="M 3373 1946 
L 2669 1946 
L 3834 774 
C 3539 550 3117 416 2758 416 
C 1664 416 781 1325 781 2413 
C 781 3507 1651 4410 2758 4410 
C 3866 4410 4736 3514 4736 2413 
C 4736 1894 4563 1453 4205 1075 
L 3373 1946 
z
M 4614 -45 
L 5299 -45 
L 4576 691 
C 5030 1178 5274 1722 5274 2394 
C 5274 3776 4154 4909 2758 4909 
C 1382 4909 243 3789 243 2406 
C 243 1018 1382 -83 2758 -83 
C 3245 -83 3814 90 4211 390 
L 4614 -45 
z
" transform="scale(0.015625)"/>
        <path id="Futura-Book-44" d="M 486 0 
L 1382 0 
C 2138 0 2714 96 3290 608 
C 3821 1082 4077 1702 4077 2406 
C 4077 3123 3827 3770 3277 4243 
C 2707 4730 2118 4826 1395 4826 
L 486 4826 
L 486 0 
z
M 1024 499 
L 1024 4326 
L 1414 4326 
C 1984 4326 2470 4250 2912 3859 
C 3328 3494 3539 2963 3539 2413 
C 3539 1875 3334 1370 2938 998 
C 2496 582 2003 499 1414 499 
L 1024 499 
z
" transform="scale(0.015625)"/>
       </defs>
       <use xlink:href="#Futura-Book-52"/>
       <use xlink:href="#Futura-Book-42" x="54.199997"/>
       <use xlink:href="#Futura-Book-43" x="110.999985"/>
       <use xlink:href="#Futura-Book-2d" x="182.699966"/>
       <use xlink:href="#Futura-Book-55" x="203.499954"/>
       <use xlink:href="#Futura-Book-4b" x="271.999939"/>
       <use xlink:href="#Futura-Book-51" x="333.09993"/>
       <use xlink:href="#Futura-Book-43" x="419.299911"/>
       <use xlink:href="#Futura-Book-44" x="490.999893"/>
      </g>
     </g>
    </g>
    <g id="xtick_5">
     <g id="line2d_5">
      <g>
       <use xlink:href="#mc3b21583ce" x="234.536067" y="256.912968" style="fill: #ffffff; stroke: #ffffff; stroke-width: 0.8"/>
      </g>
     </g>
     <g id="text_5">
      <!-- HotQCD -->
      <g style="fill: #ffffff" transform="translate(194.56995 309.432083)rotate(-45)scale(0.14 -0.14)">
       <defs>
        <path id="Futura-Book-48" d="M 1050 2867 
L 1050 4826 
L 512 4826 
L 512 0 
L 1050 0 
L 1050 2368 
L 3520 2368 
L 3520 0 
L 4058 0 
L 4058 4826 
L 3520 4826 
L 3520 2867 
L 1050 2867 
z
" transform="scale(0.015625)"/>
        <path id="Futura-Book-6f" d="M 1798 -83 
C 2675 -83 3379 614 3379 1498 
C 3379 2381 2682 3091 1798 3091 
C 915 3091 218 2381 218 1498 
C 218 614 922 -83 1798 -83 
z
M 1798 2618 
C 2432 2618 2867 2112 2867 1504 
C 2867 890 2432 390 1798 390 
C 1165 390 730 890 730 1504 
C 730 2112 1165 2618 1798 2618 
z
" transform="scale(0.015625)"/>
        <path id="Futura-Book-74" d="M 1024 2534 
L 1562 2534 
L 1562 3008 
L 1024 3008 
L 1024 4090 
L 512 4090 
L 512 3008 
L 198 3008 
L 198 2534 
L 512 2534 
L 512 0 
L 1024 0 
L 1024 2534 
z
" transform="scale(0.015625)"/>
       </defs>
       <use xlink:href="#Futura-Book-48"/>
       <use xlink:href="#Futura-Book-6f" x="71.399994"/>
       <use xlink:href="#Futura-Book-74" x="127.599991"/>
       <use xlink:href="#Futura-Book-51" x="151.599976"/>
       <use xlink:href="#Futura-Book-43" x="237.799957"/>
       <use xlink:href="#Futura-Book-44" x="309.499939"/>
      </g>
     </g>
    </g>
    <g id="xtick_6">
     <g id="line2d_6">
      <g>
       <use xlink:href="#mc3b21583ce" x="270.383933" y="256.912968" style="fill: #ffffff; stroke: #ffffff; stroke-width: 0.8"/>
      </g>
     </g>
     <g id="text_6">
      <!-- PACS-CS -->
      <g style="fill: #ffffff" transform="translate(228.546193 311.303706)rotate(-45)scale(0.14 -0.14)">
       <defs>
        <path id="Futura-Book-50" d="M 1024 2112 
L 1414 2112 
C 1818 2112 2234 2163 2560 2432 
C 2861 2682 3021 3078 3021 3469 
C 3021 3898 2835 4320 2477 4570 
C 2125 4813 1696 4826 1280 4826 
L 486 4826 
L 486 0 
L 1024 0 
L 1024 2112 
z
M 1024 4326 
L 1222 4326 
C 1850 4326 2483 4269 2483 3482 
C 2483 2790 1978 2611 1382 2611 
L 1024 2611 
L 1024 4326 
z
" transform="scale(0.015625)"/>
        <path id="Futura-Book-41" d="M 3270 1370 
L 3840 0 
L 4435 0 
L 2266 5056 
L 38 0 
L 627 0 
L 1210 1370 
L 3270 1370 
z
M 3059 1869 
L 1427 1869 
L 2253 3802 
L 3059 1869 
z
" transform="scale(0.015625)"/>
       </defs>
       <use xlink:href="#Futura-Book-50"/>
       <use xlink:href="#Futura-Book-41" x="50.299988"/>
       <use xlink:href="#Futura-Book-43" x="120.199982"/>
       <use xlink:href="#Futura-Book-53" x="191.899963"/>
       <use xlink:href="#Futura-Book-2d" x="247.799957"/>
       <use xlink:href="#Futura-Book-43" x="268.599945"/>
       <use xlink:href="#Futura-Book-53" x="340.299927"/>
      </g>
     </g>
    </g>
    <g id="xtick_7">
     <g id="line2d_7">
      <g>
       <use xlink:href="#mc3b21583ce" x="306.2318" y="256.912968" style="fill: #ffffff; stroke: #ffffff; stroke-width: 0.8"/>
      </g>
     </g>
     <g id="text_7">
      <!-- JLQCD -->
      <g style="fill: #ffffff" transform="translate(274.452874 301.244891)rotate(-45)scale(0.14 -0.14)">
       <defs>
        <path id="Futura-Book-4a" d="M 1510 4826 
L 973 4826 
L 973 1005 
C 973 627 973 0 448 0 
C 198 0 51 115 -122 275 
L -422 -141 
C -179 -346 115 -499 435 -499 
C 762 -499 1069 -365 1267 -102 
C 1510 218 1510 621 1510 1005 
L 1510 4826 
z
" transform="scale(0.015625)"/>
       </defs>
       <use xlink:href="#Futura-Book-4a"/>
       <use xlink:href="#Futura-Book-4c" x="31.399994"/>
       <use xlink:href="#Futura-Book-51" x="68.899979"/>
       <use xlink:href="#Futura-Book-43" x="155.09996"/>
       <use xlink:href="#Futura-Book-44" x="226.799942"/>
      </g>
     </g>
    </g>
    <g id="xtick_8">
     <g id="line2d_8">
      <g>
       <use xlink:href="#mc3b21583ce" x="342.079666" y="256.912968" style="fill: #ffffff; stroke: #ffffff; stroke-width: 0.8"/>
      </g>
     </g>
     <g id="text_8">
      <!-- PACS -->
      <g style="fill: #ffffff" transform="translate(314.933395 296.612237)rotate(-45)scale(0.14 -0.14)">
       <use xlink:href="#Futura-Book-50"/>
       <use xlink:href="#Futura-Book-41" x="50.299988"/>
       <use xlink:href="#Futura-Book-43" x="120.199982"/>
       <use xlink:href="#Futura-Book-53" x="191.899963"/>
      </g>
     </g>
    </g>
    <g id="xtick_9">
     <g id="line2d_9">
      <g>
       <use xlink:href="#mc3b21583ce" x="377.927532" y="256.912968" style="fill: #ffffff; stroke: #ffffff; stroke-width: 0.8"/>
      </g>
     </g>
     <g id="text_9">
      <!-- FASTSUM -->
      <g style="fill: #ffffff" transform="translate(332.289314 315.104184)rotate(-45)scale(0.14 -0.14)">
       <defs>
        <path id="Futura-Book-46" d="M 2682 4326 
L 2682 4826 
L 486 4826 
L 486 0 
L 1024 0 
L 1024 2394 
L 2630 2394 
L 2630 2893 
L 1024 2893 
L 1024 4326 
L 2682 4326 
z
" transform="scale(0.015625)"/>
       </defs>
       <use xlink:href="#Futura-Book-46"/>
       <use xlink:href="#Futura-Book-41" x="47.799988"/>
       <use xlink:href="#Futura-Book-53" x="117.699982"/>
       <use xlink:href="#Futura-Book-54" x="173.599976"/>
       <use xlink:href="#Futura-Book-53" x="220.59996"/>
       <use xlink:href="#Futura-Book-55" x="276.499954"/>
       <use xlink:href="#Futura-Book-4d" x="344.999939"/>
      </g>
     </g>
    </g>
    <g id="xtick_10">
     <g id="line2d_10">
      <g>
       <use xlink:href="#mc3b21583ce" x="413.775399" y="256.912968" style="fill: #ffffff; stroke: #ffffff; stroke-width: 0.8"/>
      </g>
     </g>
     <g id="text_10">
      <!-- NPLQCD -->
      <g style="fill: #ffffff" transform="translate(371.869599 311.371765)rotate(-45)scale(0.14 -0.14)">
       <defs>
        <path id="Futura-Book-4e" d="M 518 0 
L 1056 0 
L 1056 3718 
L 4819 -218 
L 4819 4826 
L 4282 4826 
L 4282 1088 
L 518 5030 
L 518 0 
z
" transform="scale(0.015625)"/>
       </defs>
       <use xlink:href="#Futura-Book-4e"/>
       <use xlink:href="#Futura-Book-50" x="83.399994"/>
       <use xlink:href="#Futura-Book-4c" x="133.699982"/>
       <use xlink:href="#Futura-Book-51" x="171.199966"/>
       <use xlink:href="#Futura-Book-43" x="257.399948"/>
       <use xlink:href="#Futura-Book-44" x="329.09993"/>
      </g>
     </g>
    </g>
   </g>
   <g id="matplotlib.axis_2">
    <g id="ytick_1">
     <g id="line2d_11">
      <defs>
       <path id="mf345136041" d="M 0 0 
L -3.5 0 
" style="stroke: #ffffff; stroke-width: 0.8"/>
      </defs>
      <g>
       <use xlink:href="#mf345136041" x="59.24" y="256.912968" style="fill: #ffffff; stroke: #ffffff; stroke-width: 0.8"/>
      </g>
     </g>
     <g id="text_11">
      <!-- 0 -->
      <g style="fill: #ffffff" transform="translate(43.616875 262.687968)scale(0.14 -0.14)">
       <defs>
        <path id="Futura-Book-30" d="M 1971 4909 
C 749 4909 243 3398 243 2406 
C 243 1216 870 -83 1971 -83 
C 3072 -83 3699 1216 3699 2406 
C 3699 3398 3194 4909 1971 4909 
z
M 1971 4410 
C 2880 4410 3174 3066 3162 2381 
C 3149 1702 2861 416 1971 416 
C 1082 416 794 1702 781 2381 
C 768 3066 1062 4410 1971 4410 
z
" transform="scale(0.015625)"/>
       </defs>
       <use xlink:href="#Futura-Book-30"/>
      </g>
     </g>
    </g>
    <g id="ytick_2">
     <g id="line2d_12">
      <g>
       <use xlink:href="#mf345136041" x="59.24" y="197.867066" style="fill: #ffffff; stroke: #ffffff; stroke-width: 0.8"/>
      </g>
     </g>
     <g id="text_12">
      <!-- 10 -->
      <g style="fill: #ffffff" transform="translate(34.99375 203.642066)scale(0.14 -0.14)">
       <defs>
        <path id="Futura-Book-31" d="M 1811 4326 
L 1811 0 
L 2349 0 
L 2349 4826 
L 1293 4826 
L 1011 4326 
L 1811 4326 
z
" transform="scale(0.015625)"/>
       </defs>
       <use xlink:href="#Futura-Book-31"/>
       <use xlink:href="#Futura-Book-30" x="61.599991"/>
      </g>
     </g>
    </g>
    <g id="ytick_3">
     <g id="line2d_13">
      <g>
       <use xlink:href="#mf345136041" x="59.24" y="138.821164" style="fill: #ffffff; stroke: #ffffff; stroke-width: 0.8"/>
      </g>
     </g>
     <g id="text_13">
      <!-- 20 -->
      <g style="fill: #ffffff" transform="translate(34.99375 144.596164)scale(0.14 -0.14)">
       <defs>
        <path id="Futura-Book-32" d="M 1350 499 
L 3021 2464 
C 3270 2752 3386 3091 3386 3482 
C 3386 4320 2675 4909 1869 4909 
C 1018 4909 397 4262 378 3418 
L 915 3418 
C 928 3981 1306 4410 1888 4410 
C 2413 4410 2848 4013 2848 3475 
C 2848 3162 2714 2899 2522 2669 
L 262 0 
L 3386 0 
L 3386 499 
L 1350 499 
z
" transform="scale(0.015625)"/>
       </defs>
       <use xlink:href="#Futura-Book-32"/>
       <use xlink:href="#Futura-Book-30" x="61.599991"/>
      </g>
     </g>
    </g>
    <g id="ytick_4">
     <g id="line2d_14">
      <g>
       <use xlink:href="#mf345136041" x="59.24" y="79.775262" style="fill: #ffffff; stroke: #ffffff; stroke-width: 0.8"/>
      </g>
     </g>
     <g id="text_14">
      <!-- 30 -->
      <g style="fill: #ffffff" transform="translate(34.99375 85.550262)scale(0.14 -0.14)">
       <defs>
        <path id="Futura-Book-33" d="M 1734 2285 
C 2323 2304 2758 1997 2758 1382 
C 2758 851 2355 416 1818 416 
C 1331 416 915 762 890 1254 
L 365 1254 
C 378 448 1018 -83 1798 -83 
C 2624 -83 3296 506 3296 1350 
C 3296 1843 3072 2323 2605 2534 
C 2995 2733 3226 3162 3226 3590 
C 3226 4384 2630 4909 1856 4909 
C 1062 4909 595 4403 518 3635 
L 1050 3635 
C 1094 4090 1363 4410 1843 4410 
C 2349 4410 2688 4077 2688 3565 
C 2688 2957 2246 2803 1734 2784 
L 1734 2285 
z
" transform="scale(0.015625)"/>
       </defs>
       <use xlink:href="#Futura-Book-33"/>
       <use xlink:href="#Futura-Book-30" x="61.599991"/>
      </g>
     </g>
    </g>
    <g id="ytick_5">
     <g id="line2d_15">
      <g>
       <use xlink:href="#mf345136041" x="59.24" y="20.729361" style="fill: #ffffff; stroke: #ffffff; stroke-width: 0.8"/>
      </g>
     </g>
     <g id="text_15">
      <!-- 40 -->
      <g style="fill: #ffffff" transform="translate(34.99375 26.504361)scale(0.14 -0.14)">
       <defs>
        <path id="Futura-Book-34" d="M 3046 1280 
L 3046 5094 
L 3034 5094 
L 38 781 
L 2509 781 
L 2509 0 
L 3046 0 
L 3046 781 
L 3642 781 
L 3642 1280 
L 3046 1280 
z
M 2509 1280 
L 979 1280 
L 2496 3462 
L 2509 3462 
L 2509 1280 
z
" transform="scale(0.015625)"/>
       </defs>
       <use xlink:href="#Futura-Book-34"/>
       <use xlink:href="#Futura-Book-30" x="61.599991"/>
      </g>
     </g>
    </g>
    <g id="text_16">
     <!-- count -->
     <g style="fill: #ffffff" transform="translate(27.296875 152.242265)rotate(-90)scale(0.14 -0.14)">
      <defs>
       <path id="Futura-Book-63" d="M 2720 2790 
C 2451 2982 2118 3091 1792 3091 
C 909 3091 186 2400 186 1504 
C 186 595 877 -83 1786 -83 
C 2144 -83 2445 26 2739 224 
L 2739 909 
L 2726 909 
C 2477 582 2176 390 1747 390 
C 1120 390 710 909 710 1504 
C 710 2106 1152 2618 1773 2618 
C 2176 2618 2470 2413 2707 2112 
L 2720 2112 
L 2720 2790 
z
" transform="scale(0.015625)"/>
       <path id="Futura-Book-75" d="M 960 3008 
L 448 3008 
L 448 1274 
C 448 474 749 -83 1638 -83 
C 2528 -83 2829 474 2829 1274 
L 2829 3008 
L 2317 3008 
L 2317 1331 
C 2317 826 2259 390 1638 390 
C 1018 390 960 826 960 1331 
L 960 3008 
z
" transform="scale(0.015625)"/>
       <path id="Futura-Book-6e" d="M 998 3008 
L 486 3008 
L 486 0 
L 998 0 
L 998 1427 
C 998 1965 1043 2618 1747 2618 
C 2342 2618 2381 2182 2381 1696 
L 2381 0 
L 2893 0 
L 2893 1786 
C 2893 2490 2701 3091 1869 3091 
C 1498 3091 1222 2931 1011 2643 
L 998 2643 
L 998 3008 
z
" transform="scale(0.015625)"/>
      </defs>
      <use xlink:href="#Futura-Book-63"/>
      <use xlink:href="#Futura-Book-6f" x="47.599991"/>
      <use xlink:href="#Futura-Book-75" x="103.799988"/>
      <use xlink:href="#Futura-Book-6e" x="154.999985"/>
      <use xlink:href="#Futura-Book-74" x="207.799973"/>
     </g>
    </g>
   </g>
   <g id="patch_13">
    <path d="M 59.24 256.912968 
L 59.24 15.12 
" style="fill: none; stroke: #ffffff; stroke-width: 0.8; stroke-linejoin: miter; stroke-linecap: square"/>
   </g>
   <g id="patch_14">
    <path d="M 445.68 256.912968 
L 445.68 15.12 
" style="fill: none; stroke: #ffffff; stroke-width: 0.8; stroke-linejoin: miter; stroke-linecap: square"/>
   </g>
   <g id="patch_15">
    <path d="M 59.24 256.912968 
L 445.68 256.912968 
" style="fill: none; stroke: #ffffff; stroke-width: 0.8; stroke-linejoin: miter; stroke-linecap: square"/>
   </g>
   <g id="patch_16">
    <path d="M 59.24 15.12 
L 445.68 15.12 
" style="fill: none; stroke: #ffffff; stroke-width: 0.8; stroke-linejoin: miter; stroke-linecap: square"/>
   </g>
   <g id="text_17">
    <!-- Out of 235 -->
    <g style="fill: #ffffff" transform="translate(369.156512 32.045508)scale(0.14 -0.14)">
     <defs>
      <path id="Futura-Book-4f" d="M 2758 4909 
C 1382 4909 243 3789 243 2406 
C 243 1018 1382 -83 2758 -83 
C 4134 -83 5274 1018 5274 2406 
C 5274 3789 4134 4909 2758 4909 
z
M 2758 4410 
C 3866 4410 4736 3507 4736 2413 
C 4736 1325 3853 416 2758 416 
C 1664 416 781 1325 781 2413 
C 781 3507 1651 4410 2758 4410 
z
" transform="scale(0.015625)"/>
      <path id="Futura-Book-20" transform="scale(0.015625)"/>
      <path id="Futura-Book-66" d="M 1043 2534 
L 1805 2534 
L 1805 3008 
L 1043 3008 
L 1043 4026 
C 1043 4557 1043 4851 1459 4851 
C 1587 4851 1690 4819 1805 4781 
L 1805 5299 
C 1683 5338 1562 5363 1440 5363 
C 1133 5363 832 5254 666 4986 
C 531 4768 531 4454 531 4205 
L 531 3008 
L 250 3008 
L 250 2534 
L 531 2534 
L 531 0 
L 1043 0 
L 1043 2534 
z
" transform="scale(0.015625)"/>
      <path id="Futura-Book-35" d="M 3347 4326 
L 3347 4826 
L 1427 4826 
L 730 2515 
C 1005 2694 1312 2822 1645 2822 
C 2317 2822 2848 2336 2848 1651 
C 2848 947 2342 416 1632 416 
C 1171 416 781 698 563 1088 
L 134 781 
C 454 237 979 -83 1613 -83 
C 2598 -83 3386 640 3386 1638 
C 3386 2573 2733 3322 1779 3322 
L 1491 3296 
L 1805 4326 
L 3347 4326 
z
" transform="scale(0.015625)"/>
     </defs>
     <use xlink:href="#Futura-Book-4f"/>
     <use xlink:href="#Futura-Book-75" x="86.199982"/>
     <use xlink:href="#Futura-Book-74" x="137.399979"/>
     <use xlink:href="#Futura-Book-20" x="161.399963"/>
     <use xlink:href="#Futura-Book-6f" x="192.199951"/>
     <use xlink:href="#Futura-Book-66" x="248.399948"/>
     <use xlink:href="#Futura-Book-20" x="275.799942"/>
     <use xlink:href="#Futura-Book-32" x="306.59993"/>
     <use xlink:href="#Futura-Book-33" x="368.199921"/>
     <use xlink:href="#Futura-Book-35" x="429.799911"/>
    </g>
   </g>
  </g>
 </g>
 <defs>
  <clipPath id="p085fbd9c62">
   <rect x="59.24" y="15.12" width="386.44" height="241.792968"/>
  </clipPath>
 </defs>
</svg>
