<svg height="30.635811mm" viewBox="0 0 54.127724 30.635811" width="54.127724mm" xmlns="http://www.w3.org/2000/svg"><g transform="translate(-80.895582 -123.2625)"><text stroke-width=".264583" x="117.33132" y="37.21402"><tspan stroke-width=".264583" x="117.33132" y="46.869514"/></text><g fill="#fff" fill-opacity="1" stroke-width=".768425"><path d="m95.427514 130.93171-2.11617 1.69593q-.840465-.87048-1.530847-1.29071-.675374-.43524-1.966088-.43524-1.41078 0-2.29627.64536-.870481.63034-.870481 1.6359 0 .87048.765423 1.54586.765424.66036 2.611445 1.4558 1.846021.78043 2.866585 1.47081 1.035573.67538 1.695938 1.50084.660366.82545.97554 1.74096.330182.9155.330182 1.93607 0 2.38632-1.740963 4.06725-1.725954 1.68093-4.187316 1.68093-2.401328 0-4.247349-1.30572-1.831013-1.32073-2.821561-3.94719l2.611445-.7354q1.425788 3.22678 4.367416 3.22678 1.425788 0 2.371311-.85547.945523-.85548.945523-2.1612 0-.78043-.495274-1.56086-.495274-.79544-1.23068-1.30572-.735407-.51029-2.356304-1.15564-1.605888-.66037-2.47637-1.20067-.855473-.5553-1.485821-1.30572-.630349-.76542-.930515-1.51584-.285158-.75041-.285158-1.60589 0-2.05613 1.650913-3.49693 1.650914-1.4558 4.007217-1.4558 1.560863 0 3.166751.67537 1.605889.67537 2.671478 2.05614z"/><path d="m106.2485 128.08013 9.035 19.85598h-2.73151l-2.23624-4.8927h-8.11949l-2.17621 4.8927h-2.716498zm0 5.98831-3.0767 6.79876h6.1534z"/><path d="m131.9277 129.46089v2.95664q-3.09171-1.51584-5.68814-1.51584-3.33185 0-5.61311 2.16119-2.28126 2.14619-2.28126 5.28293 0 3.19677 2.32629 5.34295 2.34129 2.13118 5.85324 2.13118 2.55141 0 5.40298-1.60589v2.98665q-2.59643 1.38077-5.62811 1.38077-4.44246 0-7.5942-3.00166-3.15174-3.01667-3.15174-7.26402 0-4.17231 3.09171-7.14395 3.10672-2.97164 7.47413-2.97164 2.80655 0 5.80821 1.26069z"/></g><g fill="#e5822a"><path d="m96.542653 149.30794h19.566737l1.39379 2.59037-22.25982-.0236z" stroke-width=".264583"/><path d="m110.90358 131.10083h1.341853v.991396h-1.341853z" stroke-width=".291823"/><path d="m112.44139 131.10083h1.341853v.991396h-1.341853z" stroke-width=".291823"/><path d="m113.97965 131.10083h1.341853v.991396h-1.341853z" stroke-width=".291823"/><path d="m110.90358 129.91357h1.341853v.991396h-1.341853z" stroke-width=".291823"/><path d="m112.44139 128.7263h1.341853v.991396h-1.341853z" stroke-width=".291823"/><path d="m113.97965 127.53902h1.341853v.991396h-1.341853z" stroke-width=".291823"/><path d="m113.97965 126.35177h1.341853v.991396h-1.341853z" stroke-width=".291823"/><path d="m112.53943 125.2625h1.341853v.991396h-1.341853z" stroke-width=".291823"/><path d="m111.0992 126.35175h1.341853v.991396h-1.341853z" stroke-width=".291823"/></g></g></svg>