<svg height="100.15856mm" viewBox="0 0 146.26108 100.15856" width="146.26108mm" xmlns="http://www.w3.org/2000/svg"><g fill="#fff" transform="translate(-16.071854 -73.051662)"><path d="m19.664261 164.28632c.982133.0508 1.083839.0508 1.439368.0508 3.505165 0 4.893663-1.6426 4.893663-3.556 0-1.524-.880533-2.31994-1.642604-2.65853-.677298-.3048-1.456161-.35567-2.590729-.35567h-3.742197v11.95504h1.642499zm0-5.52027h1.811831c1.456337 0 1.9812.3387 2.336871.76203.270792.32177.490996.82974.490996 1.40547 0 1.03297-.643396 2.06583-2.201263 2.48917-.999067.27089-1.964267.23713-2.438435.2202zm9.13197 4.40267c.169369-.237.745102-1.03297 1.778106-1.03297.575734 0 1.049761.23717 1.320695.35567v-1.3885c-.237032-.10171-.457236-.20327-.897502-.20327-1.236098 0-1.913432.98213-2.201299 1.3885v-1.18523h-1.557866v8.61907h1.557866zm5.880912-2.08277h-1.541039v8.63604h1.541039zm-1.659572-2.5061c0 .54145.423474.8974.880568.8974.287902 0 .91433-.16923.91433-.94823 0-.4403-.338561-.88057-.880569-.88057-.54169 0-.914329.40636-.914329.9314m5.637036 3.5052h1.778071v-.98213h-1.778071v-.82973c0-.74511 0-1.13454.186302-1.43937.169369-.28787.524969-.54183 1.066835-.54183.4064 0 .694267.11849.931334.22006.06773-.10157.2032-.25397.270933-.35553-.186267-.20324-.643467-.7451-1.693333-.7451-.711236 0-1.2192.25396-1.524142.4742-.761929.57559-.778862 1.37153-.778862 2.15043v1.06687h-1.219306v.98213h1.219306v7.63694h1.540933zm9.13878-.98213-2.624667 6.01126-2.4384-6.01126h-1.710267l3.3528 7.80616c-1.134533 2.5739-1.845733 3.36988-3.3528 3.82697v.45723c2.1844.10153 3.318933-1.20223 4.351867-3.55603l3.7592-8.53433zm8.29557 2.04886c-.0508-.38943-.169334-1.20219-1.049867-1.81183-.626534-.4403-1.456267-.5927-2.1336-.5927-1.947334 0-3.132667 1.11756-3.132667 2.55693 0 1.65943 1.490133 2.13364 2.353733 2.40454.931334.2879 1.3716.42333 1.710267.5927.237067.11853.8636.45723.8636 1.27 0 .86363-.762 1.43937-1.9304 1.43937-.8636 0-1.693333-.30484-2.252134-.79598-.389466-.33856-.592666-.69423-.745066-.94819-.118534.0508-.321734.10153-.4572.1524.08467.40636.237066 1.28693 1.134533 1.96426.677334.49111 1.524.6773 2.370667.6773.931333 0 1.811867-.18619 2.506133-.74496.592667-.4742.948267-1.1515.948267-1.96441 0-1.8288-1.744133-2.33673-2.607733-2.59073-.118534-.0339-.846667-.25396-.897467-.27089-.880533-.28787-1.456267-.62661-1.456267-1.33781 0-.76193.728134-1.32073 1.845734-1.32073 1.608666 0 2.201333.98214 2.4892 1.4562.118533-.0338.321733-.10157.440267-.13547m7.343775-2.04886v1.11756c-.3556-.50807-1.032933-1.47323-2.556934-1.47323-1.811866 0-3.471333 1.5409-3.471333 4.50423 0 2.72634 1.456267 4.2164 3.369733 4.2164 1.676401 0 2.387601-.96516 2.658534-1.32112v.49139c0 1.2193 0 2.01513-.6096 2.70937-.4572.54186-1.1684.779-1.8796.779-.795867 0-1.6256-.30522-2.1844-.81291-.389467-.35553-.541867-.67729-.677334-.96516l-.491066.16937c.508 2.42146 2.54 2.6924 3.4544 2.6924 1.456267 0 2.4384-.54183 3.014133-1.1176.9144-.93141.9144-2.11667.9144-3.4036v-7.5861zm0 6.3839c-.389467.32163-1.083733.89736-2.065867.89736-1.659467 0-2.353733-1.60856-2.353733-3.2512 0-1.9473.897466-3.2851 2.286-3.2851.423333 0 .8636.13561 1.253067.38957.491066.32163.7112.69427.880533.98214zm11.629673-2.20144c0-2.64156-1.557867-4.53813-4.080934-4.53813-2.302933 0-4.250267 1.4902-4.250267 4.80907 0 .79597.1016 2.47233 1.388534 3.58951.948267.79622 2.015067.93169 2.709333.93169 1.8796 0 2.878667-.93169 3.302001-1.47313.575733-.74511.931333-1.86267.931333-3.31901m-1.642534.10157c0 2.75981-1.202266 3.75888-2.523066 3.75888-.8636 0-1.761067-.49071-2.1844-1.62525-.135467-.32162-.338667-1.04979-.338667-2.16739 0-1.81184.6604-3.65757 2.54-3.65757 1.744133 0 2.506133 1.74403 2.506133 3.69133m4.924073-7.62h-1.540933v11.95504h1.540933zm6.112581 11.95504h2.099733l1.185334-2.64171h4.944533l1.185334 2.64171h2.573867l-5.486401-11.95504h-.830086zm7.501467-4.21637h-3.5052l1.7272-3.8778zm5.452534 4.21637h2.269067v-.89751c.287866.35553 1.049867 1.28694 2.523067 1.28694 1.69333 0 3.84387-1.32084 3.84387-4.80907 0-2.6924-1.3716-4.60583-3.69147-4.60583-1.64289 0-2.3368.8974-2.675467 1.33766v-4.26723h-2.269067zm2.269067-6.5024c0-.017.541867-1.13454 1.845737-1.13454.86324 0 1.42204.49072 1.76071 1.18523.33867.67744.38982 1.45634.38982 2.0151 0 2.84484-1.3208 3.43754-2.20133 3.43754-.9652 0-1.4732-.60964-1.794937-.9991zm15.729307 3.86069c-.59267.76207-1.2192 1.55787-2.794 1.55787-2.67547 0-2.96369-2.38785-3.048-3.031h6.67173c-.0173-.9482-.0339-2.55693-1.23613-3.7761-1.04987-1.0499-2.40454-1.16843-3.1496-1.16843-3.06494 0-4.69054 2.06583-4.69054 4.60583 0 2.6585 1.64254 4.80907 4.75827 4.80907 2.98027 0 3.67453-1.77793 4.04707-2.72631zm-5.7912-2.79396c.22013-.8636.5588-2.20127 2.1844-2.20127 1.69333 0 1.8796 1.4224 1.9812 2.20127zm10.31557-3.23427h-2.26907v8.66994h2.26907v-6.72261c.38912-.254.89747-.59256 1.72685-.59256.62689 0 1.06715.20313 1.49049.40637v-1.96424c-.2032-.0339-.42334-.0509-.64347-.0509-1.54093 0-2.2352.89754-2.57387 1.33767zm5.60987 0h-1.3716v1.35477h1.3716v4.79214c0 .76189.0843 1.52396.7112 2.13345.6604.66051 1.55787.7112 1.96427.7112 1.1176 0 1.7272-.38943 2.2352-.69423l-.27093-.54186c-.27094.0848-.508.16936-.8636.16936-.16934 0-.84667 0-1.25307-.76207-.16933-.28786-.27093-.64339-.27093-1.37153v-4.43646h1.9812v-1.35477h-1.9812v-2.35366h-2.25214zm13.13322 3.43754c0-.79598-.0169-1.9473-.8636-2.81094-.49107-.50807-1.43969-.99949-2.91254-.99949-2.57386 0-3.2512 1.49049-3.62373 2.32022l.57573.28787c.33867-.45724.94827-1.28697 2.3876-1.28697.64347 0 1.60867.2202 2.01472 1.13453.18662.42334.22048.88057.23706 1.32087-.67733-.20327-1.21884-.37249-2.04858-.37249-2.01506 0-3.6576 1.1176-3.6576 3.11577 0 1.55786 1.1176 2.77699 2.87867 2.77699 1.60867 0 2.45533-.84667 2.82751-1.2361v.98214h2.18476zm-2.18476 3.47126c-.43991.28787-.98178.6266-1.77764.6266-1.13454 0-1.55787-.79597-1.55787-1.54093 0-1.10077.88018-1.62567 1.87925-1.62567.57608 0 1.01635.15243 1.45626.32177zm5.54955 1.8288h.82938l2.28635-5.0461 2.28565 5.0461h.81315l3.26814-8.7376h-1.81187l-1.49048 4.31811-.25365.81276c-.18627-.45724-.20355-.54187-.37254-.94837l-1.72755-4.1825h-.74471l-2.25249 5.1139c-.11853-.42333-.15205-.5249-.27058-.91447l-1.4224-4.19943h-2.35373zm17.95251-2.70937c-.59267.76207-1.21955 1.55787-2.794 1.55787-2.67547 0-2.96333-2.38785-3.048-3.031h6.67173c-.0169-.9482-.0342-2.55693-1.23613-3.7761-1.04987-1.0499-2.40453-1.16843-3.14995-1.16843-3.06458 0-4.69018 2.06583-4.69018 4.60583 0 2.6585 1.64253 4.80907 4.75826 4.80907 2.98027 0 3.67454-1.77793 4.04672-2.72631zm-5.79155-2.79396c.22048-.8636.5588-2.20127 2.18475-2.20127 1.69333 0 1.8796 1.4224 1.9812 2.20127z"/><path d="m16.071854 149.28197c.101706.62618.254106 1.59177 1.083839 2.40425 1.134533 1.13454 2.793965 1.16872 3.4036 1.16872.50793 0 2.489306 0 3.776098-1.3378.609636-.6434 1.049938-1.59206 1.049938-2.62502 0-.93088-.372639-1.761-.948232-2.30287-.779004-.77893-2.015243-1.06644-2.844835-1.25306-1.287075-.25365-2.201404-.44027-2.556934-1.3208-.08477-.22014-.101564-.44027-.101564-.57574 0-1.23613 1.202055-1.84538 2.556933-1.84538 1.032863 0 1.862561.33867 2.3876.84632.304694.30515.440302.59266.592561.96555l.694408-.18662c-.05087-.40605-.135608-1.23613-.863776-1.9812-1.032828-1.06645-2.675467-1.08338-3.166605-1.08338-3.877521 0-4.605655 2.40418-4.605655 3.72498 0 2.74355 2.522891 3.2512 3.877663 3.52252 1.456161.28748 2.48913.66037 2.48913 1.94691 0 1.01604-.829698 2.04929-2.522891 2.04929-1.016176 0-2.015102-.30484-2.743412-1.01632-.44016-.43988-.660223-.8975-.880427-1.3378zm12.459512 3.28468h.829733l2.286036-5.04568 2.286035 5.04568h.812624l3.268133-8.73718h-1.811831l-1.490063 4.31768-.254.81319c-.186302-.45723-.203094-.542-.372604-.94865l-1.727235-4.18222h-.744961l-2.252134 5.1139c-.118498-.42333-.1524-.52503-.270933-.91475l-1.422541-4.19915h-2.353698zm17.258243-5.30006c0-.79587-.01693-1.94734-.8636-2.81094-.491067-.50764-1.439334-.99906-2.912534-.99906-2.573867 0-3.251271 1.49048-3.623733 2.31986l.575733.28822c.338667-.4572.948267-1.28728 2.3876-1.28728.643467 0 1.608667.22013 2.015067 1.13453.186267.42333.220133.88053.237067 1.3208-.677334-.2032-1.219201-.37218-2.048934-.37218-2.015067 0-3.657671 1.11767-3.657671 3.11566 0 1.5579 1.117671 2.77717 2.878738 2.77717 1.608666 0 2.455333-.84709 2.827867-1.23623v.98185h2.1844zm-2.1844 3.47168c-.440267.28745-.982134.62618-1.778001.62618-1.134533 0-1.557866-.79583-1.557866-1.54093 0-1.10035.880533-1.62525 1.8796-1.62525.575733 0 1.016.15201 1.456267.32177zm11.910836-4.09786c0-.72849-.0508-1.59174-.694266-2.26907-.4572-.47449-1.185334-.79622-2.0828-.79622-1.642534 0-2.387601.88053-2.827867 1.38889v-1.13454h-2.252134v8.66952h2.252134v-6.45125c.389466-.44027.948266-1.06715 1.8796-1.06715.8128 0 1.236133.52528 1.3716 1.016.08467.28822.08467.59266.08467.88053v5.62187h2.269066zm1.283759 3.58951c.0508.40679.1524 1.03297.728133 1.62595.372534.37218 1.236134.99907 2.929467.99907 2.4892 0 3.691467-1.40589 3.691467-2.9125 0-.72856-.270933-1.37195-.677333-1.79529-.491067-.50768-1.151467-.69426-1.625601-.81276-.321733-.0847-.643466-.15212-.9652-.2202-.762-.2032-1.540933-.42334-1.540933-1.20227 0-.5588.491067-1.15147 1.7272-1.15147 1.710267 0 2.1336.88089 2.286 1.18569l.592667-.16969c-.06773-.33866-.169333-.84631-.677333-1.37124-.541867-.5588-1.422401-.94862-2.573867-.94862-2.523067 0-3.640667 1.524-3.640667 2.91253 0 1.57519 1.303867 2.0659 1.642533 2.1844.389467.15243.778934.23703 1.1684.32205 1.100667.23675 1.659467.45681 1.913467 1.01561.0508.15244.08467.28829.08467.42376 0 .0504 0 .84624-.948267 1.15108-.287867.1017-.575733.1185-.846667.1185-.948266 0-1.761066-.32163-2.2352-.7958-.237067-.23703-.338667-.47378-.440267-.69384zm16.524817-.37222c-.592666.76207-1.2192 1.55787-2.794 1.55787-2.675467 0-2.963333-2.38785-3.048-3.031h6.671734c-.01693-.94862-.03387-2.55696-1.236134-3.77616-1.049866-1.05022-2.404533-1.16876-3.1496-1.16876-3.064933 0-4.690533 2.06622-4.690533 4.60594 0 2.6585 1.642533 4.80935 4.758267 4.80935 2.980266 0 3.674533-1.77793 4.047067-2.72659zm-5.7912-2.79396c.220133-.8636.5588-2.20133 2.1844-2.20133 1.693334 0 1.8796 1.4224 1.9812 2.20133zm15.424504.20285c0-.79587-.01693-1.94734-.8636-2.81094-.491067-.50764-1.439334-.99906-2.912534-.99906-2.573867 0-3.2512 1.49048-3.623733 2.31986l.575733.28822c.338667-.4572.948267-1.28728 2.3876-1.28728.643467 0 1.608667.22013 2.015067 1.13453.186267.42333.220133.88053.237067 1.3208-.677334-.2032-1.2192-.37218-2.048934-.37218-2.015067 0-3.6576 1.11767-3.6576 3.11566 0 1.5579 1.1176 2.77717 2.878667 2.77717 1.608667 0 2.455333-.84709 2.827867-1.23623v.98185h2.1844zm-2.1844 3.47168c-.440267.28745-.982134.62618-1.778.62618-1.134534 0-1.557867-.79583-1.557867-1.54093 0-1.10035.880533-1.62525 1.8796-1.62525.575733 0 1.016.15201 1.456267.32177zm19.134315-10.21115h-1.6256v9.31365c-.762.86332-2.116667 1.86242-3.674534 1.86242-1.134533 0-2.048933-.52465-2.455333-1.16819-.3048-.47403-.423334-1.13453-.423334-2.42175v-7.58613h-1.6256v8.31455c0 1.25321.2032 2.11667.9144 2.84455.643467.6773 1.7272 1.15179 3.1496 1.15179 1.591381 0 2.912534-.50797 4.114801-2.11667v1.77765h1.6256zm9.4488 5.90973c0-.79551-.0169-1.60831-.72813-2.26871-.16969-.13582-.72849-.64347-1.9812-.64347-1.79494 0-2.60774 1.10067-2.9464 1.55787v-1.20262h-1.524v8.61907h1.524v-6.41738c.59266-.99907 1.49013-1.43934 2.31986-1.43934.508 0 1.43934.2032 1.69334 1.13418.11853.4572.11853.89747.11853 1.82912v4.89342h1.524zm3.64737-2.57351h-1.54093v8.63565h1.54093zm-1.65947-2.50649c0 .54187.42334.89782.88054.89782.28786 0 .9144-.16968.9144-.94862 0-.44026-.33867-.88053-.88054-.88053-.54186 0-.9144.40675-.9144.93133m9.65342 2.52307-2.45569 5.75772c-.13512.3048-.15205.40598-.18592.57573-.0677-.28829-.1524-.50835-.16933-.5588l-2.35373-5.77465h-1.6764l3.77613 8.72063h.52493l3.81001-8.72063zm9.87354 4.31835c.0169-.60992.0677-2.45533-1.27-3.69146-.67733-.60996-1.59173-.98214-2.6924-.98214-2.31987 0-4.30107 1.70992-4.30107 4.70708 0 3.08226 2.032 4.62319 4.318 4.62319 2.96334 0 3.62374-2.15085 3.79307-2.76006-.11853-.0339-.3048-.11868-.42333-.1698-.3048.47446-1.1684 1.76114-2.9972 1.76114-.254 0-1.4732 0-2.3368-1.1176-.6604-.88057-.7112-1.87963-.74542-2.37035zm-6.63787-.93168c.23707-1.98085 1.60867-2.67547 2.6416-2.67547.84667 0 2.37067.508 2.4892 2.67547zm9.76207-1.32045c.16933-.23707.74507-1.03329 1.778-1.03329.57573 0 1.04987.23707 1.3208.35596v-1.38889c-.23707-.1016-.45755-.2032-.89747-.2032-1.23613 0-1.91346.98213-2.20133 1.38889v-1.18569h-1.55787v8.61907h1.55787zm10.41894-.0173c-.0508-.38946-.16933-1.20191-1.04987-1.81186-.62653-.44027-1.45626-.59232-2.1336-.59232-1.94733 0-3.13266 1.1176-3.13266 2.55694 0 1.65943 1.49013 2.13321 2.35373 2.40411.93133.2879 1.3716.42333 1.71027.59312.23671.1185.8636.4571.8636 1.26958 0 .86402-.762 1.43937-1.9304 1.43937-.8636 0-1.69334-.30484-2.25214-.79555-.38946-.33856-.59266-.69423-.74506-.94862-.11854.0513-.32174.10167-.4572.15282.0847.40594.23706 1.28651 1.13453 1.96384.67733.49139 1.524.67773 2.37067.67773.93133 0 1.81186-.18634 2.50613-.74514.59267-.47403.94827-1.15175.94827-1.96452 0-1.82851-1.74414-2.33687-2.60774-2.59044-.11853-.0339-.84666-.25411-.89746-.27132-.88054-.28752-1.45627-.62618-1.45627-1.33774 0-.76164.72813-1.32044 1.84573-1.32044 1.60867 0 2.20134.98178 2.4892 1.45626.11854-.0342.32174-.1016.44027-.13582m3.29671-2.06551h-1.54094v8.63565h1.54094zm-1.65947-2.50649c0 .54187.42333.89782.88054.89782.28786 0 .9144-.16968.9144-.94862 0-.44026-.33867-.88053-.88054-.88053s-.9144.40675-.9144.93133m5.57954 3.50556h1.81186v-.98249h-1.81186v-2.28565h-1.54094v2.28565h-1.18533v.98249h1.18533v5.36751c0 1.03297.0677 1.72752.762 2.21823.254.16976.74507.40679 1.40547.40679.99907 0 1.54093-.47445 1.86267-.7451-.0677-.1185-.16934-.28815-.23707-.40665-.28787.13571-.59267.28815-1.03329.28815-1.21884 0-1.21884-1.08412-1.21884-2.18475zm9.36378-.98249-2.62467 6.01126-2.4384-6.01126h-1.71027l3.3528 7.8063c-1.13453 2.57376-1.84573 3.36974-3.3528 3.82722v.45723c2.1844.10157 3.31894-1.20233 4.35187-3.556l3.7592-8.53475z"/><path d="m103.83532 114.7694c-.70909-1.43334-2.10432-3.59974-2.4698-4.04707l-.073.16616c-.007.0296-.64664 2.80776-.85372 3.92924.16722-.0843.45226-.248.69533-.38664l.21801-.12489.007.1644c.0769 1.90182-.26317 3.55318-1.01141 4.9082l-.0138.025c-.13723.024-.28328.043-.428975.0571l-2.430286-1.81328v-9.05404c0-.11606-.04516-.22542-.127-.30656-.05997-.061-.142523-.13159-.2413-.19685l5.127621-3.9624c.23531-.18168.26776-.52388.0709-.74718-.0737-.0843-.14746-.16899-.22119-.25365-.17886-.2032-.48436-.23425-.69956-.0699l-5.003798 3.80894c-.49777-.1584-1.539522-.43709-2.685698-.43709-1.401233 0-2.643364.3496-3.705578 1.04105v-1.52789c.503767-.0272 1.226609-.127 1.957917-.4385.117475-.0497.195439-.17215.198261-.30938l.02893-1.21638c.0032-.13159-.06279-.2533-.170744-.31362-.282223-.15628-.920398-.43039-2.014362-.5147v-.2346c0-.22119-.178858-.40005-.399697-.40005h-.561975c-.221192 0-.399697.17886-.399697.40005v.2346c-1.093964.0843-1.732139.35842-2.014361.5147-.10795.0603-.17392.18203-.171098.31362l.02928 1.21638c.0032.13723.08079.25964.198261.30938.731661.3115 1.45415.41134 1.957917.4385v1.52789c-1.062214-.69145-2.304345-1.04105-3.705578-1.04105-.991306 0-1.904647.20849-2.455334.36724l-2.211564-1.63689c.101953-.25612.158045-.53552.158045-.82797 0-1.23966-1.004711-2.24437-2.244373-2.24437-1.239661 0-2.245077 1.00471-2.245077 2.24437 0 1.24002 1.005416 2.24508 2.245077 2.24508.45085 0 .870656-.13335 1.222728-.36266l2.365375 1.75084c-.214841.0797-.382763.21731-.488244.32244-.08149.0811-.126647.1905-.126647.30656v8.88965l-1.691923 1.25236c-.264583.007-.534811.0699-.709789.1905-1.346552-1.94239-2.424289-4.44958-2.338916-6.846-1.13277 2.534-.164395 5.5499 1.176866 7.85001l-.487186.32773c-.06385.043.04762.32173.249767.62195l.207786.30868c.201789.29986.417336.5087.481895.46566l.557388-.37535c1.798109 1.93146 4.363156 3.69605 7.083426 3.3655-2.320572-.67028-4.315178-2.29518-5.789084-4.17619.135467-.10689.190853-.36442.275872-.56232l2.323395-1.7198c.676981-.21907 1.4986-.4265 2.189339-.4265 1.095022 0 2.12972.16298 2.987675.43497-.0021.004.0099.007.03387.0109l.937683.30127c-.0018.0169-.0025.0342-.0025.0515v4.29825c0 .29245.237067.53022.529872.53022h.301272c.293159 0 .530225-.23777.530225-.53022v-4.29825c0-.0173-.000705-.0346-.0028-.0515l.938389-.30127c.02364-.004.03563-.007.03387-.0109.857603-.27199 1.8923-.43497 2.987322-.43497.565856 0 1.219906.13934 1.810103.31044l3.215217 2.39395c.04586.18979.08714.39088.114653.58738-1.346553 1.3275-2.961217 1.93498-4.086225 2.2105l-.137231.0335.01411-.14075c.01905-.19297.04269-.38912.06421-.56551.0194-.15698.03986-.32737.05009-.44591-.928158.62654-3.161242 2.25002-3.174295 2.25849l-.130452.12538c.584906.121 2.985912.39864 4.514498.41945-.166864-.13546-.400756-.32526-.600781-.48471l-.152752-.12136.187677-.0533c1.141237-.32173 2.737909-.95991 4.126442-2.20274.707316-.15452 1.698976-.58314 1.698976-.58314s0-.78987-.0579-1.46932c.91087-1.56634 1.32538-3.47098 1.22978-5.66561l-.008-.16793.15134.0737c.27552.13441.76306.36054 1.05975.49742m-25.684698-9.23149c-.6858 0-1.241073-.55562-1.241073-1.24142 0-.68545.555273-1.24143 1.241073-1.24143s1.241072.55598 1.241072 1.24143c0 .6858-.555272 1.24142-1.241072 1.24142m18.072454 11.20634c-.611717-.24624-1.331384-.37077-2.14242-.37077-1.853847 0-3.704872.635-4.482395.94086-.130527.0607-.388761.15734-.289983.11959 0 0-.06703-.0226-.281869-.11677-.772231-.30445-2.630312-.94368-4.490862-.94368-.811036 0-1.53035.12453-2.142419.37077v-9.44845c.357011-.11994 1.331383-.4004 2.528711-.4004 1.5621 0 3.043414.53693 4.146197 1.45168l.240242.27587.239889-.27587c1.103136-.91475 2.58445-1.45168 4.146197-1.45168 1.197328 0 2.171348.28046 2.528712.4004z"/><path d="m90.040645 109.15212c-.01376.0437-.0085.09.01376.12947l.01552.0275c.02822.0526.08361.0857.144286.0857.02469 0 .04833-.005.07091-.0162.428272-.20284 1.576564-.67557 2.986617-.67557.455789 0 .903464.0504 1.330325.14993l.02752.004h.0099c.07408 0 .1397-.0494.159809-.12347l.0067-.0296c.01129-.0434.0046-.0889-.0187-.12806-.02328-.0381-.05997-.0649-.104069-.0755-.460728-.10795-.941917-.16263-1.430162-.16263-1.490486 0-2.683228.50024-3.125258.71508-.04198.0194-.07338.0561-.08714.0991"/><path d="m90.069925 110.37485c.02858.0529.08396.0861.144286.0861.02469 0 .04798-.006.07091-.0159.425097-.20355 1.566333-.67592 2.9845-.67592.456847 0 .904875.0501 1.332442.14993l.02787.004h.0095c.07408 0 .139347-.0497.160161-.12418l.0063-.0282c.01164-.0448.0046-.0907-.01834-.12911-.02328-.0381-.05997-.0646-.10407-.0751-.46108-.10759-.941916-.16298-1.430514-.16298-1.488722 0-2.681464.49989-3.125964.71543-.04269.0215-.07338.0575-.08643.1009-.01305.043-.0088.0892.01376.12911l.01552.0258"/><path d="m94.683553 110.56464c-.460727-.10795-.942269-.16263-1.430866-.16263-1.48837 0-2.681112.49953-3.125612.71508-.04233.0215-.07303.0575-.08608.10125-.01411.043-.0088.0889.01376.12912l.01482.0275c.02893.0529.08431.0857.144991.0857.02434 0 .04833-.006.07091-.0162.428272-.2032 1.576211-.67557 2.985911-.67557.456142 0 .903817.0504 1.330678.14993l.02752.004h.0095c.07479 0 .140053-.0497.160162-.12312l.0067-.0296c.01164-.0434.0049-.0885-.01764-.127-.02328-.0392-.06068-.0674-.104775-.0787"/><path d="m90.068161 112.47211c.02893.0529.08431.0861.144287.0861.02434 0 .04798-.006.07126-.0169.426508-.20285 1.571625-.67593 2.986264-.67593.456494 0 .904875.0504 1.332089.15029l.02752.004h.0095c.07479 0 .140053-.049.160162-.12347l.0063-.0286c.01199-.0448.0053-.0907-.01834-.12911-.02328-.0385-.05997-.0649-.103717-.0755-.461433-.10795-.943327-.16228-1.431925-.16228-1.494366 0-2.683228.49954-3.126317.71473-.04163.0212-.07267.0572-.08643.10266-.01305.0427-.0088.0889.0134.12735l.01588.0265"/><path d="m94.681437 112.67919c-.460728-.10795-.941917-.16263-1.430514-.16263-1.489781 0-2.681817.49989-3.125259.71473-.04233.0201-.07267.0554-.08608.0991-.01411.0437-.0092.09.01305.12876l.01517.0286c.02928.0526.08467.0854.144991.0854.02399 0 .04762-.005.07126-.0159.425803-.2032 1.569509-.67628 2.985559-.67628.456494 0 .904522.0505 1.332442.15028l.02752.004h.0092c.07444 0 .140052-.049.160866-.12312l.0063-.0296c.01164-.0434.0046-.0889-.0187-.12771-.02328-.0388-.06103-.0656-.105833-.0758"/><path d="m94.683553 113.72236c-.461786-.10795-.942269-.16299-1.430866-.16299-1.488017 0-2.681112.49989-3.125612.71508-.04233.0219-.07303.0579-.08608.1016-.01341.0423-.0092.0882.0134.12841l.01517.0265c.02893.0526.08431.0857.144991.0857.02434 0 .04833-.005.07091-.0162.428272-.2032 1.576211-.67557 2.986264-.67557.456141 0 .903464.0504 1.330325.14993l.02752.004h.0095c.07479 0 .140053-.0494.160162-.12311l.0067-.03c.01164-.0434.0049-.0889-.0187-.12806-.02364-.0384-.06033-.0653-.103717-.0755"/><path d="m94.685317 114.76905c-.46108-.10795-.941916-.16263-1.430866-.16263-1.489076 0-2.681465.49953-3.125612.71473-.04233.0212-.07338.0575-.08643.10089-.01341.0434-.0081.09.02716.15487.02857.0533.08396.0864.144991.0864.02434 0 .04833-.005.07091-.0162.427919-.20285 1.575858-.67557 2.985911-.67557.456142 0 .903464.0504 1.330678.14993l.02752.004h.0095c.07479 0 .140053-.0501.159809-.12136l.0067-.0296c.01199-.0452.0053-.0917-.01834-.13018-.02223-.0377-.05962-.0649-.101953-.0755"/><path d="m87.602597 112.216c-.442383-.2152-1.63195-.71509-3.126316-.71509-.488598 0-.970492.0547-1.431573.16263-.0441.01-.08114.0371-.104069.0752-.02293.0381-.02963.0847-.0187.1277l.0067.0307c.02011.0723.08608.12312.160161.12312l.02787-.002.0092-.002c.427214-.0998.875242-.15028 1.332442-.15028 1.413933 0 2.559756.47272 2.986264.67592.02293.0109.04621.0162.07091.0162.06103 0 .115006-.0332.144286-.0861l.01552-.0258c.02223-.0399.02716-.0857.01341-.12841-.01305-.0441-.04445-.0808-.08608-.1016"/><path d="m87.602597 113.23129c-.443794-.21484-1.636183-.71473-3.125611-.71473-.488597 0-.969786.0547-1.430867.16263-.0441.0102-.08149.037-.106186.0766-.02258.0384-.02893.0843-.01799.12629l.0067.0303c.02011.073.08608.12347.160161.12347l.02787-.002.0092-.002c.427214-.0998.875595-.15029 1.332795-.15029 1.414639 0 2.559755.47273 2.985911.67593.02293.0109.04621.0162.07091.0162.06032 0 .115711-.0335.143934-.0857l.01552-.0275c.02258-.0399.02752-.0861.01376-.13017-.01411-.0441-.0448-.0794-.08608-.0988"/><path d="m87.600481 114.27445c-.443795-.21484-1.636889-.71472-3.125259-.71472-.488244 0-.96908.0543-1.430867.16298-.04374.01-.08079.0367-.103716.0755-.02328.0388-.02963.085-.0187.12736l.0067.0303c.02011.0723.08572.12311.160161.12311l.02787-.002.0092-.002c.426861-.10018.874183-.15028 1.330678-.15028 1.410053 0 2.557992.47237 2.985558.67522.02258.0109.04657.0162.07161.0162.06068 0 .115359-.0328.144639-.0857l.01552-.0258c.02223-.0402.02681-.0857.01376-.12771-.01305-.0441-.04445-.0811-.08714-.10266"/><path d="m87.59907 115.32115c-.443795-.21485-1.636184-.71473-3.125259-.71473-.488597 0-.970139.0547-1.431219.16263-.04269.0106-.07832.037-.1016.0755-.02364.0399-.03034.0861-.01905.12877l.0067.0293c.02011.0727.08608.12312.160161.12312l.02787-.002.0092-.002c.426508-.0995.874536-.14993 1.330678-.14993 1.410053 0 2.558697.47272 2.985911.67522.02223.0113.04621.0166.07126.0166.05997 0 .115006-.0328.144287-.0861l.01446-.0261c.02152-.0388.02646-.0843.01305-.12841-.01341-.0437-.0448-.0808-.08643-.1016"/><path d="m83.454989 110.85286c.325261-.0557.662517-.0843 1.001889-.0843 1.4097 0 2.557992.47272 2.986264.67627.02223.0102.04621.0159.0702.0159.06068 0 .116064-.0332.144639-.0857l.01552-.0275c.02222-.0399.02716-.0861.01411-.12806-.01305-.0444-.0441-.0811-.08678-.10231-.4318-.2092-1.579386-.69109-3.020483-.71437l.0018-.63253c1.361017.0264 2.450394.47836 2.859969.67451.02258.0106.04657.0159.07126.0159.06103 0 .115711-.0332.144991-.0857l.01552-.0258c.02187-.0402.02681-.0861.01341-.12911-.01376-.0434-.0448-.0804-.08643-.10125-.23495-.11359-1.466497-.67345-3.018014-.71226l.0018-.70167c1.353256.0275 2.445809.47836 2.8575.6738.02258.0109.04657.0162.07126.0162.06068 0 .116064-.0328.144639-.0857l.01552-.0272c.02222-.0399.02752-.0857.0134-.13017-.01376-.0441-.04515-.0794-.08608-.0988-.443441-.21484-1.636183-.71508-3.125611-.71508-.488597 0-.969786.055-1.428397.16439l-.130175.0653.0032 2.39536.535164-.11007"/><path d="m93.360637 88.467346c-.01235.0014-.03493-.000705-.04692.000353.0011.0014.04692-.000353.04692-.000353-.710495.14852-1.749778 1.5113-1.934281 1.760714-.05115.400403.01552.578203.220839.869245.215547.30233.102658.606072-.105128.956028-.150636.263525-.451556.985308-.547158 1.335264-.174625.191205-.42157.35948-.638175.424039-.0448-.02434-.0628-.156281-.0628-.156281-.341489-.503414-.96273-.444147-.96273-.444147-.670984.113947-.696737.326319-.696737.326319.143934-.01588.581025.156986.581025.156986.0018.103011.177801.198261.177801.198261-.407812-.07549-.752123.160867-.752123.160867-.6223.428978-.402872.899231-.402872.899231.0014-.369711.541514-.455789.541514-.455789.235303.215547 1.151114-.158045 1.151114-.158045l-.806097.6604c-.303389.404989-.123473.809978-.123473.809978.01235-.298097.421923-.400755.421923-.400755.273755-.02893.369005-.16757.369005-.16757.496711-.106539.534811-.617008.534811-.617008.754239-.314678 1.515887-.147109 1.515887-.147109.466725.269523.792691.480837.792691.480837l.08855-.137231c.347487-.07479.515762.347839.515762.347839.118533-.557742-.320675-.744714-.320675-.744714-.179564-.213078-.514703-.200025-.514703-.200025l-.563386-.158044c-.0046-.0074-.169334-.06068-.17392-.06879-.05009-.1397-.125236-.302331-.09948-.453672.0388-.155575.08643-.279048.142522-.396523.293864-.394052.738364-.872772.886531-1.185686.157339-.328436.265994-.856897.68968-1.082675.171803-.08678.394053-.169686.585964-.258939l.000706.0011s.0074-.0039.01834-.0099c.101953-.04798.193675-.09737.262467-.149931.344664-.185208.566561-.341841.566561-.341841-.285397-.263173-.801158-.769762-1.359958-1.652412"/><path d="m91.653545 87.879266c.518936.128411.807508.573616.859014.659694.210255-.172508.425803-.307975.621947-.348897 0 0-.554214-.930981-1.444272-.860072-.01446 0-.02999.0014-.04516.0021-.0014 0-.0028 0-.0042 0l-.000353.000706c-.453672.03104-1.27.458964-3.136195 1.678869-2.880783 1.883481-4.408311.85337-4.408311.85337-.541161 1.455914-1.414992 1.815042-1.414992 1.815042s.258234.246591.745067.480483c.01446-.01305.02646-.02399.04092-.03845.157692-.152752.357717-.371122.538339-.607836.09137-.117475.176389-.240242.252236-.358422.0755-.118533.143581-.231775.195086-.33267.05468-.09913.09525-.184502.121709-.245533.02787-.06068.04374-.09525.04374-.09525s-.0081.03704-.02187.102658c-.0127.06526-.03316.15875-.06526.269875-.02858.111831-.0702.239889-.119944.376414-.04939.136525-.10795.281164-.17392.421923-.115711.253647-.251883.4953-.37218.686858.290689.09984.631472.180622 1.021291.214136.01164-.01658.02258-.03104.03457-.04904.125588-.179917.280811-.432506.41275-.699206.06738-.132997.127352-.269875.179563-.40005.05151-.130527.09596-.255058.128059-.363361.03422-.10795.05786-.200025.07232-.264583.01588-.06491.0247-.101953.0247-.101953s-.000353.0381-.0014.104775c-.000353.06668-.0028.162631-.0127.277636-.0071.115006-.02364.249061-.04621.392642-.02258.143228-.05256.296333-.09031.446969-.05786.239889-.132998.474487-.206023.671337.395111-.0081.830087-.06773 1.302456-.19932.0078-.02258.01517-.04304.02364-.06773.0695-.208139.146756-.494242.197556-.7874.02681-.146403.04621-.29457.05891-.43427.01305-.140053.02081-.271639.02046-.38488.0025-.113242-.0011-.208139-.0053-.274109-.0032-.06668-.0049-.104775-.0049-.104775s.01023.03634.02787.100895c.01905.06421.04374.156633.06632.269522.02575.112536.04762.245533.06667.389819.01905.143934.03351.298803.03986.454378.01235.238125.0074.476956-.006.681567.311503-.1143.637117-.258586.977195-.441678.134056-.07197.263172-.143228.391231-.214136-.0011-.192969-.01305-.420158-.04127-.648053-.01693-.147814-.04163-.295275-.06985-.432858-.02858-.137583-.05962-.265995-.09243-.374297-.03105-.108656-.06209-.198262-.08537-.26035-.02223-.06279-.03493-.09878-.03493-.09878s.02011.0321.05574.08819c.03704.05644.08749.137231.14217.238831.0575.100189.117475.221192.177094.353483.06033.132292.119592.276225.170745.423334.06103.168627.11183.339372.153811.499886.408869-.232834.779286-.456495 1.107722-.670278-.02611-.202142-.07479-.46355-.147108-.723195-.03669-.135466-.08043-.269875-.126295-.394758-.04586-.124531-.09278-.240242-.138994-.33655-.04339-.09807-.08502-.177447-.115006-.232833-.02963-.05574-.04657-.08784-.04657-.08784s.02364.02752.06526.07444c.04304.04692.101952.115711.168627.201789.06879.08537.142523.189442.219428.303742.07585.1143.153459.239889.223661.369358.107245.19297.201436.394406.27552.5715.207433-.145344.392641-.284692.55245-.416983h.000353l.173213-.131234s.03034-.207786-.04798-.38735c-.04233-.102305-.08855-.20708-.140406-.31115-.06103-.126647-.129469-.250472-.197908-.364066-.06809-.113948-.136172-.219428-.198967-.3048-.06174-.08819-.117475-.159103-.157339-.207081-.03986-.04939-.06209-.07761-.06209-.07761s.02857.02258.07796.06103c.05115.0381.122414.09384.203553.166511.08361.0702.175683.159102.272344.256822.09631.09807.195087.20708.289278.321733.01446.01729.02787.03528.04233.05292 0 0 .25153.313619.249414.619125 0 0 .349602-.48895.781755-.912636-.08996-.612775-.653344-.924984-.583847-.90805"/><path d="m79.055144 82.459188c.970845.156633 2.350559-.450145 2.903361-1.078089-.08608-.170392-.356658-.237773-.51188-.214489-.735895.549628-2.303992 1.251655-3.310467.487186 0 0-.947561-.696384-.310797-1.823156 0 0 .179211.57397.510469.607836 0 0 .07444-.948266.636764-1.127125 0 0-.783167-.29845-1.407936.3302-.767645.772231-.207433 2.543175 1.490486 2.817637"/><path d="m84.906317 88.254621c.891116-.144639 1.769886.266348 1.769886.266348.277636-.978959-.11677-1.271412-.11677-1.271412-.826558.831498-1.653116 1.005064-1.653116 1.005064"/><path d="m88.116595 87.349041s.207433-.886178-.478367-1.29152c0 0-.363008.620184-.730603.92957 0 0 .264583.367594.164395.706614 0 0 .578202-.524934 1.044575-.344664"/><path d="m90.496434 85.189688s.296686-1.126773 1.347964-1.126773c0 0-.582436-.96273-1.999898-.989894-1.416755-.02787-1.520472 1.118658-1.520472 1.118658v.03281c.000706-.01517.817033-.468489 1.669345.246239 0 0 .4445.309386.503061.718961"/><path d="m81.989197 86.260368c-.08431.07408-.176742.167217-.272344.268464-.0956.1016-.193323.213078-.284339.329495-.184503.230716-.346781.475897-.455789.66428-.02399.04057-.04375.07726-.06315.111831-.0032.01023-.0071.02081-.0099.03104-.107597.357717-.188736.715434-.223309 1.050925.07796-.09208.159456-.185913.245887-.276225.10548-.11183.2159-.218016.322791-.313619.106892-.0949.208492-.180622.30092-.248003.08961-.0695.167216-.123119.22225-.159103.05468-.03704.08608-.05786.08608-.05786s-.02575.02752-.07091.07549c-.04551.04727-.108655.116064-.179564.202847-.07267.08431-.150989.188031-.231422.30092-.08008.112889-.160867.236008-.23495.363008-.150283.252236-.276225.515056-.357717.715434-.03281.07796-.05609.142169-.07585.195791.05115.235303.147814.440973.302683.603603-.0042-.01058.05009-.111478.138289-.26035.186267-.330905.392995-.643467.609953-.957792-.000705-.000352-.0011-.000705-.0011-.000705.335139-.500239.787047-1.0414.935919-1.116189 0 0-.323497-1.020939-.0127-2.0574.138289-.663575.738717-1.737078.802217-2.4638-.198614.246944-.352072.420511-.802217.480836l-.08467.2413v-.000706l-.341842.65652c.172861-.07444.344311-.133703.479425-.170392.07973-.02328.146756-.03775.194028-.04762.04657-.01023.07303-.01588.07303-.01588s-.02328.01376-.06491.03775c-.04163.02293-.100189.0575-.167217.102659-.136172.08855-.306917.218016-.462492.361597-.156633.143228-.29845.297744-.395464.418394-.01552.01905-.02787.03492-.04163.05186-.0508.09666-.104423.200025-.164748.320322-.09349.187678-.192616.396522-.293864.623005-.04657.10407-.09243.211667-.137936.321028.110773-.08819.224014-.171097.333375-.244475.119592-.08043.232834-.152047.334081-.206728.09878-.05715.183444-.09984.243769-.128058.05891-.02893.09313-.04551.09313-.04551s-.02928.02328-.08043.06526c-.05221.04057-.124883.100189-.207433.176741"/><path d="m94.410151 82.205893c-.0127-.563033.121355-1.209322.571147-1.515181.992364-.675569 3.686175-.536222 3.686175-.536222-.560917-.224366-6.092473-1.12783-8.948914 1.576564 0 0 2.615141-1.367719 4.50215.288925.06985.04445.131233.143228.189442.185914"/><path d="m93.849234 82.205893s-.688622-.430036-1.470378-.572558c-.982133-.178859-2.734733.139347-3.426884 1.269294 1.762831-.496005 2.649009.225073 3.161595.743656.124531-1.265767 1.470025-1.383595 1.735667-1.440392"/><path d="m88.41575 86.425468c.460375-1.055511 1.753306-1.001536 1.753306-1.001536.0039-.195791-.363008-.79763-1.160992-.981428-.881944-.203552-1.273175 1.199445-1.273175 1.199445.611717.104422.680861.783519.680861.783519"/><path d="m82.897247 88.057771c-.181328.05292-.329847.297392-.329847.297392-.500239.662164-.820914 1.177925-1.303514 2.020006-.601486.97155-1.185686 2.377016-1.956506 3.113264-.06844.06421-.09737.104069-.206375.142522-.109008.03916-.239536-.155222-.239536-.155222-.341842-.503414-.962731-.4445-.962731-.4445-.670983.1143-.697088.326672-.697088.326672.144286-.01588.581377.156281.581377.156281.0014.103363.177448.198966.177448.198966-.407459-.07549-.75177.160514-.75177.160514-.6223.428978-.402872.899231-.402872.899231.0011-.369359.541514-.455436.541514-.455436.235303.215547 1.151114-.158045 1.151114-.158045l-.806098.6604c-.303388.404989-.123472.809625-.123472.809625.01235-.298097.421217-.400403.421217-.400403.274461-.02893.369711-.167922.369711-.167922.496358-.105833.534811-.617008.534811-.617008.753534-.314678 1.515886-.147109 1.515886-.147109.466725.269523.792692.480484.792692.480484l.08855-.136878c.347486-.07444.515761.347839.515761.347839.118534-.557389-.321027-.744361-.321027-.744361-.179211-.212725-.514703-.200025-.514703-.200025l-.513292-.144286c-.04057-.06385-.07832-.134056-.109008-.219428-.06209-.455789.267758-.885825.488244-1.230136.676628-.7366 1.726848-1.032228 2.217209-1.567745.43568-.48895.87383-1.256242.801864-2.241903-.02928-.42545-.784931-.624769-.959556-.582789"/><path d="m77.398852 85.167463c.314678.754239.147109 1.515886.147109 1.515886-.269875.467078-.480836.793044-.480836.793044l.13723.08819c.07408.347839-.347839.515761-.347839.515761.557742.118533.744361-.320675.744361-.320675.212725-.179564.200378-.514703.200378-.514703l.143933-.513291c.06385-.04092.133703-.07867.219781-.109009.276578-.144991.509411.02152.684742.176389.06421.06068.129116.121356.191558.188736.376767.342195.535517.863247.807508 1.27247l-.0011.0028.395817.630767c.02046-.384881.110419-.806803.237066-1.22802.06809-.225425.145698-.448733.228953-.667808h-.326983c-.01658-.0025-.03422-.0025-.05362 0-.457553-.117475-.814917-.540103-1.244953-.902053-.13335-.123825-.45473-.360892-.715433-.549628-.07585-.05433-.115711-.06315-.15487-.172155-.0388-.109009.155928-.239889.155928-.239889.502709-.341489.443795-.962731.443795-.962731-.113948-.670983-.32632-.696736-.32632-.696736.01623.144286-.156633.581025-.156633.581025-.103011.0018-.198261.1778-.198261.1778.07514-.407458-.160867-.75177-.160867-.75177-.429331-.622652-.899583-.402872-.899583-.402872.369711.0011.456141.541514.456141.541514-.215547.235656.157692 1.151114.157692 1.151114l-.6604-.806097c-.404989-.303742-.809978-.123825-.809978-.123825.298097.01235.400403.421922.400403.421922.02928.273756.168275.369358.168275.369358.106186.496359.617008.534459.617008.534459"/><path d="m86.406681 86.874907.000705.000353c.706614-.590903 1.295753-2.025297 1.465439-2.5908 2.026356-6.744759 11.162595-4.318706 11.162595-4.318706-2.812697-1.089025-5.647267-.725311-5.647267-.725311s-4.216753.20955-5.767917 3.692172c-.929569 2.085623-1.399469 2.804937-1.596672 3.033184-.000353 0-.000353-.000706-.000706-.0011-1.081616 1.142647-2.075744 1.032933-2.075744 1.032933 1.042105-.297392 1.565275-1.054453 1.701094-1.279878 0 0 .135114-.216253.142875-.293864-.09102.01376-.332316.08396-.439914.08537-.324555.01235-.614538-.261408-.67945-.63888-.239183.258586-.410633.553508-.410633.553508.03246-.360539.294922-.740833.487186-.974725.04516-.06668.103011-.129469.162631-.185561.02611-.02716.04233-.04339.04233-.04339l.0018.0032c.131233-.115711.256822-.193675.256822-.193675s-.487891-.286455-.511175-.800452c-.272344.248002-.479072.554213-.479072.554213.06279-.3937.403931-.791986.611364-1.002241.173567-.229306.455083-.302331.455083-.302331s-.519994-.104422-.43568-.998361c-.205317.214489-.34925.427567-.34925.427567.05115-.322439.289983-.648053.488244-.870656.164395-.269522.410281-.363714.410281-.363714-.0508-.03598-.09701-.07514-.140406-.117122-.05327-.0448-.116769-.100189-.186972-.166511-.09701-.09349-.206022-.208139-.308681-.3429-.100541-.136525-.200025-.292453-.250472-.471311-.02752-.08749-.03916-.181681-.03351-.27305.0025-.09172.0314-.179212.06738-.25647.03916-.0762.08714-.144286.142522-.198261.05186-.05786.111125-.100894.164394-.140758.109362-.0762.208492-.126648.278695-.158045.0702-.03175.110419-.04974.110419-.04974s-.03881.02011-.106891.05609c-.06773.03634-.10795.05997-.210609.141464-.04974.04233-.104422.08784-.14993.145697-.05045.05503-.09031.122061-.122414.194381-.02822.07303-.04904.152753-.04586.23495 0 .0822.01587.164747.04586.243417.08008.212725.155222.376061.299861.521405-.05786-.176741-.06385-.321028-.04304-.522464.05574-.635.988131-1.035403.988131-1.035403s-.107245-.130175-.340078-.155927c0 0-.653697-.169686-2.021064.72778-.686858-.391583-1.712736-.204964-2.382661.452261 0 0-.884414-.418041-2.004837.631473l1.117953.324908c.330906.165806.386645.219428.383823.629003.504825-.318911.941211-.260703 1.317977-.08079.222956.110419.696737.430036.540103 1.059744-.05151.09031-.106539.176389-.176389.248003-.445205.477661-1.13418.506942-1.685219.563739-.184503.02787-.366536.376061-.446617.562681l.155928-.03704c.853017-.248708 1.51765.261055 2.361847-.09102.672747-.398286.886531-.871008.879122-1.688747-.09701-1.210028-.540102-1.514475-.712963-1.569861-.350309-.08784-.570089.280458-.765176.160866-.234597-.144286-.144286-.511175-.144286-.511175.232481-.09207.69462.05256.882298.123825.248708.128411.890411.443089 1.0033 1.839737.05256.428625.03845.742597.03422 1.261886-.134055 1.518003-.767644 1.963208-.899583 3.592689.0254.932392.108303 1.087967.301978 1.242483.357716.286456 1.499305.206022 2.030589-.07514.403577-.213431.763058-.499534 1.076325-.815623"/><path d="m84.205347 89.568366c.000706-.0018.0018-.0042.0035-.0085-.0018.0035-.0028.006-.0035.0085"/><path d="m84.205347 89.568366c-.0014.0042-.0014.0035 0 0"/><path d="m84.208875 89.559899c.0028-.0063.0053-.01341.0071-.01729-.0028.0067-.0049.01305-.0071.01729"/><path d="m101.53344 92.774763c-.25718-.07161-.51259.130881-.51259.130881l-.52705.193675c-.0296.02787-.40816-.03563-.44344-.0095-.09489-.229659-.198965-.558447-.344309-1.178278l-.0011-.0053c-.02081-.08855-.04198-.182739-.06456-.28328h-.0021l-.120976-.513662-.113595-.941916s-.0071-.02469-.01905-.06456c-.160866-.747183-.450144-1.10878-.472369-1.144764l-.000353.0011c-.825147-1.325387-2.553758-1.907823-2.573514-1.911351.07726.01482 1.585031.260703 2.526595 1.362781.432505-.0949.84843-.250825 1.266471-.484364 1.78611-.999772 2.82716-3.653014 1.37266-5.468409-1.43581-1.792111-4.314473-.973666-4.629151.649464-.255764 1.3208.742245 2.019301.742245 2.019301-.239537-.848078.8509-1.77412.8509-1.77412-.310092-.377119-1.152525-.09172-1.152525-.09172.851605-1.77412 2.465211-1.222728 2.465211-1.222728 2.45181.941917 1.91029 4.006497-.333022 4.841522-.733073.272698-1.479551.170039-2.140656-.08572-.966259-.486127-.507295-1.948039-.507295-1.948039s-.468841.559506-1.055158.519642c-.000706 0-.000706-.000353-.0014-.000353.05221.334081.235303.69215.235303.69215-.330906-.261408-.488245-.94368-.488245-.94368h.000706c-.153811-.376414-.13582-1.019881-.195086-.821973-.08572.28187-.31362.750359-1.006475.806803-.0063.000706-.01235-.0014-.01834-.0011.125236.255058.297039.471664.297039.471664-.241653-.12312-.447322-.431095-.563386-.635-.218017-.304095-.294922-.922514-.294922-.922514-.494948.918986-1.914525 1.116189-2.458509 1.148292-.826558-.09948-.607836.998361-.607836.998361-.298803-.157692-.367242-.372534-.751417-.37712-.174977-.0092-.525286.08925-.679097.208845-.433917.261761-.769408.698147-.809978 1.843969-.413808-.33408-.835025-.1397-1.253067.168628 0 0-.105127.593372-.430741.886531-.521406-.284692-1.105959-.393347-1.237898-.397581h.0021s-.472722-.05856-1.180394.02963c0 0 .102305.559152-.08608 1.018469 1.063272.710142 2.747786-.03669 3.681589-.562328 1.064683-.586316 2.064456-1.432278 3.182761-1.862314.56127-.252589 1.156406-.150283 1.632303.179564.681214.473428 1.455914 1.793522 2.270125 2.584097.04586.0448.536575.706614 2.232025.788812 0 0 .889353-.01729 1.552928 1.036108.03069.05045.06174.10407.09384.160867.02364.04304.04798.08361.07091.129822.156633.295981.319969.669219.447322 1.139472-.0187.130175-.04198.271639-.07973.394406-.01976.06914-.04621.125236-.07514.175683-.000705 0-.0018 0-.0021 0-.0187.113947-.1651-.05433-.1651-.05433-.542925-.216252-.996598.188031-.996598.188031-.462844.478014-.366536.66675-.366536.66675.103717-.0956.540103-.204611.540103-.204611.05786.08361.24765.06103.24765.06103-.359833.171803-.500239.562681-.500239.562681-.252589.708378.176742.968022.176742.968022-.201084-.304094.174272-.684036.174272-.684036.302683.04163.814917-.789164.814917-.789164l-.269875 1.0033c-.01588.505531.34678.734484.34678.734484-.153811-.251531.11042-.570089.11042-.570089.198614-.180622.197555-.34925.197555-.34925.3302-.371828.08043-.812095.08043-.812095-.04621-.609953 1.10596-.989189 1.10596-.989189.51258-.04692.87736-.223661.87736-.223661.23177-.26035.59407-.01023.59407-.01023-.21237-.524934-.65828-.426509-.65828-.426509"/><path d="m106.52207 98.3864-.048.01658c-.56021.371828-4.54871 2.65818-14.694603-.311503-12.359923-3.618794-19.897021 2.603853-19.897021 2.603853l.09772.0233c1.108075-.57855 8.673748-4.242502 20.062121-.91228 11.010903 3.22333 14.479763-1.41993 14.479763-1.41993"/><path d="m89.197859 134.23639s19.702291-5.03309 22.121281-20.86117l-.0903.10548c-1.77024 11.53196-22.030971 17.83433-22.030971 17.83433h.0092s-20.261088-6.30237-22.030974-17.83433l-.08996-.10548c2.418292 15.82808 22.120932 20.86117 22.120932 20.86117"/><path d="m89.19292 75.411393c7.47642 0 19.81447 3.149953 20.94477 5.240161.55457.861836 1.00789 5.34035 1.09784 6.129867l.0928.137936s.21343-4.551186.13617-5.9309c-.15911-2.854325-10.21786-7.936795-22.27157-7.936795h.01905c-12.053712 0-22.112466 5.08247-22.271568 7.936795-.07726 1.379714.136172 5.9309.136172 5.9309l.09278-.137936c.08996-.789517.543278-5.268031 1.097845-6.129867 1.129947-2.090208 13.468351-5.240161 20.944771-5.240161"/></g></svg>